<?xml version="1.0" encoding="UTF-8"?>
<svg width="209px" height="221px" viewBox="0 0 209 221" version="1.1" xmlns="http://www.w3.org/2000/svg" xmlns:xlink="http://www.w3.org/1999/xlink">
    <!-- Generator: sketchtool 59.1 (101010) - https://sketch.com -->
    <title>67E5F12D-1CCC-4652-A7E9-EEC7B69F3122</title>
    <desc>Created with sketchtool.</desc>
    <g id="Splash-Page" stroke="none" stroke-width="1" fill="none" fill-rule="evenodd">
        <g transform="translate(-547.000000, -578.000000)" fill="#007AFF" id="Banner">
            <g>
                <g id="BG">
                    <g id="Group-Copy-2" transform="translate(547.000000, 577.000000)">
                        <path d="M6.21869309,60.6823647 C5.21813578,59.7341354 3.631287,59.7797908 2.68690134,60.7842115 C1.73198349,61.7886322 1.78113367,63.3690144 2.78169098,64.3172437 C3.78575901,65.265473 5.36909706,65.2198175 6.32050418,64.2189088 C7.26488985,63.2109762 7.21925039,61.630594 6.21869309,60.6823647" id="Fill-125"></path>
                        <path d="M17.2148596,48.6783229 C16.2214015,47.7338102 14.6311665,47.782967 13.6798339,48.7801477 C12.7355222,49.787862 12.7811581,51.3749243 13.7781266,52.319437 C14.7891369,53.2674609 16.3688405,53.2183041 17.3166627,52.214101 C18.2644849,51.2134091 18.2223595,49.629858 17.2148596,48.6783229" id="Fill-127"></path>
                        <path d="M30.217606,35.684605 C29.2167759,34.7367817 27.6365178,34.7753968 26.6813396,35.7864082 C25.7366964,36.7798674 25.7788366,38.3701043 26.7796667,39.3179275 C27.7875202,40.2657508 29.37129,40.2201149 30.3159332,39.2161243 C31.2675997,38.2121337 31.2184361,36.6324283 30.217606,35.684605" id="Fill-129"></path>
                        <path d="M42.2185864,22.6833179 C41.2182634,21.7360669 39.6317862,21.7781669 38.6806019,22.7815514 C37.7364374,23.7884441 37.7785562,25.3671959 38.7823892,26.3109386 C39.789732,27.2687147 41.3691894,27.219598 42.3133539,26.2162135 C43.2645382,25.2163374 43.2224193,23.630569 42.2185864,22.6833179" id="Fill-131"></path>
                        <path d="M55.21952,9.68163402 C54.2082341,8.73442004 52.6280999,8.78002664 51.676508,9.78337181 C50.7389617,10.7902252 50.7775872,12.3724234 51.7818503,13.3126209 C52.7896248,14.2703595 54.3662476,14.2177365 55.3143281,13.2143913 C56.26592,12.2180626 56.2202717,10.6358644 55.21952,9.68163402" id="Fill-133"></path>
                        <path d="M64.3655,1.80596223 C63.7805,1.60796223 63.1985,1.40096223 62.6345,1.18196223 C62.6525,1.20296223 62.6705,1.22696223 62.6885,1.24496223 C63.1595,1.68596223 63.7685,1.86896223 64.3655,1.80596223" id="Fill-135"></path>
                        <path d="M4.21866843,83.6841795 C3.21118937,82.7335711 1.63502876,82.7791723 0.683715788,83.7859051 C-0.264086807,84.7821147 -0.221962247,86.3676312 0.782006427,87.3217474 C1.78948548,88.268848 3.36915647,88.2162313 4.32046945,87.2130062 C5.26827204,86.2203044 5.21561634,84.6312801 4.21866843,83.6841795" id="Fill-137"></path>
                        <path d="M16.2205174,71.6827695 C15.2087583,70.7345218 13.6349109,70.7801782 12.6828738,71.7811063 C11.7378627,72.7890585 11.7765063,74.3659593 12.7812392,75.3177191 C13.7824591,76.2624547 15.3668457,76.2238224 16.3153698,75.2158702 C17.2638939,74.2114301 17.2217373,72.6310172 16.2205174,71.6827695" id="Fill-139"></path>
                        <path d="M29.2219883,58.6856994 C28.2113943,57.7381164 26.6358503,57.7732121 25.6814005,58.7874768 C24.7339687,59.780684 24.7795858,61.3705176 25.7866707,62.3181005 C26.7832286,63.2656834 28.3728086,63.220059 29.3132224,62.2163231 C30.2606543,61.2125871 30.2255642,59.6297727 29.2219883,58.6856994" id="Fill-141"></path>
                        <path d="M41.2174129,45.6825948 C40.2091858,44.7318919 38.6318549,44.7810057 37.6833485,45.7878386 C36.7348422,46.780639 36.780511,48.3698213 37.7781992,49.3170161 C38.7864263,50.2677189 40.3672702,50.2186051 41.3157765,49.2152803 C42.2642829,48.2119555 42.2221271,46.6332976 41.2174129,45.6825948" id="Fill-143"></path>
                        <path d="M53.2200238,33.6828738 C52.2087592,32.7378627 50.6286583,32.7765063 49.673575,33.7812392 C48.7360485,34.7894852 48.7816959,36.3668457 49.7824264,37.3153698 C50.7866684,38.2638939 52.3667693,38.2217373 53.3113185,37.2205174 C54.2664017,36.2122714 54.2207544,34.6278848 53.2200238,33.6828738" id="Fill-145"></path>
                        <path d="M64.2173677,20.6883884 C63.2132228,19.7337116 61.6332745,19.7793396 60.6782836,20.7796442 C59.7338256,21.7834587 59.7829796,23.3699068 60.7801025,24.3175639 C61.7877584,25.2652209 63.3677066,25.2231028 64.3191866,24.2087588 C65.2636445,23.211964 65.2215126,21.6290257 64.2173677,20.6883884" id="Fill-147"></path>
                        <path d="M77.2137094,6.68412471 C76.2170113,5.7369664 74.6342266,5.77555433 73.6831519,6.78585653 C72.7355868,7.79265073 72.7777008,9.36773993 73.7849275,10.3148982 C74.7921541,11.2690725 76.3749388,11.2164526 77.3154849,10.2201824 C78.2665595,9.21689619 78.220936,7.63128302 77.2137094,6.68412471" id="Fill-149"></path>
                        <path d="M4.13283127,110.221024 C5.33786846,109.225756 5.27984815,107.632622 4.00340135,106.683072 C2.88762617,105.849579 1.2139634,105.789792 0,106.443927 C0.482014878,107.938588 0.977419058,109.447317 1.45943394,110.984181 C2.41900059,111.068585 3.41873515,110.815372 4.13283127,110.221024" id="Fill-151"></path>
                        <path d="M16.218757,94.6823647 C15.2106285,93.7341354 13.6299391,93.7797908 12.6815255,94.7842115 C11.7366245,95.7886322 11.7787762,97.3690144 12.7798795,98.3172437 C13.788008,99.265473 15.3686974,99.2198175 16.317111,98.2189088 C17.2655246,97.2109762 17.2198602,95.630594 16.218757,94.6823647" id="Fill-153"></path>
                        <path d="M28.2212918,81.6829672 C27.2140476,80.7317456 25.6382543,80.7808862 24.6801439,81.7882685 C23.7360718,82.7816106 23.7781866,84.3716599 24.7854308,85.3193714 C25.7891655,86.2635729 27.3719779,86.2214524 28.31605,85.2175802 C29.2636317,84.213708 29.221517,82.6341888 28.2212918,81.6829672" id="Fill-155"></path>
                        <path d="M39.2187843,68.6827695 C38.2116966,67.7345218 36.6361482,67.7801782 35.6816958,68.7811063 C34.7377704,69.7785224 34.7763695,71.3589353 35.7834573,72.3177191 C36.787036,73.2624547 38.3696024,73.2238224 39.3135278,72.2158702 C40.2644712,71.2114301 40.222363,69.6310172 39.2187843,68.6827695" id="Fill-157"></path>
                        <path d="M52.2208474,55.6812428 C51.2131509,54.7340303 49.6331389,54.7796368 48.6851317,55.7864886 C47.7371245,56.786324 47.7757471,58.3720279 48.7834436,59.3192404 C49.7911401,60.2664529 51.3711521,60.2173382 52.3156482,59.221011 C53.2671665,58.2176674 53.2180106,56.6284553 52.2208474,55.6812428" id="Fill-159"></path>
                        <path d="M64.2227115,43.6845468 C63.2121554,42.7339718 61.6331614,42.7795714 60.6787473,43.7827612 C59.7348598,44.785951 59.7804752,46.3643965 60.7840135,47.3114638 C61.7910608,48.269054 63.3700548,48.2199468 64.3174511,47.2132494 C65.2648475,46.2100596 65.2192321,44.6281064 64.2227115,43.6845468" id="Fill-161"></path>
                        <path d="M76.2195783,30.688249 C75.2125097,29.7332193 73.6299732,29.7788641 72.6860656,30.7830497 C71.7351401,31.7907465 71.7772475,33.3672478 72.7843162,34.3187664 C73.7878759,35.2632627 75.3704124,35.221129 76.3178289,34.2204545 C77.2652455,33.2092466 77.2196291,31.6292342 76.2195783,30.688249" id="Fill-163"></path>
                        <path d="M87.2149819,17.6819923 C86.211149,16.7342804 84.6281816,16.779911 83.684017,17.7837836 C82.7363425,18.7841462 82.7784614,20.3671761 83.7787844,21.3183981 C84.7861273,22.26611 86.3690947,22.2204794 87.3167692,21.2130967 C88.2644437,20.2162442 88.2223248,18.6297043 87.2149819,17.6819923" id="Fill-165"></path>
                        <path d="M100,8.51393333 C98.9990412,8.34293333 97.9980825,8.16893333 97,8.00693333 C97.0920422,8.15093333 97.1927133,8.29193333 97.3192713,8.41493333 C98.0699904,9.15593333 99.2205177,9.17993333 100,8.51393333" id="Fill-167"></path>
                        <path d="M14.2204374,117.682192 C13.2086975,116.734203 11.6348799,116.779847 10.6828608,117.784013 C9.73786768,118.788179 9.77651052,120.368161 10.7812244,121.312639 C11.7894513,122.26765 13.3702948,122.218495 14.315288,121.221351 C15.2673071,120.210163 15.2181253,118.630181 14.2204374,117.682192" id="Fill-169"></path>
                        <path d="M26.215727,104.683489 C25.2182522,103.735334 23.6307217,103.780986 22.6824181,104.774792 C21.7341145,105.782645 21.7797736,107.369926 22.784273,108.31808 C23.7852601,109.266234 25.3692783,109.220582 26.3175819,108.212729 C27.2658855,107.2119 27.2202264,105.631643 26.215727,104.683489" id="Fill-171"></path>
                        <path d="M39.2145224,91.6796156 C38.2101017,90.7350635 36.6367435,90.780711 35.6814903,91.7814446 C34.7332611,92.778667 34.7824285,94.3693068 35.7798252,95.3103476 C36.7877578,96.2689451 38.3681399,96.2197863 39.3163692,95.2155413 C40.2645985,94.2112962 40.222455,92.6311904 39.2145224,91.6796156" id="Fill-173"></path>
                        <path d="M51.2187651,79.6776393 C50.2142875,78.7408246 48.6267914,78.7759113 47.6785083,79.7793907 C46.7337375,80.78287 46.7829077,82.3687885 47.780361,83.3196378 C48.7883507,84.2634698 50.3688225,84.2213658 51.3171055,83.2178864 C52.2689007,82.214407 52.2162183,80.6284886 51.2187651,79.6776393" id="Fill-175"></path>
                        <path d="M62.2154556,66.679465 C61.2151138,65.738498 59.6321168,65.7771198 58.6809146,66.781286 C57.7402423,67.7854523 57.775342,69.3759673 58.7791938,70.3134232 C59.7900655,71.2684344 61.3695525,71.2192794 62.3137347,70.2151132 C63.2649369,69.2074359 63.2228173,67.6309652 62.2154556,66.679465" id="Fill-177"></path>
                        <path d="M75.2123825,53.6815403 C74.208587,52.7344566 72.6326982,52.7800569 71.6850591,53.7832641 C70.7304005,54.7829636 70.7830471,56.3649442 71.7833328,57.3155357 C72.7836185,58.2626194 74.3700366,58.2240345 75.3141659,57.2173196 C76.2653148,56.2070969 76.2231975,54.628624 75.2123825,53.6815403" id="Fill-179"></path>
                        <path d="M87.2166743,41.6823647 C86.2168961,40.7341354 84.631283,40.7797908 83.6841247,41.7842115 C82.7369664,42.7816083 82.7755543,44.3690144 83.7858565,45.3172437 C84.7856347,46.265473 86.3677398,46.2198175 87.3184061,45.2189088 C88.2655643,44.2180001 88.2199604,42.630594 87.2166743,41.6823647" id="Fill-181"></path>
                        <path d="M99.2188767,27.6832574 C98.2185545,26.735546 96.6285687,26.7776665 95.6879148,27.7850487 C94.7367313,28.7783907 94.7753402,30.3684398 95.7826822,31.3196613 C96.7900242,32.2673728 98.3694803,32.2182322 99.3206638,31.21436 C100.264828,30.217508 100.219199,28.6309689 99.2188767,27.6832574" id="Fill-183"></path>
                        <path d="M111.217566,15.6845308 C110.213674,14.7366913 108.630615,14.7788175 107.679376,15.7758043 C106.735157,16.7833226 106.780788,18.3700762 107.781169,19.3179158 C108.78857,20.2657554 110.368119,20.2201186 111.319359,19.2161108 C112.263578,18.212103 112.221457,16.6288599 111.217566,15.6845308" id="Fill-185"></path>
                        <path d="M13.252476,145.22167 C14.2933459,144.227203 14.2391742,142.635353 13.1402632,141.686569 C12.029744,140.737784 10.2846424,140.772925 9.24764191,141.788475 C9.14703739,141.872812 9.0773881,141.974718 9,142.076625 C9.46432859,143.369783 9.93252658,144.645371 10.4278104,145.882305 C11.3951616,146.159912 12.5056808,145.949071 13.252476,145.22167" id="Fill-187"></path>
                        <path d="M26.2234817,129.682418 C25.2151562,128.734115 23.6306448,128.779774 22.6855593,129.784273 C21.7369605,130.788772 21.7756071,132.369278 22.7839325,133.317582 C23.7887446,134.265885 25.3697427,134.220226 26.3148282,133.215727 C27.2669404,132.211228 27.2177538,130.630722 26.2234817,129.682418" id="Fill-189"></path>
                        <path d="M37.2135104,115.680047 C36.21656,114.731524 34.636885,114.78422 33.6820593,115.781925 C32.7342543,116.79017 32.7798894,118.367528 33.7838606,119.323077 C34.7843214,120.264573 36.3710171,120.218904 37.3153116,119.217685 C38.266627,118.216467 38.2209919,116.632083 37.2135104,115.680047" id="Fill-191"></path>
                        <path d="M49.2173366,103.686293 C48.2160378,102.735052 46.6350397,102.777174 45.6829276,103.784576 C44.7378421,104.788468 44.7764887,106.371528 45.7813008,107.322769 C46.7861129,108.263478 48.3741376,108.221357 49.3157098,107.213955 C50.2643087,106.210063 50.2221487,104.630513 49.2173366,103.686293" id="Fill-193"></path>
                        <path d="M62.2178246,90.6848752 C61.2136389,89.7333003 59.6406488,89.7789478 58.685619,90.7867042 C57.7341005,91.7909493 57.7797453,93.3675439 58.7804198,94.3156075 C59.7881166,95.2671824 61.3751513,95.2180235 62.3161364,94.2208011 C63.2641439,93.2130447 63.2220102,91.6329387 62.2178246,90.6848752" id="Fill-195"></path>
                        <path d="M74.2195182,76.6820842 C73.2123719,75.7342446 71.6332226,75.7798814 70.6787146,76.7838892 C69.7382435,77.787897 69.7768449,79.3746507 70.7839912,80.3154692 C71.7876283,81.2633087 73.3702868,81.2211825 74.3177763,80.2241957 C75.2652659,79.2166774 75.219646,77.6299238 74.2195182,76.6820842" id="Fill-197"></path>
                        <path d="M87.2102495,63.6819853 C86.2125008,62.7348268 84.631561,62.7804307 83.6829972,63.7802091 C82.7344333,64.7870036 82.7801049,66.3656011 83.7813668,67.3162676 C84.7861418,68.2634262 86.3705948,68.2248382 87.3121322,67.2110278 C88.2677225,66.2077414 88.2220509,64.6291438 87.2102495,63.6819853" id="Fill-199"></path>
                        <path d="M98.2176032,50.6823344 C97.213888,49.7375247 95.6311064,49.77616 94.6835431,50.7841912 C93.7359799,51.7816854 93.7780938,53.3692467 94.781809,54.3175686 C95.7925431,55.2658906 97.3718152,55.2202307 98.3193785,54.2157118 C99.2669418,53.2182176 99.2178089,51.6306564 98.2176032,50.6823344" id="Fill-201"></path>
                        <path d="M109.221018,38.6854381 C108.216931,37.7314679 106.630052,37.7805693 105.682138,38.7871481 C104.734224,39.7902197 104.779864,41.3719863 105.783951,42.318942 C106.788038,43.2658976 108.374917,43.2203035 109.31581,42.2137247 C110.263724,41.2106531 110.221595,39.635901 109.221018,38.6854381" id="Fill-203"></path>
                        <path d="M122.215127,25.6822372 C121.211607,24.7348564 119.63615,24.7769622 118.681753,25.7910106 C117.734374,26.784006 117.779988,28.3629741 118.783509,29.3138637 C119.794047,30.2682622 121.373012,30.2191387 122.316883,29.2156168 C123.267771,28.2156037 123.218648,26.6331269 122.215127,25.6822372" id="Fill-205"></path>
                        <path d="M133,15.8618731 C132,15.4778731 130.997191,15.1148731 130,14.7728731 C130.098315,15.0998731 130.255618,15.3938731 130.505618,15.6488731 C131.202247,16.3418731 132.238764,16.4108731 133,15.8618731" id="Fill-207"></path>
                        <path d="M23.221591,152.687972 C22.2100903,151.733873 20.6296203,151.779473 19.6813383,152.779173 C18.7400806,153.78238 18.7752022,155.371376 19.7796787,156.31846 C20.7911795,157.265543 22.3716494,157.219943 23.3199314,156.216736 C24.2611891,155.213529 24.2225554,153.635056 23.221591,152.687972" id="Fill-209"></path>
                        <path d="M37.215299,138.690237 C36.2102513,137.733133 34.6359109,137.778709 33.6800614,138.78139 C32.7382685,139.794587 32.7769242,141.372231 33.7819718,142.318818 C34.7870195,143.265404 36.3683882,143.219828 37.3172094,142.217147 C38.2660306,141.214467 38.2203466,139.636823 37.215299,138.690237" id="Fill-211"></path>
                        <path d="M48.2186628,127.679959 C47.2120458,126.731696 45.6407414,126.780865 44.6797203,127.792345 C43.7362362,128.786265 43.7783247,130.377239 44.7849416,131.325502 C45.7880512,132.263229 47.3663704,132.217571 48.3168693,131.223652 C49.2638608,130.219196 49.2217723,128.628221 48.2186628,127.679959" id="Fill-213"></path>
                        <path d="M61.2185863,113.679167 C60.2118709,112.73133 58.6333972,112.783988 57.6828052,113.784482 C56.735721,114.788487 56.7778137,116.364705 57.7845291,117.323074 C58.7877368,118.2674 60.3697182,118.214742 61.3168024,117.221269 C62.2638866,116.213753 62.221794,114.634025 61.2185863,113.679167" id="Fill-215"></path>
                        <path d="M72.2201975,100.680571 C71.2134227,99.7332114 69.634856,99.778825 68.684208,100.792851 C67.7335601,101.785824 67.7791631,103.371775 68.7859379,104.319135 C69.7856968,105.266494 71.3712794,105.217372 72.3149115,104.22089 C73.2690673,103.21739 73.2164485,101.63144 72.2201975,100.680571" id="Fill-217"></path>
                        <path d="M85.2229237,88.6820188 C84.2091355,87.7342701 82.6340805,87.7799025 81.6799269,88.783814 C80.7327891,89.7877255 80.7818999,91.3673065 81.7851644,92.3150551 C82.7849209,93.2628038 84.3704997,93.2241918 85.3176374,92.2167701 C86.2647752,91.2093484 86.2191723,89.6297674 85.2229237,88.6820188" id="Fill-219"></path>
                        <path d="M97.2150715,75.6801705 C96.2107283,74.7360615 94.6304681,74.7781779 93.682312,75.7854614 C92.7341559,76.7892352 92.7798078,78.3721093 93.784151,79.3197279 C94.7849825,80.2673466 96.3687544,80.2182108 97.3133988,79.214437 C98.2650666,78.2176826 98.2229264,76.6277891 97.2150715,75.6801705" id="Fill-221"></path>
                        <path d="M109.214644,62.6827563 C108.213891,61.734527 106.630243,61.7801825 105.685673,62.7810912 C104.73408,63.7819999 104.779728,65.369406 105.780481,66.3176353 C106.784746,67.2658646 108.368394,67.2202092 109.316475,66.2157885 C110.264557,65.2113678 110.22242,63.6309856 109.214644,62.6827563" id="Fill-223"></path>
                        <path d="M121.218784,50.6875125 C120.211697,49.7335048 118.632639,49.7791007 117.681696,50.7822118 C116.73777,51.7923376 116.77637,53.3741665 117.783457,54.3141447 C118.787036,55.2681523 120.369602,55.219049 121.313528,54.215938 C122.264471,53.212827 122.222363,51.6274906 121.218784,50.6875125" id="Fill-225"></path>
                        <path d="M132.219013,36.6882818 C131.215727,35.7303749 129.633623,35.7830071 128.682957,36.779511 C127.732292,37.7830326 127.781403,39.3725265 128.784689,40.3163982 C129.791482,41.2672874 131.370079,41.2216728 132.313728,40.2076248 C133.264394,39.2146297 133.222298,37.6321535 132.219013,36.6882818" id="Fill-227"></path>
                        <path d="M146.212346,23.6814352 C145.215648,22.737327 143.632864,22.7759337 142.68179,23.7867261 C141.737734,24.7869894 141.776339,26.3663526 142.783565,27.3209899 C143.783772,28.2686078 145.363047,28.2159623 146.314121,27.215699 C147.268705,26.2154357 147.219572,24.6395822 146.212346,23.6814352" id="Fill-229"></path>
                        <path d="M35.2123018,162.681712 C34.2116898,161.73439 32.631776,161.780001 31.676806,162.783462 C30.7393905,163.793939 30.7780106,165.376318 31.7786226,166.323641 C32.7897674,167.260437 34.3696812,167.221843 35.3211403,166.221891 C36.2690886,165.218431 36.2164248,163.629035 35.2123018,162.681712" id="Fill-231"></path>
                        <path d="M47.2138384,149.690398 C46.2104152,148.733071 44.6386193,148.778658 43.6843147,149.781572 C42.7335185,150.784486 42.7791287,152.362498 43.7860604,153.319826 C44.7929921,154.266633 46.3682964,154.221046 47.3155841,153.207612 C48.2698888,152.215217 48.2172617,150.637205 47.2138384,149.690398" id="Fill-233"></path>
                        <path d="M60.2143838,136.676272 C59.209786,135.734465 57.6361503,135.783664 56.6842412,136.778184 C55.7323321,137.783248 55.7815082,139.375184 56.7825934,140.313478 C57.7836787,141.262314 59.3748773,141.223657 60.3162486,140.222108 C61.2646452,139.217045 61.2224942,137.632137 60.2143838,136.676272" id="Fill-235"></path>
                        <path d="M71.217901,123.68329 C70.2138135,122.732161 68.6304447,122.781297 67.6825298,123.785071 C66.734615,124.788845 66.7802554,126.37172 67.7808321,127.319339 C68.7884305,128.266957 70.3682885,128.217822 71.3162033,127.217557 C72.2641181,126.224312 72.2219885,124.630909 71.217901,123.68329" id="Fill-237"></path>
                        <path d="M84.2183734,111.681872 C83.2142669,110.734327 81.6308682,110.77995 80.6794246,111.783646 C79.7385136,112.787341 79.7771331,114.370092 80.7812396,115.317637 C81.788857,116.268691 83.3722557,116.21605 84.3131667,115.219373 C85.2646103,114.208659 85.22248,112.632927 84.2183734,111.681872" id="Fill-239"></path>
                        <path d="M96.2168122,98.6833382 C95.2137026,97.7355147 93.631876,97.7776402 92.6813771,98.7851415 C91.7378929,99.7856219 91.7764741,101.368838 92.783091,102.316662 C93.7862006,103.264485 95.3715345,103.22236 96.3185261,102.214858 C97.2655176,101.210868 97.2199217,99.6311618 96.2168122,98.6833382" id="Fill-241"></path>
                        <path d="M109.214299,85.680556 C108.217368,84.7330839 106.634215,84.7822121 105.682919,85.7823215 C104.735134,86.7824309 104.777257,88.361551 105.788229,89.3160413 C106.785159,90.2635134 108.375333,90.2249127 109.319608,89.2107667 C110.267394,88.2071481 110.218249,86.6245189 109.214299,85.680556" id="Fill-243"></path>
                        <path d="M119.213147,72.6893325 C118.216489,71.7317252 116.630259,71.7808332 115.682733,72.7805332 C114.735206,73.7907564 114.777318,75.3727378 115.788013,76.319822 C116.78818,77.2633985 118.367392,77.2213058 119.318428,76.2180981 C120.269464,75.2148904 120.216823,73.632909 119.213147,72.6893325" id="Fill-245"></path>
                        <path d="M132.217412,60.6849255 C131.213325,59.7366585 129.636978,59.7752916 128.685552,60.7867764 C127.734126,61.7807006 127.779767,63.3751939 128.780344,64.3129246 C129.787942,65.2647036 131.371311,65.2225584 132.319225,64.2180979 C133.263629,63.2136373 133.2215,61.6296803 132.217412,60.6849255" id="Fill-247"></path>
                        <path d="M144.215702,47.6810136 C143.214812,46.7362779 141.63446,46.7784223 140.686248,47.7828624 C139.734525,48.7873026 139.776668,50.3712275 140.788093,51.3159631 C141.788983,52.2642108 143.369335,52.2220665 144.317547,51.2176263 C145.26927,50.2131862 145.216591,48.6292613 144.215702,47.6810136" id="Fill-249"></path>
                        <path d="M157.214108,34.6801705 C156.213785,33.7360615 154.630817,33.7781779 153.679633,34.7854614 C152.738978,35.7857255 152.777587,37.3650899 153.77791,38.3197279 C154.788763,39.2673466 156.371731,39.2182108 157.312385,38.214437 C158.26708,37.2176826 158.221451,35.6277891 157.214108,34.6801705" id="Fill-251"></path>
                        <path d="M47.220668,171.679001 C46.2132473,170.738676 44.6336677,170.777272 43.6788996,171.780753 C42.7381722,172.784234 42.7767841,174.373664 43.7842049,175.31048 C44.7881155,176.268348 46.3676951,176.219226 47.318953,175.219254 C48.2631906,174.205247 48.2210684,172.633361 47.220668,171.679001" id="Fill-253"></path>
                        <path d="M58.2114606,159.682005 C57.2135181,158.734276 55.632271,158.779907 54.6835228,159.783798 C53.7347746,160.787689 53.780455,162.377769 54.7783976,163.318478 C55.7868818,164.266207 57.3716428,164.217066 58.3133632,163.223705 C59.2656253,162.219814 59.2234587,160.629734 58.2114606,159.682005" id="Fill-255"></path>
                        <path d="M71.2162338,146.681314 C70.2168844,145.734545 68.6354577,145.78013 67.6816927,146.783003 C66.7349406,147.785877 66.7805249,149.363825 67.7798744,150.321113 C68.7827303,151.267881 70.3711699,151.21879 71.3144155,150.208903 C72.2646741,149.20603 72.2225962,147.628082 71.2162338,146.681314" id="Fill-257"></path>
                        <path d="M82.2150977,133.684351 C81.2185572,132.736879 79.6360229,132.77548 78.6815898,133.786116 C77.7411924,134.789734 77.772773,136.368853 78.7833492,137.319834 C79.7869075,138.267305 81.3729508,138.218177 82.3168571,137.214559 C83.2677812,136.210941 83.218656,134.631822 82.2150977,133.684351" id="Fill-259"></path>
                        <path d="M94.2151899,121.68029 C93.2111218,120.733188 91.6277837,120.782297 90.6798872,121.782015 C89.7355015,122.785241 89.7811409,124.367252 90.7781876,125.314353 C91.7857664,126.271978 93.3691046,126.215853 94.3134903,125.212627 C95.2684082,124.205894 95.219258,122.630899 94.2151899,121.68029" id="Fill-261"></path>
                        <path d="M107.215271,108.682756 C106.211808,107.734527 104.63995,107.780182 103.685607,108.781091 C102.734773,109.785512 102.776876,111.37643 103.787357,112.317635 C104.79082,113.265865 106.369696,113.220209 107.317021,112.215788 C108.264346,111.211368 108.222243,109.630986 107.215271,108.682756" id="Fill-263"></path>
                        <path d="M119.212216,95.6868733 C118.212341,94.7360396 116.630081,94.7746343 115.686339,95.788623 C114.73558,96.7850686 114.77768,98.3674524 115.781064,99.318286 C116.787956,100.265611 118.366707,100.219999 119.317466,99.2165363 C120.264717,98.2130735 120.222617,96.6341983 119.212216,95.6868733" id="Fill-265"></path>
                        <path d="M131.219869,83.6846648 C130.216056,82.7366397 128.633118,82.7787742 127.681952,83.775956 C126.734296,84.7871827 126.779924,86.3672244 127.783738,87.3117382 C128.791061,88.2667857 130.373998,88.22114 131.314635,87.2169357 C132.265801,86.2092203 132.220173,84.6291786 131.219869,83.6846648" id="Fill-267"></path>
                        <path d="M143.212996,69.6816056 C142.21349,68.7344311 140.628309,68.7800358 139.681408,69.7833392 C138.734508,70.7866426 138.780099,72.3757909 139.783113,73.3194574 C140.786126,74.2596158 142.371307,74.2245353 143.314701,73.2212319 C144.265108,72.2144205 144.223024,70.6287801 143.212996,69.6816056" id="Fill-269"></path>
                        <path d="M156.214199,56.6811863 C155.210482,55.7362111 153.627697,55.7783661 152.680132,56.7830609 C151.736076,57.7877557 151.77819,59.3720822 152.785417,60.3170574 C153.785625,61.2655455 155.3649,61.2198775 156.312465,60.2186956 C157.267049,59.2210267 157.221425,57.6331873 156.214199,56.6811863" id="Fill-271"></path>
                        <path d="M167.218342,44.6808803 C166.220848,43.7363296 164.633287,43.7784657 163.684965,44.7827092 C162.736643,45.7869527 162.775279,47.3670562 163.786822,48.322141 C164.791341,49.2631804 166.368365,49.2210443 167.320199,48.2168008 C168.265009,47.2160686 168.219349,45.6289424 167.218342,44.6808803" id="Fill-273"></path>
                        <path d="M58.217956,182.681911 C57.2105533,181.734312 55.6380223,181.779937 54.6832713,182.78369 C53.7355406,183.787443 53.777662,185.366774 54.7850646,186.314373 C55.7854471,187.261972 57.3685084,187.223366 58.3162392,186.223123 C59.26748,185.208841 59.2183384,183.62951 58.217956,182.681911" id="Fill-275"></path>
                        <path d="M71.2163378,169.682165 C70.2196397,168.734213 68.6333456,168.779855 67.6857805,169.783982 C66.7347059,170.788108 66.7768199,172.37856 67.787556,173.319489 C68.7877636,174.26744 70.3670387,174.218287 71.3181133,173.214161 C72.2656784,172.210035 72.2200549,170.630116 71.2163378,169.682165" id="Fill-277"></path>
                        <path d="M81.2197158,156.682418 C80.2128244,155.734115 78.6375833,155.779774 77.6833169,156.784273 C76.7360673,157.788772 76.7781672,159.369278 77.7815502,160.317582 C78.7884416,161.265885 80.3706994,161.220226 81.3179491,160.215727 C82.2651987,159.211228 82.2195904,157.630722 81.2197158,156.682418" id="Fill-279"></path>
                        <path d="M94.2212148,143.682842 C93.2133614,142.735039 91.6331034,142.780674 90.6779253,143.777622 C89.7367939,144.788611 89.7789341,146.368283 90.7832758,147.319596 C91.7876176,148.267399 93.3713872,148.218253 94.3125186,147.214284 C95.2676968,146.210316 95.2185332,144.630644 94.2212148,143.682842" id="Fill-281"></path>
                        <path d="M106.211665,131.683435 C105.215221,130.735355 103.632841,130.781003 102.682009,131.774732 C101.738195,132.789529 101.776789,134.36264 102.78025,135.317743 C103.783711,136.265823 105.3696,136.220175 106.320432,135.215912 C107.264246,134.211649 107.222143,132.631515 106.211665,131.683435" id="Fill-283"></path>
                        <path d="M117.213709,118.677731 C116.217011,117.73296 114.637736,117.78213 113.683152,118.786608 C112.735587,119.787574 112.777701,121.371559 113.784927,122.312818 C114.785135,123.268126 116.374939,123.218956 117.315485,122.21799 C118.26656,121.213512 118.220936,119.626015 117.213709,118.677731" id="Fill-285"></path>
                        <path d="M130.215105,105.681256 C129.21143,104.729442 127.63222,104.785638 126.688203,105.783111 C125.737168,106.79112 125.775771,108.36811 126.779447,109.3129 C127.790141,110.264713 129.376369,110.222567 130.316876,109.218069 C131.264402,108.213572 131.22229,106.63307 130.215105,105.681256" id="Fill-287"></path>
                        <path d="M141.213734,92.6785296 C140.213685,91.7383148 138.631153,91.7769057 137.683739,92.7837775 C136.739834,93.7836328 136.774923,95.3728764 137.77848,96.3165995 C138.789055,97.267339 140.368079,97.2182233 141.315493,96.2183681 C142.269925,95.2150046 142.217291,93.6292692 141.213734,92.6785296" id="Fill-289"></path>
                        <path d="M154.216231,79.6840139 C153.216258,78.732421 151.633844,78.7815808 150.682992,79.7823334 C149.735649,80.783086 149.777753,82.3667332 150.784744,83.3148146 C151.791734,84.262896 153.374148,84.2242705 154.310966,83.2164951 C155.265326,82.2157424 155.223222,80.6320953 154.216231,79.6840139" id="Fill-291"></path>
                        <path d="M166.214274,67.6819351 C165.21682,66.7376783 163.632835,66.776291 162.681039,67.7837323 C161.736268,68.7876632 161.778414,70.3672749 162.782892,71.3150419 C163.790883,72.2628088 165.374868,72.2241961 166.316127,71.2167549 C167.271435,70.212824 167.21524,68.6297021 166.214274,67.6819351" id="Fill-293"></path>
                        <path d="M179.216939,54.6824314 C178.21927,53.7341094 176.634944,53.7797693 175.682943,54.7842882 C174.734455,55.7888071 174.780122,57.3693437 175.781304,58.3141535 C176.785999,59.2659878 178.373839,59.2203278 179.318814,58.2193212 C180.263789,57.2112901 180.221634,55.6307534 179.216939,54.6824314" id="Fill-295"></path>
                        <path d="M68.2187384,193.682072 C67.2115916,192.734249 65.6359507,192.779885 64.6849514,193.783876 C63.7304429,194.787866 63.7830812,196.367572 64.7832096,197.315395 C65.7903565,198.263218 67.3695066,198.224603 68.3134875,197.213592 C69.2644867,196.209601 69.2223761,194.629896 68.2187384,193.682072" id="Fill-297"></path>
                        <path d="M80.2134333,180.684191 C79.2163853,179.736941 77.6295341,179.775533 76.6851471,180.785932 C75.7337385,181.789315 75.7793781,183.371573 76.7834476,184.318823 C77.7840064,185.266072 79.3673468,185.216956 80.3152446,184.224098 C81.2666531,183.220715 81.2210136,181.641965 80.2134333,180.684191" id="Fill-299"></path>
                        <path d="M93.2177476,167.682418 C92.2175995,166.734115 90.6313997,166.779774 89.6874003,167.784273 C88.7363822,168.788772 88.7749844,170.369278 89.7856604,171.317582 C90.7858085,172.265885 92.3684991,172.220226 93.3195171,171.215727 C94.2635165,170.211228 94.221405,168.630722 93.2177476,167.682418" id="Fill-301"></path>
                        <path d="M104.218641,154.682165 C103.212121,153.734213 101.630447,153.779855 100.683546,154.783982 C99.7366456,155.788108 99.775223,157.368027 100.788757,158.319489 C101.784756,159.26744 103.369938,159.218287 104.316838,158.214161 C105.267246,157.210035 105.218147,155.630116 104.218641,154.682165" id="Fill-303"></path>
                        <path d="M117.214783,141.676437 C116.21483,140.739658 114.632449,140.774743 113.681616,141.788711 C112.737801,142.781627 112.776396,144.370995 113.783366,145.3183 C114.790336,146.265606 116.372717,146.219995 117.320041,145.216553 C118.263856,144.213111 118.221753,142.627251 117.214783,141.676437" id="Fill-305"></path>
                        <path d="M129.217377,129.681499 C128.213739,128.734473 126.634588,128.78007 125.680079,129.783216 C124.736097,130.786362 124.778208,132.375261 125.785355,133.322287 C126.788994,134.269313 128.368145,134.213193 129.312126,133.220569 C130.266635,132.206901 130.221015,130.639047 129.217377,129.681499" id="Fill-307"></path>
                        <path d="M141.218246,115.683573 C140.214725,114.732593 138.63576,114.781721 137.681363,115.78183 C136.733983,116.788956 136.779598,118.368074 137.786627,119.322564 C138.790148,120.263016 140.365604,120.220906 141.316493,119.217289 C142.267381,118.213672 142.218257,116.627535 141.218246,115.683573" id="Fill-309"></path>
                        <path d="M153.215602,103.687295 C152.215571,102.732376 150.629556,102.781526 149.682158,103.778574 C148.73476,104.782643 148.780375,106.369493 149.780407,107.317391 C150.787456,108.265288 152.373471,108.223159 153.313851,107.208558 C154.268267,106.208 154.219143,104.631681 153.215602,103.687295" id="Fill-311"></path>
                        <path d="M164.216,90.6770043 C163.219982,89.7332461 161.63477,89.7823636 160.684345,90.7857646 C159.737426,91.7856571 159.776005,93.3679433 160.782544,94.3187183 C161.789083,95.2659849 163.36728,95.2203758 164.314199,94.2134665 C165.268131,93.2135739 165.219032,91.6347962 164.216,90.6770043" id="Fill-313"></path>
                        <path d="M177.219362,76.6812396 C176.21502,75.7361904 174.63125,75.7783487 173.679584,76.7831223 C172.738452,77.7878958 172.777081,79.3688332 173.781423,80.3173956 C174.789276,81.265958 176.369534,81.2202865 177.314177,80.215513 C178.269356,79.221279 178.21668,77.6333153 177.219362,76.6812396" id="Fill-315"></path>
                        <path d="M189.215181,65.6834577 C188.208094,64.7354685 186.632546,64.7776013 185.685112,65.7852788 C184.737678,66.7894452 184.776277,68.3694273 185.779856,69.3174165 C186.790452,70.2654058 188.366,70.2197619 189.316943,69.2191065 C190.264377,68.2114291 190.222268,66.631447 189.215181,65.6834577" id="Fill-317"></path>
                        <path d="M79.2134806,203.682418 C78.213606,202.734115 76.6418733,202.779774 75.687607,203.784273 C74.7368491,204.788772 74.7754407,206.369278 75.782332,207.317582 C76.7892232,208.265885 78.3714809,208.220226 79.3187305,207.215727 C80.2659802,206.211228 80.2203719,204.630722 79.2134806,203.682418" id="Fill-319"></path>
                        <path d="M92.2166139,190.682165 C91.2132503,189.734213 89.6310232,189.779855 88.6802837,190.783982 C87.7365606,191.788108 87.7786598,193.371538 88.7820233,194.319489 C89.7888951,195.26744 91.3676139,195.218287 92.3183535,194.214161 C93.2655848,193.220568 93.2199774,191.633627 92.2166139,190.682165" id="Fill-321"></path>
                        <path d="M103.217652,177.678122 C102.21425,176.727315 100.628452,176.786959 99.6846922,177.790394 C98.7339153,178.783303 98.7795246,180.372659 99.7829274,181.319958 C100.782822,182.267256 102.372128,182.218137 103.312379,181.214702 C104.263156,180.214776 104.224564,178.62542 103.217652,177.678122" id="Fill-323"></path>
                        <path d="M116.216283,165.683401 C115.215881,164.734822 113.636299,164.780494 112.68504,165.778259 C111.73378,166.779538 111.779413,168.374556 112.783325,169.323136 C113.787237,170.261176 115.373839,170.22253 116.318078,169.217738 C117.262317,168.212947 117.223705,166.635494 116.216283,165.683401" id="Fill-325"></path>
                        <path d="M128.217283,152.67784 C127.220178,151.737498 125.629726,151.776094 124.681774,152.79012 C123.733823,153.783094 123.779465,155.362027 124.787102,156.319914 C125.787718,157.267274 127.364126,157.218151 128.3191,156.214651 C129.267051,155.21466 129.217898,153.6252 128.217283,152.67784" id="Fill-327"></path>
                        <path d="M141.219329,138.680134 C140.215087,137.733383 138.631475,137.778967 137.686926,138.792341 C136.735354,139.784677 136.77749,141.362595 137.781732,142.319866 C138.789485,143.266617 140.369586,143.221033 141.324669,142.207659 C142.265707,141.204804 142.216549,139.626885 141.219329,138.680134" id="Fill-329"></path>
                        <path d="M152.2164,127.686483 C151.212764,126.737701 149.633615,126.776355 148.679107,127.777847 C147.738636,128.782854 147.777237,130.367671 148.780874,131.316453 C149.78802,132.265235 151.370678,132.219553 152.318168,131.221575 C153.265657,130.206027 153.220037,128.628237 152.2164,127.686483" id="Fill-331"></path>
                        <path d="M164.218784,113.685146 C163.215206,112.733739 161.632639,112.779378 160.681696,113.783446 C159.73777,114.787514 159.77637,116.367342 160.783457,117.322259 C161.787036,118.263134 163.366093,118.221006 164.313528,117.216938 C165.264471,116.21287 165.222363,114.629532 164.218784,113.685146" id="Fill-333"></path>
                        <path d="M176.217275,100.682365 C175.219411,99.7341354 173.634775,99.7797908 172.682587,100.784212 C171.737427,101.788632 171.776077,103.369014 172.784482,104.317244 C173.78586,105.265473 175.37401,105.219818 176.315656,104.218909 C177.264329,103.210976 177.222166,101.630594 176.217275,100.682365" id="Fill-335"></path>
                        <path d="M187.218069,88.6845571 C186.209685,87.7332991 184.635622,87.7824416 183.683455,88.7758217 C182.734801,89.7902629 182.780477,91.3698426 183.77832,92.3175904 C184.786704,93.2653382 186.367794,93.2197059 187.319961,92.2193054 C188.265102,91.2153948 188.219426,89.6323049 187.218069,88.6845571" id="Fill-337"></path>
                        <path d="M196.679194,75.7789527 C195.733468,76.7874194 195.782688,78.3686391 196.78115,79.3138571 C197.786642,80.2661027 199.375743,80.220423 200.324984,79.2189839 C200.774995,78.7375904 201,78.1226716 201,77.504239 C200.722259,76.8717511 200.433971,76.2498047 200.145683,75.6173169 C199.136674,74.7423753 197.610857,74.7985965 196.679194,75.7789527" id="Fill-339"></path>
                        <path d="M90.1601303,213.885446 C89.0745488,213.075446 87.3664661,213.114446 86.3340251,213.972446 C86.2049699,214.083446 86.102485,214.203446 86,214.323446 C87.6625338,214.821446 89.3250676,215.265446 90.9800099,215.697446 C91.0786992,215.046446 90.8129974,214.371446 90.1601303,213.885446" id="Fill-341"></path>
                        <path d="M103.2164,200.684351 C102.212764,199.736879 100.633615,199.77548 99.6791068,200.786116 C98.7386359,201.789734 98.7772373,203.372362 99.7808742,204.319834 C100.78802,205.267305 102.370678,205.218177 103.318168,204.214559 C104.265657,203.210941 104.220037,201.635331 103.2164,200.684351" id="Fill-343"></path>
                        <path d="M114.21892,187.686962 C113.214891,186.729131 111.631616,186.785268 110.683757,187.778184 C109.735897,188.781627 109.778025,190.370995 110.782053,191.3183 C111.786082,192.265606 113.372868,192.219995 114.310195,191.216552 C115.265076,190.21311 115.222949,188.634268 114.21892,187.686962" id="Fill-345"></path>
                        <path d="M125.215073,174.678829 C124.214243,173.738743 122.630473,173.777328 121.678807,174.780555 C120.734164,175.783782 120.783327,177.372808 121.777134,178.309387 C122.788499,179.267013 124.368757,179.221411 125.3134,178.218185 C126.265066,177.214958 126.222926,175.636455 125.215073,174.678829" id="Fill-347"></path>
                        <path d="M139.213472,162.675574 C138.216601,161.734739 136.637051,161.783887 135.682302,162.777381 C134.738082,163.781407 134.776694,165.361169 135.780585,166.319557 C136.791496,167.267414 138.374556,167.218266 139.315265,166.21424 C140.270015,165.213724 140.217363,163.630452 139.213472,162.675574" id="Fill-349"></path>
                        <path d="M151.213425,149.686249 C150.216495,148.737243 148.629831,148.775906 147.682045,149.78115 C146.73426,150.782878 146.779894,152.36807 147.783845,153.317076 C148.791306,154.266082 150.367438,154.22039 151.315224,153.215146 C152.270031,152.209902 152.217376,150.628226 151.213425,149.686249" id="Fill-351"></path>
                        <path d="M164.211296,136.682692 C163.207852,135.732395 161.629008,135.781488 160.681701,136.784385 C159.734394,137.776761 159.780005,139.365265 160.783449,140.312055 C161.786892,141.269366 163.365737,141.220273 164.313044,140.210363 C165.267368,139.207467 165.221757,137.629483 164.211296,136.682692" id="Fill-353"></path>
                        <path d="M175.214385,123.685026 C174.213926,122.733785 172.630743,122.779417 171.679429,123.78331 C170.735136,124.787202 170.780771,126.370263 171.78123,127.317994 C172.78871,128.265725 174.364873,128.220093 175.319697,127.216201 C176.26399,126.212308 176.221865,124.632757 175.214385,123.685026" id="Fill-355"></path>
                        <path d="M187.214217,111.684688 C186.213912,110.733373 184.630974,110.779008 183.679808,111.78649 C182.73566,112.77993 182.777779,114.370136 183.788613,115.317941 C184.788917,116.265746 186.368345,116.220111 187.312492,115.216139 C188.263659,114.212168 188.225051,112.632493 187.214217,111.684688" id="Fill-357"></path>
                        <path d="M199.222202,98.6835021 C198.217509,97.735329 196.633185,97.7809818 195.681185,98.7748077 C194.736211,99.7826806 194.778366,101.369993 195.78306,102.314654 C196.791266,103.266339 198.372077,103.220686 199.324077,102.216325 C200.262025,101.211964 200.21987,99.6316752 199.222202,98.6835021" id="Fill-359"></path>
                        <path d="M114.215764,212.681949 C113.214955,211.733626 111.627705,211.782799 110.67957,212.776781 C109.738458,213.788325 109.777085,215.372374 110.781407,216.310159 C111.78924,217.269019 113.365954,217.219846 114.317601,216.215327 C115.269248,215.203783 115.216574,213.633783 114.215764,212.681949" id="Fill-361"></path>
                        <path d="M125.221897,199.689306 C124.214927,198.731736 122.636054,198.780842 121.681713,199.780503 C120.734389,200.783671 120.780001,202.372606 121.783463,203.319653 C122.786924,204.266701 124.372815,204.221102 125.313121,203.207411 C126.267462,202.214765 126.218342,200.636353 125.221897,199.689306" id="Fill-363"></path>
                        <path d="M138.213235,186.6819 C137.213049,185.734317 135.630298,185.779941 134.679244,186.783677 C133.735208,187.787413 133.780831,189.366718 134.781017,190.314301 C135.788222,191.261884 137.367464,191.226788 138.318518,190.212523 C139.266063,189.219316 139.220441,187.629482 138.213235,186.6819" id="Fill-365"></path>
                        <path d="M149.216338,173.679145 C148.212621,172.738621 146.629836,172.777225 145.68578,173.780918 C144.734706,174.78461 144.77682,176.363847 145.787556,177.321917 C146.787764,178.269459 148.367039,178.213309 149.318113,177.220144 C150.265678,176.205923 150.220055,174.633705 149.216338,173.679145" id="Fill-367"></path>
                        <path d="M162.2164,159.682418 C161.209254,158.734115 159.630105,158.779774 158.679107,159.784273 C157.738636,160.788772 157.777237,162.379815 158.780874,163.317582 C159.78802,164.265885 161.370678,164.220226 162.318168,163.215727 C163.265657,162.221764 163.220037,160.630722 162.2164,159.682418" id="Fill-369"></path>
                        <path d="M174.213218,146.683597 C173.215275,145.732041 171.627,145.781199 170.681766,146.785424 C169.736532,147.789649 169.778698,149.369723 170.780155,150.317768 C171.788639,151.265813 173.3734,151.220166 174.311606,150.215941 C175.267382,149.211716 175.221702,147.631642 174.213218,146.683597" id="Fill-371"></path>
                        <path d="M186.212902,133.682418 C185.216166,132.734115 183.63332,132.779774 182.682209,133.784273 C181.738118,134.778236 181.776724,136.369278 182.780479,137.317582 C183.780725,138.265885 185.36357,138.220226 186.311172,137.215727 C187.265792,136.211228 187.223677,134.630722 186.212902,133.682418" id="Fill-373"></path>
                        <path d="M198.215963,121.683454 C197.208386,120.73264 195.628561,120.78176 194.684176,121.781693 C193.736281,122.788644 193.77841,124.367486 194.778966,125.3183 C195.793565,126.265606 197.366368,126.219995 198.317774,125.216553 C199.26918,124.216619 199.216519,122.630759 198.215963,121.683454" id="Fill-375"></path>
                        <path d="M207.196616,112.333333 C207.553616,112.734043 207.997616,112.946809 208.456616,113 C208.483616,111.304965 208.465616,109.64539 208.414616,108 C207.931616,108.067376 207.466616,108.319149 207.115616,108.769504 C206.302616,109.780142 206.344616,111.379433 207.196616,112.333333" id="Fill-377"></path>
                        <path d="M121.5625,221.61911 C122.1955,221.61911 122.8225,221.61311 123.4375,221.58011 C122.8405,221.30111 122.1415,221.31611 121.5625,221.61911" id="Fill-379"></path>
                        <path d="M136.216583,209.687685 C135.217058,208.728846 133.635354,208.785042 132.681421,209.779003 C131.734503,210.783501 131.780095,212.367517 132.783127,213.322844 C133.786159,214.264121 135.364356,214.218462 136.311275,213.220989 C137.265207,212.216491 137.223122,210.635987 136.216583,209.687685" id="Fill-381"></path>
                        <path d="M149.222204,197.681499 C148.211115,196.734473 146.634798,196.78007 145.683391,197.783216 C144.735494,198.786362 144.777623,200.364738 145.785202,201.322287 C146.785759,202.269313 148.365587,202.213193 149.316994,201.220569 C150.268401,200.206901 150.21574,198.628524 149.222204,197.681499" id="Fill-383"></path>
                        <path d="M161.216985,183.682072 C160.219998,182.734249 158.633245,182.779885 157.685405,183.783876 C156.737566,184.787866 156.776182,186.367572 157.780189,187.315395 C158.787707,188.263218 160.36744,188.224603 161.3223,187.213592 C162.263119,186.209601 162.220992,184.629896 161.216985,183.682072" id="Fill-385"></path>
                        <path d="M173.220189,171.682418 C172.21265,170.734115 170.632884,170.779774 169.685025,171.784273 C168.737166,172.788772 168.775782,174.369278 169.783321,175.317582 C170.790861,176.265885 172.370626,176.220226 173.311465,175.215727 C174.266345,174.211228 174.220708,172.630722 173.220189,171.682418" id="Fill-387"></path>
                        <path d="M186.216752,158.673161 C185.215824,157.735671 183.631899,157.781316 182.680139,158.785519 C181.735403,159.789721 181.78106,161.36976 182.778476,162.317784 C183.78994,163.265807 185.366841,163.220161 186.311577,162.215959 C187.266848,161.211756 187.221192,159.631718 186.216752,158.673161" id="Fill-389"></path>
                        <path d="M197.218218,145.682418 C196.217543,144.734115 194.63402,144.779774 193.682502,145.784273 C192.738006,146.778236 192.776628,148.369278 193.780814,149.317582 C194.792021,150.265885 196.375544,150.220226 197.313018,149.215727 C198.268048,148.211228 198.218892,146.630722 197.218218,145.682418" id="Fill-391"></path>
                        <path d="M206.371613,135.710031 C206.461613,135.823668 206.554613,135.917712 206.653613,136 C206.890613,134.311129 207.103613,132.649687 207.295613,131 C206.926613,131.125392 206.572613,131.376176 206.287613,131.779781 C205.477613,132.90047 205.516613,134.663793 206.371613,135.710031" id="Fill-393"></path>
                        <path d="M156.69961,205.906021 C155.727974,207.066455 155.774756,208.892313 156.800372,209.987828 C156.803971,209.987828 156.800372,209.987828 156.803971,210 C158.250629,209.042439 159.639709,208.044303 161,207.046168 C160.874047,206.583617 160.654529,206.141353 160.327052,205.788354 C159.294239,204.692839 157.674845,204.745586 156.69961,205.906021" id="Fill-395"></path>
                        <path d="M173.218705,193.682418 C172.211636,192.734115 170.632608,192.779774 169.681683,193.784273 C168.737775,194.788772 168.776374,196.369278 169.783442,197.317582 C170.790511,198.265885 172.369539,198.220226 173.313446,197.215727 C174.267881,196.221764 174.218756,194.630722 173.218705,193.682418" id="Fill-397"></path>
                        <path d="M180.778437,185.317582 C181.782329,186.265885 183.37241,186.220226 184.31663,185.215727 C185.26787,184.211228 185.218729,182.630722 184.214837,181.682418 C183.214455,180.734115 181.627884,180.779774 180.687174,181.784273 C179.732423,182.778236 179.781565,184.369278 180.778437,185.317582" id="Fill-399"></path>
                        <path d="M192.540451,168.821038 C191.788152,169.859358 191.827016,171.521403 192.620956,172.512026 C192.784741,172.717489 192.979062,172.871586 193.178935,173 C193.82297,171.4627 194.425365,169.929068 195,168.373423 C194.217164,167.753366 193.192815,167.907463 192.540451,168.821038" id="Fill-401"></path>
                    </g>
                </g>
            </g>
        </g>
    </g>
</svg>