<?xml version="1.0" encoding="UTF-8"?>
<svg width="207px" height="200px" viewBox="0 0 207 200" version="1.1" xmlns="http://www.w3.org/2000/svg" xmlns:xlink="http://www.w3.org/1999/xlink">
    <!-- Generator: sketchtool 59.1 (101010) - https://sketch.com -->
    <title>81F42CCC-7891-4E21-BE5B-16D3D05EC69C</title>
    <desc>Created with sketchtool.</desc>
    <g id="Splash-Page" stroke="none" stroke-width="1" fill="none" fill-rule="evenodd">
        <g transform="translate(-90.000000, -680.000000)" fill="#FFFFFF" id="Banner">
            <g>
                <g id="BG">
                    <g id="Group-Copy-3" transform="translate(194.000000, 779.832753) scale(-1, -1) rotate(-270.000000) translate(-194.000000, -779.832753) translate(94.000000, 676.000000)">
                        <path d="M5.02697467,26.9565041 C4.33030576,26.2958845 3.22541331,26.3276921 2.56785564,27.0250129 C1.90785351,27.7272271 1.93474249,28.8282599 2.63385585,29.4888796 C3.33541367,30.1494993 4.43786166,30.1201384 5.09297488,29.4179242 C5.76275482,28.7181567 5.72853248,27.6171238 5.02697467,26.9565041" id="Fill-1"></path>
                        <path d="M12.6949408,18.5961725 C11.9958549,17.9328212 10.8934501,17.9646425 10.2310296,18.6647107 C9.57105336,19.3598832 9.60282999,20.4662846 10.3019159,21.1271882 C11.0034462,21.7880917 12.1034065,21.7562704 12.7633828,21.0562022 C13.4258033,20.3561341 13.3940267,19.2546282 12.6949408,18.5961725" id="Fill-3"></path>
                        <path d="M21.0549566,9.53485335 C20.3576498,8.87665547 19.2541923,8.90357063 18.5911391,9.60336465 C17.9329793,10.3056055 17.9672329,11.4115737 18.6620931,12.0648779 C19.3642933,12.7279694 20.4653042,12.6986074 21.123464,11.9988134 C21.7889639,11.3014662 21.7571569,10.195498 21.0549566,9.53485335" id="Fill-5"></path>
                        <path d="M29.3854756,3.29229168 C29.7064818,3.0685983 29.8965923,2.7968213 29.9651568,2.51459134 C28.7902115,2.81354604 27.630849,3.12922548 26.4808362,3.4783544 C27.3752906,3.90274465 28.6156838,3.84420806 29.3854756,3.29229168" id="Fill-7"></path>
                        <path d="M3.63783724,42.2874825 C2.93800173,41.6265282 1.83441496,41.658352 1.17862505,42.3584739 C0.510600244,43.0585959 0.542410949,44.1626344 1.24224646,44.8235887 C1.94452894,45.479647 3.04566873,45.4502713 3.7063526,44.7501493 C4.36703647,44.0500273 4.33277879,42.9508848 3.63783724,42.2874825" id="Fill-9"></path>
                        <path d="M11.9965088,33.9209875 C11.3015258,33.2633167 10.2003205,33.2975449 9.53470301,33.9992234 C8.8739798,34.6935673 8.9057924,35.7986499 9.60566958,36.4587655 C10.3079939,37.1188812 11.4067521,37.0870979 12.0650282,36.3878642 C12.7306457,35.6886306 12.6963859,34.583548 11.9965088,33.9209875" id="Fill-11"></path>
                        <path d="M20.3570352,25.5618254 C19.6600267,24.9036535 18.5570412,24.9330144 17.899163,25.630334 C17.2363935,26.332547 17.2681868,27.433578 17.9651954,28.09909 C18.6670952,28.7548151 19.767635,28.7254543 20.4279589,28.025688 C21.0931741,27.3259216 21.0589351,26.2224439 20.3570352,25.5618254" id="Fill-13"></path>
                        <path d="M28.0256645,15.8029622 C27.3311024,15.1497467 26.2256725,15.1742117 25.5604581,15.8788037 C24.9025806,16.5736097 24.9343739,17.6794277 25.6313817,18.3375361 C26.3332807,19.0029841 27.4338193,18.9662866 28.0941424,18.2714806 C28.7569112,17.5693352 28.7251179,16.4708567 28.0256645,15.8029622" id="Fill-15"></path>
                        <path d="M36.387447,8.14426572 C35.6881172,7.48105732 34.5853278,7.51042448 33.9226761,8.21034183 C33.26736,8.91270644 33.2942573,10.0188695 33.9935871,10.6722889 C34.6953622,11.33305 35.7957064,11.3061301 36.4608033,10.6037655 C37.1185646,9.90629541 37.0867769,8.80013232 36.387447,8.14426572" id="Fill-17"></path>
                        <path d="M42.3538256,1.70621213 C43.0507786,2.23906008 44.1624675,2.21537795 44.8201555,1.65095382 C45.3625027,1.19309928 45.4361245,0.524079076 45.0680155,0.00307218888 C44.0348565,-0.00876887674 43.0066055,0.0129397436 41.9881708,0.0800391154 C41.6642349,0.61683409 41.7869379,1.27796025 42.3538256,1.70621213" id="Fill-19"></path>
                        <path d="M2.93905944,58.3159984 C2.24436242,57.6553787 1.13627174,57.6847396 0.473374222,58.3869539 C-0.182184945,59.0867214 -0.155277665,60.1877542 0.544311594,60.8483739 C1.24634697,61.5089936 2.3470993,61.477186 3.00999682,60.7798652 C3.6680021,60.0776509 3.6386487,58.9766181 2.93905944,58.3159984" id="Fill-21"></path>
                        <path d="M11.9981867,49.954781 C11.2984613,49.2921935 10.1974946,49.3239781 9.53691462,50.0207952 C8.87633463,50.7225023 8.90324715,51.8276299 9.60297262,52.4877724 C10.3075913,53.147915 11.4012181,53.1136853 12.0691379,52.4144232 C12.7272713,51.7151611 12.6979122,50.6173685 11.9981867,49.954781" id="Fill-23"></path>
                        <path d="M18.965909,40.8941572 C18.2664829,40.2330225 17.1659873,40.2648549 16.5032444,40.9627194 C15.8453926,41.6581352 15.8722936,42.7673724 16.5717197,43.4285072 C17.2735913,44.0871933 18.3691958,44.0553609 19.0319387,43.3574964 C19.6971272,42.6571833 19.6677806,41.555292 18.965909,40.8941572" id="Fill-25"></path>
                        <path d="M28.024198,31.8320527 C27.3267959,31.1717059 26.2256347,31.2083918 25.5624909,31.9054245 C24.9042413,32.6024573 24.9311585,33.7079267 25.6334547,34.3707192 C26.3357508,35.0286203 27.4320179,34.9943801 28.0951617,34.2997931 C28.7534114,33.6003146 28.7289411,32.4997367 28.024198,31.8320527" id="Fill-27"></path>
                        <path d="M35.6957745,24.1670732 C34.9958713,23.5068418 33.8921778,23.541076 33.2289828,24.2428776 C32.568235,24.9397886 32.5976015,26.0401744 33.299952,26.7052965 C34.0023024,27.3630827 35.1035487,27.3288484 35.7618493,26.6343827 C36.4201498,25.9350264 36.3907833,24.82975 35.6957745,24.1670732" id="Fill-29"></path>
                        <path d="M43.3584546,15.1107437 C42.6609437,14.4500595 41.5547159,14.4794232 40.8939161,15.1792592 C40.2331163,15.8766481 40.2649325,16.9826825 40.9624435,17.6409198 C41.6624018,18.304051 42.7661822,18.2722403 43.4245346,17.5724044 C44.0877818,16.8701215 44.0559655,15.768981 43.3584546,15.1107437" id="Fill-31"></path>
                        <path d="M52.4160785,6.05111976 C51.7188534,5.38824732 50.6155253,5.42249165 49.9549962,6.12205445 C49.2944672,6.82161726 49.3213776,7.92232796 50.0210492,8.58520041 C50.7231671,9.24318081 51.8240488,9.21382852 52.4821314,8.51181969 C53.1475533,7.81470291 53.1157501,6.71154619 52.4160785,6.05111976" id="Fill-33"></path>
                        <path d="M10.6008847,65.2861189 C9.90668841,64.6188491 8.8042851,64.6579565 8.14186537,65.357001 C7.48189,66.0560456 7.51122224,67.1559408 8.20786291,67.815878 C8.90939229,68.4807036 10.0117956,68.4440404 10.6742153,67.7449958 C11.336635,67.0459513 11.3024141,65.946056 10.6008847,65.2861189" id="Fill-35"></path>
                        <path d="M18.2668806,56.2248341 C17.5679843,55.5641626 16.4683222,55.5959728 15.808525,56.2933482 C15.146284,56.9931706 15.1756084,58.0918428 15.8793921,58.7549612 C16.5782884,59.4205265 17.6828379,59.3862694 18.3377478,58.6864471 C19.0024324,57.9866247 18.9682207,56.8879525 18.2668806,56.2248341" id="Fill-37"></path>
                        <path d="M27.3260512,47.8582981 C26.6295187,47.2001149 25.5272866,47.2368166 24.8674137,47.9317015 C24.2075409,48.6290331 24.2344246,49.7325299 24.933401,50.3980535 C25.6372654,51.0562367 26.7419415,51.0244286 27.3969265,50.3222033 C28.0616873,49.6273185 28.0274717,48.5238217 27.3260512,47.8582981" id="Fill-39"></path>
                        <path d="M35.6886362,38.8039706 C34.9894137,38.1431189 33.8892384,38.17249 33.2266883,38.874951 C32.569028,39.5700691 32.598366,40.6739362 33.2975885,41.334788 C33.9992559,41.9980873 35.0994312,41.9638209 35.7570916,41.2687028 C36.4220864,40.5686895 36.3927484,39.4672699 35.6886362,38.8039706" id="Fill-41"></path>
                        <path d="M43.354956,30.4458187 C42.6574041,29.7780925 41.5560064,29.8123349 40.8927203,30.5094117 C40.2343292,31.2089345 40.2636998,32.312028 40.9636993,32.9748625 C41.6636987,33.6328052 42.7626488,33.6059005 43.4259349,32.8990401 C44.0892211,32.1995174 44.0549554,31.1013156 43.354956,30.4458187" id="Fill-43"></path>
                        <path d="M51.0248961,22.0783029 C50.322559,21.4175159 49.2213337,21.4493316 48.5581513,22.1492763 C47.8998632,22.8467737 47.9292292,23.9505327 48.6291191,24.6113196 C49.3241147,25.2721066 50.4326816,25.240291 51.0909696,24.5427936 C51.754152,23.8404015 51.7198917,22.7415372 51.0248961,22.0783029" id="Fill-45"></path>
                        <path d="M58.6895959,13.0211012 C57.9919082,12.3579699 56.8854,12.3897806 56.2268807,13.0896166 C55.5634653,13.7845585 55.5952897,14.8905929 56.2954254,15.5512772 C56.9955612,16.2119614 58.1020694,16.1825977 58.7605887,15.4827618 C59.41666,14.7804789 59.3872837,13.6793384 58.6895959,13.0211012" id="Fill-47"></path>
                        <path d="M65.4833287,7.14232649 C66.274522,7.63988747 67.4582213,7.67960872 68.2926829,7.25521848 C67.714741,6.9771697 67.1584332,6.69493974 66.5495853,6.40643799 C65.9963681,6.14929514 65.4276979,5.92769235 64.880662,5.69354601 C64.6859543,6.19528817 64.8837526,6.75556691 65.4833287,7.14232649" id="Fill-49"></path>
                        <path d="M17.5725532,72.2540377 C16.87579,71.5935095 15.7707479,71.6228663 15.1082116,72.3176441 C14.4505649,73.0173147 14.4799023,74.1255343 15.1791103,74.7836161 C15.8807631,75.4465907 16.9809156,75.4147875 17.6434519,74.7175632 C18.3035434,74.0129998 18.2717612,72.9145659 17.5725532,72.2540377" id="Fill-51"></path>
                        <path d="M26.6288229,63.8891292 C25.9367191,63.2312656 24.833755,63.2606127 24.1685528,63.9576057 C23.5082417,64.6545987 23.5400345,65.7648963 24.2394751,66.4252055 C24.9413613,67.0855147 26.0418797,67.0512764 26.6997452,66.3493922 C27.3649474,65.6523992 27.3307091,64.5518839 26.6288229,63.8891292" id="Fill-53"></path>
                        <path d="M34.2965337,54.8318674 C33.602025,54.1713643 32.4942348,54.20072 31.8364079,54.900364 C31.1736902,55.6024544 31.2054811,56.7008466 31.9024352,57.363796 C32.6042802,58.0267454 33.704734,57.9900508 34.3650063,57.2977457 C35.0301696,56.5981017 34.9959332,55.4923705 34.2965337,54.8318674" id="Fill-55"></path>
                        <path d="M43.35848,46.4695913 C42.6631055,45.808959 41.5588311,45.8383204 40.8952871,46.5381014 C40.2341916,47.2354355 40.2635736,48.341383 40.9613967,48.9995686 C41.6641167,49.6626478 42.7659425,49.6308395 43.4294866,48.9335054 C44.0856851,48.2312776 44.056303,47.1277769 43.35848,46.4695913" id="Fill-57"></path>
                        <path d="M50.3253609,37.4096342 C49.6258807,36.7472776 48.5252999,36.7814953 47.86006,37.4805137 C47.204603,38.179532 47.2315061,39.2793861 47.9309863,39.9392986 C48.635358,40.6040993 49.733493,40.5723257 50.3938415,39.8708632 C51.0541899,39.1694007 51.0272868,38.0719907 50.3253609,37.4096342" id="Fill-59"></path>
                        <path d="M58.6888041,29.0469813 C57.9891325,28.3861425 56.8882505,28.4179607 56.2277213,29.1179602 C55.5647458,29.8155122 55.5941026,30.9242528 56.2937743,31.5801964 C56.9958923,32.2410352 58.0967743,32.209217 58.7548571,31.5092175 C59.4178326,30.814113 59.3884758,29.70782 58.6888041,29.0469813" id="Fill-61"></path>
                        <path d="M66.3553941,20.686194 C65.65109,20.0232564 64.5530604,20.0550579 63.8927753,20.7571356 C63.2300448,21.4567671 63.2593908,22.5575859 63.9612494,23.2180771 C64.6582169,23.8785684 65.763583,23.846767 66.4214226,23.1471355 C67.0841531,22.4450577 67.0523616,21.3491315 66.3553941,20.686194" id="Fill-63"></path>
                        <path d="M73.0678156,14.7963854 C73.8302576,15.5393124 75.020411,15.5035419 75.7430042,14.7165895 C75.8227019,14.6257873 75.8970865,14.5267304 75.9581882,14.4249219 C75.105422,13.5774347 74.1703014,12.7161897 73.1873622,11.8466899 C73.1209474,11.9044731 73.051876,11.9595047 72.993431,12.0255427 C72.2681812,12.8152466 72.3106867,14.0507068 73.0678156,14.7963854" id="Fill-65"></path>
                        <path d="M25.2420418,79.9196638 C24.53712,79.2589682 23.4381272,79.2883325 22.777263,79.9832863 C22.1163988,80.6880283 22.1433229,81.7916346 22.8457971,82.4523302 C23.543376,83.1105787 24.647264,83.0812145 25.3056806,82.3813666 C25.9714401,81.6815187 25.9347255,80.5779124 25.2420418,79.9196638" id="Fill-67"></path>
                        <path d="M32.9035141,71.5565695 C32.2066014,70.8961171 31.1037677,70.9254706 30.4435347,71.6250608 C29.7808563,72.322205 29.8102,73.4278511 30.509558,74.0883034 C31.2113612,74.7487558 32.3117497,74.7194023 32.974428,74.0173659 C33.6322158,73.3177757 33.6053174,72.2194679 32.9035141,71.5565695" id="Fill-69"></path>
                        <path d="M41.9636268,62.4960321 C41.2639145,61.8335343 40.1629686,61.8677593 39.4999546,62.5742606 C38.8418336,63.2660941 38.8687456,64.3686273 39.5684579,65.0262358 C40.2706167,65.6936228 41.369116,65.6569532 42.0321301,64.9577858 C42.6951441,64.2586184 42.6608925,63.1560852 41.9636268,62.4960321" id="Fill-71"></path>
                        <path d="M49.627118,53.4392571 C48.932068,52.7760738 47.8283089,52.807887 47.1626272,53.5077779 C46.5067349,54.210116 46.5361033,55.3088957 47.2336006,55.9696319 C47.9335454,56.6303681 49.034857,56.601002 49.695644,55.8986639 C50.3613258,55.2012202 50.3270627,54.0975461 49.627118,53.4392571" id="Fill-73"></path>
                        <path d="M57.9893375,45.0715373 C57.2896388,44.4136099 56.1887142,44.4478515 55.5281595,45.1449121 C54.8676047,45.8444186 54.8994092,46.9474865 55.594215,47.6078598 C56.3012532,48.268233 57.4021777,48.2364373 58.060286,47.5418224 C58.7232872,46.8374243 58.6890362,45.7343564 57.9893375,45.0715373" id="Fill-75"></path>
                        <path d="M66.352786,35.3202305 C65.6581432,34.6597152 64.550139,34.6890714 63.8921851,35.3838357 C63.2317852,36.0908318 63.2586904,37.1892444 63.958225,37.8522061 C64.6602056,38.5127215 65.763318,38.4809189 66.4237178,37.7812619 C67.0841177,37.0816049 67.0523207,35.9831923 66.352786,35.3202305" id="Fill-77"></path>
                        <path d="M75.4124205,26.9557464 C74.7133069,26.2981513 73.6108585,26.3250418 72.9508561,27.0266396 C72.2908538,27.7257927 72.3177428,28.830748 73.0193008,29.4907877 C73.7184145,30.1508274 74.8208629,30.1166031 75.4759763,29.4223391 C76.1457565,28.7182968 76.1115342,27.6157861 75.4124205,26.9557464" id="Fill-79"></path>
                        <path d="M79.8994587,22.4317073 C80.3571248,23.0432467 81.0015516,23.14909 81.533101,22.7933388 C81.0261794,21.7202049 80.4515313,20.61767 79.8173661,19.5121951 C79.2899213,20.3530617 79.320706,21.6467025 79.8994587,22.4317073" id="Fill-81"></path>
                        <path d="M32.9011127,86.8902777 C32.206442,86.2250494 31.1008392,86.2568434 30.4404128,86.9587571 C29.7799864,87.6533337 29.8117847,88.7612323 30.5113475,89.4191235 C31.2084643,90.0794605 32.316513,90.0501121 32.9744934,89.3506442 C33.6349198,88.6511762 33.6031215,87.5506146 32.9011127,86.8902777" id="Fill-83"></path>
                        <path d="M40.5683784,77.8281129 C39.8713433,77.1679844 38.7658702,77.1973234 38.1079669,77.8965706 C37.4451721,78.5933729 37.4769667,79.696032 38.1764475,80.3634953 C38.8734826,81.0236238 39.9740643,80.98695 40.6368591,80.2877028 C41.2972081,79.5909005 41.2727507,78.4882414 40.5683784,77.8281129" id="Fill-85"></path>
                        <path d="M48.9340096,68.7678886 C48.2340934,68.1071539 47.1303793,68.138967 46.4696192,68.8413035 C45.8113064,69.5387457 45.8357789,70.6424173 46.5381425,71.3007049 C47.2380587,71.9614395 48.3417728,71.9296264 49.0025329,71.2370785 C49.6608457,70.5298477 49.6314786,69.4286232 48.9340096,68.7678886" id="Fill-87"></path>
                        <path d="M57.2970982,60.4055127 C56.5948704,59.7451653 55.4962633,59.7769598 54.8307373,60.4764389 C54.1725518,61.175918 54.1994664,62.2764969 54.9016941,62.9417358 C55.6063687,63.6020831 56.702529,63.5653972 57.3607146,62.8659181 C58.0262405,62.166439 57.9919855,61.0658601 57.2970982,60.4055127" id="Fill-89"></path>
                        <path d="M65.6583169,52.0404087 C64.9583736,51.3821605 63.8546168,51.4164187 63.1913838,52.1138193 C62.5354929,52.8136669 62.5624138,53.9172727 63.2623571,54.577968 C63.9598531,55.2386632 65.0660572,55.204405 65.7292902,54.5045574 C66.3876285,53.8071568 66.3533656,52.703551 65.6583169,52.0404087" id="Fill-91"></path>
                        <path d="M74.0216973,43.67976 C73.3221754,43.0219471 72.221529,43.0512919 71.5562494,43.7506766 C70.8958615,44.4500614 70.9252121,45.5553828 71.6271799,46.2156411 C72.324256,46.8758994 73.4273482,46.8416638 74.0877361,46.1447245 C74.7505698,45.4453397 74.7163275,44.3424637 74.0216973,43.67976" id="Fill-93"></path>
                        <path d="M81.6854604,34.6228722 C80.9828226,33.9618155 79.8860222,33.9936442 79.2152112,34.6865295 C78.563986,35.3892083 78.5909164,36.4934179 79.2911059,37.1495779 C79.9888472,37.8155313 81.0929923,37.786151 81.7540104,37.0859205 C82.4150285,36.3856901 82.3832017,35.2814806 81.6854604,34.6228722" id="Fill-95"></path>
                        <path d="M39.871981,93.8518211 C39.1727453,93.1933293 38.0701043,93.2300481 37.4099866,93.9228109 C36.7498689,94.6229175 36.7792075,95.7244837 37.4784432,96.3927672 C38.1801239,97.0463632 39.28032,97.019436 39.9379928,96.3168815 C40.6030002,95.6216708 40.5736617,94.5152088 39.871981,93.8518211" id="Fill-97"></path>
                        <path d="M48.9322679,85.4926193 C48.2350022,84.8346261 47.1316098,84.8615329 46.4685957,85.5635554 C45.8104747,86.2631317 45.8373867,87.3638638 46.537099,88.0243031 C47.2392578,88.6896345 48.3377571,88.6529434 49.0007712,87.9558131 C49.6637853,87.2611288 49.6295336,86.1506125 48.9322679,85.4926193" id="Fill-99"></path>
                        <path d="M57.2946084,76.433657 C56.5923255,75.7729348 55.4911851,75.8047473 54.8329478,76.5046234 C54.1698166,77.2044995 54.2016273,78.3057032 54.9014632,78.9713196 C55.5988522,79.6247004 56.7024396,79.5977821 57.3631238,78.8954589 C58.0238081,78.1955828 57.9944444,77.0943792 57.2946084,76.433657" id="Fill-101"></path>
                        <path d="M65.6570206,68.0713343 C64.9547929,67.4105473 63.8561857,67.442363 63.1955533,68.1423077 C62.5324742,68.8349103 62.5642824,69.943564 63.2616166,70.604351 C63.9613975,71.265138 65.067345,71.2333223 65.7255306,70.535825 C66.386163,69.8334329 66.3568015,68.7321212 65.6570206,68.0713343" id="Fill-103"></path>
                        <path d="M73.3236393,59.0129595 C72.6213567,58.3498542 71.5202168,58.3841106 70.8619798,59.0839191 C70.1988489,59.7788337 70.2282126,60.8823778 70.9280482,61.5454831 C71.6303308,62.2061414 72.7314707,62.1743319 73.3897077,61.4745235 C74.0552856,60.774715 74.0185809,59.6711709 73.3236393,59.0129595" id="Fill-105"></path>
                        <path d="M80.2930513,49.9543769 C79.5905364,49.2938615 78.4890322,49.3232177 77.8232341,50.0179821 C77.1696749,50.7225318 77.1966006,51.8233907 77.8991155,52.4863525 C78.5991826,53.1468678 79.7006868,53.1150653 80.3591415,52.4154082 C81.0224918,51.7157512 80.9882228,50.6124459 80.2930513,49.9543769" id="Fill-107"></path>
                        <path d="M87.6006895,42.3490803 C87.034139,43.0518596 87.0654979,44.1600886 87.6613167,44.8235516 C88.0627104,45.2707748 88.6167174,45.3936384 89.1121878,45.2216294 C89.0076582,44.1502595 88.9344874,43.0174578 88.8487732,41.8232244 C88.403477,41.7642499 87.9372749,41.9338016 87.6006895,42.3490803" id="Fill-109"></path>
                        <path d="M47.5382564,100.823511 C46.8409775,100.16333 45.7375643,100.195117 45.0769843,100.89442 C44.4164043,101.593723 44.4433168,102.694024 45.1430423,103.359095 C45.8452144,104.019276 46.9486276,103.985045 47.6092076,103.283297 C48.267341,102.586439 48.2379819,101.483692 47.5382564,100.823511" id="Fill-111"></path>
                        <path d="M55.2028216,91.0669084 C54.5055558,90.4085561 53.4021634,90.4379249 52.7415959,91.1378832 C52.0810284,91.8378415 52.1103869,92.9391745 52.8076527,93.5999743 C53.512258,94.2607741 54.6107573,94.2314052 55.2737714,93.5314469 C55.9343389,92.8290412 55.9025338,91.7301556 55.2028216,91.0669084" id="Fill-113"></path>
                        <path d="M64.2645264,83.4047711 C63.5672057,82.7414719 62.4637264,82.7732907 61.8006601,83.4708563 C61.1375938,84.1684218 61.1718481,85.2747363 61.8691688,85.9355879 C62.5713829,86.5964395 63.6748622,86.5646207 64.3305883,85.8646075 C64.9936546,85.1645944 64.961847,84.0631751 64.2645264,83.4047711" id="Fill-115"></path>
                        <path d="M71.9281703,74.3397896 C71.2300337,73.6815416 70.1277127,73.7157998 69.4638705,74.4156472 C68.807377,75.1106006 68.8343227,76.2191002 69.5324593,76.8773483 C70.2330456,77.5380434 71.3427154,77.5037851 71.9967592,76.8063847 C72.6581518,76.1089843 72.6287566,75.0029318 71.9281703,74.3397896" id="Fill-117"></path>
                        <path d="M80.2885339,65.2870929 C79.5938359,64.6266687 78.4857436,64.6511288 77.8277373,65.3506893 C77.1672849,66.0526958 77.1990845,67.1509568 77.8937825,67.8162731 C78.6007112,68.4766973 79.699019,68.4473451 80.3570253,67.7477847 C81.0223699,67.0482242 80.9905703,65.9475171 80.2885339,65.2870929" id="Fill-119"></path>
                        <path d="M87.9571736,57.6195172 C87.2544535,56.9572392 86.1526275,56.989009 85.491532,57.6903883 C84.8353334,58.3868799 84.862267,59.4914913 85.56009,60.1537693 C86.2628101,60.8136035 87.3646361,60.7793899 88.0257316,60.0780106 C88.6868272,59.3790751 88.6549966,58.2817952 87.9571736,57.6195172" id="Fill-121"></path>
                        <path d="M54.5066126,107.095771 C53.8098359,106.434919 52.709662,106.466738 52.0471129,107.166751 C51.3845638,107.866765 51.4114569,108.968184 52.1131234,109.626588 C52.8172346,110.289887 53.9125187,110.258068 54.5750679,109.560503 C55.2400618,108.865385 55.2033894,107.756623 54.5066126,107.095771" id="Fill-123"></path>
                        <path d="M63.5670335,98.0364911 C62.869781,97.3757041 61.7639631,97.4075198 61.1058546,98.1074645 C60.4404066,98.8074092 60.4746576,99.9087208 61.1719101,100.569508 C61.8716091,101.230295 62.9749805,101.198479 63.637982,100.500982 C64.2960905,99.7985897 64.264286,98.697278 63.5670335,98.0364911" id="Fill-125"></path>
                        <path d="M71.2298673,89.6713052 C70.537562,89.0131082 69.4293844,89.0473638 68.7664348,89.7422632 C68.1083778,90.4445032 68.1401798,91.5504699 68.8349314,92.2086669 C69.5394682,92.8693107 70.640307,92.8350551 71.3008103,92.135262 C71.9613135,91.4379157 71.9319578,90.3343958 71.2298673,89.6713052" id="Fill-127"></path>
                        <path d="M79.5941505,81.3133136 C78.8967079,80.6528096 77.7954828,80.679719 77.1298533,81.3842566 C76.4715654,82.0765627 76.5009314,83.1847416 77.198374,83.8452457 C77.900711,84.5057497 79.0043833,84.4739476 79.6626712,83.7743026 C80.3258535,83.0746576 80.2915931,81.9738176 79.5941505,81.3133136" id="Fill-129"></path>
                        <path d="M87.9572031,72.2531832 C87.2601139,71.593078 86.1545549,71.622416 85.4917086,72.3216386 C84.8337543,73.023306 84.8631054,74.1234815 85.5626405,74.7811419 C86.2646216,75.4485817 87.3652887,75.414354 88.0232431,74.7151314 C88.6860893,74.0183536 88.6567382,72.9132885 87.9572031,72.2531832" id="Fill-131"></path>
                        <path d="M96.320223,63.8896404 C95.6154942,63.229561 94.5143554,63.2613426 93.8512251,63.9605379 C93.1978827,64.6621778 93.2247994,65.764755 93.9246343,66.4199449 C94.6269162,67.0873585 95.7256081,67.0506875 96.3862914,66.3514922 C97.0494216,65.6571865 97.0176109,64.5546093 96.320223,63.8896404" id="Fill-133"></path>
                        <path d="M102.693728,58.4013674 C102.286063,58.2633883 101.880488,58.1191374 101.487456,57.9665242 C101.5,57.9811584 101.512544,57.9978831 101.525087,58.0104266 C101.85331,58.3177437 102.2777,58.4452698 102.693728,58.4013674" id="Fill-135"></path>
                        <path d="M62.1732881,114.06563 C61.4712121,113.403185 60.3728423,113.434963 59.7099065,114.136519 C59.0494169,114.830742 59.078772,115.935632 59.7784017,116.600521 C60.4804777,117.260521 61.5812937,117.223855 62.2442296,116.524743 C62.9047192,115.832965 62.8680253,114.725631 62.1732881,114.06563" id="Fill-137"></path>
                        <path d="M70.5369459,105.702278 C69.8318873,105.041479 68.7351296,105.073295 68.071689,105.770806 C67.4131447,106.473212 67.4400741,107.572097 68.1402364,108.235344 C68.8379506,108.893697 69.9420527,108.866775 70.6030451,108.164369 C71.2640376,107.464411 71.2346601,106.363078 70.5369459,105.702278" id="Fill-139"></path>
                        <path d="M78.9003403,97.3419508 C78.1960936,96.6816142 77.0981535,96.7060712 76.4330317,97.4128758 C75.7728005,98.1050063 75.8045894,99.2129042 76.5063907,99.8732408 C77.2008562,100.533577 78.3085774,100.501783 78.9639181,99.8023157 C79.6241493,99.1028482 79.5996963,97.9998416 78.9003403,97.3419508" id="Fill-141"></path>
                        <path d="M87.2595212,88.2805538 C86.5569239,87.6180431 85.4577386,87.6522688 84.7967586,88.3538945 C84.1357785,89.0457415 84.1676035,90.1531856 84.8628566,90.8132516 C85.5654539,91.4757623 86.6670872,91.4415367 87.3280673,90.7423556 C87.9890473,90.0431746 87.9596704,88.9430645 87.2595212,88.2805538" id="Fill-143"></path>
                        <path d="M95.62371,79.9183789 C94.918996,79.2598346 93.8178803,79.286764 93.1523171,79.9869263 C92.4989885,80.6895367 92.5307985,81.7887426 93.2281717,82.449735 C93.9279919,83.1107275 95.0291075,83.08135 95.68733,82.3836358 C96.3528932,81.6810254 96.3210832,80.5769232 95.62371,79.9183789" id="Fill-145"></path>
                        <path d="M102.5905,71.5598525 C101.890748,70.8945726 100.789738,70.926369 100.124239,71.6234455 C99.4660806,72.3229678 99.5003342,73.4285065 100.195193,74.0888947 C100.897393,74.7492829 101.998402,74.7199323 102.661454,74.0130723 C103.319613,73.3184418 103.290253,72.2153489 102.5905,71.5598525" id="Fill-147"></path>
                        <path d="M111.647184,62.4976479 C110.952621,61.8376072 109.849635,61.8644978 109.186865,62.5685411 C108.526541,63.2701399 108.555889,64.367763 109.257789,65.0278036 C109.959689,65.6927335 111.062675,65.6560646 111.718108,64.9617996 C112.380878,64.2626454 112.349084,63.1576885 111.647184,62.4976479" id="Fill-149"></path>
                        <path d="M62.1134713,131.164477 C62.9532184,130.47091 62.9127862,129.360712 62.0232762,128.699005 C61.2457325,128.118173 60.079417,128.07651 59.2334495,128.532353 C59.5693483,129.573929 59.9145777,130.625308 60.2504766,131.696293 C60.9191642,131.755112 61.6158433,131.578657 62.1134713,131.164477" id="Fill-151"></path>
                        <path d="M70.5357192,121.033007 C69.8331906,120.37222 68.7316649,120.404035 68.0707495,121.10398 C67.4122819,121.803925 67.4416559,122.905237 68.1392888,123.566023 C68.8418174,124.22681 69.9433431,124.194995 70.6042585,123.497497 C71.2651739,122.795105 71.2333521,121.693794 70.5357192,121.033007" id="Fill-153"></path>
                        <path d="M78.8998549,111.974193 C78.1979426,111.311321 77.0998288,111.345565 76.4321561,112.047574 C75.7742661,112.739798 75.8036143,113.847847 76.5055267,114.508273 C77.2049934,115.166253 78.3079985,115.136901 78.9658885,114.437338 C79.6262242,113.737776 79.5968759,112.637065 78.8998549,111.974193" id="Fill-155"></path>
                        <path d="M85.8667487,103.611686 C85.1649454,102.950886 84.0670023,102.982703 83.4018786,103.680213 C82.7440908,104.375277 82.7709892,105.47661 83.4727925,106.144752 C84.1721505,106.803104 85.2749842,106.776183 85.932772,106.073777 C86.5954503,105.373819 86.5661066,104.272486 85.8667487,103.611686" id="Fill-157"></path>
                        <path d="M94.9274198,94.5513887 C94.2251923,93.8913103 93.1241386,93.9230918 92.4635064,94.6247307 C91.8028742,95.3214802 91.8297889,96.4265003 92.5320164,97.0865787 C93.234244,97.7466571 94.3352976,97.7124308 94.993483,97.0181261 C95.656562,96.318932 95.622307,95.2114671 94.9274198,94.5513887" id="Fill-159"></path>
                        <path d="M102.594224,86.8881859 C101.890004,86.2257643 100.78966,86.257541 100.124563,86.956628 C99.4668012,87.655715 99.498589,88.755677 100.197919,89.4156542 C100.899694,90.0829645 102.000038,90.0487434 102.660245,89.3472121 C103.320451,88.6481251 103.288664,87.5457188 102.594224,86.8881859" id="Fill-161"></path>
                        <path d="M110.257546,77.8315324 C109.555756,77.1660065 108.452943,77.1978147 107.795168,77.8975956 C107.132502,78.5998234 107.161845,79.6984305 107.863635,80.3615097 C108.56298,81.0196952 109.665793,80.9903338 110.326013,80.2929997 C110.986234,79.5883251 110.954445,78.4872712 110.257546,77.8315324" id="Fill-163"></path>
                        <path d="M118.616712,68.7679389 C117.917177,68.1075125 116.814064,68.1393108 116.156109,68.8388736 C115.495709,69.5359904 115.52506,70.6391471 116.222149,71.3020196 C116.924131,71.962446 118.027244,71.9306477 118.687644,71.2286388 C119.348044,70.5339681 119.318693,69.4283653 118.616712,68.7679389" id="Fill-165"></path>
                        <path d="M126.829268,63.0759117 C126.131736,62.956748 125.434204,62.8354936 124.738676,62.7226016 C124.802817,62.8229501 124.872971,62.9212079 124.961165,63.0069222 C125.484314,63.5232985 126.286075,63.5400232 126.829268,63.0759117" id="Fill-167"></path>
                        <path d="M69.1431619,136.363897 C68.4381167,135.703277 67.3413797,135.735085 66.6779518,136.434852 C66.01942,137.13462 66.0463488,138.235652 66.7464979,138.893825 C67.449095,139.559338 68.5507281,139.525084 69.2092599,138.83021 C69.8726879,138.125549 69.8384148,137.024516 69.1431619,136.363897" id="Fill-169"></path>
                        <path d="M76.8053847,128.699295 C76.1102803,128.03856 75.0039873,128.070374 74.3431485,128.762921 C73.6823098,129.465258 73.7141279,130.571377 74.4141275,131.232111 C75.1116795,131.892846 76.2155249,131.861033 76.8763637,131.158696 C77.5372024,130.461254 77.5053843,129.36003 76.8053847,128.699295" id="Fill-171"></path>
                        <path d="M85.8637787,119.637363 C85.163834,118.979138 84.0674171,119.010948 83.4017354,119.708324 C82.7409485,120.403252 82.7752115,121.511712 83.4702615,122.16749 C84.1726535,122.835502 85.2739651,122.801245 85.9347521,122.101422 C86.595539,121.4016 86.5661707,120.300481 85.8637787,119.637363" id="Fill-173"></path>
                        <path d="M93.5322405,111.273616 C92.8322561,110.620784 91.725987,110.645234 91.0651626,111.344523 C90.4067857,112.043812 90.4410507,113.148982 91.13614,113.811594 C91.8385719,114.469317 92.939946,114.439976 93.6007704,113.740687 C94.2640423,113.041399 94.2273299,111.936229 93.5322405,111.273616" id="Fill-175"></path>
                        <path d="M101.195439,102.215655 C100.498337,101.559929 99.3952033,101.586843 98.7323447,102.28661 C98.0768239,102.986378 98.1012836,104.094751 98.8008319,104.74803 C99.5052721,105.413543 100.60596,105.379289 101.263927,104.679521 C101.926785,103.977307 101.897434,102.878721 101.195439,102.215655" id="Fill-177"></path>
                        <path d="M109.555667,93.8547319 C108.856158,93.1947432 107.757978,93.2265205 107.097602,93.9256196 C106.432335,94.6222743 106.469022,95.7246998 107.166086,96.3871329 C107.863149,97.0471215 108.968667,97.0202331 109.626596,96.3186896 C110.289418,95.6147017 110.260068,94.5147206 109.555667,93.8547319" id="Fill-179"></path>
                        <path d="M117.921027,85.4929371 C117.224318,84.8321501 116.119361,84.8639657 115.45932,85.5639105 C114.79928,86.2589605 114.82617,87.3651668 115.530214,88.0259538 C116.226923,88.6867408 117.329435,88.6549251 117.991921,87.9574277 C118.651961,87.2599304 118.620181,86.153724 117.921027,85.4929371" id="Fill-181"></path>
                        <path d="M126.284931,76.4343257 C125.587843,75.7738997 124.479839,75.8032519 123.824331,76.5052604 C123.161485,77.1974848 123.18839,78.305533 123.890371,78.9684051 C124.592351,79.6288312 125.693018,79.5945869 126.355863,78.8950244 C127.013817,78.200354 126.98202,77.0947518 126.284931,76.4343257" id="Fill-183"></path>
                        <path d="M134.646387,68.0728438 C133.946811,67.4123284 132.843634,67.4416846 132.18075,68.136449 C131.522757,68.8385523 131.554556,69.944304 132.251686,70.6048194 C132.953708,71.2653347 134.054438,71.2335322 134.717323,70.5338751 C135.375316,69.8342181 135.345963,68.7309128 134.646387,68.0728438" id="Fill-185"></path>
                        <path d="M68.4686244,155.55517 C69.1939693,154.862162 69.156219,153.752859 68.3904274,153.091686 C67.6165464,152.430512 66.4004477,152.455 65.6777992,153.162701 C65.6076916,153.221472 65.5591555,153.292487 65.5052265,153.363502 C65.8288004,154.264657 66.1550708,155.153569 66.5002163,156.015543 C67.1743287,156.208998 67.9482096,156.06207 68.4686244,155.55517" id="Fill-187"></path>
                        <path d="M76.8107886,144.726424 C76.1081228,144.065585 75.0039337,144.097403 74.3453375,144.797403 C73.684293,145.497402 73.7112245,146.5988 74.4138903,147.259639 C75.1141078,147.920478 76.2158486,147.88866 76.8744448,147.18866 C77.5379376,146.48866 77.5036612,145.387263 76.8107886,144.726424" id="Fill-189"></path>
                        <path d="M84.4693452,135.665538 C83.7746063,135.004546 82.6737875,135.041268 82.0084037,135.736533 C81.3479124,136.439143 81.3797139,137.538347 82.0793453,138.204235 C82.7765306,138.86033 83.8822419,138.828504 84.5402869,138.130791 C85.2032244,137.433078 85.171423,136.328977 84.4693452,135.665538" id="Fill-191"></path>
                        <path d="M92.8343809,127.307521 C92.1366117,126.644636 91.0348709,126.673989 90.3713781,127.376011 C89.7127819,128.075587 89.7397134,129.178765 90.4399309,129.841651 C91.1401484,130.497198 92.2467858,130.467845 92.9029337,129.765822 C93.5639782,129.066246 93.5345984,127.965514 92.8343809,127.307521" id="Fill-193"></path>
                        <path d="M101.19709,118.2473 C100.497309,117.584181 99.401149,117.615991 98.735623,118.318261 C98.0725439,119.018083 98.1043521,120.116755 98.8016863,120.777427 C99.503914,121.440545 100.609862,121.406288 101.2656,120.71136 C101.926233,120.00909 101.896871,118.907971 101.19709,118.2473" id="Fill-195"></path>
                        <path d="M109.56064,109.186121 C108.858796,108.525606 107.758343,108.557409 107.093181,109.257066 C106.4378,109.956723 106.4647,111.062474 107.166544,111.718097 C107.865943,112.378612 108.968841,112.349256 109.629112,111.654492 C110.289384,110.952388 110.257593,109.846637 109.56064,109.186121" id="Fill-197"></path>
                        <path d="M117.91655,100.823683 C117.221255,100.163642 116.119555,100.195422 115.458535,100.892132 C114.797515,101.593731 114.829341,102.693799 115.527085,103.356284 C116.227277,104.016325 117.331425,103.989434 117.987549,103.282946 C118.653465,102.583792 118.621638,101.483724 117.91655,100.823683" id="Fill-199"></path>
                        <path d="M125.58718,91.0678288 C124.887727,90.4094249 123.784743,90.4363485 123.12442,91.1388092 C122.464097,91.8339271 122.493445,92.9402416 123.192898,93.6010931 C123.897243,94.2619447 124.997781,94.2301259 125.658103,93.5301128 C126.318426,92.8349948 126.284187,91.7286804 125.58718,91.0678288" id="Fill-201"></path>
                        <path d="M133.255065,83.4044865 C132.555353,82.7396989 131.449514,82.7739159 130.788946,83.4753645 C130.128379,84.1743691 130.160184,85.2766455 130.859896,85.9365449 C131.559608,86.5964443 132.665447,86.5646714 133.321122,85.8632228 C133.981689,85.1642182 133.952331,84.0668299 133.255065,83.4044865" id="Fill-203"></path>
                        <path d="M141.613329,74.3430225 C140.914012,73.6828268 139.816132,73.7121688 139.151047,74.4188227 C138.490853,75.1108056 138.52264,76.2111318 139.221957,76.8737726 C139.926165,77.5388587 141.026489,77.5046263 141.684239,76.8053079 C142.346879,76.1084347 142.312647,75.0056633 141.613329,74.3430225" id="Fill-205"></path>
                        <path d="M149.12892,68.1964272 C148.432056,67.9288314 147.733234,67.6758698 147.038328,67.4375422 C147.106839,67.6654168 147.216459,67.8702948 147.390675,68.0479952 C147.87613,68.530922 148.598442,68.5790056 149.12892,68.1964272" id="Fill-207"></path>
                        <path d="M75.4157429,160.061304 C74.7108643,159.396427 73.6094915,159.428204 72.9486678,160.124859 C72.2927391,160.823958 72.3172141,161.931272 73.0171977,162.591261 C73.7220763,163.25125 74.8234491,163.219473 75.4842728,162.520373 C76.1402014,161.821274 76.113279,160.721293 75.4157429,160.061304" id="Fill-209"></path>
                        <path d="M84.4705916,150.306785 C83.77021,149.639814 82.6731087,149.671574 82.0070114,150.370306 C81.3507098,151.076368 81.3776475,152.175771 82.0780291,152.835413 C82.7784108,153.495055 83.8804099,153.463294 84.5416093,152.764563 C85.2028088,152.065831 85.1709733,150.966427 84.4705916,150.306785" id="Fill-211"></path>
                        <path d="M92.1384409,142.634117 C91.4369657,141.973307 90.3419801,142.007571 89.672279,142.712436 C89.0147987,143.405063 89.0441287,144.513756 89.7456039,145.174566 C90.444635,145.828034 91.544509,145.796217 92.2068776,145.10359 C92.866802,144.403621 92.837472,143.294928 92.1384409,142.634117" id="Fill-213"></path>
                        <path d="M100.500757,133.574332 C99.7992131,132.913819 98.6992315,132.950514 98.0367981,133.647723 C97.3768091,134.347378 97.4061419,135.445788 98.1076858,136.11364 C98.8067852,136.771707 99.9092113,136.735012 100.5692,136.042696 C101.229189,135.340595 101.199856,134.239739 100.500757,133.574332" id="Fill-215"></path>
                        <path d="M108.167385,125.212942 C107.4658,124.552761 106.365753,124.584547 105.703281,125.291185 C105.040808,125.983153 105.072588,127.088345 105.774173,127.748526 C106.470869,128.408707 107.575804,128.374475 108.233388,127.680063 C108.898305,126.98076 108.861637,125.875568 108.167385,125.212942" id="Fill-217"></path>
                        <path d="M117.228518,116.851581 C116.522046,116.191129 115.424446,116.222929 114.759531,116.922518 C114.099505,117.622108 114.133728,118.722862 114.832867,119.383314 C115.529562,120.043766 116.634495,120.016858 117.294521,119.314822 C117.954547,118.612786 117.922768,117.512033 117.228518,116.851581" id="Fill-219"></path>
                        <path d="M124.888552,107.79106 C124.188661,107.133144 123.087434,107.162493 122.426698,107.864433 C121.765962,108.563927 121.797775,109.666975 122.497666,110.327337 C123.19511,110.987698 124.298784,110.953457 124.957072,110.253963 C125.620255,109.559361 125.590889,108.451421 124.888552,107.79106" id="Fill-221"></path>
                        <path d="M133.250623,99.4304922 C132.553234,98.7697052 131.449647,98.8015209 130.79141,99.4990183 C130.128278,100.196516 130.160089,101.302722 130.857478,101.963509 C131.557314,102.624296 132.660901,102.59248 133.321586,101.892536 C133.98227,101.192591 133.952906,100.091279 133.250623,99.4304922" id="Fill-223"></path>
                        <path d="M140.919013,91.0714373 C140.21721,90.4066235 139.116822,90.4383977 138.454143,91.1374298 C137.796356,91.8413502 137.823254,92.94367 138.525057,93.5987071 C139.224415,94.2635208 140.327249,94.2293024 140.985037,93.5302704 C141.647715,92.8312383 141.618371,91.7264743 140.919013,91.0714373" id="Fill-225"></path>
                        <path d="M148.584678,82.0127399 C147.885524,81.345209 146.783012,81.3818865 146.120528,82.0763143 C145.458043,82.7756325 145.492267,83.8832937 146.191421,84.541044 C146.893019,85.2036846 147.993086,85.1718974 148.650682,84.4652438 C149.313167,83.7732611 149.283831,82.6704902 148.584678,82.0127399" id="Fill-227"></path>
                        <path d="M157.639265,72.9487354 C156.944702,72.2908202 155.841717,72.3177238 155.178947,73.0221088 C154.521069,73.7191564 154.547971,74.8197579 155.249871,75.4850104 C155.94688,76.1453713 157.047419,76.1086846 157.710189,75.4116369 C158.375404,74.7145893 158.341165,73.6164336 157.639265,72.9487354" id="Fill-229"></path>
                        <path d="M83.7716389,167.025583 C83.0743483,166.365428 81.9733631,166.397214 81.3078787,167.096489 C80.6546275,167.800654 80.6815405,168.903358 81.3788311,169.563513 C82.0834616,170.216333 83.1844468,170.189438 83.8474845,169.492607 C84.5080757,168.793332 84.4713762,167.685738 83.7716389,167.025583" id="Fill-231"></path>
                        <path d="M91.4382149,157.972403 C90.7389653,157.305276 89.6436371,157.337044 88.9786165,158.035939 C88.3160408,158.734834 88.3478249,159.834494 89.0495194,160.501621 C89.751214,161.161417 90.8489871,161.129649 91.5091179,160.423423 C92.1741385,159.731859 92.1374646,158.632199 91.4382149,157.972403" id="Fill-233"></path>
                        <path d="M99.8009643,150.297054 C99.1008962,149.640742 98.0042859,149.675027 97.3409346,150.368073 C96.6775833,151.068465 96.7118524,152.177829 97.4094728,152.831692 C98.1070931,153.492902 99.2159424,153.465963 99.8719503,152.76802 C100.532854,152.067627 100.50348,150.963162 99.8009643,150.297054" id="Fill-235"></path>
                        <path d="M106.772056,141.242711 C106.072344,140.579903 104.968951,140.614144 104.308383,141.313638 C103.647815,142.013133 103.67962,143.116181 104.376886,143.776543 C105.079046,144.436904 106.179992,144.402663 106.84056,143.705615 C107.501128,143.013458 107.471769,141.903072 106.772056,141.242711" id="Fill-237"></path>
                        <path d="M116.528483,132.879353 C115.828757,132.219043 114.725344,132.250836 114.062317,132.950276 C113.40663,133.649715 113.433542,134.752677 114.133268,135.412988 C114.83544,136.075743 115.938854,136.039059 116.594541,135.344511 C117.257568,134.64018 117.228209,133.542109 116.528483,132.879353" id="Fill-239"></path>
                        <path d="M123.496036,123.821142 C122.797005,123.160637 121.694687,123.189993 121.032319,123.892085 C120.374838,124.589284 120.401724,125.69257 121.103199,126.353074 C121.80223,127.013579 122.906993,126.984223 123.566917,126.282131 C124.226842,125.582486 124.195067,124.481646 123.496036,123.821142" id="Fill-241"></path>
                        <path d="M132.553518,115.456833 C131.858793,114.796574 130.755551,114.83081 130.092627,115.52775 C129.432149,116.224691 129.461503,117.325123 130.166013,117.990273 C130.860738,118.650532 131.968873,118.623633 132.626905,117.916911 C133.287382,117.217525 133.253135,116.114647 132.553518,115.456833" id="Fill-243"></path>
                        <path d="M140.218221,106.403716 C139.523686,105.736394 138.418299,105.770615 137.758002,106.467271 C137.097705,107.171259 137.127051,108.273685 137.831368,108.933674 C138.528349,109.591218 139.628844,109.561886 140.291587,108.862786 C140.95433,108.163687 140.917647,107.061261 140.218221,106.403716" id="Fill-245"></path>
                        <path d="M148.583563,98.0382756 C147.88385,97.3774624 146.78535,97.4043844 146.122336,98.1092518 C145.459322,98.801882 145.491127,99.9130271 146.188393,100.566498 C146.890552,101.229759 147.993945,101.200389 148.654513,100.500417 C149.312634,99.8004441 149.283275,98.6966413 148.583563,98.0382756" id="Fill-247"></path>
                        <path d="M156.247876,89.6731802 C155.550392,89.0148278 154.449101,89.0441967 153.788326,89.744155 C153.125105,90.4441133 153.154472,91.5478937 153.859298,92.2062461 C154.556783,92.8670459 155.658073,92.837677 156.318848,92.1377187 C156.98207,91.4377604 156.94536,90.33398 156.247876,89.6731802" id="Fill-249"></path>
                        <path d="M166.002863,80.6133592 C165.305773,79.9554436 164.20266,79.984793 163.539814,80.6867327 C162.884305,81.3837809 162.911211,82.4843832 163.6083,83.1496362 C164.312727,83.8099976 165.41584,83.7757566 166.071349,83.0762627 C166.736641,82.3816603 166.704844,81.2737206 166.002863,80.6133592" id="Fill-251"></path>
                        <path d="M91.4429742,173.295471 C90.7409389,172.640193 89.6401865,172.667088 88.9748429,173.366378 C88.3192837,174.065668 88.346191,175.173285 89.0482264,175.826118 C89.7478157,176.493622 90.848568,176.459391 91.5114655,175.762546 C92.1694708,175.055921 92.1401174,173.96053 91.4429742,173.295471" id="Fill-253"></path>
                        <path d="M99.1020632,164.935195 C98.4066328,164.274756 97.3047185,164.306555 96.6435699,165.006131 C95.9824213,165.705707 96.0142544,166.813776 96.7096848,167.469322 C97.4124612,168.129761 98.5168242,168.095516 99.1730754,167.403279 C99.8366727,166.703703 99.8072883,165.595634 99.1020632,164.935195" id="Fill-255"></path>
                        <path d="M106.770895,156.572344 C106.074484,155.912575 104.972444,155.944342 104.3078,156.643208 C103.648042,157.342074 103.679808,158.44169 104.376219,159.108789 C105.075073,159.768558 106.182,159.734348 106.839314,159.030595 C107.501515,158.331728 107.472193,157.232113 106.770895,156.572344" id="Fill-257"></path>
                        <path d="M114.435608,147.515227 C113.741155,146.854968 112.638343,146.881868 111.973233,147.586144 C111.317904,148.285529 111.339911,149.38596 112.044146,150.048665 C112.74349,150.708923 113.848746,150.674688 114.506521,149.975302 C115.169186,149.275917 115.134952,148.175486 114.435608,147.515227" id="Fill-259"></path>
                        <path d="M122.798042,139.846892 C122.098343,139.186891 120.994971,139.221113 120.334416,139.917781 C119.676308,140.616893 119.708112,141.719339 120.402918,142.37934 C121.105064,143.046674 122.208435,143.007563 122.866544,142.308451 C123.531992,141.606895 123.497741,140.509337 122.798042,139.846892" id="Fill-261"></path>
                        <path d="M131.857332,130.789377 C131.158054,130.12859 130.062683,130.160406 129.397636,130.857903 C128.735033,131.557848 128.764374,132.666502 129.468541,133.322394 C130.167819,133.983181 131.268081,133.951365 131.928238,133.251421 C132.588395,132.551476 132.559054,131.450164 131.857332,130.789377" id="Fill-263"></path>
                        <path d="M139.520708,121.733013 C138.823931,121.070411 137.721311,121.097306 137.063651,121.803918 C136.401101,122.498306 136.430439,123.601012 137.129661,124.263614 C137.831328,124.923771 138.931503,124.891985 139.594053,124.192708 C140.254158,123.493431 140.22482,122.39317 139.520708,121.733013" id="Fill-265"></path>
                        <path d="M147.888411,114.065968 C147.188889,113.405324 146.085797,113.434686 145.422963,114.129586 C144.762576,114.834274 144.794372,115.935348 145.493894,116.593546 C146.195861,117.259084 147.298953,117.227275 147.954449,116.527481 C148.617283,115.825241 148.585487,114.724166 147.888411,114.065968" id="Fill-267"></path>
                        <path d="M155.549126,104.307739 C154.852607,103.647687 153.74795,103.679467 153.088089,104.378634 C152.428229,105.0778 152.46,106.18522 153.158963,106.842827 C153.857927,107.49799 154.962583,107.473544 155.62,106.774378 C156.282305,106.072767 156.252978,104.967791 155.549126,104.307739" id="Fill-269"></path>
                        <path d="M164.609198,95.9450775 C163.909743,95.2865582 162.806758,95.3159346 162.146433,96.0160703 C161.488555,96.7162061 161.517903,97.8202663 162.219803,98.4787856 C162.916812,99.1397529 164.017352,99.1079286 164.677676,98.4102409 C165.342891,97.7150012 165.311098,96.6084929 164.609198,95.9450775" id="Fill-271"></path>
                        <path d="M172.27759,86.8856309 C171.582473,86.2274074 170.476158,86.2567705 169.815307,86.9565918 C169.154455,87.6564131 169.181379,88.7575305 169.886287,89.4230948 C170.5863,90.0788713 171.685272,90.0495082 172.348571,89.3496869 C173.006975,88.6523126 172.975156,87.5463013 172.27759,86.8856309" id="Fill-273"></path>
                        <path d="M98.4097254,180.26614 C97.7077026,179.605792 96.6118622,179.637587 95.9465306,180.337066 C95.286091,181.036546 95.3154439,182.137125 96.0174667,182.797472 C96.7145973,183.45782 97.8177759,183.430917 98.4782154,182.733883 C99.141101,182.027067 99.106856,180.926488 98.4097254,180.26614" id="Fill-275"></path>
                        <path d="M106.770967,171.903947 C106.076404,171.243354 104.970973,171.275161 104.310648,171.9749 C103.647879,172.67464 103.677226,173.782968 104.381572,174.438668 C105.078581,175.099262 106.179121,175.065009 106.841891,174.365269 C107.502215,173.66553 107.470422,172.564541 106.770967,171.903947" id="Fill-277"></path>
                        <path d="M114.438826,162.844891 C113.73716,162.184052 112.639431,162.21587 111.974437,162.91587 C111.314333,163.615869 111.343671,164.717267 112.042892,165.378106 C112.744559,166.038945 113.847177,166.007126 114.507282,165.307127 C115.167386,164.607127 115.135603,163.505729 114.438826,162.844891" id="Fill-279"></path>
                        <path d="M122.80224,154.482816 C122.099903,153.822327 120.998678,153.854128 120.333049,154.548865 C119.677208,155.253388 119.706574,156.354204 120.406464,157.01714 C121.106354,157.67763 122.210026,157.643382 122.865867,156.943752 C123.531496,156.244122 123.497236,155.143306 122.80224,154.482816" id="Fill-281"></path>
                        <path d="M131.157955,146.120861 C130.463569,145.460178 129.360865,145.491988 128.698264,146.184482 C128.040554,146.891658 128.067449,147.987902 128.766725,148.653479 C129.466001,149.314162 130.57115,149.282352 131.23375,148.582517 C131.891461,147.882682 131.862121,146.781544 131.157955,146.120861" id="Fill-283"></path>
                        <path d="M138.12802,137.057652 C137.433457,136.399275 136.332917,136.43354 135.667702,137.133525 C135.007378,137.831062 135.036725,138.934884 135.738625,139.590814 C136.435634,140.256534 137.543511,140.222269 138.198944,139.524732 C138.861714,138.824747 138.829921,137.718477 138.12802,137.057652" id="Fill-285"></path>
                        <path d="M147.188227,128.697739 C146.488801,128.034455 145.388307,128.073615 144.730455,128.768718 C144.067713,129.471164 144.094614,130.570112 144.794039,131.228501 C145.498356,131.891786 146.603742,131.862416 147.259147,131.162418 C147.919444,130.46242 147.890098,129.361024 147.188227,128.697739" id="Fill-287"></path>
                        <path d="M154.852776,119.636606 C154.155878,118.981404 153.053068,119.008297 152.392849,119.70995 C151.735076,120.406713 151.759528,121.5142 152.458871,122.171846 C153.163105,122.834383 154.26347,122.800156 154.923688,122.103392 C155.588798,121.404184 155.552119,120.299142 154.852776,119.636606" id="Fill-289"></path>
                        <path d="M163.216886,111.278058 C162.52004,110.614928 161.417313,110.649185 160.754698,111.346574 C160.094529,112.043962 160.12387,113.147549 160.825605,113.808233 C161.527341,114.468917 162.630069,114.442 163.282903,113.739718 C163.947962,113.042329 163.918622,111.938742 163.216886,111.278058" id="Fill-291"></path>
                        <path d="M170.881027,102.91424 C170.185938,102.256222 169.082115,102.28313 168.418843,102.985179 C167.760465,103.684783 167.789835,104.785557 168.48982,105.446022 C169.192253,106.106487 170.296075,106.079579 170.952005,105.37753 C171.617725,104.677926 171.578565,103.574705 170.881027,102.91424" id="Fill-293"></path>
                        <path d="M179.942118,93.8553529 C179.246878,93.1945013 178.142818,93.2263201 177.479403,93.9263332 C176.818435,94.6263464 176.85026,95.7277657 177.547947,96.3861697 C178.248083,97.0494688 179.354591,97.01765 180.013111,96.3200845 C180.67163,95.6176237 180.642254,94.5162045 179.942118,93.8553529" id="Fill-295"></path>
                        <path d="M105.378912,187.931758 C104.677067,187.271254 103.57906,187.303056 102.916342,188.002701 C102.25118,188.702346 102.287861,189.803186 102.984815,190.46369 C103.68666,191.124194 104.787113,191.097284 105.444939,190.392747 C106.107656,189.693102 106.078311,188.592262 105.378912,187.931758" id="Fill-297"></path>
                        <path d="M113.737584,178.874 C113.042777,178.213896 111.936958,178.240789 111.278848,178.944901 C110.615846,179.644122 110.64765,180.746741 111.34735,181.406845 C112.044604,182.066949 113.147977,182.032722 113.808533,181.340835 C114.471535,180.641613 114.439731,179.541439 113.737584,178.874" id="Fill-299"></path>
                        <path d="M122.10296,170.510396 C121.405993,169.849557 120.300627,169.881375 119.642788,170.581375 C118.980057,171.281374 119.006958,172.382772 119.711262,173.043611 C120.408229,173.70445 121.511149,173.672632 122.17388,172.972632 C122.831719,172.272633 122.802373,171.171235 122.10296,170.510396" id="Fill-301"></path>
                        <path d="M129.769088,161.450986 C129.06768,160.790393 127.965468,160.822199 127.305607,161.521938 C126.645746,162.221678 126.672629,163.322667 127.378925,163.985707 C128.073001,164.6463 129.177657,164.612047 129.837518,163.912307 C130.499823,163.212568 130.465608,162.111579 129.769088,161.450986" id="Fill-303"></path>
                        <path d="M138.128769,153.084625 C137.431937,152.431817 136.329232,152.456267 135.666631,153.162864 C135.008921,153.854792 135.035816,154.962366 135.737537,155.622509 C136.439258,156.282652 137.541963,156.250867 138.202119,155.551605 C138.85983,154.852342 138.83049,153.747213 138.128769,153.084625" id="Fill-305"></path>
                        <path d="M146.492946,144.725783 C145.793546,144.065835 144.693092,144.09761 144.027929,144.796666 C143.370103,145.495723 143.399448,146.602969 144.101293,147.262918 C144.800692,147.922866 145.901146,147.883758 146.558973,147.192034 C147.224136,146.485645 147.192345,145.393064 146.492946,144.725783" id="Fill-307"></path>
                        <path d="M154.159056,135.667995 C153.459739,135.005292 152.359415,135.039527 151.694329,135.736467 C151.034135,136.438297 151.065922,137.538728 151.767684,138.203877 C152.467002,138.859245 153.564881,138.8299 154.227521,138.130515 C154.890161,137.43113 154.855929,136.325809 154.159056,135.667995" id="Fill-309"></path>
                        <path d="M162.519584,127.308219 C161.822698,126.642771 160.717461,126.677022 160.057253,127.371828 C159.397045,128.071528 159.428833,129.177347 160.125719,129.837903 C160.827495,130.498459 161.932732,130.469101 162.58805,129.762061 C163.253148,129.064808 163.218915,127.966329 162.519584,127.308219" id="Fill-311"></path>
                        <path d="M170.185366,118.241815 C169.491277,117.584144 168.3866,117.618372 167.724282,118.317606 C167.064409,119.014395 167.091292,120.117034 167.792713,120.779595 C168.494134,121.439711 169.593924,121.407927 170.253797,120.706248 C170.918558,120.009459 170.884343,118.909266 170.185366,118.241815" id="Fill-313"></path>
                        <path d="M179.246942,109.185533 C178.547052,108.526962 177.44338,108.556341 176.780198,109.256531 C176.124357,109.956722 176.151276,111.05842 176.851166,111.719439 C177.553503,112.380459 178.654728,112.348632 179.313016,111.648441 C179.978645,110.955595 179.941938,109.849 179.246942,109.185533" id="Fill-315"></path>
                        <path d="M186.909534,101.521573 C186.207731,100.860954 185.109788,100.890315 184.449556,101.592529 C183.789323,102.292296 183.816221,103.393329 184.515579,104.053949 C185.219827,104.714569 186.31777,104.682761 186.980448,103.98544 C187.640681,103.283226 187.611337,102.182193 186.909534,101.521573" id="Fill-317"></path>
                        <path d="M113.040753,194.203776 C112.343976,193.542937 111.248692,193.574755 110.583698,194.274755 C109.921149,194.974754 109.948042,196.076152 110.649709,196.736991 C111.351375,197.39783 112.453994,197.366011 113.114098,196.666012 C113.774202,195.966012 113.742419,194.864614 113.040753,194.203776" id="Fill-319"></path>
                        <path d="M121.405306,185.144366 C120.706098,184.483772 119.603501,184.515579 118.940964,185.215318 C118.283318,185.915058 118.312655,187.018493 119.011863,187.679086 C119.713516,188.33968 120.813668,188.305427 121.476205,187.605687 C122.136296,186.913288 122.104514,185.807406 121.405306,185.144366" id="Fill-321"></path>
                        <path d="M128.374671,176.779179 C127.675435,176.116596 126.57035,176.15816 125.912677,176.857417 C125.250115,177.54934 125.281899,178.656905 125.981134,179.317044 C126.677925,179.977182 127.785455,179.942953 128.440682,179.243695 C129.103245,178.546882 129.076351,177.439317 128.374671,176.779179" id="Fill-323"></path>
                        <path d="M138.129814,168.420489 C137.432669,167.759458 136.331916,167.791285 135.669017,168.486592 C135.006119,169.184347 135.037918,170.295858 135.737508,170.956889 C136.437099,171.610575 137.542745,171.583645 138.200751,170.883441 C138.858757,170.183238 138.83185,169.083968 138.129814,168.420489" id="Fill-325"></path>
                        <path d="M145.099152,160.054244 C144.404305,159.398953 143.295976,159.425849 142.635383,160.132488 C141.974789,160.824456 142.006596,161.924758 142.708782,162.592274 C143.406075,163.252455 144.504618,163.218224 145.170104,162.518921 C145.830698,161.822063 145.796445,160.714425 145.099152,160.054244" id="Fill-327"></path>
                        <path d="M154.159811,150.299745 C153.459991,149.639988 152.356429,149.671754 151.698206,150.377938 C151.03509,151.069461 151.064453,152.169056 151.764273,152.836144 C152.46654,153.4959 153.567656,153.464134 154.233219,152.75795 C154.888995,152.059097 154.854738,150.959502 154.159811,150.299745" id="Fill-329"></path>
                        <path d="M161.823276,142.638664 C161.123877,141.977492 160.023425,142.004429 159.358263,142.702333 C158.702882,143.402685 158.729782,144.507088 159.429181,145.16826 C160.131025,145.829432 161.233922,145.797598 161.894194,145.102143 C162.554465,144.394444 162.522674,143.294939 161.823276,142.638664" id="Fill-331"></path>
                        <path d="M170.187306,133.578499 C169.487948,132.915498 168.385114,132.947302 167.722436,133.647001 C167.064648,134.3467 167.091547,135.447625 167.79335,136.113073 C168.492708,136.768735 169.593096,136.739377 170.253329,136.039678 C170.916008,135.339979 170.886664,134.236607 170.187306,133.578499" id="Fill-333"></path>
                        <path d="M177.85176,125.214191 C177.156384,124.553404 176.052108,124.58522 175.388563,125.285165 C174.729915,125.98511 174.756848,127.086421 175.459569,127.747208 C176.157393,128.407995 177.264118,128.376179 177.920318,127.678682 C178.581414,126.97629 178.552032,125.874978 177.85176,125.214191" id="Fill-335"></path>
                        <path d="M185.517818,116.85335 C184.815111,116.190452 183.718204,116.224698 183.054672,116.916949 C182.39359,117.623877 182.425419,118.724629 183.120781,119.38508 C183.823487,120.045532 184.925292,120.013732 185.588823,119.316589 C186.247458,118.617 186.215628,117.513801 185.517818,116.85335" id="Fill-337"></path>
                        <path d="M191.414072,107.859897 C190.75503,108.562662 190.78933,109.664557 191.485122,110.323245 C192.185813,110.986831 193.2932,110.954999 193.954693,110.257132 C194.268289,109.921666 194.425087,109.493151 194.425087,109.062187 C194.231539,108.621429 194.030642,108.188017 193.829744,107.747259 C193.126602,107.137544 192.063315,107.176722 191.414072,107.859897" id="Fill-339"></path>
                        <path d="M120.66908,201.3139 C119.912578,200.74944 118.722276,200.776617 118.002805,201.374527 C117.912871,201.451879 117.841453,201.535502 117.770035,201.619126 C118.928595,201.966164 120.087155,202.275572 121.240425,202.576617 C121.309198,202.122959 121.12404,201.652576 120.66908,201.3139" id="Fill-341"></path>
                        <path d="M128.373798,192.811394 C127.6744,192.151136 126.573947,192.178035 125.908785,192.882311 C125.253405,193.581696 125.280305,194.684573 125.979703,195.344832 C126.681547,196.005091 127.784445,195.970855 128.444716,195.27147 C129.104988,194.572084 129.073197,193.474099 128.373798,192.811394" id="Fill-343"></path>
                        <path d="M136.041059,184.450845 C135.341388,183.783367 134.23806,183.822486 133.577531,184.514414 C132.917002,185.213677 132.946359,186.321251 133.64603,186.981394 C134.345701,187.641537 135.451476,187.609752 136.104666,186.91049 C136.770088,186.211227 136.740731,185.110988 136.041059,184.450845" id="Fill-345"></path>
                        <path d="M144.400748,175.385944 C143.703305,174.730831 142.599633,174.75772 141.936451,175.456833 C141.278163,176.155945 141.312423,177.263281 142.004971,177.915949 C142.709755,178.583284 143.81098,178.551506 144.469268,177.852394 C145.13245,177.153281 145.103084,176.053278 144.400748,175.385944" id="Fill-347"></path>
                        <path d="M153.458865,167.021306 C152.764182,166.365672 151.66345,166.399921 150.99812,167.092252 C150.340127,167.791921 150.367034,168.8928 151.06661,169.560667 C151.771078,170.221194 152.874255,170.186945 153.529801,169.487275 C154.195132,168.790052 154.158441,167.686726 153.458865,167.021306" id="Fill-349"></path>
                        <path d="M161.124338,157.969512 C160.429613,157.308183 159.323924,157.335126 158.663446,158.035644 C158.002968,158.733713 158.034769,159.838376 158.734387,160.499705 C159.43645,161.161033 160.5348,161.129191 161.195278,160.428673 C161.860649,159.728155 161.823955,158.625941 161.124338,157.969512" id="Fill-351"></path>
                        <path d="M169.485224,150.301528 C168.78596,149.6393 167.68572,149.673511 167.025576,150.372393 C166.365431,151.063945 166.397216,152.170916 167.09648,152.830701 C167.795744,153.497816 168.895984,153.463605 169.556128,152.759835 C170.221162,152.060952 170.189377,150.961312 169.485224,150.301528" id="Fill-353"></path>
                        <path d="M177.152882,141.243921 C176.455698,140.581035 175.352434,140.612834 174.689498,141.312411 C174.031454,142.011987 174.063255,143.115166 174.760439,143.775606 C175.462516,144.436045 176.560887,144.404246 177.22627,143.70467 C177.884314,143.005093 177.854958,141.90436 177.152882,141.243921" id="Fill-355"></path>
                        <path d="M185.515134,132.881316 C184.818057,132.218378 183.714965,132.25018 183.052131,132.952258 C182.394188,133.64455 182.423539,134.752708 183.127953,135.413199 C183.825029,136.07369 184.925676,136.041889 185.583618,135.342257 C186.246452,134.642626 186.219548,133.541807 185.515134,132.881316" id="Fill-357"></path>
                        <path d="M193.883068,123.821256 C193.182933,123.160508 192.078875,123.192322 191.41546,123.884883 C190.756942,124.587234 190.786318,125.693375 191.486453,126.351675 C192.189036,127.01487 193.290646,126.983056 193.954061,126.283153 C194.607683,125.58325 194.578307,124.482004 193.883068,123.821256" id="Fill-359"></path>
                        <path d="M136.03886,200.475226 C135.341432,199.814374 134.235335,199.84864 133.574613,200.541311 C132.918786,201.246219 132.945704,202.350086 133.64558,203.003595 C134.347902,203.67179 135.446658,203.637524 136.109827,202.93751 C136.772995,202.232602 136.736289,201.138525 136.03886,200.475226" id="Fill-361"></path>
                        <path d="M144.405503,192.117983 C143.703782,191.450687 142.603522,191.484907 141.938476,192.181535 C141.27832,192.880607 141.310105,193.987879 142.009382,194.647842 C142.708658,195.307805 143.813808,195.276029 144.469074,194.569624 C145.13412,193.877885 145.09989,192.777946 144.405503,192.117983" id="Fill-363"></path>
                        <path d="M152.064972,183.053589 C151.367978,182.393252 150.265016,182.425046 149.602261,183.124514 C148.944396,183.823981 148.976189,184.924542 149.673183,185.584878 C150.375068,186.245215 151.475585,186.220758 152.13834,185.513953 C152.79865,184.821823 152.766858,183.713925 152.064972,183.053589" id="Fill-365"></path>
                        <path d="M159.73264,174.689299 C159.033185,174.033882 157.930199,174.060784 157.272321,174.760221 C156.609551,175.459659 156.638899,176.560172 157.343245,177.227817 C158.040253,177.888125 159.140794,177.848996 159.803563,177.156895 C160.463887,176.450121 160.432094,175.354499 159.73264,174.689299" id="Fill-367"></path>
                        <path d="M168.791917,164.935483 C168.090073,164.274644 166.98962,164.306462 166.326904,165.006462 C165.671523,165.706462 165.698423,166.815202 166.397822,167.468698 C167.099666,168.129537 168.202563,168.097719 168.862835,167.397719 C169.523106,166.705062 169.491315,165.596322 168.791917,164.935483" id="Fill-369"></path>
                        <path d="M176.455204,156.573935 C175.759774,155.91083 174.652962,155.945086 173.994262,156.644895 C173.335562,157.344703 173.364946,158.4458 174.062826,159.106459 C174.765602,159.767117 175.869965,159.735308 176.523768,159.035499 C177.189813,158.335691 177.15798,157.234593 176.455204,156.573935" id="Fill-371"></path>
                        <path d="M184.817353,147.51388 C184.122764,146.853041 183.019735,146.88486 182.35694,147.584859 C181.699037,148.277516 181.72594,149.386257 182.425421,150.047095 C183.122457,150.707934 184.225485,150.676116 184.885834,149.976116 C185.551075,149.276117 185.521726,148.174719 184.817353,147.51388" id="Fill-373"></path>
                        <path d="M192.484992,139.849097 C191.782847,139.186509 190.681924,139.220738 190.023816,139.917556 C189.363262,140.619264 189.39262,141.719503 190.089872,142.382091 C190.796909,143.042234 191.89294,143.010449 192.55594,142.311186 C193.218941,141.614369 193.182243,140.50924 192.484992,139.849097" id="Fill-375"></path>
                        <path d="M198.743286,133.333333 C198.992067,133.612573 199.301474,133.760842 199.621335,133.797909 C199.64015,132.6167 199.627607,131.460202 199.592067,130.313589 C199.255481,130.360541 198.93144,130.535992 198.68684,130.849828 C198.12029,131.554106 198.149558,132.668594 198.743286,133.333333" id="Fill-377"></path>
                        <path d="M141.158537,206.703212 C141.599652,206.703212 142.036585,206.699031 142.465157,206.676035 C142.049129,206.48161 141.562021,206.492063 141.158537,206.703212" id="Fill-379"></path>
                        <path d="M151.370441,199.085495 C150.673908,198.417314 149.571675,198.456475 148.906914,199.149131 C148.24704,199.84913 148.278812,200.952974 148.977789,201.618706 C149.676766,202.274649 150.776555,202.242831 151.436428,201.547728 C152.10119,200.847729 152.071862,199.746333 151.370441,199.085495" id="Fill-381"></path>
                        <path d="M159.736728,190.02195 C159.032136,189.362002 157.933657,189.393777 157.270656,190.092834 C156.610101,190.79189 156.639459,191.891804 157.341604,192.559085 C158.038857,193.219033 159.139782,193.179925 159.802783,192.488202 C160.465785,191.781812 160.429087,190.681899 159.736728,190.02195" id="Fill-383"></path>
                        <path d="M167.398596,180.963117 C166.703831,180.302613 165.59808,180.334415 164.937565,181.03406 C164.277049,181.733705 164.303959,182.834545 165.003616,183.495049 C165.705719,184.155553 166.806578,184.128643 167.471986,183.424106 C168.127609,182.724461 168.098253,181.623621 167.398596,180.963117" id="Fill-385"></path>
                        <path d="M175.763198,173.297852 C175.06108,172.637014 173.960198,172.668832 173.299669,173.368831 C172.63914,174.068831 172.66605,175.170229 173.368168,175.831068 C174.070286,176.491906 175.171168,176.460088 175.826805,175.760089 C176.492227,175.060089 176.460423,173.958691 175.763198,173.297852" id="Fill-387"></path>
                        <path d="M184.123172,164.232168 C183.425661,163.578865 182.321881,163.610673 181.658634,164.310466 C181.000281,165.010259 181.032097,166.111331 181.727161,166.771975 C182.432014,167.432618 183.5309,167.400809 184.189252,166.701017 C184.854947,166.001224 184.82313,164.900152 184.123172,164.232168" id="Fill-389"></path>
                        <path d="M192.486563,155.179385 C191.789229,154.518547 190.685728,154.550365 190.022649,155.250364 C189.364464,155.943021 189.391378,157.051762 190.091159,157.712601 C190.795834,158.373439 191.899334,158.341621 192.552626,157.641622 C193.218152,156.941622 193.183897,155.840224 192.486563,155.179385" id="Fill-391"></path>
                        <path d="M198.168372,148.926851 C198.231089,149.00604 198.295898,149.071576 198.364887,149.12892 C198.530044,147.952006 198.678476,146.794207 198.812274,145.644599 C198.555131,145.73198 198.308441,145.906743 198.109835,146.188 C197.545375,146.968969 197.572553,148.197765 198.168372,148.926851" id="Fill-393"></path>
                        <path d="M164.250599,195.753324 C163.573501,196.561989 163.606102,197.834364 164.320817,198.597789 C164.323325,198.597789 164.320817,198.597789 164.323325,198.606272 C165.331449,197.938982 166.299449,197.243417 167.247387,196.547852 C167.159615,196.225517 167.006641,195.917319 166.778433,195.671327 C166.058703,194.907902 164.930206,194.94466 164.250599,195.753324" id="Fill-395"></path>
                        <path d="M175.762164,188.628863 C175.060374,187.968024 173.960006,187.999842 173.29734,188.699842 C172.639565,189.399841 172.666463,190.501239 173.368253,191.162078 C174.070043,191.822917 175.17041,191.791099 175.828186,191.091099 C176.493297,190.398442 176.459063,189.289702 175.762164,188.628863" id="Fill-397"></path>
                        <path d="M181.727133,182.102845 C182.42671,182.763683 183.53478,182.731865 184.192773,182.031866 C184.855659,181.331866 184.821414,180.230468 184.121837,179.569629 C183.424707,178.908791 182.319083,178.940609 181.663536,179.640608 C180.998204,180.333265 181.032449,181.442006 181.727133,182.102845" id="Fill-399"></path>
                        <path d="M188.529931,171.303859 C188.005681,172.027427 188.032764,173.185647 188.586032,173.875977 C188.700168,174.019156 188.835583,174.126541 188.974867,174.216028 C189.423672,173.144738 189.84346,172.076006 190.243902,170.991932 C189.698372,170.559837 188.98454,170.667222 188.529931,171.303859" id="Fill-401"></path>
                    </g>
                </g>
            </g>
        </g>
    </g>
</svg>