<?xml version="1.0" encoding="UTF-8"?>
<svg width="352px" height="184px" viewBox="0 0 352 184" version="1.1" xmlns="http://www.w3.org/2000/svg" xmlns:xlink="http://www.w3.org/1999/xlink">
    <!-- Generator: sketchtool 59.1 (101010) - https://sketch.com -->
    <title>23BA0599-E540-488A-9719-6A558A7EF9FC</title>
    <desc>Created with sketchtool.</desc>
    <g id="Splash-Page" stroke="none" stroke-width="1" fill="none" fill-rule="evenodd">
        <g transform="translate(-183.000000, -1692.000000)" fill="#FFFFFF" id="Demos">
            <g transform="translate(0.000000, 1080.000000)">
                <g id="BG">
                    <g id="Group-Copy-6" transform="translate(352.000000, 701.500000) scale(-1, -1) rotate(-45.000000) translate(-352.000000, -701.500000) translate(204.000000, 549.000000)">
                        <path d="M7.96017533,39.6009722 C6.96045544,38.652983 5.37493478,38.6986269 4.43133952,39.6992822 C3.48423647,40.7069597 3.52282215,42.2869418 4.52604983,43.234931 C5.53278529,44.1829203 7.11479816,44.1407874 8.05488563,43.13311 C9.01601984,42.1289436 8.96691079,40.5489615 7.96017533,39.6009722" id="Fill-1"></path>
                        <path d="M19.3705498,27.4843282 C18.3673615,26.5324191 16.7854107,26.5780827 15.8348372,27.5826805 C14.8877714,28.5802531 14.9333708,30.1679392 15.9365591,31.1163357 C16.9432551,32.0647322 18.5216982,32.0190687 19.468764,31.0144709 C20.4193376,30.0098731 20.3737381,28.4292122 19.3705498,27.4843282" id="Fill-3"></path>
                        <path d="M31.5023895,14.1495495 C30.5017542,13.2050356 28.9182926,13.2436588 27.9668113,14.2478633 C27.022352,15.2555789 27.071506,16.8426432 28.0686303,17.7801347 C29.0762877,18.7316711 30.6562382,18.6895366 31.6006975,17.6853322 C32.5556899,16.684639 32.5100468,15.0975747 31.5023895,14.1495495" id="Fill-5"></path>
                        <path d="M44.0757449,4.80027931 C44.5363889,4.47927931 44.8091975,4.08927931 44.9075875,3.68427931 C43.2215409,4.11327931 41.5578558,4.56627931 39.9075875,5.06727931 C41.1911295,5.67627931 42.9710937,5.59227931 44.0757449,4.80027931" id="Fill-7"></path>
                        <path d="M6.25505284,61.6705897 C5.25078888,60.7221203 3.66714188,60.7677874 2.72608335,61.7724624 C1.76746775,62.7771374 1.81311612,64.3614326 2.81738007,65.309902 C3.82515544,66.2513457 5.40529103,66.2091915 6.35337239,65.2045165 C7.30145374,64.1998415 7.25229397,62.622572 6.25505284,61.6705897" id="Fill-9"></path>
                        <path d="M18.8688072,50.2734751 C17.8715067,49.3297174 16.291277,49.3788349 15.336116,50.3857436 C14.3879781,51.3821271 14.4336292,52.9679206 15.437953,53.9151866 C16.4457884,54.8624526 18.0225064,54.8168435 18.9671326,53.8134432 C19.9222937,52.8100429 19.873131,51.2242495 18.8688072,50.2734751" id="Fill-11"></path>
                        <path d="M31.2433015,37.9165875 C30.2430943,36.9721109 28.6603101,37.0142437 27.7162549,38.0148973 C26.7651806,39.0225731 26.8108041,40.6025525 27.8110113,41.5575623 C28.8182376,42.4985278 30.3975122,42.456395 31.345077,41.4522303 C32.2996608,40.4480656 32.2505278,38.8645751 31.2433015,37.9165875" id="Fill-13"></path>
                        <path d="M41.9288619,22.8821636 C40.9321653,21.9447994 39.3458734,21.9799066 38.3912907,22.9909961 C37.4472365,23.9880427 37.4928599,25.5748915 38.4930661,26.5192772 C39.5002912,27.474195 41.0795641,27.4215341 42.0271278,26.4244875 C42.978201,25.4169088 42.9325776,23.8405922 41.9288619,22.8821636" id="Fill-15"></path>
                        <path d="M54.5470806,11.5007399 C53.5435423,10.5490358 51.9610395,10.5911777 51.0101343,11.5955591 C50.0697557,12.6034523 50.1083533,14.1907963 51.1118916,15.1284531 C52.1189389,16.0766453 53.6979328,16.0380153 54.6523469,15.0301221 C55.5962343,14.0292525 55.550619,12.4419085 54.5470806,11.5007399" id="Fill-17"></path>
                        <path d="M63.7278946,2.87093872 C64.7280221,3.63557554 66.3232958,3.60159168 67.267078,2.79164306 C68.0453462,2.13462179 68.1509935,1.1745778 67.6227571,0.426932913 C66.1401739,0.409940984 64.6646337,0.441092854 63.2031799,0.537380453 C62.7383319,1.30768124 62.9144107,2.25639729 63.7278946,2.87093872" id="Fill-19"></path>
                        <path d="M5.02444022,85.681765 C4.02754999,84.7337757 2.43743986,84.7759086 1.48618193,85.7835861 C0.545454524,86.7877524 0.584066469,88.3677345 1.58797706,89.3157238 C2.59539782,90.2637131 4.17497742,90.2180691 5.12623535,89.2174138 C6.07047293,88.2097363 6.02835081,86.6297542 5.02444022,85.681765" id="Fill-21"></path>
                        <path d="M18.3717224,73.0800061 C17.3676164,72.129193 15.7877292,72.174804 14.839797,73.1747366 C13.8918647,74.1816862 13.9304841,75.7675442 14.9345902,76.7148488 C15.945718,77.6621533 17.5150725,77.6130339 18.4735374,76.6095927 C19.4179588,75.6061516 19.3758285,74.0308192 18.3717224,73.0800061" id="Fill-23"></path>
                        <path d="M28.5650294,60.2300691 C27.5613529,59.2813407 25.9821417,59.3270203 25.0311057,60.3284558 C24.0870883,61.3263775 24.1256913,62.9181329 25.1293677,63.8668613 C26.1365535,64.8120758 27.708746,64.7663963 28.6597821,63.7649608 C29.6143275,62.7600115 29.5722152,61.1787975 28.5650294,60.2300691" id="Fill-25"></path>
                        <path d="M41.6691867,46.6522415 C40.6684147,45.7046438 39.0882484,45.7572882 38.1366371,46.7575301 C37.1920488,47.7577721 37.2306751,49.3441207 38.2384701,50.295228 C39.246265,51.239316 40.8194084,51.1901813 41.7710196,50.193449 C42.7156079,49.1896974 42.6804931,47.610368 41.6691867,46.6522415" id="Fill-27"></path>
                        <path d="M53.326664,35.5037236 C52.3223029,34.5562915 50.7385027,34.6054176 49.7868179,35.6125029 C48.8386448,36.6125702 48.8807858,38.1916238 49.8886587,39.146074 C50.8965316,40.0899972 52.47682,40.0408711 53.4214813,39.0443128 C54.3661427,38.0407365 54.3240016,36.4546648 53.326664,35.5037236" id="Fill-29"></path>
                        <path d="M64.4875312,22.418027 C63.4866031,21.4699451 61.8991661,21.5120821 60.9509184,22.5163466 C60.0026707,23.5170997 60.0483271,25.1042591 61.0492552,26.0488296 C62.0536954,27.0004229 63.6376203,26.9547745 64.582356,25.95051 C65.5341158,24.942734 65.4884594,23.3625975 64.4875312,22.418027" id="Fill-31"></path>
                        <path d="M77.5907342,8.84375901 C76.5902162,7.89253705 75.0069403,7.94167766 74.0590811,8.94555029 C73.1112219,9.94942291 73.1498384,11.5289428 74.153867,12.4801647 C75.1614062,13.4243666 76.7411715,13.3822461 77.6855201,12.3748634 C78.6404005,11.3745008 78.5947628,9.79147092 77.5907342,8.84375901" id="Fill-33"></path>
                        <path d="M16.8968057,96.1204352 C15.900634,95.1629031 14.3186852,95.2190222 13.3681129,96.2221511 C12.4210482,97.22528 12.46314,98.8036297 13.4628194,99.7506395 C14.469514,100.704664 16.0514628,100.652053 17.0020351,99.6489237 C17.9526074,98.6457947 17.9035003,97.067445 16.8968057,96.1204352" id="Fill-35"></path>
                        <path d="M28.062431,83.0276278 C27.0595148,82.0795642 25.4814997,82.1252117 24.5346906,83.1259455 C23.5843749,84.1301906 23.6264553,85.7067852 24.636385,86.6583601 C25.6393012,87.6134463 27.2243297,87.5642875 28.1641253,86.5600424 C29.1179478,85.5557973 29.068854,83.9792027 28.062431,83.0276278" id="Fill-37"></path>
                        <path d="M41.4097754,70.4182368 C40.4102513,69.4737438 38.8285482,69.5264107 37.8816306,70.5235706 C36.934713,71.5242415 36.9732911,73.1077594 37.9763224,74.0627857 C38.9863678,75.0072786 40.571578,74.961634 41.5114813,73.9539408 C42.4654131,72.956781 42.4163137,71.3732631 41.4097754,70.4182368" id="Fill-39"></path>
                        <path d="M53.5453018,57.0934911 C52.5419174,56.1451688 50.9631659,56.1873165 50.0124066,57.1953479 C49.068664,58.1928424 49.110764,59.7768918 50.1141483,60.725214 C51.121041,61.6770485 52.6997926,61.6278763 53.6435352,60.6303818 C54.5978028,59.6258627 54.5557028,58.0453256 53.5453018,57.0934911" id="Fill-41"></path>
                        <path d="M64.9533138,44.9799751 C63.9523268,44.0217879 62.3718212,44.0709257 61.4200055,45.071231 C60.4752144,46.0750462 60.5173612,47.6579854 61.5218603,48.6091529 C62.5263595,49.5533007 64.1033529,49.5146924 65.0551686,48.5003478 C66.0069842,47.4965326 65.9578129,45.9206131 64.9533138,44.9799751" id="Fill-43"></path>
                        <path d="M76.3665209,32.8530218 C75.3586672,31.9047925 73.7784088,31.950448 72.8267421,32.9548686 C71.8820987,33.9557774 71.924239,35.5396715 72.928581,36.4879008 C73.9258996,37.4361301 75.5166931,37.3904746 76.4613364,36.3895659 C77.4130032,35.3816333 77.3638396,33.8047631 76.3665209,32.8530218" id="Fill-45"></path>
                        <path d="M87.2883645,18.7957777 C86.2871826,17.8441844 84.6993433,17.8898328 83.7543681,18.8940973 C82.8023671,19.8913391 82.848035,21.4784984 83.8527298,22.4265803 C84.8574246,23.3746622 86.445264,23.3325253 87.3902392,22.3282607 C88.3317014,21.3204848 88.2895464,19.7403482 87.2883645,18.7957777" id="Fill-47"></path>
                        <path d="M97.8686494,10.6969157 C99.0040117,11.4109157 100.70262,11.4679157 101.900073,10.8589157 C101.070726,10.4599157 100.272424,10.0549157 99.3987276,9.6409157 C98.6048609,9.2719157 97.7888192,8.9539157 97.0038226,8.6179157 C96.7244171,9.3379157 97.0082576,10.1419157 97.8686494,10.6969157" id="Fill-49"></path>
                        <path d="M26.5962828,106.069494 C25.5964275,105.121636 24.0106922,105.163763 23.0599526,106.160769 C22.1162296,107.164797 22.1583287,108.755092 23.1616922,109.699439 C24.168564,110.650808 25.7472829,110.60517 26.6980224,109.604653 C27.6452537,108.593605 27.5996463,107.017352 26.5962828,106.069494" id="Fill-51"></path>
                        <path d="M39.9394643,93.4624386 C38.9462953,92.5184043 37.3635419,92.5605174 36.4089767,93.5607024 C35.4614303,94.5608873 35.5070529,96.1541645 36.5107502,97.1017081 C37.5179569,98.0492518 39.0972009,98.0001199 40.0412378,96.9929161 C40.9958031,95.9927311 40.946671,94.4134917 39.9394643,93.4624386" id="Fill-53"></path>
                        <path d="M51.1075505,80.3754042 C50.1109306,79.4275822 48.5212516,79.4697076 47.5772701,80.4736968 C46.6262701,81.4811965 46.67189,83.0573893 47.6720192,84.0087217 C48.6791668,84.9600541 50.258318,84.9073973 51.2058088,83.9139395 C52.160318,82.9099503 52.1111889,81.3232261 51.1075505,80.3754042" id="Fill-55"></path>
                        <path d="M64.7008,68.7424218 C63.7029375,67.7944144 62.1183038,67.8365481 61.1661182,68.8407337 C60.2174461,69.8414082 60.2596093,71.4284429 61.2609854,72.3729392 C62.2693886,73.3244578 63.8505087,73.278813 64.8026944,72.2781385 C65.7443392,71.2704417 65.702176,69.6869181 64.7008,68.7424218" id="Fill-57"></path>
                        <path d="M74.6509776,54.9231457 C73.6472235,53.972664 72.0678902,54.0217664 71.1132709,55.0248577 C70.1726901,56.0279491 70.211296,57.6062397 71.2150501,58.5532141 C72.2258235,59.5072031 73.8016472,59.461608 74.7492473,58.4550093 C75.6968473,57.4484107 75.6582414,55.8736274 74.6509776,54.9231457" id="Fill-59"></path>
                        <path d="M87.0296575,42.5612488 C86.0256287,41.6129452 84.4458631,41.6586043 83.4980037,42.6631036 C82.5466337,43.6640907 82.5887608,45.2551334 83.5927896,46.1964125 C84.6003291,47.1447161 86.1800947,47.0990571 87.1244435,46.0945577 C88.0758134,45.0970828 88.0336863,43.5095524 87.0296575,42.5612488" id="Fill-61"></path>
                        <path d="M98.4380572,30.4439509 C97.4273808,29.4926356 95.8517084,29.5382707 94.9041993,30.5457522 C93.953181,31.5497234 93.9952925,33.1293983 95.0024595,34.0772033 C96.002608,35.0250083 97.5888083,34.9793732 98.5328081,33.975402 C99.4838264,32.9679205 99.4382056,31.3952663 98.4380572,30.4439509" id="Fill-63"></path>
                        <path d="M108.417817,21.3886638 C109.511921,22.454764 111.219791,22.4034333 112.256712,21.2741567 C112.371079,21.1438555 112.47782,21.0017088 112.565501,20.8556136 C111.341782,19.6394696 109.999884,18.4035829 108.589366,17.1558507 C108.494061,17.2387696 108.394943,17.31774 108.311075,17.4125045 C107.270341,18.5457296 107.331337,20.3186149 108.417817,21.3886638" id="Fill-65"></path>
                        <path d="M37.7512713,117.718433 C36.7397084,116.770335 35.1626538,116.812472 34.2143137,117.809731 C33.2659735,118.821036 33.3046096,120.404711 34.3126601,121.352809 C35.3136858,122.297396 36.8977651,122.255258 37.842593,121.250976 C38.7979579,120.246694 38.7452723,118.663019 37.7512713,117.718433" id="Fill-67"></path>
                        <path d="M49.1523271,105.597824 C48.1522575,104.650075 46.569691,104.692197 45.6222566,105.696109 C44.6713132,106.696511 44.7134214,108.283113 45.7170001,109.230862 C46.7240878,110.178612 48.3031452,110.136489 49.2540886,109.129067 C50.198014,108.125155 50.1594148,106.549083 49.1523271,105.597824" id="Fill-69"></path>
                        <path d="M62.2591015,92.0222455 C61.2550144,91.0715612 59.675157,91.120674 58.7237319,92.1345034 C57.7793283,93.1272844 57.817947,94.7094196 58.8220341,95.6530877 C59.829632,96.6107882 61.4059785,96.5581673 62.3574037,95.5548621 C63.3088289,94.5515568 63.2596778,92.9694217 62.2591015,92.0222455" id="Fill-71"></path>
                        <path d="M74.3914283,78.6939877 C73.3940315,77.7423196 71.8101373,77.7879716 70.8548841,78.792315 C69.9136786,79.8001702 69.9558222,81.3769191 70.9567309,82.3250755 C71.9611516,83.2732319 73.5415338,83.2310916 74.4897632,82.2232365 C75.4450164,81.2224047 75.395849,79.6386324 74.3914283,78.6939877" id="Fill-73"></path>
                        <path d="M85.7980564,66.5667417 C84.7939887,65.6226159 83.214162,65.6717525 82.266266,66.6720346 C81.3183699,67.6758264 81.3640093,69.2587288 82.3610556,70.2063644 C83.3756554,71.154 84.9554821,71.1083731 85.8998675,70.1116009 C86.8512742,69.1007895 86.8021241,67.5178871 85.7980564,66.5667417" id="Fill-75"></path>
                        <path d="M98.6631958,52.0296131 C97.6663833,51.0817736 96.0763973,51.1238998 95.1322334,52.1208866 C94.1845596,53.135426 94.2231686,54.711648 95.2270008,55.6629981 C96.2343429,56.6108377 97.8173092,56.565201 98.764983,55.5611931 C99.7126567,54.5571853 99.667028,52.9809632 98.6631958,52.0296131" id="Fill-77"></path>
                        <path d="M112.011206,39.4231666 C111.007978,38.4795176 109.425964,38.5181055 108.478861,39.5248982 C107.531758,40.528183 107.570343,42.1137939 108.577079,43.0609508 C109.580307,44.0081078 111.162321,43.9589959 112.102408,42.9627271 C113.063543,41.9524264 113.014434,40.3703235 112.011206,39.4231666" id="Fill-79"></path>
                        <path d="M118.187984,32.5076638 C118.844734,33.3852228 119.769487,33.537108 120.53226,33.0266049 C119.804828,31.4866578 118.980208,29.9045203 118.070181,28.3181638 C117.313297,29.5248073 117.357473,31.381182 118.187984,32.5076638" id="Fill-81"></path>
                        <path d="M49.3777623,127.187515 C48.3809098,126.232913 46.7943698,126.278537 45.8466579,127.285783 C44.898946,128.282501 44.9445766,129.872335 45.9484492,130.816409 C46.9488118,131.763992 48.5388618,131.721878 49.4830636,130.718141 C50.4307755,129.714405 50.385145,128.135099 49.3777623,127.187515" id="Fill-83"></path>
                        <path d="M60.5452098,114.093445 C59.5449645,113.146161 57.9586104,113.188262 57.0145192,114.191682 C56.0634087,115.191593 56.109034,116.773909 57.1127889,117.731719 C58.1130343,118.679003 59.692369,118.626376 60.6434795,117.622956 C61.5910804,116.623045 61.5559841,115.040729 60.5452098,114.093445" id="Fill-85"></path>
                        <path d="M72.6851075,100.760237 C71.6807277,99.8120831 70.096898,99.8577349 69.1487072,100.865588 C68.2040283,101.866417 68.2391465,103.450186 69.2470381,104.394829 C70.2514179,105.342983 71.8352476,105.297331 72.7834384,104.303525 C73.7281173,103.288649 73.6859755,101.708392 72.6851075,100.760237" id="Fill-87"></path>
                        <path d="M85.0632784,88.398738 C84.0555816,87.4511395 82.4790803,87.4967646 81.5240506,88.5005171 C80.5795543,89.5042695 80.6181768,91.0836003 81.6258736,92.0382181 C82.6370816,92.9858166 84.2100717,92.9331722 85.154568,91.9294197 C86.1095977,90.9256673 86.0604418,89.3463365 85.0632784,88.398738" id="Fill-89"></path>
                        <path d="M97.4387662,76.0333238 C96.4343475,75.0887376 94.8504565,75.1378982 93.8987172,76.138668 C92.9575137,77.1429493 92.9961452,78.7266236 94.0005638,79.6747213 C95.0014705,80.622819 96.5888735,80.5736584 97.5406128,79.5693771 C98.4853283,78.5686073 98.436161,76.984933 97.4387662,76.0333238" id="Fill-91"></path>
                        <path d="M109.817356,63.6743029 C108.813542,62.7303414 107.234114,62.7724512 106.279438,63.7760683 C105.331782,64.7796854 105.3739,66.3658216 106.381223,67.3132923 C107.381528,68.260763 108.964465,68.2116349 109.912121,67.2115269 C110.863288,66.2079098 110.81415,64.6252828 109.817356,63.6743029" id="Fill-93"></path>
                        <path d="M120.979777,50.5878052 C119.971492,49.6391888 118.397583,49.6848629 117.43497,50.6791534 C116.500461,51.6874975 116.539106,53.2720382 117.543878,54.2136278 C118.545137,55.1692709 120.129585,55.1271102 121.078146,54.1222795 C122.026707,53.1174488 121.981036,51.5329082 120.979777,50.5878052" id="Fill-95"></path>
                        <path d="M59.318013,138.097721 C58.3146097,137.152785 56.7323199,137.205477 55.7850511,138.199592 C54.8377822,139.204244 54.879883,140.784992 55.8832863,141.743979 C56.8901981,142.681889 58.4689795,142.643249 59.4127399,141.635083 C60.3670256,140.637456 60.3249248,139.049682 59.318013,138.097721" id="Fill-97"></path>
                        <path d="M72.6669593,125.498855 C71.666383,124.554635 70.0830148,124.593246 69.1315897,125.600648 C68.1871861,126.60454 68.2258048,128.184091 69.2298919,129.131821 C70.2374898,130.086572 71.8138363,130.03392 72.7652615,129.033538 C73.7166867,128.036666 73.6675356,126.443075 72.6669593,125.498855" id="Fill-99"></path>
                        <path d="M84.8021349,112.167458 C83.7943589,111.219322 82.2142224,111.264973 81.2696519,112.269295 C80.3180586,113.273617 80.363707,114.853844 81.3679715,115.809004 C82.3687247,116.746605 83.9523726,116.707978 84.9004545,115.700144 C85.8485364,114.695822 85.8063994,113.115594 84.8021349,112.167458" id="Fill-101"></path>
                        <path d="M97.1793352,99.806035 C96.1716384,98.8578057 94.5951371,98.9034612 93.6471297,99.9078819 C92.6956111,100.901767 92.7412559,102.492685 93.7419304,103.440914 C94.7461161,104.389143 96.3331508,104.343488 97.2776471,103.342579 C98.2256545,102.334647 98.1835208,100.754264 97.1793352,99.806035" id="Fill-103"></path>
                        <path d="M108.345854,86.7174034 C107.338079,85.7658474 105.757943,85.8150053 104.813373,86.8192304 C103.86178,87.816433 103.903917,89.4000188 104.908181,90.3515748 C105.915957,91.2996195 107.496092,91.2539729 108.440662,90.2497477 C109.395767,89.2455226 109.343095,87.6619368 108.345854,86.7174034" id="Fill-105"></path>
                        <path d="M119.511882,73.6284736 C118.503773,72.680634 116.923114,72.7227602 115.967694,73.719747 C115.029837,74.7307759 115.068475,76.3105085 116.076584,77.2618586 C117.08118,78.2096981 118.661839,78.1640614 119.606721,77.1600536 C120.558629,76.1560458 120.509453,74.5728026 119.511882,73.6284736" id="Fill-107"></path>
                        <path d="M129.617403,62.3236788 C128.804403,63.3321671 128.849403,64.9224757 129.704403,65.8745451 C130.280403,66.5163104 131.075403,66.6926196 131.786403,66.4457868 C131.636403,64.9083709 131.531403,63.2828005 131.408403,61.5690756 C130.769403,61.4844472 130.100403,61.7277538 129.617403,62.3236788" id="Fill-109"></path>
                        <path d="M71.1967644,148.538644 C70.1961692,147.591284 68.6127712,147.636898 67.6648389,148.640398 C66.7169067,149.643897 66.7555261,151.22283 67.7596322,152.177207 C68.7672491,153.124567 70.3506471,153.075445 71.2985794,152.068436 C72.2430008,151.068445 72.2008705,149.486004 71.1967644,148.538644" id="Fill-111"></path>
                        <path d="M81.8764928,133.507464 C80.8759165,132.562728 79.2925484,132.604872 78.344634,133.609312 C77.3967196,134.613753 77.4388492,136.194165 78.4394255,137.142413 C79.4505341,138.090661 81.0268807,138.048517 81.9783058,137.044076 C82.9262202,136.036124 82.8805799,134.459223 81.8764928,133.507464" id="Fill-113"></path>
                        <path d="M95.7113176,122.849476 C94.7106625,121.897642 93.1271696,121.943302 92.1756695,122.944308 C91.2241693,123.945315 91.2733243,125.532876 92.2739794,126.481198 C93.2816567,127.42952 94.8651496,127.38386 95.8061165,126.379341 C96.7576166,125.374823 96.7119727,123.794286 95.7113176,122.849476" id="Fill-115"></path>
                        <path d="M106.631646,108.781068 C105.62982,107.836482 104.047989,107.885643 103.095376,108.889924 C102.153308,109.887182 102.191975,111.477879 103.193801,112.422465 C104.199142,113.370562 105.791518,113.321402 106.730071,112.320632 C107.679169,111.319863 107.636987,109.732677 106.631646,108.781068" id="Fill-117"></path>
                        <path d="M119.005907,96.4289584 C118.009015,95.4812497 116.418902,95.51635 115.474663,96.5202193 C114.526914,97.5275986 114.572547,99.1036032 115.569438,100.058332 C116.583881,101.006041 118.159953,100.96392 119.104192,99.9600511 C120.058961,98.9561818 120.013329,97.3766672 119.005907,96.4289584" id="Fill-119"></path>
                        <path d="M130.417248,84.3064193 C129.408844,83.3560503 127.827724,83.40164 126.879052,84.4081193 C125.937407,85.4075848 125.976057,86.992702 126.977433,87.943071 C127.985836,88.8899331 129.566956,88.8408365 130.515628,87.8343572 C131.4643,86.8313848 131.418624,85.2567882 130.417248,84.3064193" id="Fill-121"></path>
                        <path d="M80.6495665,157.519136 C79.6496919,156.570814 78.0709424,156.616474 77.1201844,157.620993 C76.1694265,158.625512 76.2080181,160.206049 77.2149094,161.150858 C78.225309,162.102693 79.7970418,162.057033 80.7477998,161.056026 C81.7020661,160.058532 81.6494411,158.467458 80.6495665,157.519136" id="Fill-123"></path>
                        <path d="M94.7270789,143.70344 C93.7265216,142.755211 92.1396728,142.800866 91.1952871,143.805287 C90.2403693,144.809708 90.2895195,146.39009 91.2900768,147.338319 C92.2941448,148.286549 93.8774829,148.240893 94.82889,147.239984 C95.7732756,146.232052 95.7276362,144.65167 94.7270789,143.70344" id="Fill-125"></path>
                        <path d="M106.130089,131.57983 C105.13663,130.635318 103.546395,130.684474 102.595063,131.681655 C101.650751,132.689369 101.696387,134.276432 102.693355,135.220944 C103.704366,136.168968 105.284069,136.119812 106.231892,135.115608 C107.179714,134.114917 107.137588,132.531365 106.130089,131.57983" id="Fill-127"></path>
                        <path d="M117.539678,119.466544 C116.538848,118.518721 114.95859,118.557336 114.003412,119.568348 C113.058768,120.561807 113.100909,122.152044 114.101739,123.099867 C115.109592,124.04769 116.693362,124.002054 117.638005,122.998064 C118.589672,121.994073 118.540508,120.414368 117.539678,119.466544" id="Fill-129"></path>
                        <path d="M130.646171,105.89155 C129.645848,104.944299 128.059371,104.986399 127.108187,105.989783 C126.164022,106.996676 126.206141,108.575428 127.209974,109.51917 C128.217317,110.476946 129.796774,110.42783 130.740939,109.424445 C131.692123,108.424569 131.650004,106.838801 130.646171,105.89155" id="Fill-131"></path>
                        <path d="M142.053948,93.7702977 C141.042662,92.8230837 139.462528,92.8686903 138.510936,93.8720355 C137.573389,94.8788889 137.612015,96.4610871 138.616278,97.4012846 C139.624053,98.3590232 141.200675,98.3064002 142.148756,97.303055 C143.100348,96.3067263 143.054699,94.7245281 142.053948,93.7702977" id="Fill-133"></path>
                        <path d="M152.120319,85.9575712 C151.535319,85.7595712 150.953319,85.5525712 150.389319,85.3335712 C150.407319,85.3545712 150.425319,85.3785712 150.443319,85.3965712 C150.914319,85.8375712 151.523319,86.0205712 152.120319,85.9575712" id="Fill-135"></path>
                        <path d="M92.528892,167.957432 C91.521413,167.006824 89.9452523,167.052425 88.9939394,168.059158 C88.0461368,169.055367 88.0882613,170.640884 89.09223,171.595 C90.0997091,172.5421 91.6793801,172.489484 92.630693,171.486259 C93.5784956,170.493557 93.5258399,168.904533 92.528892,167.957432" id="Fill-137"></path>
                        <path d="M104.90788,155.594532 C103.896121,154.646284 102.322273,154.691941 101.370236,155.692869 C100.425225,156.700821 100.463869,158.277722 101.468602,159.229481 C102.469822,160.174217 104.054208,160.135585 105.002732,159.127633 C105.951256,158.123192 105.9091,156.54278 104.90788,155.594532" id="Fill-139"></path>
                        <path d="M117.28649,143.235972 C116.275896,142.288389 114.700352,142.323485 113.745902,143.337749 C112.79847,144.330956 112.844087,145.92079 113.851172,146.868373 C114.84773,147.815956 116.43731,147.770331 117.377724,146.766596 C118.325156,145.76286 118.290065,144.180045 117.28649,143.235972" id="Fill-141"></path>
                        <path d="M129.417131,129.901082 C128.408904,128.950379 126.831573,128.999492 125.883067,130.006325 C124.93456,130.999126 124.980229,132.588308 125.977917,133.535503 C126.986144,134.486206 128.566988,134.437092 129.515495,133.433767 C130.464001,132.430442 130.421845,130.851784 129.417131,129.901082" id="Fill-143"></path>
                        <path d="M141.796881,117.539871 C140.785616,116.594859 139.205515,116.633503 138.250432,117.638236 C137.312906,118.646482 137.358553,120.223842 138.359283,121.172367 C139.363525,122.120891 140.943626,122.078734 141.888176,121.077514 C142.843259,120.069268 142.797611,118.484882 141.796881,117.539871" id="Fill-145"></path>
                        <path d="M151.98885,104.697443 C150.984705,103.742767 149.404757,103.788394 148.449766,104.788699 C147.505308,105.792514 147.554462,107.378962 148.551585,108.326619 C149.559241,109.274276 151.139189,109.232158 152.090669,108.217814 C153.035127,107.221019 152.992995,105.638081 151.98885,104.697443" id="Fill-147"></path>
                        <path d="M165.332626,92.0897677 C164.335928,91.1426094 162.753144,91.1811973 161.802069,92.1914995 C160.854504,93.1982937 160.896618,94.7733829 161.903845,95.7205412 C162.911071,96.6747155 164.493856,96.6220956 165.434402,95.6258254 C166.385477,94.6225392 166.339853,93.036926 165.332626,92.0897677" id="Fill-149"></path>
                        <path d="M92.4300141,192.109801 C93.6350513,191.114532 93.577031,189.521399 92.3005842,188.571849 C91.184809,187.738355 89.5111463,187.678569 88.2971829,188.332703 C88.7791977,189.827365 89.2746019,191.336094 89.7566168,192.872957 C90.7161835,192.957362 91.715918,192.704149 92.4300141,192.109801" id="Fill-151"></path>
                        <path d="M104.164705,177.421869 C103.156576,176.473639 101.575887,176.519295 100.627473,177.523716 C99.6825724,178.528136 99.7247241,180.108518 100.725827,181.056748 C101.733956,182.004977 103.314645,181.959322 104.263059,180.958413 C105.211472,179.95048 105.165808,178.370098 104.164705,177.421869" id="Fill-153"></path>
                        <path d="M117.514674,164.819059 C116.50743,163.867838 114.931637,163.916978 113.973526,164.924361 C113.029454,165.917703 113.071569,167.507752 114.078813,168.455464 C115.082548,169.399665 116.66536,169.357545 117.609432,168.353672 C118.557014,167.3498 118.514899,165.770281 117.514674,164.819059" id="Fill-155"></path>
                        <path d="M126.736497,152.212842 C125.729409,151.264594 124.15386,151.31025 123.199408,152.311179 C122.255483,153.308595 122.294082,154.889007 123.301169,155.847791 C124.304748,156.792527 125.887315,156.753895 126.83124,155.745942 C127.782183,154.741502 127.740075,153.161089 126.736497,152.212842" id="Fill-157"></path>
                        <path d="M140.814368,138.395685 C139.806671,137.448473 138.226659,137.494079 137.278652,138.500931 C136.330645,139.500767 136.369268,141.086471 137.376964,142.033683 C138.384661,142.980896 139.964673,142.931781 140.909169,141.935454 C141.860687,140.93211 141.811531,139.342898 140.814368,138.395685" id="Fill-159"></path>
                        <path d="M151.494701,127.491639 C150.484145,126.541064 148.905151,126.586664 147.950737,127.589853 C147.00685,128.593043 147.052465,130.171489 148.056003,131.118556 C149.063051,132.076146 150.642045,132.027039 151.589441,131.020342 C152.536837,130.017152 152.491222,128.435199 151.494701,127.491639" id="Fill-161"></path>
                        <path d="M162.656489,114.405477 C161.649421,113.450448 160.066884,113.496093 159.122977,114.500278 C158.172051,115.507975 158.214159,117.084476 159.221227,118.035995 C160.224787,118.980491 161.807323,118.938357 162.75474,117.937683 C163.702157,116.926475 163.65654,115.346463 162.656489,114.405477" id="Fill-163"></path>
                        <path d="M175.757406,100.825513 C174.753573,99.8778013 173.170605,99.9234318 172.226441,100.927304 C171.278766,101.927667 171.320885,103.510697 172.321208,104.461919 C173.328551,105.409631 174.911518,105.364 175.859193,104.356618 C176.806867,103.359765 176.764749,101.773225 175.757406,100.825513" id="Fill-165"></path>
                        <path d="M187.433111,92.4784775 C186.432152,92.3074775 185.431193,92.1334775 184.433111,91.9714775 C184.525153,92.1154775 184.625824,92.2564775 184.752382,92.3794775 C185.503101,93.1204775 186.653628,93.1444775 187.433111,92.4784775" id="Fill-167"></path>
                        <path d="M102.696597,200.461655 C101.684857,199.513666 100.111039,199.55931 99.1590203,200.563476 C98.2140272,201.567642 98.25267,203.147624 99.2573839,204.092102 C100.265611,205.047113 101.846454,204.997958 102.791447,204.000814 C103.743467,202.989626 103.694285,201.409644 102.696597,200.461655" id="Fill-169"></path>
                        <path d="M114.340652,189.313679 C113.343177,188.365525 111.755646,188.411177 110.807343,189.404983 C109.859039,190.412836 109.904698,192.000117 110.909197,192.948271 C111.910185,193.896425 113.494203,193.850773 114.442506,192.84292 C115.39081,191.842091 115.345151,190.261834 114.340652,189.313679" id="Fill-171"></path>
                        <path d="M127.44496,175.736099 C126.440539,174.791547 124.867181,174.837194 123.911927,175.837928 C122.963698,176.83515 123.012866,178.42579 124.010262,179.366831 C125.018195,180.325428 126.598577,180.27627 127.546806,179.272025 C128.495036,178.26778 128.452892,176.687674 127.44496,175.736099" id="Fill-173"></path>
                        <path d="M138.856045,163.614555 C137.851568,162.67774 136.264072,162.712827 135.315789,163.716306 C134.371018,164.719785 134.420188,166.305704 135.417641,167.256553 C136.425631,168.200385 138.006103,168.158281 138.954386,167.154802 C139.906181,166.151322 139.853499,164.565404 138.856045,163.614555" id="Fill-175"></path>
                        <path d="M150.017657,150.526516 C149.017315,149.58555 147.434318,149.624171 146.483116,150.628338 C145.542444,151.632504 145.577543,153.223019 146.581395,154.160475 C147.592267,155.115486 149.171754,155.066331 150.115936,154.062165 C151.067138,153.054487 151.025019,151.478017 150.017657,150.526516" id="Fill-177"></path>
                        <path d="M162.391723,138.167102 C161.387927,137.220018 159.812039,137.265618 158.864399,138.268826 C157.909741,139.268525 157.962387,140.850506 158.962673,141.801097 C159.962959,142.748181 161.549377,142.709596 162.493506,141.702881 C163.444655,140.692658 163.402538,139.114186 162.391723,138.167102" id="Fill-179"></path>
                        <path d="M174.773153,125.806436 C173.773375,124.858207 172.187762,124.903862 171.240604,125.908283 C170.293446,126.90568 170.332033,128.493086 171.342336,129.441315 C172.342114,130.389545 173.924219,130.343889 174.874885,129.34298 C175.822043,128.342072 175.77644,126.754666 174.773153,125.806436" id="Fill-181"></path>
                        <path d="M186.910573,112.475543 C185.910251,111.527832 184.320265,111.569952 183.379611,112.577335 C182.428427,113.570676 182.467036,115.160726 183.474378,116.111947 C184.48172,117.059659 186.061176,117.010518 187.01236,116.006646 C187.956524,115.009794 187.910895,113.423255 186.910573,112.475543" id="Fill-183"></path>
                        <path d="M199.2864,100.115327 C198.282509,99.1674871 196.69945,99.2096133 195.748211,100.2066 C194.803992,101.214118 194.849623,102.800872 195.850004,103.748712 C196.857405,104.696551 198.436954,104.650915 199.388194,103.646907 C200.332413,102.642899 200.290291,101.059656 199.2864,100.115327" id="Fill-185"></path>
                        <path d="M101.500769,228.011388 C102.541639,227.016921 102.487467,225.425072 101.388556,224.476287 C100.278037,223.527503 98.5329354,223.562643 97.4959349,224.578194 C97.3953304,224.66253 97.3256811,224.764436 97.248293,224.866343 C97.7126216,226.159501 98.1808196,227.435089 98.6761034,228.672023 C99.6434546,228.94963 100.753974,228.738789 101.500769,228.011388" id="Fill-187"></path>
                        <path d="M113.848914,212.110646 C112.840588,211.162343 111.256077,211.208002 110.310991,212.212501 C109.362392,213.217001 109.401039,214.797507 110.409364,215.74581 C111.414176,216.694114 112.995175,216.648455 113.94026,215.643955 C114.892372,214.639456 114.843186,213.05895 113.848914,212.110646" id="Fill-189"></path>
                        <path d="M125.003863,199.018411 C124.006913,198.069889 122.427238,198.122584 121.472412,199.12029 C120.524607,200.128534 120.570242,201.705892 121.574214,202.661441 C122.574674,203.602938 124.16137,203.557268 125.105665,202.55605 C126.05698,201.554831 126.011345,199.970447 125.003863,199.018411" id="Fill-191"></path>
                        <path d="M137.384828,186.663167 C136.38353,185.711927 134.802532,185.754048 133.850419,186.76145 C132.905334,187.765342 132.943981,189.348403 133.948793,190.299643 C134.953605,191.240353 136.54163,191.198232 137.483202,190.19083 C138.431801,189.186938 138.389641,187.607387 137.384828,186.663167" id="Fill-193"></path>
                        <path d="M149.520533,173.329964 C148.516348,172.378389 146.943358,172.424037 145.988328,173.431793 C145.036809,174.436038 145.082454,176.012633 146.083129,176.960696 C147.090825,177.912271 148.67786,177.863112 149.618845,176.86589 C150.566853,175.858133 150.524719,174.278028 149.520533,173.329964" id="Fill-195"></path>
                        <path d="M161.657444,159.995387 C160.650298,159.047548 159.071148,159.093184 158.11664,160.097192 C157.176169,161.1012 157.214771,162.687954 158.221917,163.628772 C159.225554,164.576612 160.808213,164.534486 161.755702,163.537499 C162.703192,162.529981 162.657572,160.943227 161.657444,159.995387" id="Fill-197"></path>
                        <path d="M174.267236,148.604094 C173.269487,147.656936 171.688548,147.70254 170.739984,148.702318 C169.79142,149.709112 169.837091,151.28771 170.838353,152.238377 C171.843128,153.185535 173.427581,153.146947 174.369119,152.133137 C175.324709,151.12985 175.279037,149.551253 174.267236,148.604094" id="Fill-199"></path>
                        <path d="M185.925963,133.332066 C184.922248,132.387256 183.339466,132.425892 182.391903,133.433923 C181.44434,134.431417 181.486453,136.018978 182.490169,136.9673 C183.500903,137.915622 185.080175,137.869962 186.027738,136.865444 C186.975301,135.867949 186.926169,134.280388 185.925963,133.332066" id="Fill-201"></path>
                        <path d="M196.607847,122.427819 C195.60376,121.473849 194.016881,121.522951 193.068967,122.529529 C192.121053,123.532601 192.166693,125.114368 193.17078,126.061323 C194.174867,127.008279 195.761746,126.962685 196.702639,125.956106 C197.650553,124.953034 197.608424,123.378282 196.607847,122.427819" id="Fill-203"></path>
                        <path d="M208.737173,109.092833 C207.733653,108.145452 206.158196,108.187558 205.203799,109.201606 C204.25642,110.194602 204.302034,111.77357 205.305554,112.724459 C206.316092,113.678858 207.895058,113.629734 208.838929,112.626212 C209.789817,111.626199 209.740694,110.043722 208.737173,109.092833" id="Fill-205"></path>
                        <path d="M220.170811,100.123196 C219.170811,99.7391963 218.168002,99.3761963 217.170811,99.0341963 C217.269125,99.3611963 217.426429,99.6551963 217.676429,99.9101963 C218.373058,100.603196 219.409575,100.672196 220.170811,100.123196" id="Fill-207"></path>
                        <path d="M111.406939,235.398081 C110.395438,234.443982 108.814968,234.489583 107.866686,235.489282 C106.925428,236.492489 106.96055,238.081485 107.965026,239.028569 C108.976527,239.975653 110.556997,239.930053 111.505279,238.926845 C112.446537,237.923638 112.407903,236.345165 111.406939,235.398081" id="Fill-209"></path>
                        <path d="M125.234533,220.614421 C124.229486,219.657317 122.655145,219.702893 121.699296,220.705574 C120.757503,221.718772 120.796158,223.296416 121.801206,224.243002 C122.806254,225.189588 124.387622,225.144012 125.336444,224.141332 C126.285265,223.138651 126.239581,221.561007 125.234533,220.614421" id="Fill-211"></path>
                        <path d="M136.886662,209.45487 C135.880045,208.506608 134.308741,208.555777 133.34772,209.567257 C132.404235,210.561177 132.446324,212.152151 133.452941,213.100414 C134.45605,214.03814 136.03437,213.992483 136.984869,212.998563 C137.93186,211.994107 137.889772,210.403133 136.886662,209.45487" id="Fill-213"></path>
                        <path d="M149.021802,196.122293 C148.015087,195.174456 146.436613,195.227114 145.486021,196.227608 C144.538937,197.231614 144.58103,198.807831 145.587745,199.7662 C146.590953,200.710526 148.172934,200.657869 149.120019,199.664395 C150.067103,198.656879 150.02501,197.077151 149.021802,196.122293" id="Fill-215"></path>
                        <path d="M160.430257,184.004129 C159.423482,183.05677 157.844915,183.102383 156.894267,184.116409 C155.943619,185.109382 155.989222,186.695333 156.995997,187.642693 C157.995756,188.590052 159.581339,188.54093 160.524971,187.544448 C161.479127,186.540948 161.426508,184.954998 160.430257,184.004129" id="Fill-217"></path>
                        <path d="M172.810122,171.644087 C171.796334,170.696338 170.221279,170.741971 169.267125,171.745882 C168.319987,172.749794 168.369098,174.329375 169.372362,175.277123 C170.372119,176.224872 171.957698,176.18626 172.904836,175.178838 C173.851973,174.171417 173.80637,172.591836 172.810122,171.644087" id="Fill-219"></path>
                        <path d="M184.937487,158.310453 C183.933143,157.366344 182.352883,157.40846 181.404727,158.415744 C180.456571,159.419518 180.502223,161.002392 181.506566,161.95001 C182.507398,162.897629 184.091169,162.848493 185.035814,161.844719 C185.987482,160.847965 185.945341,159.258072 184.937487,158.310453" id="Fill-221"></path>
                        <path d="M197.314198,145.951549 C196.313445,145.003319 194.729797,145.048975 193.785227,146.049884 C192.833633,147.050792 192.879282,148.638198 193.880035,149.586428 C194.8843,150.534657 196.467947,150.489002 197.416029,149.484581 C198.364111,148.48016 198.321974,146.899778 197.314198,145.951549" id="Fill-223"></path>
                        <path d="M207.754886,134.078659 C206.747798,133.124651 205.16874,133.170247 204.217797,134.173358 C203.273872,135.183484 203.312471,136.765313 204.319559,137.705291 C205.323137,138.659299 206.905704,138.610195 207.849629,137.607084 C208.800572,136.603973 208.758464,135.018637 207.754886,134.078659" id="Fill-225"></path>
                        <path d="M219.890331,120.747642 C218.887045,119.789735 217.304941,119.842368 216.354275,120.838872 C215.40361,121.842393 215.452722,123.431887 216.456007,124.375759 C217.462801,125.326648 219.041397,125.281033 219.985046,124.266985 C220.935712,123.27399 220.893616,121.691514 219.890331,120.747642" id="Fill-227"></path>
                        <path d="M232.989176,107.167088 C231.992479,106.22298 230.409695,106.261587 229.45862,107.272379 C228.514565,108.272642 228.55317,109.852006 229.560396,110.806643 C230.560603,111.754261 232.139878,111.701615 233.090952,110.701352 C234.045536,109.701089 233.996403,108.125235 232.989176,107.167088" id="Fill-229"></path>
                        <path d="M124.245591,245.586447 C123.244979,244.639125 121.665066,244.684736 120.710096,245.688196 C119.77268,246.698674 119.8113,248.281053 120.811912,249.228376 C121.823057,250.165172 123.402971,250.126578 124.35443,249.126626 C125.302378,248.123166 125.249714,246.53377 124.245591,245.586447" id="Fill-231"></path>
                        <path d="M135.412049,232.505269 C134.408626,231.547942 132.83683,231.593529 131.882526,232.596443 C130.931729,233.599357 130.97734,235.17737 131.984271,236.134697 C132.991203,237.081504 134.566507,237.035917 135.513795,236.022483 C136.4681,235.030088 136.415473,233.452076 135.412049,232.505269" id="Fill-233"></path>
                        <path d="M148.031655,221.099949 C147.027058,220.158142 145.453422,220.20734 144.501513,221.201861 C143.549604,222.206925 143.59878,223.798861 144.599865,224.737155 C145.60095,225.685991 147.192149,225.647334 148.13352,224.645785 C149.081917,223.640722 149.039766,222.055814 148.031655,221.099949" id="Fill-235"></path>
                        <path d="M157.987876,207.288729 C156.983789,206.3376 155.40042,206.386736 154.452505,207.39051 C153.50459,208.394284 153.550231,209.977159 154.550807,210.924778 C155.558406,211.872397 157.138264,211.823261 158.086178,210.822997 C159.034093,209.829752 158.991964,208.236348 157.987876,207.288729" id="Fill-237"></path>
                        <path d="M172.548001,195.412273 C171.543894,194.464728 169.960496,194.510351 169.009052,195.514047 C168.068141,196.517742 168.10676,198.100493 169.110867,199.048038 C170.118484,199.999093 171.701883,199.946451 172.642794,198.949774 C173.594238,197.93906 173.552107,196.363328 172.548001,195.412273" id="Fill-239"></path>
                        <path d="M182.499143,181.595502 C181.496034,180.647678 179.914207,180.689804 178.963708,181.697305 C178.020224,182.697785 178.058805,184.281002 179.065422,185.228825 C180.068531,186.176649 181.653865,186.134523 182.600857,185.127022 C183.547849,184.123031 183.502253,182.543325 182.499143,181.595502" id="Fill-241"></path>
                        <path d="M196.085986,169.959603 C195.089056,169.012131 193.505903,169.06126 192.554607,170.061369 C191.606821,171.061478 191.648945,172.640598 192.659916,173.595089 C193.656846,174.542561 195.24702,174.50396 196.191295,173.489814 C197.139081,172.486196 197.089937,170.903566 196.085986,169.959603" id="Fill-243"></path>
                        <path d="M207.007834,155.90822 C206.011176,154.950613 204.424946,154.999721 203.477419,155.999421 C202.529893,157.009644 202.572005,158.591626 203.5827,159.53871 C204.582867,160.482286 206.162078,160.440194 207.113114,159.436986 C208.06415,158.433778 208.01151,156.851797 207.007834,155.90822" id="Fill-245"></path>
                        <path d="M219.389238,143.542323 C218.38515,142.594056 216.808803,142.63269 215.857378,143.644174 C214.905952,144.638099 214.951592,146.232592 215.952169,147.170323 C216.959767,148.122102 218.543136,148.079956 219.491051,147.075496 C220.435455,146.071035 220.393325,144.487078 219.389238,143.542323" id="Fill-247"></path>
                        <path d="M230.79437,131.418843 C229.793481,130.474108 228.213128,130.516252 227.264917,131.520692 C226.313194,132.525132 226.355336,134.109057 227.366762,135.053793 C228.367652,136.002041 229.948004,135.959896 230.896215,134.955456 C231.847938,133.951016 231.79526,132.367091 230.79437,131.418843" id="Fill-249"></path>
                        <path d="M245.110507,118.572667 C244.110184,117.628558 242.527216,117.670674 241.576032,118.677958 C240.635377,119.678222 240.673986,121.257586 241.674309,122.212224 C242.685162,123.159843 244.26813,123.110707 245.208784,122.106933 C246.163479,121.110179 246.11785,119.520285 245.110507,118.572667" id="Fill-251"></path>
                        <path d="M135.64776,254.079692 C134.640339,253.139367 133.06076,253.177963 132.105992,254.181444 C131.165264,255.184925 131.203876,256.774354 132.211297,257.711171 C133.215207,258.669039 134.794787,258.619917 135.746045,257.619945 C136.690283,256.605938 136.64816,255.034052 135.64776,254.079692" id="Fill-253"></path>
                        <path d="M147.045396,241.963128 C146.047453,241.015398 144.466206,241.06103 143.517458,242.064921 C142.56871,243.068812 142.61439,244.658891 143.612333,245.5996 C144.620817,246.54733 146.205578,246.498188 147.147298,245.504828 C148.09956,244.500936 148.057394,242.910857 147.045396,241.963128" id="Fill-255"></path>
                        <path d="M157.486716,230.08479 C156.487367,229.138022 154.90594,229.183607 153.952175,230.18648 C153.005423,231.189353 153.051007,232.767301 154.050357,233.724589 C155.053213,234.671358 156.641652,234.622266 157.584898,233.61238 C158.535157,232.609506 158.493079,231.031559 157.486716,230.08479" id="Fill-257"></path>
                        <path d="M169.620797,216.756042 C168.624257,215.80857 167.041722,215.847171 166.087289,216.857807 C165.146892,217.861425 165.178472,219.440544 166.189049,220.391525 C167.192607,221.338996 168.77865,221.289868 169.722557,220.28625 C170.673481,219.282632 170.624355,217.703513 169.620797,216.756042" id="Fill-259"></path>
                        <path d="M181.269654,205.602708 C180.265586,204.655607 178.682248,204.704716 177.734352,205.704434 C176.789966,206.70766 176.835605,208.28967 177.832652,209.236772 C178.840231,210.194396 180.423569,210.138272 181.367955,209.135046 C182.322873,208.128312 182.273722,206.553318 181.269654,205.602708" id="Fill-261"></path>
                        <path d="M194.375248,192.031467 C193.371785,191.083238 191.799927,191.128893 190.845584,192.129802 C189.89475,193.134223 189.936853,194.725141 190.947334,195.666346 C191.950797,196.614576 193.529673,196.56892 194.476998,195.564499 C195.424323,194.560079 195.38222,192.979697 194.375248,192.031467" id="Fill-263"></path>
                        <path d="M206.50741,178.703799 C205.507535,177.752965 203.925275,177.79156 202.981533,178.805548 C202.030774,179.801994 202.072874,181.384378 203.076258,182.335211 C204.08315,183.282536 205.661901,183.236924 206.61266,182.233462 C207.559911,181.229999 207.517811,179.651124 206.50741,178.703799" id="Fill-265"></path>
                        <path d="M218.163828,167.552318 C217.160015,166.604293 215.577078,166.646427 214.625911,167.643609 C213.678255,168.654836 213.723883,170.234877 214.727697,171.179391 C215.73502,172.134439 217.317957,172.088793 218.258594,171.084589 C219.20976,170.076873 219.164132,168.496831 218.163828,167.552318" id="Fill-267"></path>
                        <path d="M230.05025,153.247177 C229.050744,152.300003 227.465563,152.345607 226.518662,153.348911 C225.571762,154.352214 225.617354,155.941362 226.620367,156.885029 C227.62338,157.825187 229.208561,157.790107 230.151955,156.786803 C231.102362,155.779992 231.060278,154.194352 230.05025,153.247177" id="Fill-269"></path>
                        <path d="M242.428592,140.885268 C241.424875,139.940293 239.84209,139.982448 238.894525,140.987142 C237.950469,141.991837 237.992583,143.576164 238.99981,144.521139 C240.000018,145.469627 241.579293,145.423959 242.526858,144.422777 C243.481442,143.425108 243.435818,141.837269 242.428592,140.885268" id="Fill-271"></path>
                        <path d="M254.567952,127.553176 C253.570458,126.608625 251.982897,126.650761 251.034575,127.655005 C250.086253,128.659249 250.124888,130.239352 251.136432,131.194437 C252.140951,132.135476 253.717975,132.09334 254.669809,131.089097 C255.614619,130.088364 255.568959,128.501238 254.567952,127.553176" id="Fill-273"></path>
                        <path d="M145.582103,265.002993 C144.5747,264.055394 143.002169,264.101019 142.047418,265.104772 C141.099687,266.108525 141.141809,267.687856 142.149211,268.635455 C143.149594,269.583054 144.732655,269.544448 145.680386,268.544205 C146.631627,267.529923 146.582485,265.950592 145.582103,265.002993" id="Fill-275"></path>
                        <path d="M157.957623,252.641757 C156.960925,251.693805 155.374631,251.739447 154.427066,252.743574 C153.475991,253.7477 153.518105,255.338152 154.528842,256.279081 C155.529049,257.227032 157.108324,257.177879 158.059399,256.173753 C159.006964,255.169627 158.96134,253.589708 157.957623,252.641757" id="Fill-277"></path>
                        <path d="M169.125923,239.552146 C168.119031,238.603843 166.54379,238.649502 165.589524,239.654001 C164.642274,240.658501 164.684374,242.239007 165.687757,243.18731 C166.694648,244.135614 168.276906,244.089955 169.224156,243.085455 C170.171406,242.080956 170.125797,240.50045 169.125923,239.552146" id="Fill-279"></path>
                        <path d="M181.50456,227.19108 C180.496707,226.243277 178.916449,226.288912 177.961271,227.28586 C177.02014,228.29685 177.06228,229.876521 178.066621,230.827834 C179.070963,231.775637 180.654733,231.726491 181.595864,230.722523 C182.551042,229.718554 182.501879,228.138883 181.50456,227.19108" id="Fill-281"></path>
                        <path d="M193.87215,214.830183 C192.875706,213.882103 191.293325,213.927752 190.342494,214.92148 C189.398679,215.936277 189.437274,217.509388 190.440735,218.464491 C191.444195,219.412571 193.030085,219.366923 193.980916,218.36266 C194.924731,217.358397 194.882628,215.778264 193.87215,214.830183" id="Fill-283"></path>
                        <path d="M203.826897,201.006242 C202.830199,200.06147 201.250924,200.110641 200.29634,201.115119 C199.348775,202.116085 199.390889,203.70007 200.398116,204.641329 C201.398323,205.596637 202.988127,205.547466 203.928673,204.5465 C204.879748,203.542022 204.834124,201.954525 203.826897,201.006242" id="Fill-285"></path>
                        <path d="M217.41765,189.37665 C216.413974,188.424837 214.834764,188.481032 213.890748,189.478505 C212.939713,190.486514 212.978316,192.063505 213.981991,193.008294 C214.992685,193.960108 216.578914,193.917961 217.519421,192.913464 C218.466947,191.908967 218.424834,190.328464 217.41765,189.37665" id="Fill-287"></path>
                        <path d="M228.339277,175.313765 C227.339229,174.37355 225.756697,174.412141 224.809283,175.419013 C223.865378,176.418868 223.900467,178.008111 224.904024,178.951834 C225.914599,179.902574 227.493623,179.853458 228.441037,178.853603 C229.395469,177.85024 229.342834,176.264504 228.339277,175.313765" id="Fill-289"></path>
                        <path d="M240.960836,163.928055 C239.960862,162.976462 238.378448,163.025622 237.427597,164.026374 C236.480253,165.027127 236.522357,166.610774 237.529348,167.558855 C238.536339,168.506937 240.118753,168.468311 241.05557,167.460536 C242.009931,166.459783 241.967827,164.876136 240.960836,163.928055" id="Fill-291"></path>
                        <path d="M252.1238,150.836112 C251.126346,149.891855 249.542361,149.930468 248.590565,150.937909 C247.645794,151.94184 247.68794,153.521452 248.692418,154.469219 C249.700408,155.416986 251.284393,155.378373 252.225653,154.370932 C253.180961,153.367001 253.124766,151.783879 252.1238,150.836112" id="Fill-293"></path>
                        <path d="M265.473899,138.233196 C264.47623,137.284874 262.891904,137.330534 261.939903,138.335053 C260.991415,139.339572 261.037083,140.920109 262.038265,141.864919 C263.04296,142.816753 264.630799,142.771093 265.575774,141.770086 C266.520749,140.762055 266.478594,139.181518 265.473899,138.233196" id="Fill-295"></path>
                        <path d="M155.51994,275.923546 C154.512793,274.975722 152.937152,275.021358 151.986153,276.025349 C151.031644,277.029339 151.084283,278.609045 152.084411,279.556868 C153.091558,280.504691 154.670708,280.466076 155.614689,279.455065 C156.565688,278.451074 156.523578,276.871369 155.51994,275.923546" id="Fill-297"></path>
                        <path d="M167.649852,262.593878 C166.652804,261.646629 165.065953,261.68522 164.121565,262.69562 C163.170157,263.699003 163.215796,265.281261 164.219866,266.22851 C165.220425,267.17576 166.803765,267.126643 167.751663,266.133785 C168.703072,265.130402 168.657432,263.551653 167.649852,262.593878" id="Fill-299"></path>
                        <path d="M180.031305,250.230616 C179.031157,249.282312 177.444957,249.327971 176.500958,250.33247 C175.549939,251.33697 175.588542,252.917476 176.599218,253.865779 C177.599366,254.814083 179.182056,254.768424 180.133074,253.763925 C181.077074,252.759425 181.034962,251.178919 180.031305,250.230616" id="Fill-301"></path>
                        <path d="M191.19712,237.140498 C190.190599,236.192547 188.608925,236.238189 187.662025,237.242315 C186.715124,238.246442 186.753701,239.826361 187.767236,240.777823 C188.763235,241.725774 190.348416,241.676621 191.295317,240.672495 C192.245724,239.668369 192.196626,238.08845 191.19712,237.140498" id="Fill-303"></path>
                        <path d="M203.5704,224.773281 C202.570447,223.836501 200.988066,223.871587 200.037233,224.885554 C199.093418,225.878471 199.132013,227.467839 200.138983,228.415144 C201.145953,229.362449 202.728335,229.316838 203.675658,228.313396 C204.619474,227.309954 204.57737,225.724095 203.5704,224.773281" id="Fill-305"></path>
                        <path d="M215.950133,212.416852 C214.946495,211.469827 213.367344,211.515424 212.412835,212.51857 C211.468853,213.521716 211.510964,215.110615 212.518111,216.057641 C213.52175,217.004666 215.100901,216.948546 216.044882,215.955923 C216.999391,214.942255 216.953771,213.374401 215.950133,212.416852" id="Fill-307"></path>
                        <path d="M227.115923,199.329063 C226.112403,198.378083 224.533437,198.427211 223.57904,199.42732 C222.631661,200.434446 222.677275,202.013564 223.684305,202.968054 C224.687825,203.908506 226.263282,203.866396 227.21417,202.862779 C228.165058,201.859162 228.115935,200.273025 227.115923,199.329063" id="Fill-309"></path>
                        <path d="M239.490419,186.971295 C238.490387,186.016376 236.904372,186.065526 235.956974,187.062574 C235.009576,188.066643 235.055191,189.653493 236.055223,190.601391 C237.062272,191.549288 238.648287,191.507159 239.588667,190.492558 C240.543083,189.492 240.493959,187.915681 239.490419,186.971295" id="Fill-311"></path>
                        <path d="M251.626033,173.629219 C250.630015,172.68546 249.044803,172.734578 248.094378,173.737979 C247.14746,174.737871 247.186038,176.320158 248.192577,177.270933 C249.199116,178.218199 250.777313,178.17259 251.724232,177.165681 C252.678164,176.165788 252.629065,174.58701 251.626033,173.629219" id="Fill-313"></path>
                        <path d="M264.734908,160.059746 C263.730566,159.114697 262.146796,159.156855 261.19513,160.161629 C260.253998,161.166403 260.292627,162.74734 261.296968,163.695902 C262.304822,164.644465 263.88508,164.598793 264.829723,163.59402 C265.784901,162.599786 265.732226,161.011822 264.734908,160.059746" id="Fill-315"></path>
                        <path d="M275.409196,149.154614 C274.402109,148.206625 272.826561,148.248758 271.879127,149.256435 C270.931693,150.260601 270.970292,151.840584 271.973871,152.788573 C272.984467,153.736562 274.560015,153.690918 275.510958,152.690263 C276.458392,151.682585 276.416283,150.102603 275.409196,149.154614" id="Fill-317"></path>
                        <path d="M167.150406,285.390143 C166.150532,284.441839 164.578799,284.487498 163.624533,285.491998 C162.673775,286.496497 162.712366,288.077003 163.719258,289.025307 C164.726149,289.97361 166.308407,289.927951 167.255656,288.923452 C168.202906,287.918953 168.157298,286.338447 167.150406,285.390143" id="Fill-319"></path>
                        <path d="M179.288757,272.058104 C178.285393,271.110152 176.703166,271.155795 175.752426,272.159921 C174.808703,273.164047 174.850802,274.747477 175.854166,275.695428 C176.861038,276.64338 178.439757,276.594227 179.390496,275.5901 C180.337728,274.596507 180.29212,273.009566 179.288757,272.058104" id="Fill-321"></path>
                        <path d="M189.726343,260.176415 C188.72294,259.225608 187.137142,259.285252 186.193382,260.288687 C185.242605,261.281596 185.288215,262.870952 186.291617,263.818251 C187.291512,264.765549 188.880818,264.71643 189.821069,263.712995 C190.771846,262.713069 190.733254,261.123713 189.726343,260.176415" id="Fill-323"></path>
                        <path d="M204.042703,247.33636 C203.042301,246.387781 201.462719,246.433453 200.51146,247.431218 C199.560201,248.432497 199.605833,250.027516 200.609745,250.976095 C201.613657,251.914135 203.200259,251.875489 204.144498,250.870697 C205.088737,249.865906 205.050125,248.288453 204.042703,247.33636" id="Fill-325"></path>
                        <path d="M214.48025,235.453153 C213.483146,234.512811 211.892694,234.551407 210.944742,235.565433 C209.99679,236.558407 210.042433,238.13734 211.05007,239.095227 C212.050686,240.042587 213.627094,239.993464 214.582067,238.989964 C215.530019,237.989973 215.480866,236.400513 214.48025,235.453153" id="Fill-327"></path>
                        <path d="M227.345888,220.911444 C226.341646,219.964693 224.758034,220.010277 223.813484,221.023651 C222.861913,222.015987 222.904049,223.593905 223.90829,224.551176 C224.916044,225.497927 226.496145,225.452343 227.451228,224.438968 C228.392266,223.436113 228.343107,221.858195 227.345888,220.911444" id="Fill-329"></path>
                        <path d="M238.991724,209.768521 C237.988087,208.819739 236.408938,208.858393 235.45443,209.859885 C234.513959,210.864891 234.552561,212.449708 235.556198,213.39849 C236.563344,214.347272 238.146002,214.30159 239.093491,213.303612 C240.040981,212.288064 239.995361,210.710275 238.991724,209.768521" id="Fill-331"></path>
                        <path d="M251.129325,196.435398 C250.125746,195.483991 248.54318,195.52963 247.592236,196.533698 C246.648311,197.537766 246.68691,199.117593 247.693998,200.072511 C248.697576,201.013386 250.276634,200.971257 251.224068,199.967189 C252.175012,198.963121 252.132903,197.379783 251.129325,196.435398" id="Fill-333"></path>
                        <path d="M262.534658,184.313048 C261.536794,183.364819 259.952158,183.410474 258.999971,184.414895 C258.054811,185.419316 258.093461,186.999698 259.101866,187.947927 C260.103243,188.896157 261.691393,188.850501 262.633039,187.849592 C263.581713,186.84166 263.53955,185.261278 262.534658,184.313048" id="Fill-335"></path>
                        <path d="M273.700374,171.225377 C272.69199,170.274119 271.117927,170.323261 270.16576,171.316641 C269.217106,172.331083 269.262782,173.910662 270.260625,174.85841 C271.269009,175.806158 272.850099,175.760526 273.802266,174.760125 C274.747406,173.756215 274.70173,172.173125 273.700374,171.225377" id="Fill-337"></path>
                        <path d="M282.296716,157.987987 C281.35099,158.996454 281.40021,160.577673 282.398671,161.522891 C283.404164,162.475137 284.993264,162.429457 285.942506,161.428018 C286.392516,160.946624 286.617522,160.331706 286.617522,159.713273 C286.339781,159.080785 286.051493,158.458839 285.763204,157.826351 C284.754196,156.951409 283.228379,157.007631 282.296716,157.987987" id="Fill-339"></path>
                        <path d="M178.73278,296.059423 C177.647199,295.249423 175.939116,295.288423 174.906675,296.146423 C174.77762,296.257423 174.675135,296.377423 174.57265,296.497423 C176.235184,296.995423 177.897718,297.439423 179.55266,297.871423 C179.651349,297.220423 179.385647,296.545423 178.73278,296.059423" id="Fill-341"></path>
                        <path d="M189.225598,282.980681 C188.221961,282.03321 186.642812,282.07181 185.688304,283.082447 C184.747833,284.086064 184.786435,285.668693 185.790072,286.616164 C186.797218,287.563635 188.379876,287.514507 189.327365,286.510889 C190.274855,285.507272 190.229235,283.931662 189.225598,282.980681" id="Fill-343"></path>
                        <path d="M200.634961,270.863725 C199.630932,269.905894 198.047656,269.96203 197.099797,270.954947 C196.151938,271.958389 196.194065,273.547757 197.198094,274.495062 C198.202122,275.442368 199.788909,275.396757 200.726236,274.393315 C201.681116,273.389873 201.638989,271.81103 200.634961,270.863725" id="Fill-345"></path>
                        <path d="M212.76633,257.523806 C211.7655,256.583719 210.181731,256.622305 209.230064,257.625532 C208.285421,258.628758 208.334585,260.217785 209.328391,261.154364 C210.339756,262.111989 211.920014,262.066388 212.864657,261.063161 C213.816324,260.059935 213.774183,258.481431 212.76633,257.523806" id="Fill-347"></path>
                        <path d="M226.354086,245.887435 C225.357215,244.946599 223.777665,244.995747 222.822916,245.989242 C221.878696,246.993268 221.917307,248.573029 222.921199,249.531417 C223.93211,250.479274 225.51517,250.430126 226.455879,249.4261 C227.410629,248.425585 227.357977,246.842313 226.354086,245.887435" id="Fill-349"></path>
                        <path d="M237.277038,231.83795 C236.280108,230.888944 234.693444,230.927607 233.745659,231.932851 C232.797873,232.934579 232.843507,234.519771 233.847458,235.468777 C234.854919,236.417783 236.431052,236.37209 237.378838,235.366847 C238.333644,234.361603 238.280989,232.779926 237.277038,231.83795" id="Fill-351"></path>
                        <path d="M249.89397,220.443199 C248.890526,219.492902 247.311682,219.541995 246.364375,220.544891 C245.417068,221.537268 245.462679,223.125772 246.466123,224.072562 C247.469566,225.029872 249.048411,224.98078 249.995718,223.97087 C250.950042,222.967973 250.904431,221.389989 249.89397,220.443199" id="Fill-353"></path>
                        <path d="M261.061981,207.355669 C260.061521,206.404428 258.478338,206.45006 257.527024,207.453952 C256.582731,208.457845 256.628366,210.040906 257.628826,210.988637 C258.636306,211.936368 260.212468,211.890736 261.167292,210.886844 C262.111585,209.882951 262.069461,208.3034 261.061981,207.355669" id="Fill-355"></path>
                        <path d="M273.438951,194.993841 C272.438646,194.042526 270.855708,194.088161 269.904542,195.095643 C268.960395,196.089083 269.002513,197.679289 270.013347,198.627094 C271.013651,199.574899 272.593079,199.529263 273.537226,198.525292 C274.488393,197.521321 274.449785,195.941646 273.438951,194.993841" id="Fill-357"></path>
                        <path d="M285.582153,181.660869 C284.57746,180.712696 282.993136,180.758349 282.041136,181.752175 C281.096162,182.760048 281.138317,184.34736 282.143011,185.292021 C283.151217,186.243706 284.732028,186.198053 285.684028,185.193692 C286.621976,184.189331 286.579821,182.609042 285.582153,181.660869" id="Fill-359"></path>
                        <path d="M201.34453,294.385122 C200.34372,293.4368 198.756471,293.485972 197.808335,294.479954 C196.867223,295.491498 196.905851,297.075547 197.910172,298.013333 C198.918005,298.972192 200.494719,298.92302 201.446367,297.918501 C202.398014,296.906957 202.34534,295.336957 201.34453,294.385122" id="Fill-361"></path>
                        <path d="M212.757506,282.272911 C211.750536,281.315341 210.171663,281.364447 209.217322,282.364108 C208.269998,283.367277 208.31561,284.956211 209.319071,285.903259 C210.322533,286.850306 211.908423,286.804707 212.84873,285.791016 C213.803071,284.79837 213.75395,283.219958 212.757506,282.272911" id="Fill-363"></path>
                        <path d="M224.884061,268.933719 C223.883875,267.986136 222.301124,268.031761 221.350069,269.035497 C220.406034,270.039233 220.451656,271.618537 221.451843,272.56612 C222.459048,273.513703 224.038289,273.478608 224.989344,272.464343 C225.936889,271.471136 225.891266,269.881302 224.884061,268.933719" id="Fill-365"></path>
                        <path d="M236.294006,256.811396 C235.290289,255.870873 233.707505,255.909477 232.763449,256.913169 C231.812375,257.916862 231.854489,259.496099 232.865225,260.454169 C233.865432,261.401711 235.444707,261.34556 236.395782,260.352396 C237.343347,259.338175 237.297724,257.765957 236.294006,256.811396" id="Fill-367"></path>
                        <path d="M249.15766,242.270666 C248.150514,241.322363 246.571365,241.368022 245.620366,242.372521 C244.679895,243.377021 244.718497,244.968063 245.722134,245.90583 C246.72928,246.854134 248.311938,246.808475 249.259427,245.803975 C250.206917,244.810013 250.161297,243.21897 249.15766,242.270666" id="Fill-369"></path>
                        <path d="M260.56132,230.152277 C259.563378,229.200721 257.975103,229.249879 257.029868,230.254104 C256.084634,231.258329 256.126801,232.838404 257.128257,233.786448 C258.136741,234.734493 259.721502,234.688846 260.659709,233.684621 C261.615485,232.680396 261.569804,231.100322 260.56132,230.152277" id="Fill-371"></path>
                        <path d="M272.696221,216.819313 C271.699485,215.871009 270.11664,215.916668 269.165529,216.921167 C268.221437,217.91513 268.260043,219.506173 269.263799,220.454476 C270.264045,221.40278 271.84689,221.357121 272.794491,220.352622 C273.749112,219.348122 273.706996,217.767616 272.696221,216.819313" id="Fill-373"></path>
                        <path d="M284.348048,205.671076 C283.34047,204.720262 281.760645,204.769382 280.816261,205.769315 C279.868366,206.776266 279.910494,208.355108 280.91105,209.305922 C281.925649,210.253228 283.498453,210.207617 284.449859,209.204175 C285.401265,208.204241 285.348604,206.618382 284.348048,205.671076" id="Fill-375"></path>
                        <path d="M293.251699,195.260796 C293.608699,195.661505 294.052699,195.874271 294.511699,195.927463 C294.538699,194.232427 294.520699,192.572853 294.469699,190.927463 C293.986699,190.994839 293.521699,191.246612 293.170699,191.696966 C292.357699,192.707604 292.399699,194.306895 293.251699,195.260796" id="Fill-377"></path>
                        <path d="M208.630928,303.11957 C209.263928,303.11957 209.890928,303.11357 210.505928,303.08057 C209.908928,302.80157 209.209928,302.81657 208.630928,303.11957" id="Fill-379"></path>
                        <path d="M223.41762,291.979464 C222.418095,291.020625 220.836391,291.076821 219.882458,292.070782 C218.93554,293.07528 218.981132,294.659296 219.984164,295.614623 C220.987196,296.5559 222.565394,296.510241 223.512312,295.512768 C224.466244,294.50827 224.424159,292.927766 223.41762,291.979464" id="Fill-381"></path>
                        <path d="M235.80038,279.611788 C234.789291,278.664762 233.212974,278.710359 232.261567,279.713505 C231.31367,280.716651 231.355799,282.295027 232.363378,283.252576 C233.363935,284.199602 234.943763,284.143482 235.89517,283.150858 C236.846577,282.13719 236.793916,280.558813 235.80038,279.611788" id="Fill-383"></path>
                        <path d="M246.71816,265.552202 C245.721173,264.604379 244.13442,264.650015 243.186581,265.654005 C242.238741,266.657996 242.277357,268.237701 243.281365,269.185524 C244.288883,270.133348 245.868615,270.094733 246.823476,269.083721 C247.764294,268.079731 247.722168,266.500025 246.71816,265.552202" id="Fill-385"></path>
                        <path d="M259.340425,254.161353 C258.332886,253.21305 256.75312,253.258709 255.805261,254.263208 C254.857402,255.267707 254.896018,256.848213 255.903557,257.796517 C256.911097,258.744821 258.490863,258.699162 259.431701,257.694662 C260.386581,256.690163 260.340944,255.109657 259.340425,254.161353" id="Fill-387"></path>
                        <path d="M271.472205,240.82031 C270.471277,239.88282 268.887352,239.928466 267.935592,240.932668 C266.990856,241.936871 267.036513,243.51691 268.033929,244.464933 C269.045393,245.412956 270.622294,245.367311 271.56703,244.363108 C272.522301,243.358906 272.476645,241.778867 271.472205,240.82031" id="Fill-389"></path>
                        <path d="M283.850809,228.468078 C282.850135,227.519774 281.266612,227.565433 280.315093,228.569932 C279.370597,229.563895 279.40922,231.154938 280.413405,232.103241 C281.424613,233.051545 283.008136,233.005886 283.94561,232.001387 C284.90064,230.996887 284.851484,229.416381 283.850809,228.468078" id="Fill-391"></path>
                        <path d="M291.956909,218.677453 C292.046909,218.79109 292.139909,218.885133 292.238909,218.967422 C292.475909,217.27855 292.688909,215.617108 292.880909,213.967422 C292.511909,214.092814 292.157909,214.343597 291.872909,214.747202 C291.062909,215.867892 291.101909,217.631215 291.956909,218.677453" id="Fill-393"></path>
                        <path d="M242.459371,287.603892 C241.487735,288.764326 241.534517,290.590184 242.560133,291.685699 C242.563732,291.685699 242.560133,291.685699 242.563732,291.697871 C244.01039,290.74031 245.39947,289.742174 246.759761,288.744039 C246.633808,288.281488 246.41429,287.839224 246.086813,287.486225 C245.053999,286.39071 243.434606,286.443457 242.459371,287.603892" id="Fill-395"></path>
                        <path d="M258.839448,276.959391 C257.832379,276.011087 256.253352,276.056746 255.302426,277.061245 C254.358519,278.065745 254.397117,279.646251 255.404186,280.594554 C256.411255,281.542858 257.990282,281.497199 258.93419,280.4927 C259.888624,279.498737 259.839499,277.907694 258.839448,276.959391" id="Fill-397"></path>
                        <path d="M268.504693,267.020847 C269.508585,267.96915 271.098666,267.923491 272.042886,266.918992 C272.994126,265.914493 272.944985,264.333987 271.941093,263.385683 C270.940711,262.437379 269.35414,262.483039 268.41343,263.487538 C267.458679,264.481501 267.507821,266.072543 268.504693,267.020847" id="Fill-399"></path>
                        <path d="M278.732959,251.888578 C277.980659,252.926898 278.019523,254.588944 278.813464,255.579567 C278.977248,255.78503 279.171569,255.939127 279.371442,256.067541 C280.015478,254.53024 280.617873,252.996609 281.192508,251.440963 C280.409672,250.820907 279.385322,250.975004 278.732959,251.888578" id="Fill-401"></path>
                    </g>
                </g>
            </g>
        </g>
    </g>
</svg>