<?xml version="1.0" encoding="UTF-8"?>
<svg width="333px" height="345px" viewBox="0 0 333 345" version="1.1" xmlns="http://www.w3.org/2000/svg" xmlns:xlink="http://www.w3.org/1999/xlink">
    <!-- Generator: sketchtool 59.1 (101010) - https://sketch.com -->
    <title>6038BF97-6DEA-425E-8A15-FD26B53607AB</title>
    <desc>Created with sketchtool.</desc>
    <g id="Splash-Page" stroke="none" stroke-width="1" fill="none" fill-rule="evenodd">
        <g transform="translate(-1088.000000, -445.000000)" fill="#00CFFF" id="Banner">
            <g>
                <g id="BG">
                    <g id="Group" transform="translate(1088.000000, 445.000000)">
                        <path d="M8.05645038,44.8191001 C6.85678652,43.681513 4.95416172,43.7362858 3.82184741,44.9370721 C2.68532375,46.1462851 2.73162657,48.0422636 3.93549978,49.1798507 C5.14358233,50.3174378 7.04199778,50.2668784 8.17010274,49.0576654 C9.32346379,47.8526658 9.26453294,45.9566873 8.05645038,44.8191001" id="Fill-1"></path>
                        <path d="M21.060688,30.8226091 C19.8568621,29.6803181 17.9585211,29.7351144 16.8178329,30.9406317 C15.6813539,32.1377189 15.7360732,34.0429422 16.9398992,35.181018 C18.1479343,36.3190938 20.0420661,36.2642976 21.1785451,35.0587802 C22.3192333,33.8532629 22.264514,31.9564698 21.060688,30.8226091" id="Fill-3"></path>
                        <path d="M35.0566353,15.8190175 C33.8558729,14.6856007 31.9557191,14.7319486 30.8139415,15.9369939 C29.6805903,17.1462527 29.7395751,19.0507299 30.9361243,20.1757197 C32.1453131,21.3175633 34.0412538,21.267002 35.174605,20.0619567 C36.3205958,18.8611248 36.2658241,16.9566476 35.0566353,15.8190175" id="Fill-5"></path>
                        <path d="M49.0017889,5.72443857 C49.5545617,5.40343857 49.881932,5.01343857 50,4.60843857 C47.9767442,5.03743857 45.980322,5.49043857 44,5.99143857 C45.5402504,6.60043857 47.6762075,6.51643857 49.0017889,5.72443857" id="Fill-7"></path>
                        <path d="M6.06435572,69.8190449 C4.85923898,68.6808816 2.95886257,68.7356821 1.82959233,69.9412921 C0.67925362,71.1469021 0.734031654,73.0480564 1.9391484,74.1862197 C3.14847884,75.3159522 5.04464155,75.2653671 6.18233918,74.0597571 C7.3200368,72.8541471 7.26104508,70.9614237 6.06435572,69.8190449" id="Fill-9"></path>
                        <path d="M20.0579881,56.8119404 C18.8612275,55.6794313 16.9649519,55.7383723 15.8187586,56.9466627 C14.6809932,58.1423229 14.7357745,60.0452751 15.940963,61.1819943 C17.1503655,62.3187135 19.0424272,62.2639825 20.1759786,61.0599022 C21.3221718,59.8558219 21.2631766,57.9528697 20.0579881,56.8119404" id="Fill-11"></path>
                        <path d="M34.0548147,42.8174633 C32.8545659,41.6840914 30.955225,41.7346507 29.8223587,42.9354351 C28.6810696,44.144646 28.7358177,46.0406213 29.9360664,47.186633 C31.144738,48.3157917 33.0398675,48.2652323 34.1769452,47.0602347 C35.3224457,45.855237 35.2634862,43.9550485 34.0548147,42.8174633" id="Fill-13"></path>
                        <path d="M47.0601942,26.8127009 C45.8641583,25.6878639 43.9606081,25.7299926 42.8151088,26.9433 C41.6822437,28.1397559 41.7369919,30.0439744 42.9372392,31.1772372 C44.1459094,32.3231387 46.0410368,32.2599456 47.1781133,31.0634897 C48.3194011,29.8543951 48.264653,27.9628152 47.0601942,26.8127009" id="Fill-15"></path>
                        <path d="M61.0591838,13.8244256 C59.8549378,12.6823807 57.9559344,12.732951 56.8148482,13.9382086 C55.6863939,15.1476805 55.732711,17.0524933 56.936957,18.1776814 C58.1454137,19.3155121 60.0402064,19.2691561 61.1855033,18.0596842 C62.3181683,16.8586407 62.2634298,14.9538279 61.0591838,13.8244256" id="Fill-17"></path>
                        <path d="M69.9332878,2.4484144 C71.1334407,3.21305121 73.0477691,3.17906736 74.1803078,2.36911873 C75.1142296,1.71209747 75.2410063,0.752053474 74.6071227,0.00440859105 C72.8280228,-0.0125833381 71.0573747,0.018568532 69.3036301,0.114856131 C68.7458125,0.885156919 68.957107,1.83387296 69.9332878,2.4484144" id="Fill-19"></path>
                        <path d="M5.06106036,96.8201493 C3.86479208,95.6825622 1.95665993,95.7331216 0.81515041,96.9423346 C-0.313722474,98.1473342 -0.26738814,100.043313 0.937304565,101.1809 C2.14620948,102.318487 4.041705,102.263714 5.18321452,101.062928 C6.31629962,99.8537149 6.26575307,97.9577364 5.06106036,96.8201493" id="Fill-21"></path>
                        <path d="M20.0608776,82.8221329 C18.8559503,81.6811571 16.9600857,81.7358903 15.822567,82.9358094 C14.6850482,84.144149 14.7313916,86.0471786 15.9363189,87.1839441 C17.1496722,88.3207096 19.0328977,88.2617662 20.1830555,87.0576368 C21.3163612,85.8535075 21.2658048,83.9631086 20.0608776,82.8221329" id="Fill-23"></path>
                        <path d="M32.0592953,67.8197388 C30.8548836,66.6812647 28.9598301,66.7360801 27.8185869,67.9378028 C26.685766,69.1353088 26.7320896,71.0454153 27.9365013,72.1838893 C29.1451243,73.3181468 31.0317552,73.2633314 32.1729985,72.0616088 C33.318453,70.8556696 33.2679183,68.9582128 32.0592953,67.8197388" id="Fill-25"></path>
                        <path d="M47.0576689,52.8147947 C45.8567425,51.6776776 43.9605429,51.7408507 42.8186094,52.9411411 C41.6851035,54.1414314 41.731455,56.0450498 42.9408089,57.1863785 C44.1501629,58.3192841 46.0379349,58.2603225 47.1798684,57.0642437 C48.3133744,55.8597418 48.2712366,53.9645465 47.0576689,52.8147947" id="Fill-27"></path>
                        <path d="M59.0681237,39.8157001 C57.8628904,38.6787815 55.9623301,38.7377328 54.8203083,39.9462352 C53.6825006,41.146316 53.7330699,43.0411803 54.9425173,44.1865206 C56.1519647,45.3192284 58.0483109,45.260277 59.1819044,44.0644071 C60.315498,42.8601155 60.2649288,40.9568295 59.0681237,39.8157001" id="Fill-29"></path>
                        <path d="M72.0632589,24.8207007 C70.8621451,23.6830024 68.9572208,23.7335668 67.8193235,24.9386843 C66.6814262,26.139588 66.7362138,28.0441792 67.9373276,29.1776638 C69.1426559,30.3195758 71.0433658,30.2647977 72.1770486,29.0596803 C73.3191603,27.8503491 73.2643727,25.9541853 72.0632589,24.8207007" id="Fill-31"></path>
                        <path d="M87.0604873,9.82002823 C85.8598656,8.67856188 83.9599346,8.73753062 82.8225035,9.94217777 C81.6850725,11.1468249 81.7314123,13.0422487 82.9362466,14.1837151 C84.1452937,15.3167573 86.041012,15.2662127 87.1742304,14.0573535 C88.3200868,12.8569184 88.2653216,10.9572825 87.0604873,9.82002823" id="Fill-33"></path>
                        <path d="M18.0547235,108.822697 C16.8593174,107.673658 14.9609789,107.741001 13.8202922,108.944756 C12.6838146,110.14851 12.7343247,112.04253 13.9339399,113.178942 C15.1419735,114.323772 17.040312,114.260638 18.1809988,113.056883 C19.3216856,111.853128 19.2627571,109.959108 18.0547235,108.822697" id="Fill-35"></path>
                        <path d="M31.0555685,93.8191643 C29.852069,92.6814881 27.9584509,92.7362651 26.82228,93.9371456 C25.6819011,95.1422397 25.7323976,97.0341532 26.9443132,98.1760431 C28.1478127,99.3221466 30.0498469,99.263156 31.1776016,98.0580619 C32.3221886,96.8529677 32.263276,94.9610542 31.0555685,93.8191643" id="Fill-37"></path>
                        <path d="M45.0554602,79.8119894 C43.8560313,78.6785979 41.9579876,78.7417981 40.8216865,79.9383899 C39.6853854,81.139195 39.7316791,83.0394165 40.9353166,84.1854481 C42.1473711,85.3188396 44.0496233,85.264066 45.1775074,84.0548342 C46.3222255,82.8582424 46.2633062,80.9580209 45.0554602,79.8119894" id="Fill-39"></path>
                        <path d="M59.0558316,64.8204374 C57.8517704,63.6824507 55.9572685,63.7330279 54.8163573,64.9426656 C53.6838662,66.139659 53.7343862,68.0405182 54.9384474,69.1785049 C56.1467187,70.3207063 58.0412206,70.2616996 59.1737117,69.0647062 C60.3188328,67.8592833 60.2683128,65.9626388 59.0558316,64.8204374" id="Fill-41"></path>
                        <path d="M72.0572342,50.8276999 C70.8560499,49.6778753 68.9594431,49.7368406 67.8172643,50.937207 C66.6835149,52.1417852 66.7340911,54.0413123 67.9394901,55.1827133 C69.1448891,56.3156906 71.0372812,56.2693607 72.17946,55.0521471 C73.3216387,53.8475689 73.2626332,51.9564654 72.0572342,50.8276999" id="Fill-43"></path>
                        <path d="M85.0648711,36.8188376 C83.8554467,35.6809624 81.9591366,35.735749 80.8171365,36.9410538 C79.6835645,38.1421443 79.7341327,40.0428173 80.9393431,41.1806924 C82.1361255,42.3185676 84.0450777,42.263781 85.1786497,41.0626906 C86.3206498,39.8531714 86.2616535,37.9609271 85.0648711,36.8188376" id="Fill-45"></path>
                        <path d="M98.0634842,21.8223362 C96.8620659,20.6804242 94.9566587,20.7352023 93.8226885,21.9403197 C92.6802873,23.1370098 92.7350888,25.041601 93.9407226,26.1792993 C95.1463563,27.3169976 97.0517636,27.2664332 98.1857338,26.0613157 C99.3154885,24.8519846 99.2649025,22.9558208 98.0634842,21.8223362" id="Fill-47"></path>
                        <path d="M109.162292,12.2492385 C110.524727,12.9632385 112.563057,13.0202385 114,12.4112385 C113.004784,12.0122385 112.046822,11.6072385 110.998386,11.1932385 C110.045746,10.8242385 109.066496,10.5062385 108.1245,10.1702385 C107.789213,10.8902385 108.129822,11.6942385 109.162292,12.2492385" id="Fill-49"></path>
                        <path d="M29.0599366,120.821453 C27.8601103,119.684023 25.9572279,119.734576 24.8163404,120.930983 C23.6838727,122.135816 23.7343917,124.04417 24.938428,125.177387 C26.1466741,126.319029 28.0411367,126.264264 29.1820242,125.063644 C30.3187018,123.850386 30.2639729,121.958882 29.0599366,120.821453" id="Fill-51"></path>
                        <path d="M44.054833,105.81708 C42.8630302,104.684239 40.9637261,104.734775 39.8182479,105.934997 C38.6811922,107.135219 38.7359393,109.047151 39.9403761,110.184204 C41.1490241,111.321256 43.0441169,111.262298 44.1769612,110.053653 C45.3224395,108.853431 45.263481,106.958344 44.054833,105.81708" id="Fill-53"></path>
                        <path d="M57.058631,90.8204757 C55.8626871,89.6830894 53.9550723,89.7336399 52.8222945,90.9384269 C51.6810945,92.1474265 51.7358384,94.0388578 52.9359933,95.1804567 C54.1445705,96.3220556 56.039552,96.2588675 57.1765409,95.0667181 C58.321952,93.8619311 58.262997,91.9578621 57.058631,90.8204757" id="Fill-55"></path>
                        <path d="M72.0633026,76.8206363 C70.8658676,75.6830273 68.9643072,75.7335877 67.8216844,76.9386105 C66.6832779,78.13942 66.7338738,80.0438616 67.935525,81.1772571 C69.145609,82.3190794 71.0429531,82.2643057 72.1855759,81.0634963 C73.3155497,79.8542601 73.2649538,77.9540318 72.0633026,76.8206363" id="Fill-57"></path>
                        <path d="M84.0602715,62.8193901 C82.8557665,61.678812 80.9605665,61.7377349 79.8150233,62.9414445 C78.6863264,64.1451542 78.7326535,66.0391029 79.9371585,67.1754721 C81.1500865,68.3202589 83.041075,68.2655449 84.178195,67.0576264 C85.3153151,65.849708 85.2689879,63.9599681 84.0602715,62.8193901" id="Fill-59"></path>
                        <path d="M98.0621207,47.8189017 C96.8572861,46.6809374 94.9615674,46.7357283 93.8241362,47.9411275 C92.6824922,49.1423121 92.7330447,51.0515633 93.9378793,52.1810983 C95.1469266,53.3190626 97.0426453,53.2642717 98.1758638,52.0588725 C99.3175078,50.8619026 99.2669553,48.9568661 98.0621207,47.8189017" id="Fill-61"></path>
                        <path d="M111.063989,33.821626 C109.851177,32.6800476 107.96037,32.7348097 106.823359,33.9437875 C105.682137,35.148553 105.732671,37.0441629 106.941271,38.1815288 C108.14145,39.3188948 110.04489,39.2641327 111.17769,38.0593673 C112.318912,36.8503894 112.264167,34.9632044 111.063989,33.821626" id="Fill-63"></path>
                        <path d="M121.022778,25.0793756 C122.335704,26.358696 124.385148,26.2970991 125.629453,24.9419671 C125.766693,24.7856058 125.894783,24.6150297 126,24.4397155 C124.531537,22.9803426 122.921259,21.4972786 121.228638,20 C121.114271,20.0995027 120.99533,20.1942672 120.894688,20.3079845 C119.645808,21.6678547 119.719003,23.7953171 121.022778,25.0793756" id="Fill-65"></path>
                        <path d="M42.066796,132.821661 C40.8529206,131.683943 38.9604551,131.734509 37.8224469,132.931219 C36.6844387,134.144785 36.7308019,136.045195 37.9404625,137.182913 C39.1416934,138.316417 41.0425886,138.265851 42.176382,137.060713 C43.3228199,135.855575 43.2595972,133.955165 42.066796,132.821661" id="Fill-67"></path>
                        <path d="M55.0598513,118.820413 C53.8597677,117.683114 51.960688,117.73366 50.8237667,118.938355 C49.6826345,120.138837 49.7331644,122.04276 50.9374588,123.180058 C52.1459641,124.317357 54.0408329,124.266811 55.1819651,123.057904 C56.3146756,121.85321 56.2683565,119.961924 55.0598513,118.820413" id="Fill-69"></path>
                        <path d="M70.0613653,103.818167 C68.8564608,102.677346 66.960632,102.736282 65.8189218,103.952877 C64.6856375,105.144214 64.7319799,107.042776 65.9368845,108.175178 C67.1460019,109.324418 69.0376178,109.261273 70.179328,108.057307 C71.3210382,106.853341 71.2620569,104.954779 70.0613653,103.818167" id="Fill-71"></path>
                        <path d="M83.0578972,88.8224008 C81.861021,87.6803991 79.960348,87.7351815 78.8140441,88.9403936 C77.6845976,90.1498197 77.7351698,92.0419185 78.9362603,93.1797061 C80.1415652,94.3174938 82.0380238,94.2669255 83.175899,93.0574993 C84.3222029,91.8565012 84.263202,89.9559744 83.0578972,88.8224008" id="Fill-73"></path>
                        <path d="M97.0576392,74.8131873 C95.852758,73.6802363 93.9569659,73.7392002 92.8194906,74.9395387 C91.6820154,76.1440889 91.7367827,78.0435718 92.9332382,79.1807345 C94.150758,80.3178973 96.0465501,80.263145 97.1798124,79.0670183 C98.3215006,77.8540447 98.2625204,75.9545617 97.0576392,74.8131873" id="Fill-75"></path>
                        <path d="M110.059497,58.821437 C108.863323,57.6840295 106.955339,57.7345809 105.822343,58.9309651 C104.685134,60.1484124 104.731465,62.0398789 105.936064,63.181499 C107.144874,64.3189064 109.044434,64.2641424 110.181642,63.059333 C111.318851,61.8545236 111.264096,59.9630571 110.059497,58.821437" id="Fill-77"></path>
                        <path d="M125.060188,44.8177953 C123.856315,43.6854166 121.957898,43.7317221 120.821374,44.9398733 C119.68485,46.1438151 119.731153,48.0465481 120.939236,49.1831364 C122.14311,50.3197248 124.041526,50.2607905 125.169631,49.065268 C126.322993,47.8529071 126.264062,45.9543837 125.060188,44.8177953" id="Fill-79"></path>
                        <path d="M133.655723,37.0274001 C134.312474,38.0804708 135.237227,38.262733 136,37.6501294 C135.272567,35.8021928 134.447947,33.9036278 133.53792,32 C132.781037,33.4479722 132.825213,35.6756218 133.655723,37.0274001" id="Fill-81"></path>
                        <path d="M55.0557161,144.825058 C53.859493,143.679535 51.9556451,143.734284 50.8183908,144.94298 C49.6811365,146.139041 49.7358932,148.046842 50.9405403,149.179731 C52.1409754,150.316831 54.0490354,150.266293 55.1820777,149.061809 C56.319332,147.857325 56.2645753,145.962158 55.0557161,144.825058" id="Fill-83"></path>
                        <path d="M68.0587477,129.82001 C66.8584532,128.683269 64.9548284,128.733791 63.8219189,129.937895 C62.6805863,131.137788 62.7353366,133.036567 63.9398426,134.185939 C65.140137,135.32268 67.0353387,135.259528 68.1766713,134.055424 C69.3137923,132.855531 69.2716768,130.956752 68.0587477,129.82001" id="Fill-85"></path>
                        <path d="M81.0643645,114.818304 C79.8591088,113.680519 77.9585131,113.735301 76.8206842,114.944725 C75.6870695,116.14572 75.7292114,118.046243 76.9386813,119.179814 C78.1439371,120.317599 80.0445327,120.262817 81.1823616,119.070249 C82.3159763,117.852398 82.2654061,115.956089 81.0643645,114.818304" id="Fill-87"></path>
                        <path d="M95.065603,100.818293 C93.8563669,99.6811747 91.9645654,99.7359248 90.8185297,100.940428 C89.6851341,102.144931 89.7314812,104.040128 90.9407173,105.185669 C92.1541668,106.322787 94.041755,106.259614 95.1751506,105.055111 C96.3211862,103.850608 96.2621991,101.955411 95.065603,100.818293" id="Fill-89"></path>
                        <path d="M109.063622,86.8135838 C107.858319,85.6800803 105.95765,85.7390731 104.815563,86.9399968 C103.686119,88.1451344 103.732477,90.0455436 104.937779,91.1832608 C106.138867,92.3209781 108.043751,92.2619853 109.185838,91.0568478 C110.319496,89.855924 110.260495,87.9555148 109.063622,86.8135838" id="Fill-91"></path>
                        <path d="M123.065363,72.8165467 C121.860786,71.6837928 119.965473,71.7343246 118.819861,72.9386652 C117.682674,74.1430057 117.733215,76.0463691 118.942004,77.183334 C120.142369,78.3202988 122.041894,78.2613451 123.179082,77.0612155 C124.320481,75.856875 124.261516,73.9577226 123.065363,72.8165467" id="Fill-93"></path>
                        <path d="M136.062363,57.820586 C134.852421,56.6822463 132.96373,56.7370553 131.808594,57.9302039 C130.687184,59.1402168 130.733558,61.0416656 131.939284,62.1715731 C133.140795,63.3183449 135.042133,63.267752 136.180406,62.0619552 C137.318679,60.8561584 137.263873,58.9547096 136.062363,57.820586" id="Fill-95"></path>
                        <path d="M66.0595513,155.812836 C64.8554673,154.678913 62.9567195,154.742143 61.8199969,155.93508 C60.6832743,157.140664 60.7337953,159.037561 61.9378793,160.188345 C63.1461733,161.313837 65.040711,161.267469 66.1732236,160.05767 C67.3183664,158.860517 67.2678454,156.955189 66.0595513,155.812836" id="Fill-97"></path>
                        <path d="M81.0613653,141.81829 C79.8606737,140.685226 77.960632,140.73156 76.8189218,141.940442 C75.6856375,143.145113 75.7319799,145.040574 76.9368845,146.17785 C78.1460019,147.323551 80.0376178,147.260369 81.179328,146.05991 C82.3210382,144.863664 82.2620569,142.951355 81.0613653,141.81829" id="Fill-99"></path>
                        <path d="M95.0613157,126.818757 C93.8519846,125.680994 91.9558208,125.735775 90.8223362,126.940962 C89.6804242,128.146148 89.7352023,130.042421 90.9403197,131.188612 C92.1412235,132.313734 94.041601,132.267381 95.1792993,131.05798 C96.3169976,129.852794 96.2664332,127.956521 95.0613157,126.818757" id="Fill-101"></path>
                        <path d="M109.061389,112.818838 C107.852153,111.680962 105.960352,111.735749 104.822743,112.941054 C103.680921,114.133716 103.735694,116.042817 104.936504,117.180692 C106.141527,118.318568 108.045968,118.263781 109.179364,117.062691 C110.316973,115.853171 110.266412,113.956713 109.061389,112.818838" id="Fill-103"></path>
                        <path d="M122.063307,97.8203162 C120.853976,96.678449 118.957813,96.7374385 117.824329,97.9425086 C116.682418,99.1391517 116.732982,101.039455 117.938099,102.181322 C119.14743,103.318975 121.043593,103.2642 122.177077,102.059129 C123.323202,100.854059 123.259996,98.9537563 122.063307,97.8203162" id="Fill-105"></path>
                        <path d="M134.064634,82.821437 C132.854904,81.6840295 130.958113,81.7345809 129.811609,82.9309651 C128.68618,84.1441997 128.732546,86.0398789 129.942277,87.181499 C131.147792,88.3189064 133.044583,88.2641424 134.178442,87.059333 C135.320731,85.8545236 135.26172,83.9546318 134.064634,82.821437" id="Fill-107"></path>
                        <path d="M145.706989,69.9251163 C144.893989,71.1353023 144.938989,73.0436726 145.793989,74.1861559 C146.369989,74.9562743 147.164989,75.1678452 147.875989,74.8716459 C147.725989,73.0267469 147.620989,71.0760624 147.497989,69.0195925 C146.858989,68.9180384 146.189989,69.2100063 145.706989,69.9251163" id="Fill-109"></path>
                        <path d="M79.0608776,167.818087 C77.8601633,166.681255 75.9600857,166.735991 74.822567,167.940191 C73.6850482,169.14439 73.7313916,171.03911 74.9363189,172.184362 C76.1454591,173.321194 78.0455367,173.262247 79.1830555,172.053837 C80.3163612,170.853848 80.2658048,168.954918 79.0608776,167.818087" id="Fill-111"></path>
                        <path d="M92.0592587,151.817216 C90.8585672,150.683534 88.9585254,150.734107 87.8210282,151.939435 C86.6835309,153.144763 86.7340863,155.041259 87.9347779,156.179156 C89.1481083,157.317053 91.0397241,157.26648 92.1814343,156.061152 C93.3189316,154.851609 93.2641632,152.959328 92.0592587,151.817216" id="Fill-113"></path>
                        <path d="M107.063514,138.823016 C105.862728,137.680815 103.962537,137.735607 102.820737,138.936815 C101.678937,140.138022 101.737922,142.043096 102.938709,143.181082 C104.147921,144.319069 106.048113,144.264277 107.177273,143.058854 C108.319073,141.853432 108.264301,139.956788 107.063514,138.823016" id="Fill-115"></path>
                        <path d="M120.060309,123.813118 C118.858118,122.679615 116.959921,122.738607 115.816785,123.943745 C114.686303,125.140454 114.732704,127.049291 115.934895,128.182794 C117.141304,129.320511 119.052156,129.261518 120.178419,128.060595 C121.317337,126.859671 121.266719,124.955049 120.060309,123.813118" id="Fill-117"></path>
                        <path d="M134.056855,108.824374 C132.860585,107.687123 130.95245,107.729244 129.819364,108.933887 C128.682065,110.142742 128.736823,112.033948 129.933094,113.179622 C131.150425,114.316873 133.041711,114.266328 134.174798,113.061685 C135.320521,111.857042 135.265762,109.961625 134.056855,108.824374" id="Fill-119"></path>
                        <path d="M147.062253,95.8208087 C145.852169,94.6803659 143.954825,94.7350735 142.816418,95.9428487 C141.686444,97.1422073 141.732824,99.044348 142.934475,100.184791 C144.144559,101.321025 146.041903,101.262109 147.18031,100.054334 C148.318716,98.8507673 148.263904,96.9612514 147.062253,95.8208087" id="Fill-121"></path>
                        <path d="M91.0603869,178.818918 C89.8605373,177.680931 87.966038,177.735723 86.8251285,178.941146 C85.6842189,180.146568 85.7305289,182.043212 86.9387984,183.176984 C88.151278,184.319185 90.0373573,184.264393 91.1782669,183.063185 C92.3233865,181.866192 92.2602365,179.956904 91.0603869,178.818918" id="Fill-123"></path>
                        <path d="M106.062432,163.818838 C104.861763,162.680962 102.957544,162.735749 101.824282,163.941054 C100.67838,165.146359 100.73736,167.042817 101.938029,168.180692 C103.142911,169.318568 105.042916,169.263781 106.184605,168.062691 C107.317868,166.853171 107.2631,164.956713 106.062432,163.818838" id="Fill-125"></path>
                        <path d="M119.057832,149.813988 C117.865682,148.680572 115.9574,148.73956 114.815801,149.936177 C113.682627,151.145434 113.73739,153.049909 114.933752,154.183324 C116.146964,155.320953 118.042609,155.261965 119.179995,154.056921 C120.317382,152.856091 120.266831,150.95583 119.057832,149.813988" id="Fill-127"></path>
                        <path d="M133.061127,135.821526 C131.860131,134.684138 129.963821,134.730476 128.817607,135.94369 C127.684036,137.135841 127.734604,139.044125 128.9356,140.181513 C130.145024,141.318901 132.045548,141.264138 133.17912,140.059349 C134.32112,138.85456 134.262123,136.958914 133.061127,135.821526" id="Fill-129"></path>
                        <path d="M146.062304,120.819982 C144.861916,119.68328 142.958143,119.7338 141.816722,120.937862 C140.683725,122.146133 140.734267,124.040635 141.938867,125.173126 C143.147678,126.322458 145.043027,126.263518 146.176025,125.059456 C147.317446,123.859605 147.266903,121.956683 146.062304,120.819982" id="Fill-131"></path>
                        <path d="M160.063424,106.817961 C158.849881,105.681304 156.95372,105.736032 155.81181,106.940046 C154.686754,108.14827 154.733105,110.046908 155.93822,111.175145 C157.14755,112.324431 159.039497,112.261284 160.177194,111.05727 C161.319104,109.861675 161.264326,107.963037 160.063424,106.817961" id="Fill-133"></path>
                        <path d="M170.3655,97.8059622 C169.7805,97.6079622 169.1985,97.4009622 168.6345,97.1819622 C168.6525,97.2029622 168.6705,97.2269622 168.6885,97.2449622 C169.1595,97.6859622 169.7685,97.8689622 170.3655,97.8059622" id="Fill-135"></path>
                        <path d="M104.062402,189.821015 C102.853427,188.680285 100.962035,188.735007 99.8204589,189.943086 C98.6830958,191.138538 98.7336453,193.041157 99.9384077,194.186097 C101.147383,195.322618 103.042988,195.259478 104.184563,194.055607 C105.321926,192.864365 105.25874,190.957536 104.062402,189.821015" id="Fill-137"></path>
                        <path d="M117.064621,175.819323 C115.85051,174.681426 113.961893,174.736214 112.819449,175.937328 C111.685435,177.14687 111.731808,179.039151 112.937487,180.181263 C114.138951,181.314946 116.040215,181.268587 117.178444,180.059044 C118.316673,178.853716 118.266085,176.957221 117.064621,175.819323" id="Fill-139"></path>
                        <path d="M131.066386,161.822839 C129.853673,160.68574 127.96302,160.727855 126.817681,161.944972 C125.680762,163.136821 125.735503,165.044621 126.944005,166.181721 C128.139874,167.31882 130.04737,167.264071 131.175867,166.059588 C132.312785,164.855105 132.270677,162.955727 131.066386,161.822839" id="Fill-141"></path>
                        <path d="M145.060896,146.819114 C143.851023,145.67827 141.958226,145.737207 140.820018,146.945406 C139.681811,148.136767 139.736613,150.043786 140.933839,151.180419 C142.143712,152.321263 144.040724,152.262326 145.178932,151.058336 C146.317139,149.854347 146.266552,147.959957 145.060896,146.819114" id="Fill-143"></path>
                        <path d="M159.064029,132.819449 C157.850511,131.685435 155.95439,131.731808 154.80829,132.937487 C153.683258,134.147382 153.738035,136.040215 154.938912,137.178444 C156.144002,138.316673 158.040123,138.266085 159.173582,137.064621 C160.319682,135.854726 160.264905,133.953462 159.064029,132.819449" id="Fill-145"></path>
                        <path d="M171.060841,118.826066 C169.855867,117.680454 167.959929,117.735207 166.81394,118.935573 C165.680591,120.14015 165.739576,122.043888 166.936123,123.181077 C168.14531,124.318265 170.041248,124.267723 171.183024,123.050511 C172.316373,121.854357 172.265815,119.954831 171.060841,118.826066" id="Fill-147"></path>
                        <path d="M186.056451,103.82095 C184.860414,102.68436 182.961072,102.730665 181.819782,103.943028 C180.682704,105.151181 180.733241,107.041288 181.941913,108.177878 C183.150585,109.322887 185.049927,109.259743 186.178582,108.064219 C187.319871,106.860275 187.265123,104.95754 186.056451,103.82095" id="Fill-149"></path>
                        <path d="M103.959398,219.065229 C105.405442,217.870907 105.335818,215.959147 103.804082,214.819687 C102.465151,213.819495 100.456756,213.747751 99,214.532712 C99.5784179,216.326306 100.172903,218.136781 100.751321,219.981017 C101.902801,220.082303 103.102482,219.778447 103.959398,219.065229" id="Fill-151"></path>
                        <path d="M117.062508,201.818838 C115.852754,200.680962 113.955927,200.735749 112.817831,201.941054 C111.683949,203.146359 111.734531,205.042817 112.935855,206.180692 C114.14561,207.318568 116.042437,207.263781 117.180533,206.062691 C118.31863,204.853171 118.263832,202.956713 117.062508,201.818838" id="Fill-153"></path>
                        <path d="M131.06555,186.819561 C129.856857,185.678095 127.965905,185.737063 126.816173,186.945922 C125.683286,188.137933 125.733824,190.045992 126.942517,191.183246 C128.146999,192.316288 130.046373,192.265743 131.17926,191.061096 C132.316358,189.85645 132.26582,187.961027 131.06555,186.819561" id="Fill-155"></path>
                        <path d="M143.062541,172.819323 C141.854036,171.681426 139.963378,171.736214 138.818035,172.937328 C137.685324,174.134227 137.731643,176.030722 138.940149,177.181263 C140.144443,178.314946 142.043523,178.268587 143.176233,177.059044 C144.317365,175.853716 144.266836,173.957221 143.062541,172.819323" id="Fill-157"></path>
                        <path d="M158.065017,157.817491 C156.855781,156.680836 154.959767,156.735564 153.822158,157.943786 C152.684549,159.143589 152.730896,161.046433 153.940132,162.183089 C155.149368,163.319744 157.045383,163.260806 158.178778,162.065213 C159.3206,160.861201 159.261613,158.954146 158.065017,157.817491" id="Fill-159"></path>
                        <path d="M171.067254,144.821456 C169.854586,143.680766 167.959794,143.735486 166.814497,144.939313 C165.681832,146.143141 165.73657,148.037276 166.940816,149.173757 C168.149273,150.322865 170.044066,150.263936 171.180941,149.055899 C172.317817,147.852071 172.263079,145.953728 171.067254,144.821456" id="Fill-161"></path>
                        <path d="M184.063494,129.825899 C182.855012,128.679863 180.955968,128.734637 179.823279,129.93966 C178.682168,131.148896 178.732697,133.040697 179.941179,134.18252 C181.145451,135.315915 183.044495,135.265355 184.181395,134.064545 C185.318295,132.851096 185.263555,130.955081 184.063494,129.825899" id="Fill-163"></path>
                        <path d="M197.057978,114.818391 C195.853379,113.681137 193.953818,113.735893 192.82082,114.94054 C191.683611,116.140975 191.734154,118.040611 192.934541,119.182078 C194.143353,120.319332 196.042914,120.264575 197.180123,119.055716 C198.317332,117.859493 198.26679,115.955645 197.057978,114.818391" id="Fill-165"></path>
                        <path d="M211,105.513933 C209.999041,105.342933 208.998082,105.168933 208,105.006933 C208.092042,105.150933 208.192713,105.291933 208.319271,105.414933 C209.06999,106.155933 210.220518,106.179933 211,105.513933" id="Fill-167"></path>
                        <path d="M115.064525,226.81863 C113.850437,225.681043 111.961856,225.735816 110.819433,226.940815 C109.685441,228.145815 109.731813,230.041793 110.937469,231.175167 C112.147342,232.32118 114.044354,232.262194 115.178346,231.065621 C116.320769,229.852195 116.26175,227.956217 115.064525,226.81863" id="Fill-169"></path>
                        <path d="M128.058872,213.820186 C126.861903,212.682401 124.956866,212.737183 123.818902,213.929751 C122.680937,215.139174 122.735728,217.043911 123.941128,218.181696 C125.142312,219.319481 127.043134,219.264699 128.181098,218.055275 C129.319063,216.85428 129.264272,214.957971 128.058872,213.820186" id="Fill-171"></path>
                        <path d="M143.057427,198.815539 C141.852122,197.682076 139.964092,197.736853 138.817788,198.937734 C137.679913,200.1344 137.738914,202.043168 138.93579,203.172417 C140.145309,204.322734 142.041768,204.263744 143.179643,203.05865 C144.317518,201.853555 144.266946,199.957429 143.057427,198.815539" id="Fill-173"></path>
                        <path d="M156.062518,184.813167 C154.857145,183.68899 152.95215,183.731094 151.81421,184.935269 C150.680485,186.139444 150.739489,188.042546 151.936433,189.183565 C153.146021,190.316164 155.042587,190.265639 156.180527,189.061464 C157.322681,187.857288 157.259462,185.954186 156.062518,184.813167" id="Fill-175"></path>
                        <path d="M169.058547,169.815358 C167.858137,168.686198 165.95854,168.732544 164.817097,169.937543 C163.688291,171.142543 163.73041,173.051161 164.935033,174.176108 C166.148079,175.322121 168.043463,175.263135 169.176482,174.058136 C170.317924,172.848923 170.267381,170.957158 169.058547,169.815358" id="Fill-177"></path>
                        <path d="M183.054859,155.817848 C181.850304,154.681348 179.959238,154.736068 178.822071,155.939917 C177.676481,157.139556 177.739657,159.037933 178.939999,160.178643 C180.140342,161.315143 182.044044,161.268841 183.176999,160.060783 C184.318378,158.848516 184.267837,156.954349 183.054859,155.817848" id="Fill-179"></path>
                        <path d="M196.060009,141.818838 C194.860275,140.680962 192.95754,140.735749 191.82095,141.941054 C190.68436,143.13793 190.730665,145.042817 191.943028,146.180692 C193.142762,147.318568 195.041288,147.263781 196.182087,146.062691 C197.318677,144.8616 197.263953,142.956713 196.060009,141.818838" id="Fill-181"></path>
                        <path d="M210.062652,126.819909 C208.862265,125.682655 206.954282,125.7332 205.825498,126.942058 C204.684078,128.134069 204.730408,130.042128 205.939219,131.183594 C207.148029,132.320847 209.043376,132.261879 210.184797,131.057232 C211.317793,129.86101 211.263039,127.957163 210.062652,126.819909" id="Fill-183"></path>
                        <path d="M224.061079,112.821437 C222.856409,111.68403 220.956739,111.734581 219.815251,112.930965 C218.682188,114.139987 218.736946,116.044091 219.937403,117.181499 C221.146284,118.318906 223.041743,118.264142 224.18323,117.059333 C225.316293,115.854524 225.265748,113.954632 224.061079,112.821437" id="Fill-185"></path>
                        <path d="M114.102971,259.066004 C115.352015,257.872643 115.287009,255.962424 113.968316,254.823883 C112.635693,253.685341 110.541571,253.727509 109.29717,254.94617 C109.176445,255.047374 109.092866,255.169662 109,255.29195 C109.557194,256.843739 110.119032,258.374445 110.713372,259.858766 C111.874194,260.191894 113.206817,259.938885 114.102971,259.066004" id="Fill-187"></path>
                        <path d="M128.068178,240.818902 C126.858187,239.680937 124.956774,239.735728 123.822671,240.941128 C122.684353,242.146527 122.730729,244.043134 123.940719,245.181098 C125.146494,246.319063 127.043691,246.264272 128.177794,245.058872 C129.320328,243.853473 129.261305,241.956866 128.068178,240.818902" id="Fill-189"></path>
                        <path d="M141.056212,225.816056 C139.859872,224.677829 137.964262,224.741064 136.818471,225.93831 C135.681105,227.148204 135.735867,229.041033 136.940633,230.187692 C138.141186,231.317488 140.04522,231.262684 141.178374,230.061222 C142.319952,228.85976 142.26519,226.958499 141.056212,225.816056" id="Fill-191"></path>
                        <path d="M154.060804,211.823551 C152.859245,210.682063 150.962048,210.732609 149.819513,211.941491 C148.68541,213.146161 148.731786,215.045834 149.937561,216.187322 C151.143335,217.316174 153.048965,217.265629 154.178852,216.056746 C155.31717,214.852076 155.266578,212.956615 154.060804,211.823551" id="Fill-193"></path>
                        <path d="M169.061389,196.82185 C167.856367,195.67996 165.968779,195.734737 164.822743,196.944045 C163.680921,198.149139 163.735694,200.041053 164.936504,201.178729 C166.14574,202.320619 168.050182,202.261628 169.179364,201.064961 C170.316973,199.855654 170.266412,197.959526 169.061389,196.82185" id="Fill-195"></path>
                        <path d="M182.063422,181.818501 C180.854846,180.681094 178.959867,180.735858 177.814458,181.940667 C176.685892,183.145476 176.732214,185.049581 177.940789,186.178563 C179.145154,187.31597 181.044344,187.265419 182.181332,186.069035 C183.318319,184.860013 183.263575,182.955909 182.063422,181.818501" id="Fill-197"></path>
                        <path d="M196.052299,167.818382 C194.855001,166.681792 192.957873,166.736517 191.819597,167.936251 C190.68132,169.144404 190.736126,171.038721 191.93764,172.179521 C193.14337,173.316111 195.044714,173.269806 196.174559,172.053233 C197.321267,170.84929 197.266461,168.954973 196.052299,167.818382" id="Fill-199"></path>
                        <path d="M209.061124,151.818801 C207.856666,150.68503 205.957328,150.731392 204.820252,151.941029 C203.683176,153.138023 203.733713,155.043096 204.938171,156.181082 C206.151052,157.319069 208.046178,157.264277 209.183254,156.058854 C210.32033,154.861861 210.261371,152.956788 209.061124,151.818801" id="Fill-201"></path>
                        <path d="M222.065222,138.822526 C220.860318,137.677762 218.956063,137.736683 217.818566,138.944578 C216.681068,140.148264 216.735837,142.046384 217.940741,143.18273 C219.145646,144.319077 221.0499,144.264364 222.178972,143.05647 C223.316469,141.852784 223.265914,139.963081 222.065222,138.822526" id="Fill-203"></path>
                        <path d="M236.058153,123.818685 C234.853928,122.681828 232.96338,122.732355 231.818104,123.949213 C230.681248,125.140807 230.735986,127.035569 231.94021,128.176636 C233.152856,129.321915 235.047615,129.262966 236.180259,128.05874 C237.321325,126.858724 237.262377,124.959752 236.058153,123.818685" id="Fill-205"></path>
                        <path d="M248,113.861873 C247,113.477873 245.997191,113.114873 245,112.772873 C245.098315,113.099873 245.255618,113.393873 245.505618,113.648873 C246.202247,114.341873 247.238764,114.410873 248,113.861873" id="Fill-207"></path>
                        <path d="M125.065909,266.825566 C123.852108,265.680647 121.955544,265.735368 120.817606,266.935007 C119.688097,268.138856 119.730243,270.045651 120.935614,271.182152 C122.149415,272.318652 124.045979,272.263932 125.183918,271.060083 C126.313427,269.856234 126.267066,267.962067 125.065909,266.825566" id="Fill-209"></path>
                        <path d="M141.058359,250.828284 C139.852302,249.679759 137.963093,249.734451 136.816074,250.937667 C135.685922,252.153505 135.732309,254.046678 136.938366,255.182581 C138.144423,256.318485 140.042066,256.263793 141.180651,255.060577 C142.319237,253.85736 142.264416,251.964188 141.058359,250.828284" id="Fill-211"></path>
                        <path d="M153.062395,237.81595 C151.854455,236.678035 149.96889,236.737038 148.815664,237.950814 C147.683483,239.143518 147.73399,241.052687 148.94193,242.190602 C150.145661,243.315874 152.039644,243.261086 153.180243,242.068382 C154.316633,240.863035 154.266127,238.953866 153.062395,237.81595" id="Fill-213"></path>
                        <path d="M167.062304,222.815 C165.854245,221.677596 163.960077,221.740785 162.819366,222.941379 C161.682865,224.146185 161.733376,226.037646 162.941435,227.187688 C164.145284,228.32088 166.043662,228.257691 167.180163,227.065523 C168.316664,225.856504 168.266153,223.96083 167.062304,222.815" id="Fill-215"></path>
                        <path d="M180.064237,208.816685 C178.856107,207.679854 176.961827,207.73459 175.82105,208.951421 C174.680272,210.142989 174.734996,212.04613 175.943125,213.182961 C177.142836,214.319793 179.045535,214.260846 180.177894,213.065068 C181.322881,211.860868 181.259738,209.957728 180.064237,208.816685" id="Fill-217"></path>
                        <path d="M195.067508,194.818423 C193.850963,193.681124 191.960897,193.735883 190.815912,194.940577 C189.679347,196.145271 189.73828,198.040768 190.942197,199.178066 C192.141905,200.315365 194.0446,200.26903 195.181165,199.060124 C196.31773,197.851218 196.263007,195.955721 195.067508,194.818423" id="Fill-219"></path>
                        <path d="M208.058086,179.816205 C206.852874,178.683274 204.956562,178.733813 203.818774,179.942554 C202.680987,181.147082 202.735769,183.046531 203.940981,184.183674 C205.141979,185.320816 207.042505,185.261853 208.176079,184.057324 C209.31808,182.861219 209.267512,180.953347 208.058086,179.816205" id="Fill-221"></path>
                        <path d="M222.057573,165.819308 C220.85667,164.681432 218.956292,164.736219 217.822807,165.937309 C216.680895,167.1384 216.735674,169.043287 217.936577,170.181162 C219.141695,171.319038 221.042072,171.264251 222.179771,170.058946 C223.317469,168.853641 223.266904,166.957183 222.057573,165.819308" id="Fill-223"></path>
                        <path d="M235.062541,151.825015 C233.854036,150.680206 231.959167,150.734921 230.818035,151.938654 C229.685324,153.150805 229.731643,155.049 230.940149,156.176974 C232.144443,157.321783 234.043523,157.262859 235.176233,156.059126 C236.317365,154.855392 236.266836,152.952989 235.062541,151.825015" id="Fill-225"></path>
                        <path d="M247.062815,136.825938 C245.858872,135.67645 243.960347,135.739609 242.819549,136.935413 C241.67875,138.139639 241.737684,140.047032 242.941627,141.179678 C244.149779,142.320745 246.044094,142.266007 247.176474,141.04915 C248.317273,139.857556 248.266758,137.958584 247.062815,136.825938" id="Fill-227"></path>
                        <path d="M263.054815,121.817722 C261.858777,120.684792 259.959437,120.73112 258.818147,121.944071 C257.685281,123.144387 257.731607,125.039623 258.940278,126.185188 C260.140527,127.322329 262.035656,127.259155 263.176945,126.058839 C264.322446,124.858523 264.263486,122.967499 263.054815,121.817722" id="Fill-229"></path>
                        <path d="M139.054762,277.818055 C137.854028,276.681268 135.958131,276.736002 134.812167,277.940154 C133.687269,279.152727 133.733613,281.051582 134.934347,282.188369 C136.147721,283.312525 138.043617,283.266211 139.185368,282.06627 C140.322906,280.862117 140.25971,278.954842 139.054762,277.818055" id="Fill-231"></path>
                        <path d="M152.056606,262.828477 C150.852498,261.679685 148.966343,261.734389 147.821178,262.937886 C146.680222,264.141384 146.734954,266.034998 147.943272,267.183791 C149.151591,268.31996 151.041956,268.265255 152.178701,267.049134 C153.323867,265.858261 153.260714,263.964646 152.056606,262.828477" id="Fill-233"></path>
                        <path d="M166.057261,249.811527 C164.851743,248.681358 162.96338,248.740396 161.821089,249.933821 C160.678799,251.139898 160.73781,253.050221 161.939112,254.176173 C163.140414,255.314777 165.049853,255.268389 166.179498,254.06653 C167.317574,252.860454 167.266993,250.958564 166.057261,249.811527" id="Fill-235"></path>
                        <path d="M178.061481,234.819948 C176.856576,233.678593 174.956534,233.737556 173.819036,234.942085 C172.681538,236.146614 172.736306,238.046064 173.936999,239.183206 C175.146117,240.320349 177.041946,240.261386 178.179444,239.061069 C179.316942,237.869175 179.266386,235.95709 178.061481,234.819948" id="Fill-237"></path>
                        <path d="M194.062048,220.818247 C192.85712,219.681193 190.957042,219.73594 189.81531,220.940375 C188.686216,222.144809 188.73256,224.044111 189.937488,225.181165 C191.146628,226.32243 193.046707,226.25926 194.1758,225.063248 C195.317532,223.85039 195.266976,221.959512 194.062048,220.818247" id="Fill-239"></path>
                        <path d="M206.060175,205.820006 C204.856443,204.682618 202.958251,204.733168 201.817653,205.94217 C200.685472,207.142746 200.731769,209.042606 201.939709,210.179994 C203.143441,211.317382 205.045841,211.266832 206.182231,210.05783 C207.318621,208.853041 207.263906,206.957394 206.060175,205.820006" id="Fill-241"></path>
                        <path d="M221.057158,191.816667 C219.860842,190.679701 217.961058,190.738655 216.819503,191.938786 C215.68216,193.138917 215.732709,195.033861 216.945875,196.17925 C218.142191,197.316216 220.050399,197.269895 221.18353,196.05292 C222.320872,194.848578 222.261899,192.949423 221.057158,191.816667" id="Fill-243"></path>
                        <path d="M233.055776,176.827199 C231.859787,175.67807 229.956311,175.737 228.819279,176.93664 C227.682247,178.148908 227.732782,180.047285 228.945616,181.183786 C230.145817,182.316078 232.04087,182.265567 233.182113,181.061718 C234.323356,179.857868 234.260188,177.959491 233.055776,176.827199" id="Fill-245"></path>
                        <path d="M247.060895,162.821911 C245.85599,161.68399 243.964373,161.73035 242.822662,162.944132 C241.680952,164.136841 241.73572,166.050233 242.936412,167.175509 C244.14553,168.317644 246.045573,168.26707 247.183071,167.061717 C248.316355,165.856365 248.2658,163.955616 247.060895,162.821911" id="Fill-247"></path>
                        <path d="M260.058842,148.817216 C258.857774,147.683534 256.961352,147.734107 255.823498,148.939435 C254.68143,150.144763 254.732001,152.045473 255.945712,153.179156 C257.14678,154.317053 259.043202,154.26648 260.181056,153.061152 C261.323124,151.855823 261.25991,149.955114 260.058842,148.817216" id="Fill-249"></path>
                        <path d="M276.05693,133.816205 C274.856542,132.683274 272.956981,132.733813 271.81556,133.942554 C270.686774,135.142871 270.733105,137.038108 271.933492,138.183674 C273.146516,139.320816 275.046077,139.261853 276.174862,138.057324 C277.320496,136.861219 277.265741,134.953347 276.05693,133.816205" id="Fill-251"></path>
                        <path d="M152.064802,288.814802 C150.855897,287.686412 148.960401,287.732726 147.814679,288.936903 C146.685807,290.141081 146.732141,292.048396 147.941046,293.172576 C149.145739,294.322018 151.041234,294.263072 152.182744,293.063105 C153.315829,291.846297 153.265282,289.960033 152.064802,288.814802" id="Fill-253"></path>
                        <path d="M165.053753,274.818406 C163.856222,273.681131 161.958725,273.735888 160.820227,274.940558 C159.681729,276.145227 159.736546,278.053322 160.934077,279.182173 C162.144258,280.319448 164.045971,280.260479 165.176036,279.068446 C166.31875,277.863776 166.26815,275.955681 165.053753,274.818406" id="Fill-255"></path>
                        <path d="M178.059481,260.817576 C176.860261,259.681454 174.962549,259.736156 173.818031,260.939604 C172.681929,262.143052 172.73663,264.036589 173.935849,265.185335 C175.139276,266.321458 177.045404,266.262548 178.177299,265.050684 C179.317609,263.847236 179.267115,261.953699 178.059481,260.817576" id="Fill-257"></path>
                        <path d="M191.058117,245.821221 C189.862269,244.684255 187.963227,244.730576 186.817908,245.94334 C185.689431,247.147681 185.727328,249.042624 186.940019,250.1838 C188.144289,251.320766 190.047541,251.261812 191.180228,250.057471 C192.321337,248.853129 192.262387,246.958187 191.058117,245.821221" id="Fill-259"></path>
                        <path d="M205.058228,232.816348 C203.853346,231.679826 201.95334,231.738757 200.815865,232.938419 C199.682602,234.14229 199.737369,236.040702 200.933825,237.177224 C202.14292,238.326373 204.042925,238.259024 205.176188,237.055153 C206.32209,235.847072 206.26311,233.957079 205.058228,232.816348" id="Fill-261"></path>
                        <path d="M219.058325,217.819308 C217.85417,216.681432 215.96794,216.736219 214.822728,217.937309 C213.681728,219.142614 213.732252,221.051716 214.944828,222.181162 C216.148984,223.319038 218.043635,223.264251 219.180425,222.058946 C220.317216,220.853641 220.266692,218.957183 219.058325,217.819308" id="Fill-263"></path>
                        <path d="M232.054659,202.824248 C230.854809,201.683247 228.956098,201.729561 227.823607,202.946348 C226.682696,204.142082 226.733216,206.040943 227.937277,207.181943 C229.145548,208.318733 231.040049,208.263999 232.180959,207.059844 C233.31766,205.855688 233.26714,203.961038 232.054659,202.824248" id="Fill-265"></path>
                        <path d="M246.063843,189.821598 C244.859267,188.683968 242.959742,188.734529 241.818343,189.931147 C240.681155,191.144619 240.735909,193.040669 241.940485,194.174086 C243.149273,195.320143 245.048798,195.265368 246.177562,194.060323 C247.318961,192.851064 247.264208,190.955014 246.063843,189.821598" id="Fill-267"></path>
                        <path d="M259.055596,173.817927 C257.856188,172.681317 255.953971,172.736043 254.81769,173.940007 C253.68141,175.143971 253.736119,177.050949 254.939735,178.183349 C256.143351,179.311539 258.045569,179.269442 259.177641,178.065478 C260.31813,176.857305 260.267628,174.954536 259.055596,173.817927" id="Fill-269"></path>
                        <path d="M274.057039,159.817424 C272.852578,158.683453 270.953237,158.734039 269.816158,159.939673 C268.683292,161.145307 268.733829,163.046499 269.9425,164.180469 C271.14275,165.318655 273.03788,165.263853 274.174958,164.062435 C275.320459,162.865232 275.265711,160.959825 274.057039,159.817424" id="Fill-271"></path>
                        <path d="M287.062011,144.817056 C285.865018,143.683595 283.959944,143.734159 282.821958,144.939251 C281.683972,146.144343 281.730334,148.040467 282.944186,149.186569 C284.149609,150.315816 286.042038,150.265253 287.184239,149.060161 C288.318011,147.859282 288.263219,145.954731 287.062011,144.817056" id="Fill-273"></path>
                        <path d="M164.061547,300.818293 C162.852664,299.681175 160.965627,299.735925 159.819926,300.940428 C158.682649,302.144931 158.733194,304.040129 159.942078,305.177247 C161.142537,306.314366 163.04221,306.268039 164.179487,305.067747 C165.320976,303.850609 165.262006,301.955412 164.061547,300.818293" id="Fill-275"></path>
                        <path d="M178.059605,285.818598 C176.863568,284.681056 174.960015,284.735826 173.822937,285.940778 C172.681647,287.145729 172.732184,289.054272 173.945067,290.183387 C175.145316,291.320929 177.040446,291.261945 178.181736,290.056993 C179.318814,288.852042 179.264066,286.956139 178.059605,285.818598" id="Fill-277"></path>
                        <path d="M190.063659,271.818902 C188.855389,270.680937 186.9651,270.735728 185.81998,271.941128 C184.683281,273.146527 184.733801,275.043134 185.93786,276.181098 C187.14613,277.319063 189.044839,277.264272 190.181539,276.058872 C191.318238,274.853473 191.263509,272.956866 190.063659,271.818902" id="Fill-279"></path>
                        <path d="M205.065458,256.81941 C203.856034,255.682047 201.959724,255.736809 200.81351,256.933146 C199.684153,258.146334 199.734721,260.041939 200.939931,261.183515 C202.145141,262.320878 204.045665,262.261904 205.175022,261.057141 C206.321236,259.852379 206.26224,257.956773 205.065458,256.81941" id="Fill-281"></path>
                        <path d="M218.053998,243.820122 C216.858266,242.682426 214.959409,242.737204 213.818411,243.929678 C212.685834,245.147434 212.732147,247.035168 213.9363,248.181291 C215.140453,249.318987 217.04352,249.264209 218.184518,248.059094 C219.317096,246.853979 219.266572,244.957818 218.053998,243.820122" id="Fill-283"></path>
                        <path d="M230.056451,228.813277 C228.860414,227.679552 226.965283,227.738556 225.819782,228.94393 C224.682704,230.145089 224.733241,232.045871 225.941913,233.175382 C227.142162,234.321751 229.049927,234.262747 230.178582,233.061588 C231.319871,231.856214 231.265123,229.951218 230.056451,228.813277" id="Fill-285"></path>
                        <path d="M245.058126,214.817507 C243.853716,213.675331 241.958664,213.742765 240.825844,214.939733 C239.684602,216.149344 239.730925,218.041732 240.935336,219.175479 C242.148169,220.317656 244.051643,220.26708 245.180252,219.061683 C246.317283,217.856287 246.266748,215.959684 245.058126,214.817507" id="Fill-287"></path>
                        <path d="M258.05648,199.814236 C256.856422,198.685978 254.957384,198.732287 253.820487,199.940533 C252.687801,201.140359 252.729908,203.047452 253.934177,204.179919 C255.146866,205.320807 257.041695,205.261868 258.178591,204.062042 C259.32391,202.858005 259.260749,200.955123 258.05648,199.814236" id="Fill-289"></path>
                        <path d="M272.059477,185.820817 C270.859509,184.678905 268.960613,184.737897 267.81959,185.9388 C266.682779,187.139703 266.733303,189.04008 267.941692,190.177778 C269.150081,191.315475 271.048978,191.269125 272.173159,190.059794 C273.318391,188.858891 273.267866,186.958514 272.059477,185.820817" id="Fill-291"></path>
                        <path d="M285.057129,171.818322 C283.860184,170.685214 281.959402,170.731549 280.817247,171.940479 C279.683522,173.145196 279.734097,175.04073 280.939471,176.17805 C282.149059,177.315371 284.049841,177.269035 285.179352,176.060106 C286.325722,174.855389 286.258289,172.955642 285.057129,171.818322" id="Fill-293"></path>
                        <path d="M300.060327,156.818918 C298.863124,155.680931 296.961932,155.735723 295.819531,156.941146 C294.681345,158.146568 294.736147,160.043212 295.937565,161.176984 C297.143199,162.319185 299.048606,162.264393 300.182576,161.063185 C301.316547,159.853548 301.265961,157.956904 300.060327,156.818918" id="Fill-295"></path>
                        <path d="M176.062486,312.818487 C174.85391,311.681099 172.963141,311.735862 171.821942,312.940651 C170.676531,314.14544 170.739697,316.041086 171.939852,317.178474 C173.148428,318.315862 175.043408,318.269524 176.176185,317.05631 C177.317384,315.851521 177.266851,313.955875 176.062486,312.818487" id="Fill-297"></path>
                        <path d="M189.05612,297.821029 C187.859662,296.684329 185.955441,296.730639 184.822176,297.943119 C183.680486,299.147178 183.735254,301.045888 184.940137,302.182587 C186.140808,303.319287 188.040816,303.260347 189.178293,302.068917 C190.319984,300.864858 190.265216,298.970358 189.05612,297.821029" id="Fill-299"></path>
                        <path d="M203.061297,283.818902 C201.861119,282.680937 199.95768,282.735728 198.82488,283.941128 C197.683659,285.146527 197.729981,287.043134 198.942793,288.181098 C200.14297,289.319063 202.042199,289.264272 203.183421,288.058872 C204.31622,286.853473 204.265686,284.956866 203.061297,283.818902" id="Fill-301"></path>
                        <path d="M216.062369,268.818598 C214.854545,267.681056 212.956536,267.735826 211.820255,268.940778 C210.683975,270.145729 210.730268,272.041632 211.946509,273.183387 C213.141707,274.320929 215.043925,274.261945 216.180206,273.056993 C217.320695,271.852042 217.261777,269.956139 216.062369,268.818598" id="Fill-303"></path>
                        <path d="M230.05774,254.811725 C228.857796,253.687589 226.958938,253.729691 225.817939,254.946453 C224.685361,256.137952 224.731675,258.045194 225.940039,259.18196 C227.148403,260.318727 229.047261,260.263994 230.184049,259.059863 C231.316628,257.855733 231.266104,255.952701 230.05774,254.811725" id="Fill-305"></path>
                        <path d="M244.060853,240.817798 C242.856487,239.681367 240.961505,239.736084 239.816094,240.939859 C238.683317,242.143634 238.733849,244.050313 239.942426,245.186744 C241.146792,246.323175 243.041774,246.255831 244.174551,245.064683 C245.319962,243.848281 245.265218,241.966856 244.060853,240.817798" id="Fill-307"></path>
                        <path d="M257.061895,225.820288 C255.857671,224.679112 253.962912,224.738066 252.817635,225.938196 C251.68078,227.146747 251.735518,229.041689 252.943953,230.187076 C254.148177,231.31562 256.038725,231.265088 257.179791,230.060747 C258.320857,228.856406 258.261909,226.953042 257.061895,225.820288" id="Fill-309"></path>
                        <path d="M271.058723,211.824754 C269.858685,210.678851 267.955467,210.737831 266.818589,211.934289 C265.681712,213.139171 265.73645,215.043392 266.936488,216.180869 C268.144947,217.318346 270.048165,217.267791 271.176621,216.05027 C272.321921,214.8496 272.262971,212.958018 271.058723,211.824754" id="Fill-311"></path>
                        <path d="M283.0592,196.812405 C281.863978,195.679895 279.961724,195.738836 278.821214,196.942918 C277.684912,198.142789 277.731206,200.041532 278.939053,201.182462 C280.1469,202.319182 282.040736,202.264451 283.177038,201.05616 C284.321757,199.856289 284.262838,197.961755 283.0592,196.812405" id="Fill-313"></path>
                        <path d="M298.063234,181.817488 C296.858024,180.683428 294.9575,180.734018 293.815501,181.939747 C292.686143,183.145475 292.732497,185.0426 293.937707,186.180875 C295.147131,187.31915 297.043441,187.264344 298.177013,186.058616 C299.323227,184.865535 299.260016,182.959978 298.063234,181.817488" id="Fill-315"></path>
                        <path d="M311.058217,168.820149 C309.849713,167.682562 307.959055,167.733122 306.822135,168.942335 C305.685214,170.147334 305.731533,172.043313 306.935827,173.1809 C308.148542,174.318487 310.039199,174.263714 311.180331,173.062928 C312.317252,171.853715 312.266722,169.957736 311.058217,168.820149" id="Fill-317"></path>
                        <path d="M188.056177,323.818902 C186.856327,322.680937 184.970248,322.735728 183.825128,323.941128 C182.684219,325.146527 182.730529,327.043134 183.938798,328.181098 C185.147068,329.319063 187.045777,329.264272 188.182477,328.058872 C189.319176,326.853473 189.264446,324.956866 188.056177,323.818902" id="Fill-319"></path>
                        <path d="M202.059937,308.818598 C200.8559,307.681056 198.957228,307.735826 197.81634,308.940778 C196.683873,310.145729 196.734392,312.045845 197.938428,313.183387 C199.146674,314.320929 201.041137,314.261945 202.182024,313.056993 C203.318702,311.864681 203.263973,309.960352 202.059937,308.818598" id="Fill-321"></path>
                        <path d="M214.061183,294.813746 C212.8571,293.672778 210.954143,293.744351 209.821631,294.948473 C208.680698,296.139964 208.735429,298.047191 209.939513,299.183949 C211.139386,300.320707 213.046553,300.261764 214.174855,299.057643 C215.315787,297.857732 215.269476,295.950504 214.061183,294.813746" id="Fill-323"></path>
                        <path d="M230.059539,280.820082 C228.859057,279.681786 226.963559,279.736593 225.822048,280.933911 C224.680536,282.135445 224.735295,284.049468 225.93999,285.187763 C227.144684,286.313411 229.048607,286.267036 230.181693,285.061286 C231.31478,283.855536 231.268446,281.962593 230.059539,280.820082" id="Fill-325"></path>
                        <path d="M242.060739,266.813408 C240.864214,265.684997 238.955671,265.731313 237.818129,266.948144 C236.680587,268.139713 236.735358,270.034433 237.944523,271.183896 C239.145261,272.320728 241.036951,272.261782 242.18292,271.057582 C243.320461,269.857592 243.261478,267.950241 242.060739,266.813408" id="Fill-327"></path>
                        <path d="M257.063195,250.816161 C255.858105,249.680059 253.95777,249.734761 252.824311,250.95081 C251.682425,252.141612 251.732988,254.035115 252.938078,255.183839 C254.147382,256.319941 256.043503,256.265239 257.189603,255.04919 C258.318849,253.845764 258.259858,251.952262 257.063195,250.816161" id="Fill-329"></path>
                        <path d="M270.059681,237.82378 C268.855316,236.685241 266.960338,236.731626 265.814928,237.933417 C264.686363,239.139424 264.732685,241.041205 265.937049,242.179743 C267.145624,243.318282 269.044814,243.263463 270.181801,242.06589 C271.318789,240.847232 271.264045,238.953885 270.059681,237.82378" id="Fill-331"></path>
                        <path d="M283.062541,222.822175 C281.858247,221.680487 279.959167,221.735254 278.818035,222.940136 C277.685324,224.145017 277.731643,226.04081 278.940149,227.186711 C280.144443,228.315761 282.039312,228.265207 283.176233,227.060325 C284.317365,225.855444 284.266836,223.955438 283.062541,222.822175" id="Fill-333"></path>
                        <path d="M296.06073,208.818838 C294.863293,207.680962 292.96173,207.735749 291.819105,208.941054 C290.684913,210.146359 290.731292,212.042817 291.941378,213.180692 C293.143032,214.318568 295.048811,214.263781 296.178787,213.062691 C297.317195,211.853171 297.266599,209.956713 296.06073,208.818838" id="Fill-335"></path>
                        <path d="M309.061683,194.821468 C307.851622,193.679959 305.962747,193.73893 304.820146,194.930986 C303.681761,196.148315 303.736572,198.043811 304.933984,199.181108 C306.144045,200.318406 308.041353,200.263647 309.183953,199.063167 C310.318122,197.858474 310.263311,195.958766 309.061683,194.821468" id="Fill-337"></path>
                        <path d="M318.815033,179.934743 C317.680162,181.144903 317.739226,183.042367 318.937379,184.176628 C320.143971,185.319323 322.050891,185.264508 323.189981,184.062781 C323.729994,183.485108 324,182.747206 324,182.005087 C323.666711,181.246101 323.320765,180.499766 322.974819,179.74078 C321.764009,178.69085 319.933028,178.758316 318.815033,179.934743" id="Fill-339"></path>
                        <path d="M200.992156,335.885446 C199.689459,335.075446 197.639759,335.114446 196.40083,335.972446 C196.245964,336.083446 196.122982,336.203446 196,336.323446 C197.995041,336.821446 199.990081,337.265446 201.976012,337.697446 C202.094439,337.046446 201.775597,336.371446 200.992156,335.885446" id="Fill-341"></path>
                        <path d="M214.059681,320.821221 C212.855316,319.684255 210.960338,319.730576 209.814928,320.94334 C208.686363,322.147681 208.732685,324.046835 209.937049,325.1838 C211.145624,326.320766 213.044814,326.261812 214.181801,325.057471 C215.318789,323.853129 215.264045,321.962398 214.059681,320.821221" id="Fill-343"></path>
                        <path d="M227.062704,306.824355 C225.85787,305.674958 223.957939,305.742321 222.820508,306.933821 C221.683077,308.137952 221.733629,310.045194 222.938464,311.18196 C224.143298,312.318727 226.047442,312.263994 227.172234,311.059863 C228.318091,309.855732 228.267538,307.961121 227.062704,306.824355" id="Fill-345"></path>
                        <path d="M240.058087,291.814595 C238.857091,290.686491 236.956568,290.732794 235.814568,291.936666 C234.680996,293.140538 234.739993,295.04737 235.932561,296.171265 C237.146199,297.320415 239.042508,297.265694 240.17608,296.061822 C241.318079,294.85795 241.267511,292.963746 240.058087,291.814595" id="Fill-347"></path>
                        <path d="M255.056166,277.810689 C253.859921,276.681687 251.964462,276.740664 250.818762,277.932857 C249.685699,279.137689 249.732032,281.033402 250.936702,282.183468 C252.149796,283.320896 254.049467,283.261919 255.178318,282.057087 C256.324018,280.856469 256.260836,278.956543 255.056166,277.810689" id="Fill-349"></path>
                        <path d="M268.05611,262.823499 C266.859794,261.684691 264.955798,261.731087 263.818455,262.93738 C262.681112,264.139454 262.735873,266.041684 263.940614,267.180492 C265.149567,268.319299 267.040926,268.264467 268.178269,267.058175 C269.324037,265.851883 269.260851,263.953871 268.05611,262.823499" id="Fill-351"></path>
                        <path d="M282.053555,249.819231 C280.849423,248.678874 278.954809,248.737786 277.818041,249.941262 C276.681273,251.132113 276.736006,253.038318 277.940138,254.174467 C279.144271,255.323239 281.038884,255.264327 282.175653,254.052436 C283.320841,252.84896 283.266108,250.955379 282.053555,249.819231" id="Fill-353"></path>
                        <path d="M295.057262,234.822032 C293.856711,233.680543 291.956892,233.7353 290.815315,234.939971 C289.682163,236.144642 289.736925,238.044316 290.937476,239.181593 C292.146452,240.31887 294.037847,240.264112 295.183636,239.059441 C296.316788,237.85477 296.266238,235.959308 295.057262,234.822032" id="Fill-355"></path>
                        <path d="M309.05706,220.821626 C307.856695,219.680048 305.957169,219.73481 304.815769,220.943788 C303.682793,222.135916 303.733334,224.044163 304.946335,225.181529 C306.1467,226.318895 308.042014,226.264133 309.174991,225.059367 C310.316391,223.854602 310.270061,221.958992 309.05706,220.821626" id="Fill-357"></path>
                        <path d="M323.066643,205.820203 C321.861011,204.682395 319.959822,204.737178 318.817422,205.929769 C317.683454,207.139217 317.73404,209.043991 318.939672,210.177585 C320.149519,211.319607 322.046493,211.264823 323.188892,210.05959 C324.31443,208.854356 324.263844,206.95801 323.066643,205.820203" id="Fill-359"></path>
                        <path d="M227.058917,333.818338 C225.857946,332.680352 223.953247,332.739358 222.815484,333.932137 C221.686149,335.14599 221.732502,337.046849 222.937688,338.172191 C224.147088,339.322822 226.039145,339.263816 227.181121,338.058393 C228.323098,336.84454 228.259889,334.96054 227.058917,333.818338" id="Fill-361"></path>
                        <path d="M240.066277,319.827167 C238.857913,318.678083 236.963265,318.73701 235.818056,319.936603 C234.681267,321.140406 234.736001,323.047127 235.940155,324.183584 C237.144309,325.320041 239.047377,325.265322 240.175745,324.048893 C241.320955,322.857718 241.26201,320.963623 240.066277,319.827167" id="Fill-363"></path>
                        <path d="M253.055882,304.818279 C251.855659,303.68118 249.956358,303.735929 248.815093,304.940412 C247.68225,306.144895 247.736997,308.040061 248.937221,309.177161 C250.145867,310.31426 252.040957,310.272145 253.182222,309.055028 C254.319276,307.863179 254.264529,305.955379 253.055882,304.818279" id="Fill-365"></path>
                        <path d="M266.059605,290.814973 C264.855145,289.686346 262.955803,289.73267 261.822937,290.937101 C260.681647,292.141532 260.732184,294.036616 261.945067,295.186301 C263.145316,296.323351 265.040446,296.255971 266.181736,295.064173 C267.318814,293.847108 267.264066,291.960447 266.059605,290.814973" id="Fill-367"></path>
                        <path d="M281.059681,274.818902 C279.851105,273.680937 277.956126,273.735728 276.814928,274.941128 C275.686363,276.146527 275.732685,278.055778 276.937049,279.181098 C278.145624,280.319063 280.044814,280.264272 281.181801,279.058872 C282.318789,277.866117 282.264045,275.956866 281.059681,274.818902" id="Fill-369"></path>
                        <path d="M294.055861,260.820316 C292.85833,259.678449 290.9524,259.737438 289.818119,260.942509 C288.683838,262.147579 288.734438,264.043668 289.936186,265.181322 C291.146367,266.318975 293.04808,266.2642 294.173928,265.059129 C295.320859,263.854059 295.266042,261.95797 294.055861,260.820316" id="Fill-371"></path>
                        <path d="M308.055482,245.818902 C306.859399,244.680937 304.959985,244.735728 303.818651,245.941128 C302.685741,247.133883 302.732068,249.043134 303.936575,250.181098 C305.13687,251.319063 307.036284,251.264272 308.173406,250.058872 C309.318951,248.853473 309.268412,246.956866 308.055482,245.818902" id="Fill-373"></path>
                        <path d="M321.059156,232.820145 C319.850063,231.679168 317.954273,231.738111 316.821011,232.938032 C315.683537,234.146372 315.734092,236.040983 316.934759,237.18196 C318.152278,238.318727 320.039642,238.263994 321.181329,237.059863 C322.323016,235.859943 322.259823,233.956911 321.059156,232.820145" id="Fill-375"></path>
                        <path d="M331.196616,222.2 C331.553616,222.680851 331.997616,222.93617 332.456616,223 C332.483616,220.965957 332.465616,218.974468 332.414616,217 C331.931616,217.080851 331.466616,217.382979 331.115616,217.923404 C330.302616,219.13617 330.344616,221.055319 331.196616,222.2" id="Fill-377"></path>
                        <path d="M235.5625,344.61911 C236.1955,344.61911 236.8225,344.61311 237.4375,344.58011 C236.8405,344.30111 236.1415,344.31611 235.5625,344.61911" id="Fill-379"></path>
                        <path d="M252.059899,331.825222 C250.86047,330.674616 248.962424,330.74205 247.817705,331.934804 C246.681404,333.140201 246.736114,335.04102 247.939753,336.187412 C249.143391,337.316946 251.037228,337.262155 252.17353,336.065187 C253.318249,334.859789 253.267746,332.963185 252.059899,331.825222" id="Fill-381"></path>
                        <path d="M266.066645,316.817798 C264.853337,315.681367 262.961757,315.736084 261.820069,316.939859 C260.682593,318.143634 260.733148,320.037686 261.942242,321.186744 C263.142911,322.323175 265.038704,322.255831 266.180392,321.064683 C267.322081,319.848281 267.258888,317.954229 266.066645,316.817798" id="Fill-383"></path>
                        <path d="M279.060382,301.818487 C277.863998,300.681099 275.959894,300.735862 274.822486,301.940651 C273.685079,303.14544 273.731418,305.041086 274.936227,306.178474 C276.145249,307.315862 278.040928,307.269524 279.18676,306.05631 C280.315742,304.851521 280.265191,302.955875 279.060382,301.818487" id="Fill-385"></path>
                        <path d="M293.064227,288.818902 C291.85518,287.680937 289.959461,287.735728 288.82203,288.941128 C287.684599,290.146527 287.730938,292.043134 288.939986,293.181098 C290.149033,294.319063 292.044752,294.264272 293.173758,293.058872 C294.319614,291.853473 294.264849,289.956866 293.064227,288.818902" id="Fill-387"></path>
                        <path d="M307.060102,273.807793 C305.858988,272.682805 303.958279,272.73758 302.816167,273.942623 C301.682484,275.147666 301.737272,277.043712 302.934171,278.18134 C304.147928,279.318968 306.040209,279.264194 307.173892,278.059151 C308.320218,276.854108 308.26543,274.958061 307.060102,273.807793" id="Fill-389"></path>
                        <path d="M320.061861,258.818902 C318.861052,257.680937 316.960824,257.735728 315.819002,258.941128 C314.685607,260.133883 314.731954,262.043134 315.936976,263.181098 C317.150426,264.319063 319.050653,264.264272 320.175622,263.058872 C321.321657,261.853473 321.26267,259.956866 320.061861,258.818902" id="Fill-391"></path>
                        <path d="M330.371613,248.652038 C330.461613,248.788401 330.554613,248.901254 330.653613,249 C330.890613,246.973354 331.103613,244.979624 331.295613,243 C330.926613,243.15047 330.572613,243.451411 330.287613,243.935737 C329.477613,245.280564 329.516613,247.396552 330.371613,248.652038" id="Fill-393"></path>
                        <path d="M273.839532,326.087225 C272.673569,327.479746 272.729708,329.670775 273.960447,330.985393 C273.964765,330.985393 273.960447,330.985393 273.964765,331 C275.700755,329.850927 277.367651,328.653164 279,327.455401 C278.848857,326.90034 278.585435,326.369624 278.192462,325.946025 C276.953086,324.631407 275.009814,324.694704 273.839532,326.087225" id="Fill-395"></path>
                        <path d="M293.062446,313.818902 C291.853963,312.680937 289.95913,312.735728 288.81802,313.941128 C287.68533,315.146527 287.731649,317.043134 288.940131,318.181098 C290.148613,319.319063 292.043447,319.264272 293.176136,318.058872 C294.321457,316.866117 294.262507,314.956866 293.062446,313.818902" id="Fill-397"></path>
                        <path d="M301.934124,303.181098 C303.138794,304.319063 305.046892,304.264272 306.179956,303.058872 C307.321444,301.853473 307.262474,299.956866 306.057804,298.818902 C304.857345,297.680937 302.95346,297.735728 301.824608,298.941128 C300.678908,300.133883 300.737878,302.043134 301.934124,303.181098" id="Fill-399"></path>
                        <path d="M314.540451,284.985245 C313.788152,286.231229 313.827016,288.225684 314.620956,289.414432 C314.784741,289.660987 314.979062,289.845903 315.178935,290 C315.82297,288.155239 316.425365,286.314882 317,284.448107 C316.217164,283.704039 315.192815,283.888956 314.540451,284.985245" id="Fill-401"></path>
                    </g>
                </g>
            </g>
        </g>
    </g>
</svg>