<?xml version="1.0" encoding="UTF-8"?>
<svg width="105px" height="96px" viewBox="0 0 105 96" version="1.1" xmlns="http://www.w3.org/2000/svg" xmlns:xlink="http://www.w3.org/1999/xlink">
    <!-- Generator: sketchtool 59.1 (101010) - https://sketch.com -->
    <title>A28E966A-5281-49B9-BDAA-A8A114EB2D37</title>
    <desc>Created with sketchtool.</desc>
    <g id="Splash-Page" stroke="none" stroke-width="1" fill="none" fill-rule="evenodd">
        <g transform="translate(-1560.000000, -263.000000)" fill="#00D09C" id="Banner">
            <g>
                <g id="BG">
                    <g id="Group-Copy-5" transform="translate(1560.000000, 263.000000)">
                        <path d="M5.37096692,27.5460668 C4.57119101,26.7876754 3.30277448,26.8241905 2.54789827,27.6247148 C1.79021583,28.4308567 1.82108438,29.6948424 2.62366652,30.4532338 C3.42905489,31.2116252 4.69466519,31.1779189 5.44673516,30.371777 C6.21564253,29.5684438 6.17635529,28.3044582 5.37096692,27.5460668" id="Fill-1"></path>
                        <path d="M13.373792,18.548406 C12.5712414,17.7868788 11.3056808,17.8234096 10.5452219,18.6270878 C9.78756925,19.4251459 9.82404883,20.6952948 10.6265995,21.454012 C11.4319562,22.2127292 12.6947107,22.1761984 13.4523634,21.3725201 C14.2128222,20.5688419 14.1763426,19.3043132 13.373792,18.548406" id="Fill-3"></path>
                        <path d="M21.3710902,9.54601164 C20.5705819,8.79040048 19.3038127,8.82129908 18.5426277,9.62466262 C17.7870602,10.4308351 17.8263834,11.7004866 18.6240829,12.4504798 C19.4302088,13.2117089 20.6941692,13.1780013 21.4497366,12.3746378 C22.2137305,11.5740832 22.1772161,10.3044318 21.3710902,9.54601164" id="Fill-5"></path>
                        <path d="M30.3345259,3.14962571 C30.7030411,2.93562571 30.921288,2.67562571 31,2.40562571 C29.6511628,2.69162571 28.3202147,2.99362571 27,3.32762571 C28.0268336,3.73362571 29.450805,3.67762571 30.3345259,3.14962571" id="Fill-7"></path>
                        <path d="M4.37623715,42.54603 C3.57282598,41.7872544 2.30590838,41.8237881 1.55306155,42.6275281 C0.78616908,43.4312681 0.822687769,44.6987043 1.62609893,45.4574798 C2.43231923,46.2106348 3.6964277,46.1769114 4.45489279,45.3731714 C5.21335787,44.5694314 5.17403005,43.3076158 4.37623715,42.54603" id="Fill-9"></path>
                        <path d="M12.3719921,34.5412936 C11.5741517,33.7862875 10.3099679,33.8255815 9.54583906,34.6311085 C8.78732881,35.4282153 8.82384968,36.69685 9.62730868,37.4546628 C10.433577,38.2124756 11.6949514,38.1759884 12.4506524,37.3732681 C13.2147812,36.5705479 13.1754511,35.3019131 12.3719921,34.5412936" id="Fill-11"></path>
                        <path d="M20.3698764,25.5449755 C19.5697106,24.7893943 18.3034833,24.8231005 17.5482391,25.6236234 C16.7873797,26.429764 16.8238785,27.6937475 17.6240443,28.4577554 C18.4298253,29.2105278 19.693245,29.1768216 20.4512968,28.3734898 C21.2149638,27.570158 21.1756574,26.3033656 20.3698764,25.5449755" id="Fill-13"></path>
                        <path d="M28.3734628,16.5418006 C27.5761055,15.7919092 26.307072,15.8199951 25.5434059,16.6288667 C24.7881625,17.4265039 24.8246612,18.695983 25.6248262,19.4514915 C26.4306063,20.2154258 27.6940246,20.173297 28.4520755,19.3756598 C29.2129341,18.5695968 29.1764353,17.3085435 28.3734628,16.5418006" id="Fill-15"></path>
                        <path d="M37.3727892,8.54961704 C36.5699585,7.7882538 35.3039563,7.8219673 34.5432321,8.62547242 C33.7909292,9.431787 33.8218073,10.7016622 34.624638,11.4517876 C35.4302758,12.2103414 36.6934709,12.1794374 37.4570022,11.3731228 C38.2121122,10.5724271 38.1756199,9.30255191 37.3727892,8.54961704" id="Fill-17"></path>
                        <path d="M42.6221918,1.63227627 C43.4222938,2.14203414 44.6985127,2.11937824 45.4535385,1.57941249 C46.0761531,1.14139831 46.1606709,0.501368983 45.7380818,0.0029390607 C44.5520152,-0.00838889208 43.3715831,0.0123790213 42.20242,0.0765707537 C41.8305417,0.590104613 41.9714047,1.22258198 42.6221918,1.63227627" id="Fill-19"></path>
                        <path d="M3.37404024,59.5467662 C2.57652806,58.7883748 1.30443995,58.8220811 0.543433607,59.628223 C-0.209148316,60.4315562 -0.17825876,61.6955418 0.62486971,62.4539332 C1.43080632,63.2123246 2.69447,63.1758095 3.45547635,62.3752852 C4.21086641,61.5691433 4.17716871,60.3051576 3.37404024,59.5467662" id="Fill-21"></path>
                        <path d="M12.3739184,50.5480886 C11.5706335,49.7874381 10.3067238,49.8239269 9.54837799,50.6238729 C8.79003216,51.4294327 8.82092773,52.6981191 9.62421257,53.4559627 C10.4331148,54.2138064 11.6885984,54.1745108 12.4553703,53.3717579 C13.2109075,52.569005 13.1772032,51.308739 12.3739184,50.5480886" id="Fill-23"></path>
                        <path d="M20.3728635,40.5464925 C19.5699224,39.7875098 18.3065534,39.8240534 17.5457246,40.6252018 C16.7905107,41.4235392 16.821393,42.6969435 17.6243342,43.4559262 C18.4300828,44.2120979 19.6878368,44.1755543 20.4486657,43.3744059 C21.212302,42.5704464 21.1786122,41.3054752 20.3728635,40.5464925" id="Fill-25"></path>
                        <path d="M28.3717793,32.5431965 C27.5711617,31.7851184 26.3070286,31.8272338 25.5457396,32.6274274 C24.790069,33.4276209 24.82097,34.6966999 25.627206,35.4575857 C26.4334419,36.2128561 27.6919566,36.1735483 28.4532456,35.3761625 C29.2089163,34.5731612 29.1808244,33.3096977 28.3717793,32.5431965" id="Fill-27"></path>
                        <path d="M36.3787491,24.5438001 C35.5752602,23.7858543 34.3082201,23.8251552 33.5468722,24.6308235 C32.7883337,25.4308773 32.8220466,26.6941202 33.6283449,27.4576804 C34.4346431,28.2128189 35.6988739,28.173518 36.454603,27.3762714 C37.210332,26.5734103 37.1766192,25.304553 36.3787491,24.5438001" id="Fill-29"></path>
                        <path d="M44.3755059,14.5471338 C43.5747634,13.7886683 42.3048138,13.8223779 41.5462157,14.6257895 C40.7876175,15.426392 40.8241426,16.6961195 41.6248851,17.4517759 C42.4284372,18.2130505 43.6955772,18.1765318 44.4513657,17.3731202 C45.2127735,16.5668994 45.1762484,15.3027902 44.3755059,14.5471338" id="Fill-31"></path>
                        <path d="M53.3736582,6.54668549 C52.5732438,5.78570792 51.306623,5.82502041 50.5483357,6.62811851 C49.7900483,7.43121661 49.8209415,8.6948325 50.6241644,9.45581007 C51.4301958,10.2111716 52.694008,10.1774751 53.4494869,9.37156901 C54.2133912,8.57127895 54.1768811,7.30485502 53.3736582,6.54668549" id="Fill-33"></path>
                        <path d="M11.3698157,66.5484645 C10.5728783,65.7824388 9.30731929,65.827334 8.54686145,66.6298372 C7.78920972,67.4323403 7.82288313,68.6950201 8.62262662,69.4526279 C9.42798235,70.2158477 10.6935413,70.1737584 11.4539992,69.3712552 C12.214457,68.5687521 12.1751714,67.3060723 11.3698157,66.5484645" id="Fill-35"></path>
                        <path d="M19.370379,56.5461096 C18.568046,55.7876587 17.3056339,55.8241767 16.5481867,56.6247637 C15.7879341,57.4281598 15.8215984,58.6894355 16.6295421,59.4506954 C17.4318751,60.2147644 18.6998979,60.1754373 19.4517344,59.3720412 C20.2147924,58.5686452 20.1755173,57.3073695 19.370379,56.5461096" id="Fill-37"></path>
                        <path d="M28.3703068,48.5413262 C27.5706875,47.7857319 26.3053251,47.8278654 25.547791,48.6255933 C24.7902569,49.42613 24.8211194,50.6929443 25.6235444,51.4569654 C26.4315807,52.2125597 27.6997489,52.176044 28.4516716,51.3698894 C29.214817,50.5721616 29.1755375,49.3053473 28.3703068,48.5413262" id="Fill-39"></path>
                        <path d="M36.3705544,39.5469582 C35.5678469,38.7883004 34.3048456,38.8220186 33.5442382,39.6284437 C32.7892441,40.4264393 32.8229242,41.6936788 33.6256316,42.4523366 C34.4311458,43.2138042 35.694147,43.1744664 36.4491411,42.3764708 C37.2125552,41.5728555 37.1788752,40.3084259 36.3705544,39.5469582" id="Fill-41"></path>
                        <path d="M44.3714895,30.5517999 C43.5706999,29.7852502 42.3062954,29.8245604 41.5448429,30.6248047 C40.78901,31.4278568 40.8227274,32.6942082 41.6263267,33.4551422 C42.4299261,34.2104604 43.6915208,34.1795738 44.4529733,33.3680981 C45.2144258,32.565046 45.1750888,31.3043103 44.3714895,30.5517999" id="Fill-43"></path>
                        <path d="M52.3765807,22.5458917 C51.5702978,21.7873083 50.306091,21.8238327 49.5447577,22.6273692 C48.789043,23.4280962 48.8227552,24.6952115 49.6262288,25.453795 C50.4240837,26.2123784 51.6967184,26.175854 52.4524331,25.375127 C53.2137665,24.5687809 53.1744356,23.3072848 52.3765807,22.5458917" id="Fill-45"></path>
                        <path d="M60.3756561,13.5482241 C59.5747106,12.7869495 58.3044391,12.8234682 57.548459,13.6268798 C56.7868582,14.4246732 56.8233925,15.6944007 57.6271484,16.4528662 C58.4309042,17.2113317 59.7011757,17.1776221 60.4571559,16.3742105 C61.2103257,15.5679897 61.1766016,14.3038805 60.3756561,13.5482241" id="Fill-47"></path>
                        <path d="M66.7748614,7.49949235 C67.6831512,7.97549235 69.042038,8.01349235 70,7.60749235 C69.3365226,7.34149235 68.6978813,7.07149235 67.9989239,6.79549235 C67.3638306,6.54949235 66.7109972,6.33749235 66.083,6.11349235 C65.8594755,6.59349235 66.086548,7.12949235 66.7748614,7.49949235" id="Fill-49"></path>
                        <path d="M17.3732911,73.5476353 C16.5734069,72.7893489 15.3048186,72.8230505 14.5442269,73.6206555 C13.7892485,74.4238773 13.8229278,75.6961133 14.6256187,76.4515912 C15.4311161,77.2126861 16.6940912,77.176176 17.4546828,76.3757626 C18.2124679,75.5669238 18.1759819,74.3059217 17.3732911,73.5476353" id="Fill-51"></path>
                        <path d="M27.3698887,64.5447203 C26.5753535,63.7894929 25.3091508,63.8231833 24.5454986,64.6233313 C23.7874615,65.4234793 23.8239596,66.698101 24.6269174,67.4561359 C25.4326827,68.2141709 26.6960779,68.1748653 27.4513075,67.3691023 C28.2149597,66.5689543 28.175654,65.3055628 27.3698887,64.5447203" id="Fill-53"></path>
                        <path d="M35.3724206,55.5469838 C34.5751247,54.7887262 33.3033815,54.8224266 32.5481963,55.6256179 C31.7873963,56.4316176 31.8238922,57.6925719 32.6239956,58.4536378 C33.4297136,59.2147038 34.6930347,59.1725783 35.4510273,58.3778121 C36.2146347,57.5746207 36.1753313,56.3052414 35.3724206,55.5469838" id="Fill-55"></path>
                        <path d="M44.375535,46.5470908 C43.5772451,45.7886849 42.3095381,45.8223918 41.5477896,46.6257404 C40.788852,47.42628 40.8225825,48.6959077 41.6236834,49.4515048 C42.430406,50.2127196 43.695302,50.1762038 44.4570506,49.3756642 C45.2103665,48.5695067 45.1766359,47.3026879 44.375535,46.5470908" id="Fill-57"></path>
                        <path d="M52.3735143,38.54626 C51.570511,37.7858747 50.3070443,37.8251566 49.5433489,38.6276297 C48.7908843,39.4301028 48.821769,40.6927353 49.6247723,41.4503148 C50.433391,42.213506 51.69405,42.1770299 52.45213,41.371751 C53.21021,40.566472 53.1793253,39.3066454 52.3735143,38.54626" id="Fill-59"></path>
                        <path d="M60.3747471,29.5459345 C59.5715241,28.7872916 58.3077116,28.8238189 57.5494241,29.6274184 C56.7883281,30.4282081 56.8220298,31.7010422 57.6252529,32.4540655 C58.4312844,33.2127084 59.6950969,33.1761811 60.4505759,32.3725816 C61.2116719,31.5746017 61.1779702,30.3045774 60.3747471,29.5459345" id="Fill-61"></path>
                        <path d="M68.3759924,20.5477507 C67.5674513,19.7866984 66.3069133,19.8232064 65.5489061,20.6291917 C64.7880914,21.4323686 64.8217806,22.6961086 65.6275143,23.4543526 C66.427633,24.2125965 67.6965933,24.1760885 68.4517931,23.3729115 C69.2126078,22.5669263 69.1761112,21.308803 68.3759924,20.5477507" id="Fill-63"></path>
                        <path d="M73.6818523,15.3862504 C74.5571357,16.2391307 75.9234318,16.1980661 76.7529688,15.2946448 C76.8444618,15.1904038 76.9298553,15.0766865 77,14.9598103 C76.0210244,13.9868951 74.947506,12.9981858 73.8190918,12 C73.7428476,12.0663351 73.6635537,12.1295114 73.5964588,12.205323 C72.7638721,13.1119031 72.8126683,14.5302114 73.6818523,15.3862504" id="Fill-65"></path>
                        <path d="M25.377864,81.5477741 C24.5686137,80.7892955 23.3069701,80.8230057 22.5482979,81.6208127 C21.7896258,82.4298565 21.8205346,83.6967965 22.626975,84.455275 C23.4277956,85.2109444 24.6950591,85.1772342 25.4509213,84.3738088 C26.2152133,83.5703834 26.1730648,82.3034434 25.377864,81.5477741" id="Fill-67"></path>
                        <path d="M33.3732342,72.5469418 C32.5731785,71.7887425 31.3071253,71.8224402 30.5491778,72.6255698 C29.788423,73.4258913 29.8221096,74.695173 30.6249725,75.4533723 C31.4306427,76.2115716 32.6938886,76.1778739 33.4546434,75.3719361 C34.2097837,74.5688065 34.1789044,73.3079492 33.3732342,72.5469418" id="Fill-69"></path>
                        <path d="M43.3742435,63.5454449 C42.5709739,62.7848974 41.307088,62.8241877 40.5459478,63.6352512 C39.790425,64.429476 39.82132,65.6951841 40.6245896,66.4501187 C41.4306679,67.216279 42.6917452,67.1741823 43.4528853,66.3715381 C44.2140255,65.5688939 44.1747046,64.3031858 43.3742435,63.5454449" id="Fill-71"></path>
                        <path d="M51.3719314,54.5482672 C50.574014,53.7869327 49.3068987,53.8234543 48.5426961,54.6269291 C47.7897317,55.4332131 47.8234465,56.6946123 48.6241735,57.4531374 C49.4277101,58.2116625 50.6920159,58.1779503 51.4505994,57.3716662 C52.214802,56.5710008 52.175468,55.3039829 51.3719314,54.5482672" id="Fill-73"></path>
                        <path d="M59.3717595,45.5421249 C58.5685053,44.7868242 57.3046439,44.8261335 56.5463271,45.6263591 C55.7880102,46.4293926 55.8245218,47.6957145 56.6221588,48.453823 C57.4338386,49.2119315 58.6977,49.17543 59.4532083,48.3780122 C60.2143337,47.5693631 60.1750136,46.3030412 59.3717595,45.5421249" id="Fill-75"></path>
                        <path d="M67.3729983,36.5476247 C66.5755484,35.789353 65.3035596,35.823054 64.5482284,36.6206434 C63.7900894,37.4322749 63.8209766,38.6932526 64.6240424,39.4543326 C65.4299161,40.2126043 66.696289,40.1760949 67.4544281,39.3728886 C68.2125671,38.5696824 68.1760641,37.3087047 67.3729983,36.5476247" id="Fill-77"></path>
                        <path d="M76.3734588,27.5451969 C75.5708763,26.7902777 74.3052656,26.821148 73.5475828,27.6265822 C72.7899001,28.42921 72.8207687,29.6976987 73.6261574,30.4554243 C74.4287398,31.2131498 75.6943506,31.1738604 76.4464208,30.3768453 C77.2153285,29.5686048 77.1760412,28.3029224 76.3734588,27.5451969" id="Fill-79"></path>
                        <path d="M82.4371488,22.3516 C82.8749828,23.0536472 83.4914844,23.1751553 84,22.7667529 C83.5150449,21.5347952 82.9652983,20.2690852 82.3586136,19 C81.8540247,19.9653148 81.8834754,21.4504145 82.4371488,22.3516" id="Fill-81"></path>
                        <path d="M33.3704774,88.5500388 C32.5729954,87.7863567 31.3037634,87.8228562 30.5455939,88.6286531 C29.7874243,89.4260271 29.8239288,90.6978947 30.6270269,91.4531538 C31.427317,92.2112206 32.699357,92.1775287 33.4547184,91.3745395 C34.212888,90.5715502 34.1763835,89.3081056 33.3704774,88.5500388" id="Fill-83"></path>
                        <path d="M41.3724984,79.5466736 C40.5723022,78.7888461 39.3032189,78.8225273 38.547946,79.6252631 C37.7870576,80.4251921 37.8235577,81.6910448 38.6265617,82.4572926 C39.426758,83.2151201 40.6902258,83.1730186 41.4511142,82.3702828 C42.2091949,81.5703537 42.1811178,80.3045011 41.3724984,79.5466736" id="Fill-85"></path>
                        <path d="M49.376243,70.5455361 C48.5727392,69.7870127 47.3056754,69.8235341 46.5471228,70.6298164 C45.7913797,71.4304801 45.8194742,72.6974951 46.6257875,73.4532092 C47.4292914,74.2117326 48.6963551,74.1752111 49.4549077,73.3801662 C50.2106509,72.5682652 50.1769374,71.3040595 49.376243,70.5455361" id="Fill-87"></path>
                        <path d="M58.3770687,61.5455286 C57.5709112,60.7874498 56.3097102,60.8239499 55.5456865,61.6269518 C54.7900894,62.4299538 54.8209874,63.6934185 55.6271449,64.4571126 C56.4361112,65.2151914 57.6945033,65.1730759 58.4501004,64.370074 C59.2141241,63.567072 59.1747994,62.3036074 58.3770687,61.5455286" id="Fill-89"></path>
                        <path d="M67.3757479,52.5423892 C66.5722129,51.7867202 65.3051001,51.8260487 64.5437086,52.6266646 C63.7907458,53.4300896 63.821651,54.697029 64.625186,55.4555072 C65.4259113,56.2139854 66.6958337,56.1746569 67.4572252,55.3712319 C68.2129975,54.570616 68.1736637,53.3036766 67.3757479,52.5423892" id="Fill-91"></path>
                        <path d="M75.3769085,44.5443645 C74.5738573,43.7891952 73.3103153,43.8228831 72.5465743,44.6257768 C71.7884491,45.4286705 71.8221435,46.6975794 72.6280026,47.455556 C73.4282459,48.2135326 74.6945958,48.1742301 75.452721,47.3741437 C76.2136541,46.57125 76.1743439,45.3051484 75.3769085,44.5443645" id="Fill-93"></path>
                        <path d="M83.3749085,35.5470573 C82.5682803,34.7881642 81.3091535,34.8247035 80.5390625,35.6201359 C79.7914559,36.4268112 79.822372,37.6944437 80.6261896,38.4477154 C81.4271966,39.2122299 82.6947551,39.1785013 83.4536039,38.3746368 C84.2124527,37.5707722 84.1759155,36.3031397 83.3749085,35.5470573" id="Fill-95"></path>
                        <path d="M49.3742435,86.5455269 C48.5737825,85.7901508 47.307088,85.8210398 46.5459478,86.6269615 C45.790425,87.4300752 45.82132,88.6937157 46.6245896,89.4518999 C47.4306679,90.2157004 48.6917452,90.173579 49.4528853,89.3732734 C50.2140255,88.5757759 50.1747046,87.3009031 49.3742435,86.5455269" id="Fill-99"></path>
                        <path d="M58.3742105,77.5458382 C57.5679897,76.7873291 56.3038805,76.8238499 55.5482241,77.6273077 C54.7869495,78.4307655 54.8234682,79.6949472 55.6268798,80.4590749 C56.4274823,81.2091561 57.6944007,81.1782539 58.4528662,80.3719868 C59.2113317,79.5685291 59.1776221,78.3043473 58.3742105,77.5458382" id="Fill-101"></path>
                        <path d="M67.3742596,68.5458917 C66.5681022,67.7873083 65.3069012,67.8238327 64.5484952,68.6273692 C63.7872804,69.4224771 63.8237962,70.6952115 64.6243358,71.453795 C65.4276844,72.2123784 66.6973121,72.175854 67.4529092,71.375127 C68.2113151,70.5687809 68.1776082,69.3044752 67.3742596,68.5458917" id="Fill-103"></path>
                        <path d="M75.3755379,59.5468775 C74.5693175,58.7856327 73.3052089,58.824959 72.5495528,59.6283391 C71.7882785,60.4261011 71.8219881,61.6929698 72.6253994,62.4542145 C73.4316197,63.2126503 74.6957284,63.176133 75.4513844,62.3727529 C76.2154678,61.5693728 76.1733309,60.3025042 75.3755379,59.5468775" id="Fill-105"></path>
                        <path d="M82.3764229,50.5476247 C81.5699358,49.789353 80.305409,49.823054 79.5410728,50.6206434 C78.7907868,51.4294665 78.8216975,52.6932526 79.6281846,53.4543326 C80.4318616,54.2126043 81.6963885,54.1760949 82.4522945,53.3728886 C83.2138206,52.5696824 83.1744798,51.3030879 82.3764229,50.5476247" id="Fill-107"></path>
                        <path d="M89.4713263,42.6167442 C88.9293263,43.4235349 88.9593263,44.6957817 89.5293263,45.4574373 C89.9133263,45.9708495 90.4433263,46.1118968 90.9173263,45.9144306 C90.8173263,44.6844979 90.7473263,43.3840416 90.6653263,42.0130616 C90.2393263,41.9453589 89.7933263,42.1400042 89.4713263,42.6167442" id="Fill-109"></path>
                        <path d="M56.3728391,92.5448109 C55.5723781,91.7890224 54.3056836,91.8227378 53.5473521,92.62629 C52.7890206,93.4298421 52.8227242,94.6941723 53.6231853,95.4527705 C54.4320722,96.2113687 55.6931494,96.1776532 56.4542896,95.3741011 C57.2126211,94.5677393 57.1761088,93.3062187 56.3728391,92.5448109" id="Fill-113"></path>
                        <path d="M66.3756763,84.5486772 C65.5751522,83.7872098 64.3083579,83.8237377 63.5471578,84.624543 C62.7859577,85.4253483 62.8252817,86.6953973 63.6258058,87.4540549 C64.4319476,88.2127125 65.6987419,88.1761845 66.4515154,87.3725694 C67.2127155,86.5689544 67.1762004,85.304525 66.3756763,84.5486772" id="Fill-115"></path>
                        <path d="M74.3735396,75.5420785 C73.5720787,74.7864097 72.3066141,74.8257382 71.5445233,75.629163 C70.7908688,76.4269695 70.8218024,77.699527 71.6232633,78.4551958 C72.4275363,79.2136738 73.7014373,79.1743453 74.4522796,78.3737297 C75.2115583,77.573114 75.1778126,76.3033657 74.3735396,75.5420785" id="Fill-117"></path>
                        <path d="M82.3712369,66.5495827 C81.5737236,65.7914156 80.3016336,65.8194959 79.5462424,66.6225913 C78.7880431,67.4284948 78.824549,68.6892985 79.6220624,69.4530815 C80.4336164,70.2112485 81.6944738,70.1775522 82.449865,69.3744568 C83.2136806,68.5713614 83.1771747,67.3077497 82.3712369,66.5495827" id="Fill-119"></path>
                        <path d="M90.3748352,58.5472058 C89.5681126,57.7869106 88.3032164,57.8233823 87.5442787,58.6285658 C86.7909628,59.4281382 86.8218825,60.696232 87.6229834,61.4565271 C88.429706,62.2140168 89.6946022,62.1747396 90.4535399,61.3695561 C91.2124776,60.5671782 91.1759361,59.3075009 90.3748352,58.5472058" id="Fill-121"></path>
                        <path d="M73.3718877,91.5426583 C72.5771212,90.7870482 71.3049332,90.8263736 70.5438671,91.6241182 C69.7884178,92.4302896 69.8249265,93.6999394 70.6225013,94.4555496 C71.4313095,95.2139687 72.6950724,95.1746433 73.4533302,94.3712808 C74.2115879,93.5707273 74.1778876,92.3038864 73.3718877,91.5426583" id="Fill-127"></path>
                        <path d="M82.3740848,82.547684 C81.5734207,81.7894254 80.3092142,81.8203174 79.5450716,82.6291266 C78.7893571,83.423894 78.8230693,84.6960834 79.6237334,85.454342 C80.4300162,86.2126006 81.697032,86.1760919 82.4527465,85.3728994 C83.2140798,84.569707 83.1747489,83.3059426 82.3740848,82.547684" id="Fill-129"></path>
                        <path d="M90.3748691,73.5466543 C89.5746107,72.7888535 88.305429,72.8225335 87.5444815,73.6252411 C86.7891499,74.4307553 86.822845,75.6937567 87.6259113,76.4487509 C88.4317856,77.2149717 89.6953515,77.1756784 90.4506831,76.3729708 C91.2116306,75.5730699 91.1779355,74.3044552 90.3748691,73.5466543" id="Fill-131"></path>
                        <path d="M104.577,60.2039748 C104.187,60.0719748 103.799,59.9339748 103.423,59.7879748 C103.435,59.8019748 103.447,59.8179748 103.459,59.8299748 C103.773,60.1239748 104.179,60.2459748 104.577,60.2039748" id="Fill-135"></path>
                    </g>
                </g>
            </g>
        </g>
    </g>
</svg>