<?xml version="1.0" encoding="UTF-8"?>
<svg width="215px" height="184px" viewBox="0 0 215 184" version="1.1" xmlns="http://www.w3.org/2000/svg" xmlns:xlink="http://www.w3.org/1999/xlink">
    <!-- Generator: sketchtool 59.1 (101010) - https://sketch.com -->
    <title>53E24CA9-BE7D-49B9-9328-F15306D6CABC</title>
    <desc>Created with sketchtool.</desc>
    <g id="Splash-Page" stroke="none" stroke-width="1" fill="none" fill-rule="evenodd">
        <g transform="translate(-251.000000, -4895.000000)" fill="#C7C7D6" id="Why-Choose-Us">
            <g transform="translate(0.000000, 4412.000000)">
                <g id="BG">
                    <g id="Group-Copy-8" transform="translate(356.000000, 576.040541) rotate(-191.000000) translate(-356.000000, -576.040541) translate(256.000000, 473.000000)">
                        <path d="M5.37849684,26.7574137 C4.70301043,26.1168804 3.63171269,26.1477209 2.99414833,26.8238393 C2.35421383,27.5047025 2.38028524,28.572258 3.05814177,29.2127912 C3.73836844,29.8533245 4.80729606,29.8248564 5.44249029,29.1439932 C6.0919053,28.4655024 6.05872351,27.3979469 5.37849684,26.7574137" id="Fill-1"></path>
                        <path d="M13.0882093,18.5704921 C12.4103794,17.9273102 11.3414937,17.958164 10.6992143,18.6369463 C10.059305,19.3109818 10.0901154,20.3837427 10.7679453,21.0245511 C11.4481453,21.6653596 12.5146609,21.6345059 13.1545703,20.9557236 C13.7968497,20.2769413 13.7660393,19.2089272 13.0882093,18.5704921" id="Fill-3"></path>
                        <path d="M21.2853983,9.56050644 C20.6092934,8.92232134 19.5393869,8.94841813 18.8964941,9.62693463 C18.2583459,10.3078236 18.2915581,11.3801643 18.9652908,12.0136046 C19.6461403,12.6565345 20.7136745,12.6280653 21.3518227,11.9495488 C21.9970877,11.2734047 21.9662479,10.201064 21.2853983,9.56050644" id="Fill-5"></path>
                        <path d="M29.7809087,3.24343197 C30.0921547,3.02654007 30.2764848,2.76302656 30.3429645,2.48937791 C29.2037439,2.77924278 28.0796323,3.08532386 26.9645861,3.42383737 C27.8318443,3.83532386 29.0345228,3.7785671 29.7809087,3.24343197" id="Fill-7"></path>
                        <path d="M4.22638705,41.6693174 C3.54783033,41.0284597 2.47779857,41.0593158 1.84194821,41.7381503 C1.19423497,42.4169847 1.22507846,43.4874545 1.90363518,44.1283122 C2.58456448,44.7644228 3.65222367,44.7359402 4.29281918,44.0571058 C4.93341469,43.3782713 4.90019863,42.3125487 4.22638705,41.6693174" id="Fill-9"></path>
                        <path d="M12.7491941,33.9685642 C12.0753424,33.3308902 11.0076196,33.3640777 10.3622405,34.0444214 C9.72160686,34.7176535 9.75245218,35.7891355 10.4310493,36.4291801 C11.1120192,37.0692247 12.1773692,37.0384078 12.8156301,36.3604346 C13.4610092,35.6824614 13.4277912,34.6109794 12.7491941,33.9685642" id="Fill-11"></path>
                        <path d="M21.1103389,25.6193159 C20.4345231,24.981156 19.3650744,25.0096241 18.7271992,25.6857414 C18.0845815,26.3666034 18.1154082,27.4341571 18.7912239,28.079434 C19.4717822,28.7152215 20.5388596,28.6867534 21.1791061,28.0082637 C21.8240951,27.3297741 21.7908971,26.2598481 21.1103389,25.6193159" id="Fill-13"></path>
                        <path d="M28.3303121,15.4609213 C27.6568684,14.8275671 26.5850496,14.8512883 25.9400613,15.5344568 C25.3021868,16.208137 25.3330135,17.2803321 26.0088284,17.9184305 C26.689386,18.5636453 27.7564622,18.5280636 28.396708,17.8543835 C29.039325,17.173587 29.0084984,16.1085082 28.3303121,15.4609213" id="Fill-15"></path>
                        <path d="M36.8561355,7.77077018 C36.1780691,7.1277269 35.1088105,7.15620114 34.4663069,7.83483722 C33.830916,8.51584616 33.8569955,9.58837591 34.5350619,10.2219278 C35.2154992,10.8625982 36.282387,10.8364968 36.9272614,10.1554879 C37.5650232,9.47922465 37.534202,8.4066949 36.8561355,7.77077018" id="Fill-17"></path>
                        <path d="M43.0593883,1.93982346 C43.7351501,2.45646996 44.8130377,2.43350789 45.4507284,1.88624531 C45.9765853,1.44231202 46.0479686,0.793633646 45.6910521,0.288468185 C44.6893067,0.276987151 43.6923201,0.298035712 42.7048513,0.363094901 C42.3907648,0.883568406 42.509737,1.52459276 43.0593883,1.93982346" id="Fill-19"></path>
                        <path d="M3.39489204,57.8930844 C2.72131756,57.2525512 1.64691883,57.2810193 1.00417698,57.9618825 C0.368550354,58.6403733 0.394639506,59.7079287 1.07295747,60.348462 C1.75364718,60.9889953 2.82093069,60.9581548 3.46367253,60.2820364 C4.1016709,59.6011732 4.07321001,58.5336177 3.39489204,57.8930844" id="Fill-21"></path>
                        <path d="M12.413326,49.3783825 C11.7348759,48.7359412 10.6673846,48.7667594 10.0268898,49.4423896 C9.38639505,50.122761 9.41248928,51.1942866 10.0909393,51.8343573 C10.7741338,52.4744279 11.8345085,52.4412391 12.4821199,51.7632383 C13.1202424,51.0852376 13.091776,50.0208238 12.413326,49.3783825" id="Fill-23"></path>
                        <path d="M19.3006955,40.6959927 C18.6225358,40.05496 17.5555012,40.0858245 16.9129092,40.7624701 C16.2750597,41.4367415 16.3011427,42.5122519 16.9793025,43.1532846 C17.6598335,43.7919431 18.7221257,43.7610786 19.3647176,43.084433 C20.0096807,42.4054132 19.9812265,41.3370253 19.3006955,40.6959927" id="Fill-25"></path>
                        <path d="M28.1548559,31.5217848 C27.4786586,30.8815161 26.4109787,30.9170866 25.7679981,31.5929258 C25.1297627,32.2687649 25.1558616,33.3406221 25.8368041,33.9832621 C26.5177466,34.6211594 27.5806813,34.5879603 28.2236619,33.9144925 C28.8618973,33.236282 28.838171,32.1691676 28.1548559,31.5217848" id="Fill-27"></path>
                        <path d="M36.0315298,23.9890025 C35.3529074,23.3488456 34.2827721,23.3820389 33.6397418,24.062502 C32.9990843,24.7382231 33.027558,25.8051512 33.7085532,26.45005 C34.3895484,27.0878359 35.4573108,27.0546426 36.0955955,26.3812924 C36.7338802,25.7032003 36.7054065,24.6315303 36.0315298,23.9890025" id="Fill-29"></path>
                        <path d="M43.5726562,15.1473156 C42.8963534,14.5067197 41.8237609,14.5351906 41.183053,15.2137477 C40.5423451,15.8899323 40.573194,16.9623372 41.2494968,17.6005605 C41.9281726,18.243529 42.9983921,18.2126855 43.636727,17.5341284 C44.279808,16.8531987 44.2489591,15.7855389 43.5726562,15.1473156" id="Fill-31"></path>
                        <path d="M52.4261718,5.97551284 C51.7501461,5.3327953 50.6803651,5.36599842 50.0399197,6.04429073 C49.3994743,6.72258305 49.4255665,7.7898262 50.1039642,8.43254374 C50.784734,9.07051798 51.8521429,9.04205816 52.4902163,8.36139419 C53.1354057,7.68547353 53.1045695,6.61585873 52.4261718,5.97551284" id="Fill-33"></path>
                        <path d="M11.4167606,64.94624 C10.7436716,64.2992588 9.67478731,64.3371772 9.03250872,65.014967 C8.39260017,65.6927568 8.42104055,66.7592093 9.09649958,67.3990808 C9.77669867,68.043692 10.845583,68.0081436 11.4878615,67.3303538 C12.1301401,66.652564 12.0969597,65.5861115 11.4167606,64.94624" id="Fill-35"></path>
                        <path d="M18.9611021,56.0997485 C18.2834559,55.459165 17.2172295,55.4900079 16.5774937,56.1661794 C15.9353884,56.8447234 15.9638211,57.90999 16.646206,58.552946 C17.3238522,59.1982746 18.3948174,59.1650591 19.0298144,58.4865151 C19.6742891,57.8079711 19.6411176,56.7427045 18.9611021,56.0997485" id="Fill-37"></path>
                        <path d="M27.979578,47.5798897 C27.3042238,46.9417188 26.2355055,46.9773046 25.5956964,47.6510612 C24.9558872,48.3271902 24.9819535,49.3971347 25.6596773,50.0424228 C26.3421404,50.6805936 27.4132284,50.6497527 28.0482982,49.9688789 C28.6928467,49.2951223 28.6596714,48.2251778 27.979578,47.5798897" id="Fill-39"></path>
                        <path d="M36.179258,38.5766832 C35.5012956,37.9359249 34.4345715,37.964403 33.7921666,38.6455053 C33.1545027,39.3194881 33.1829487,40.3897917 33.860911,41.03055 C34.5412439,41.6736814 35.607968,41.6404569 36.2456319,40.9664742 C36.8904073,40.287745 36.8619613,39.2198146 36.179258,38.5766832" id="Fill-41"></path>
                        <path d="M43.8873742,30.3918751 C43.2110316,29.7444513 42.1431224,29.7776525 41.5000037,30.4535345 C40.8616313,31.1317879 40.8901089,32.2013415 41.5688246,32.8440222 C42.2475402,33.4819599 43.3130763,33.4558733 43.956195,32.7705053 C44.5993136,32.0922518 44.5660898,31.0274413 43.8873742,30.3918751" id="Fill-43"></path>
                        <path d="M51.5990006,22.1979877 C50.9180184,21.5572922 49.8502762,21.5881405 49.2072582,22.2668031 C48.5689856,22.9430928 48.5974588,24.0132916 49.2760682,24.653987 C49.9499322,25.2946825 51.0247926,25.2638342 51.6630652,24.5875445 C52.3060832,23.906509 52.2728646,22.8410561 51.5990006,22.1979877" id="Fill-45"></path>
                        <path d="M58.9786247,12.6998498 C58.3021504,12.0568814 57.229286,12.0877249 56.5907893,12.766282 C55.9475453,13.440094 55.978402,14.5124989 56.6572499,15.1530948 C57.3360977,15.7936907 58.4089621,15.7652198 59.0474589,15.0866626 C59.683582,14.4057329 59.6550989,13.3380731 58.9786247,12.6998498" id="Fill-47"></path>
                        <path d="M66.1274658,7.22764574 C66.8946025,7.71007818 68.042311,7.74859169 68.8514005,7.3371052 C68.2910311,7.06751061 67.7516381,6.79386196 67.1613024,6.51413223 C66.624906,6.2648079 66.0735265,6.04994304 65.5431234,5.82291601 C65.3543359,6.3094025 65.54612,6.85264574 66.1274658,7.22764574" id="Fill-49"></path>
                        <path d="M17.9704613,71.6685772 C17.2948835,71.0281326 16.2234406,71.0565968 15.581049,71.7302496 C14.9433983,72.4086464 14.9718437,73.4831701 15.6497921,74.1212427 C16.3301108,74.7640592 17.3968128,74.733223 18.0392044,74.0571982 C18.6792255,73.3740573 18.6484097,72.3090217 17.9704613,71.6685772" id="Fill-51"></path>
                        <path d="M26.9861245,63.1502963 C26.3150644,62.5124354 25.2456365,62.5408901 24.6006599,63.2166908 C23.9604259,63.8924914 23.991252,64.96903 24.6694258,65.6092622 C25.3499709,66.2494945 26.4170276,66.2162972 27.0548904,65.5357541 C27.6998669,64.8599534 27.6666696,63.7928998 26.9861245,63.1502963" id="Fill-53"></path>
                        <path d="M34.5321287,54.3077055 C33.8587369,53.6672853 32.7846295,53.6957484 32.1468041,54.3741195 C31.5042365,55.0548625 31.5350608,56.1198576 32.2108238,56.7626498 C32.8913289,57.405442 33.958323,57.3698631 34.5985195,56.6986078 C35.2434581,56.0202367 35.2102627,54.9481258 34.5321287,54.3077055" id="Fill-55"></path>
                        <path d="M43.7167567,46.4475823 C43.0425253,45.8070367 41.9718269,45.8355054 41.3284582,46.5140093 C40.6874636,47.1901407 40.7159522,48.2624614 41.3925577,48.9006346 C42.0739112,49.5435526 43.1422356,49.5127115 43.7856043,48.8365801 C44.4218508,48.1557038 44.3933622,47.0857555 43.7167567,46.4475823" id="Fill-57"></path>
                        <path d="M50.4398498,37.1102336 C49.7616375,36.4680162 48.6945204,36.5011935 48.0495073,37.1789579 C47.4139798,37.8567224 47.4400649,38.9231349 48.1182771,39.5629825 C48.8012321,40.2075697 49.8659779,40.1767622 50.5062482,39.4966279 C51.1465184,38.8164937 51.1204334,37.7524509 50.4398498,37.1102336" id="Fill-59"></path>
                        <path d="M58.8038226,28.7576005 C58.1254248,28.1168549 57.0580156,28.1477056 56.4175701,28.8264214 C55.7747525,29.502764 55.8032168,30.5777929 56.4816146,31.2137923 C57.1623845,31.8545379 58.2297937,31.8236872 58.8678672,31.1449714 C59.5106847,30.4710019 59.4822205,29.3983462 58.8038226,28.7576005" id="Fill-61"></path>
                        <path d="M66.5122008,20.5702371 C65.8293114,19.9274565 64.7646678,19.958291 64.124459,20.6390218 C63.481879,21.3173807 63.5103327,22.3847286 64.190851,23.0251374 C64.866627,23.6655461 65.938384,23.6347116 66.5762217,22.9563527 C67.2188016,22.2756219 67.1879768,21.2130178 66.5122008,20.5702371" id="Fill-63"></path>
                        <path d="M73.2552815,14.4517998 C73.9945411,15.1721379 75.1485075,15.1374549 75.8491299,14.3744302 C75.9264044,14.2863889 75.9985273,14.1903438 76.0577711,14.0916308 C75.2309336,13.2699119 74.3242458,12.4348533 73.3711933,11.591791 C73.3067978,11.6478173 73.2398266,11.7011757 73.1831586,11.7652057 C72.4799603,12.5308984 72.5211734,13.7287939 73.2552815,14.4517998" id="Fill-65"></path>
                        <path d="M25.5076157,79.5394815 C24.8241273,78.8988747 23.7585499,78.9273461 23.1177795,79.6011696 C22.4770091,80.2844836 22.5031146,81.3545343 23.1842298,81.9951411 C23.8605985,82.6333754 24.9309224,82.604904 25.5693196,81.9263352 C26.2148364,81.2477665 26.179238,80.1777158 25.5076157,79.5394815" id="Fill-67"></path>
                        <path d="M33.2110318,71.3498812 C32.5353091,70.7095102 31.4660075,70.7379711 30.8258491,71.4162901 C30.1833197,72.0922372 30.2117712,73.1642658 30.8898649,73.8046368 C31.5703296,74.4450078 32.6372602,74.4165468 33.2797896,73.7358562 C33.917577,73.0575373 33.8914965,71.992624 33.2110318,71.3498812" id="Fill-69"></path>
                        <path d="M42.0669604,62.1771929 C41.3885232,61.5348386 40.3210521,61.568023 39.6781972,62.2530428 C39.0400867,62.9238408 39.0661804,63.9928511 39.7446176,64.6304647 C40.425427,65.2775596 41.490526,65.2420049 42.1333809,64.564096 C42.7762357,63.8861871 42.7430255,62.8171768 42.0669604,62.1771929" id="Fill-71"></path>
                        <path d="M50.2644786,53.1716133 C49.5905618,52.5285943 48.520363,52.5594403 47.8749217,53.2380507 C47.2389721,53.9190339 47.2674474,54.9844048 47.9437371,55.625051 C48.6223997,56.2656972 49.6902256,56.2372241 50.3309211,55.5562409 C50.9763625,54.8800032 50.9431412,53.8098868 50.2644786,53.1716133" id="Fill-73"></path>
                        <path d="M57.9716597,44.9775282 C57.2932356,44.3396053 56.2257851,44.3728058 55.5853148,45.048672 C54.9448445,45.7269097 54.975682,46.7964384 55.6493619,47.4367327 C56.3349023,48.077027 57.4023528,48.0461981 58.040451,47.3727033 C58.6832934,46.6897227 58.6500838,45.620194 57.9716597,44.9775282" id="Fill-75"></path>
                        <path d="M66.6643215,35.155144 C65.9907996,34.5147119 64.9164847,34.5431755 64.2785361,35.2168153 C63.638216,35.9023148 63.6643031,36.9673298 64.3425681,37.6101339 C65.0232047,38.250566 66.0927765,38.2197304 66.7330966,37.5413467 C67.3734167,36.862963 67.3425865,35.7979481 66.6643215,35.155144" id="Fill-77"></path>
                        <path d="M75.6832472,26.6372747 C75.0053904,25.9996741 73.9364624,26.025747 73.2965277,26.7060123 C72.656593,27.3839074 72.6826644,28.4552661 73.3628913,29.095237 C74.0407481,29.7352079 75.1096761,29.7020243 75.7448706,29.0288697 C76.3942858,28.3462341 76.361104,27.2772456 75.6832472,26.6372747" id="Fill-79"></path>
                        <path d="M79.8567456,21.9646377 C80.3004962,22.5575829 80.9253289,22.6602081 81.4407164,22.3152736 C80.9492079,21.2747688 80.3920322,20.205757 79.7771491,19.1338945 C79.2657414,19.9491941 79.2955901,21.2035013 79.8567456,21.9646377" id="Fill-81"></path>
                        <path d="M33.3633529,85.9375103 C32.6898039,85.2925085 31.6178174,85.3233358 30.9774716,86.0039075 C30.3371257,86.6773653 30.3679571,87.7515778 31.0462494,88.3894655 C31.7221701,89.0297247 32.7965282,89.0012687 33.4345024,88.3230683 C34.0748483,87.6448679 34.0440169,86.5777694 33.3633529,85.9375103" id="Fill-83"></path>
                        <path d="M40.9089256,77.0901655 C40.2330841,76.4501085 39.1612233,76.4785554 38.5233238,77.1565418 C37.8806816,77.8321575 37.9115094,78.9012898 38.5897223,79.5484586 C39.2655637,80.1885156 40.3326818,80.1529569 40.975324,79.4749705 C41.6155949,78.7993548 41.5918811,77.7302225 40.9089256,77.0901655" id="Fill-85"></path>
                        <path d="M49.1115591,68.0812414 C48.4329241,67.4405967 47.3627689,67.4714425 46.7220995,68.1524242 C46.0838029,68.8286603 46.1075314,69.8987744 46.7885393,70.5370464 C47.4671743,71.1776912 48.5373295,71.1468453 49.1779989,70.4753547 C49.8162955,69.7896275 49.7878213,68.7218862 49.1115591,68.0812414" id="Fill-87"></path>
                        <path d="M57.4751881,59.728877 C56.7943119,59.0886078 55.7291083,59.1194355 55.083818,59.7976467 C54.4456448,60.4758578 54.4717411,61.5429732 55.1526173,62.1879852 C55.8358659,62.8282544 56.8986971,62.7926839 57.5368703,62.1144728 C58.1821606,61.4362617 58.1489472,60.3691463 57.4751881,59.728877" id="Fill-89"></path>
                        <path d="M65.8370042,51.3738674 C65.1583429,50.7356335 64.0881463,50.7688501 63.4450792,51.4450459 C62.8091309,52.1236144 62.8352332,53.1936646 63.5138945,53.8342712 C64.1901828,54.4748777 65.2627523,54.4416611 65.9058195,53.7630927 C66.5441407,53.0868968 66.5109196,52.0168466 65.8370042,51.3738674" id="Fill-91"></path>
                        <path d="M74.2009161,43.0231777 C73.5226634,42.3853658 72.4554826,42.4138184 71.8104311,43.091938 C71.1701227,43.7700577 71.1985808,44.8417714 71.879205,45.4819543 C72.5550862,46.1221372 73.6246385,46.0889425 74.264947,45.4131939 C74.9076269,44.7350742 74.8744258,43.6657316 74.2009161,43.0231777" id="Fill-93"></path>
                        <path d="M81.7430926,34.1809494 C81.0618188,33.5399924 79.9983671,33.5708533 79.3479524,34.2426712 C78.7165279,34.9239848 78.7426395,35.9946204 79.4215395,36.6308296 C80.0980657,37.2765344 81.1686387,37.2480474 81.8095583,36.5691078 C82.4504779,35.8901681 82.4196188,34.8195325 81.7430926,34.1809494" id="Fill-95"></path>
                        <path d="M40.0797385,93.3092711 C39.4017633,92.6708009 38.3326486,92.7064034 37.6926021,93.3781024 C37.0525555,94.0569219 37.0810021,95.1249946 37.7589773,95.7729587 C38.439323,96.4066818 39.5060672,96.3805734 40.1437432,95.6993804 C40.7885308,95.0253078 40.7600843,93.9524882 40.0797385,93.3092711" id="Fill-97"></path>
                        <path d="M49.0992968,84.7965235 C48.4232317,84.1585368 47.3533884,84.1846255 46.7105336,84.8653027 C46.072423,85.5436082 46.0985168,86.6108721 46.776954,87.2512304 C47.4577634,87.8963321 48.5228624,87.8607566 49.1657172,87.1848228 C49.8085721,86.5112608 49.7753619,85.4345101 49.0992968,84.7965235" id="Fill-99"></path>
                        <path d="M57.2987398,75.788823 C56.6178101,75.1481904 55.5501503,75.1790357 54.911927,75.8576317 C54.2689585,76.5362278 54.299802,77.6039489 54.9783592,78.249327 C55.6545437,78.8828415 56.7245761,78.8567417 57.365172,78.1757729 C58.0057679,77.4971768 57.9772969,76.4294557 57.2987398,75.788823" id="Fill-101"></path>
                        <path d="M65.661713,67.4365102 C64.9808367,66.7958147 63.9156332,66.826663 63.2750876,67.5053256 C62.6321697,68.1768694 62.6630107,69.251814 63.3391422,69.8925095 C64.017646,70.533205 65.0899667,70.5023567 65.7281399,69.826067 C66.3686855,69.1450314 66.3402168,68.0772056 65.661713,67.4365102" id="Fill-103"></path>
                        <path d="M73.2066582,58.5928401 C72.5257289,57.9498969 71.4580695,57.9831117 70.8198465,58.6616422 C70.1768784,59.3354277 70.2053493,60.4054181 70.8839061,61.0483613 C71.5648355,61.6889321 72.6324948,61.6580898 73.2707178,60.9795593 C73.9160585,60.3010288 73.8804699,59.2310384 73.2066582,58.5928401" id="Fill-105"></path>
                        <path d="M80.7512714,49.7489686 C80.0701167,49.1085365 79.0021042,49.1370002 78.35655,49.8106399 C77.7228626,50.4937675 77.7489695,51.5611544 78.4301242,52.2039585 C79.1089055,52.8443906 80.176918,52.813555 80.8153521,52.1351713 C81.458533,51.4567877 81.4253059,50.3870288 80.7512714,49.7489686" id="Fill-107"></path>
                        <path d="M87.5793265,42.1105938 C87.0300022,42.7920048 87.0604076,43.8665376 87.6381103,44.5098278 C88.0272995,44.943453 88.5644617,45.0625808 89.0448671,44.8958019 C88.9435157,43.8570074 88.8725698,42.758649 88.7894617,41.6007267 C88.3577049,41.5435454 87.9056779,41.7079418 87.5793265,42.1105938" id="Fill-109"></path>
                        <path d="M48.1059219,100.363949 C47.4298441,99.7238409 46.3599806,99.7546609 45.7194858,100.432701 C45.078991,101.110741 45.1050852,102.177588 45.7835353,102.822437 C46.4643575,103.462545 47.534221,103.429354 48.1747158,102.748943 C48.8128384,102.073274 48.7843719,101.004057 48.1059219,100.363949" id="Fill-111"></path>
                        <path d="M55.3219546,90.2077457 C54.6458895,89.5694108 53.5760462,89.5978867 52.9355635,90.2765625 C52.2950808,90.9552383 52.3235467,92.0230848 52.9996118,92.6637927 C53.6827933,93.3045006 54.7478923,93.2760247 55.3907472,92.5973489 C56.0312299,91.9163001 56.0003918,90.8508266 55.3219546,90.2077457" id="Fill-113"></path>
                        <path d="M64.6698092,83.0064028 C63.9936908,82.3632715 62.9237632,82.3941228 62.2808577,83.0704786 C61.6379522,83.7468344 61.6711651,84.819511 62.3472834,85.4602691 C63.0281464,86.1010272 64.098074,86.0701759 64.7338625,85.3914469 C65.376768,84.7127179 65.3459275,83.6447878 64.6698092,83.0064028" id="Fill-115"></path>
                        <path d="M72.0484095,73.5007218 C71.3714999,72.862488 70.3026954,72.8957046 69.6590376,73.5742729 C69.0225051,74.2480959 69.0486315,75.3228911 69.725541,75.9611249 C70.4048256,76.6017313 71.4807555,76.5685147 72.1149128,75.892319 C72.7561956,75.2161234 72.7276941,74.1437008 72.0484095,73.5007218" id="Fill-117"></path>
                        <path d="M80.4093963,65.1547017 C79.7358209,64.5143579 78.6614205,64.5380743 78.0234212,65.2163644 C77.3830502,65.8970261 77.4138829,66.961894 78.0874583,67.6069811 C78.7728925,68.2473249 79.8378059,68.2188651 80.4758052,67.5405751 C81.1209197,66.862285 81.090087,65.7950454 80.4093963,65.1547017" id="Fill-119"></path>
                        <path d="M88.1197619,56.9637968 C87.4384083,56.3216556 86.3700838,56.3524594 85.7290891,57.032513 C85.0928425,57.7078276 85.1189571,58.7788527 85.7955626,59.4209939 C86.4769162,60.0607656 87.5452407,60.0275922 88.1862354,59.3475386 C88.8272301,58.6698546 88.7963673,57.605938 88.1197619,56.9637968" id="Fill-121"></path>
                        <path d="M54.4929503,106.431849 C53.8173594,105.791091 52.7506368,105.821942 52.1082327,106.500671 C51.4658287,107.1794 51.4919041,108.24733 52.1722361,108.885715 C52.8549385,109.528846 53.9169201,109.497995 54.5593242,108.821639 C55.2040987,108.147657 55.1685413,107.072607 54.4929503,106.431849" id="Fill-123"></path>
                        <path d="M64.004783,97.096919 C63.3287308,96.4562236 62.2565357,96.4870719 61.6184373,97.1657345 C60.9732225,97.8443971 61.0064321,98.9122229 61.6824843,99.5529184 C62.3609087,100.193614 63.4307317,100.162766 64.0735743,99.4864759 C64.7116727,98.8054403 64.6808353,97.7376145 64.004783,97.096919" id="Fill-125"></path>
                        <path d="M71.7095193,88.9052908 C71.0382638,88.2671065 69.9637807,88.3003206 69.3209884,88.9740913 C68.6829399,89.6549794 68.713775,90.7273187 69.3874024,91.365503 C70.0705174,92.0060597 71.1378848,91.9728457 71.7783052,91.29433 C72.4187255,90.6181869 72.3902624,89.5482199 71.7095193,88.9052908" id="Fill-127"></path>
                        <path d="M79.4187014,80.7206381 C78.7424648,80.080217 77.6747228,80.1063082 77.0293321,80.7894241 C76.3910597,81.4606803 76.4195328,82.5351646 77.0957694,83.1755857 C77.7767515,83.8160069 78.8468662,83.7851718 79.4851386,83.1067998 C80.1281566,82.4284278 80.0949379,81.3610592 79.4187014,80.7206381" id="Fill-129"></path>
                        <path d="M88.2744399,71.5483444 C87.598546,70.9083099 86.526602,70.9367559 85.8839098,71.6147183 C85.2459608,72.2950513 85.2744195,73.3617755 85.952685,73.9994395 C86.6333221,74.6465854 87.700523,74.6133985 88.338472,73.935436 C88.9811641,73.259844 88.9527054,72.1883789 88.2744399,71.5483444" id="Fill-131"></path>
                        <path d="M95.9823972,63.3583093 C95.2990959,62.7182998 94.2314376,62.7491151 93.5884701,63.427051 C92.9549929,64.1073574 92.9810912,65.1764102 93.6596473,65.8116788 C94.340576,66.4587995 95.4058617,66.4232434 96.0464567,65.7453075 C96.6894242,65.0721123 96.6585807,64.0030595 95.9823972,63.3583093" id="Fill-133"></path>
                        <path d="M102.783999,58.07944 C102.388729,57.9456562 101.995486,57.8057914 101.614405,57.6578184 C101.626567,57.6720076 101.638729,57.6882238 101.650891,57.700386 C101.969134,57.9983589 102.380621,58.1220076 102.783999,58.07944" id="Fill-135"></path>
                        <path d="M62.5195216,113.484751 C61.8387925,112.842448 60.7738192,112.87326 60.1310401,113.553485 C59.490633,114.226599 59.5190955,115.297894 60.1974527,115.942567 C60.8781818,116.5825 61.9455271,116.546948 62.5883061,115.869094 C63.2287133,115.198349 63.1931351,114.124684 62.5195216,113.484751" id="Fill-137"></path>
                        <path d="M70.8837026,105.131441 C70.2000816,104.490733 69.1366712,104.521582 68.4934028,105.197884 C67.8548818,105.878933 67.8809924,106.944407 68.559866,107.587487 C69.2363659,108.225822 70.3068974,108.199719 70.947792,107.518671 C71.5886867,106.839995 71.5602025,105.772148 70.8837026,105.131441" id="Fill-139"></path>
                        <path d="M79.2476281,96.781062 C78.5647943,96.1408033 77.5002375,96.1645166 76.855339,96.8498306 C76.2151824,97.5209166 76.2460047,98.5951284 76.9264675,99.2353871 C77.5998175,99.8756458 78.673858,99.8448186 79.3092728,99.1666186 C79.9494294,98.4884186 79.9257199,97.4189494 79.2476281,96.781062" id="Fill-141"></path>
                        <path d="M87.4440075,87.771001 C86.762773,87.1286342 85.6970088,87.1618192 85.0561262,87.8421117 C84.4152435,88.5129228 84.4461008,89.5866946 85.1202144,90.2266911 C85.801449,90.8690579 86.8695868,90.8358729 87.5104694,90.1579507 C88.1513521,89.4800286 88.1228684,88.4133678 87.4440075,87.771001" id="Fill-143"></path>
                        <path d="M95.8087033,79.4188315 C95.1254164,78.7803105 94.0577806,78.806421 93.4124541,79.4852946 C92.7789902,80.1665419 92.809833,81.232326 93.4860023,81.8732207 C94.1645442,82.5141153 95.2321799,82.4856311 95.8703889,81.8091312 C96.5157154,81.1278839 96.4848726,80.0573524 95.8087033,79.4188315" id="Fill-145"></path>
                        <path d="M102.695169,70.7415157 C102.016693,70.0964639 100.94916,70.1272936 100.303896,70.8031751 C99.6657488,71.4814281 99.6989609,72.5533525 100.372693,73.1936613 C101.053541,73.8339701 102.121074,73.805512 102.763966,73.1201444 C103.402113,72.4466344 103.373645,71.3770815 102.695169,70.7415157" id="Fill-147"></path>
                        <path d="M111.711234,62.222816 C111.037789,61.5828442 109.96834,61.6089171 109.325722,62.2915537 C108.685476,62.9718201 108.713931,64.0360696 109.39449,64.6760414 C110.075048,65.3207537 111.144497,65.2851998 111.780001,64.6120442 C112.422619,63.9341481 112.391793,62.8627879 111.711234,62.222816" id="Fill-149"></path>
                        <path d="M62.4527123,129.803919 C63.2669266,129.131441 63.2277237,128.054999 62.3652596,127.413411 C61.6113575,126.85024 60.4805042,126.809844 59.6602587,127.251826 C59.9859444,128.261733 60.320677,129.281144 60.6463627,130.319566 C61.2947186,130.376596 61.9702149,130.205506 62.4527123,129.803919" id="Fill-151"></path>
                        <path d="M70.3815573,119.879641 C69.7003894,119.238946 68.6323561,119.269794 67.9915361,119.948456 C67.3530895,120.627119 67.3815703,121.694945 68.0579915,122.33564 C68.7391594,122.976336 69.8071927,122.945488 70.4480127,122.269198 C71.0888328,121.588162 71.0579785,120.520337 70.3815573,119.879641" id="Fill-153"></path>
                        <path d="M79.4018069,111.364229 C78.7212365,110.721512 77.6565113,110.754715 77.0091394,111.435379 C76.3712529,112.106556 76.3997088,113.180914 77.0802792,113.821259 C77.7584783,114.459233 78.8279461,114.430773 79.4658327,113.752481 C80.1060906,113.074189 80.0776347,112.006947 79.4018069,111.364229" id="Fill-155"></path>
                        <path d="M85.6327679,102.846515 C84.9523032,102.205807 83.8877435,102.236656 83.2428432,102.912958 C82.6050558,103.586888 82.6311363,104.654735 83.311601,105.302562 C83.9896947,105.940897 85.0589963,105.914794 85.6967838,105.233745 C86.3393131,104.555069 86.3108616,103.487223 85.6327679,102.846515" id="Fill-157"></path>
                        <path d="M95.1448433,93.5105983 C94.4639672,92.8705898 93.3963916,92.901405 92.7558462,93.5817103 C92.1153008,94.2572748 92.1413971,95.3286964 92.8222731,95.9687048 C93.5031491,96.6087133 94.5707248,96.5755276 95.2088978,95.9023336 C95.8518156,95.2243987 95.8186021,94.1506067 95.1448433,93.5105983" id="Fill-159"></path>
                        <path d="M102.361285,86.1429993 C101.678476,85.500719 100.611589,85.5315295 99.9667143,86.2093604 C99.3289525,86.8871914 99.3597737,87.9537086 100.03784,88.5936189 C100.718277,89.2406394 101.785165,89.2074588 102.425298,88.5272578 C103.065431,87.8494269 103.034609,86.7805396 102.361285,86.1429993" id="Fill-161"></path>
                        <path d="M109.903033,77.3009983 C109.222582,76.6557079 108.1533,76.686549 107.515525,77.3650528 C106.873008,78.045929 106.901459,79.1111326 107.58191,79.7540505 C108.259991,80.3922237 109.329273,80.363755 109.969419,79.6876236 C110.609565,79.004375 110.578743,77.9367991 109.903033,77.3009983" id="Fill-163"></path>
                        <path d="M118.755004,68.1253467 C118.076738,67.4850009 117.007166,67.5158323 116.369217,68.1941246 C115.728896,68.8700453 115.757355,69.9396601 116.433249,70.5823776 C117.113886,71.2227235 118.183458,71.1918921 118.823779,70.5112281 C119.4641,69.8376791 119.435641,68.7656926 118.755004,68.1253467" id="Fill-165"></path>
                        <path d="M126.643994,62.4854578 C125.96767,62.3699173 125.291347,62.2523497 124.616967,62.1428902 C124.679157,62.2401875 124.747178,62.3354578 124.832691,62.4185659 C125.339933,62.9192416 126.117316,62.9354578 126.643994,62.4854578" id="Fill-167"></path>
                        <path d="M69.3895925,135.447064 C68.7059844,134.806531 67.6425942,134.837372 66.999338,135.515862 C66.3608292,136.194353 66.3869392,137.261908 67.0657999,137.900069 C67.7470343,138.545347 68.8151718,138.512134 69.4536807,137.838388 C70.0969369,137.155153 70.0637059,136.087597 69.3895925,135.447064" id="Fill-169"></path>
                        <path d="M77.257197,127.914648 C76.5832275,127.274004 75.5105718,127.304849 74.8698261,127.97634 C74.2290804,128.657322 74.2599311,129.729809 74.9386469,130.370453 C75.6149896,131.011098 76.6852721,130.980252 77.3260178,130.299271 C77.9667635,129.623034 77.9359128,128.555293 77.257197,127.914648" id="Fill-171"></path>
                        <path d="M86.1114591,118.740607 C85.4327965,118.102396 84.3697167,118.133239 83.7242753,118.809411 C83.0835799,119.48321 83.1168011,120.557966 83.7907178,121.193805 C84.4717534,121.841506 85.5395791,121.80829 86.1802746,121.129746 C86.82097,120.451202 86.7924947,119.383563 86.1114591,118.740607" id="Fill-173"></path>
                        <path d="M93.8216522,110.550375 C93.1429512,109.917392 92.0703187,109.941099 91.4295869,110.619126 C90.7912282,111.297152 90.8244513,112.368719 91.4984062,113.011185 C92.1794804,113.648909 93.2473667,113.62046 93.8880985,112.942434 C94.5312034,112.264407 94.4956072,111.19284 93.8216522,110.550375" id="Fill-175"></path>
                        <path d="M101.363282,101.707106 C100.687375,101.071317 99.6177826,101.097413 98.9750784,101.775904 C98.339489,102.454394 98.3632051,103.529067 99.0414833,104.162483 C99.7245047,104.807761 100.791726,104.774548 101.429687,104.096057 C102.072391,103.415194 102.043932,102.350011 101.363282,101.707106" id="Fill-177"></path>
                        <path d="M109.724137,93.3561499 C109.045897,92.7162284 107.981107,92.7470395 107.34081,93.4248822 C106.695771,94.1003548 106.731343,95.1692606 107.407212,95.8115521 C108.08308,96.4514736 109.154984,96.4254027 109.79291,95.7451899 C110.435578,95.062607 110.40712,93.9960713 109.724137,93.3561499" id="Fill-179"></path>
                        <path d="M118.089969,85.0043488 C117.414443,84.3636533 116.343082,84.3945016 115.703111,85.0731642 C115.063139,85.747081 115.089212,86.8196527 115.771848,87.4603481 C116.447374,88.1010436 117.516364,88.0701953 118.158706,87.3939056 C118.798678,86.717616 118.767865,85.6450443 118.089969,85.0043488" id="Fill-181"></path>
                        <path d="M126.290928,75.9969887 C125.615034,75.3566431 124.540719,75.3851029 123.905143,76.0657666 C123.262451,76.7369436 123.288538,77.8113011 123.969175,78.4540183 C124.649811,79.0943639 125.717011,79.0611608 126.359703,78.3828688 C126.997651,77.7093202 126.966821,76.6373343 126.290928,75.9969887" id="Fill-183"></path>
                        <path d="M134.652973,67.645491 C133.974668,67.0050589 132.905034,67.0335225 132.262305,67.7071622 C131.624319,68.3879179 131.655151,69.4600487 132.331084,70.1004809 C133.01176,70.740913 134.079023,70.7100774 134.721752,70.0316937 C135.359738,69.35331 135.331278,68.2835512 134.652973,67.645491" id="Fill-185"></path>
                        <path d="M68.5816007,154.061749 C69.2848912,153.389812 69.2482887,152.314238 68.5057812,151.673167 C67.7554304,151.032096 66.5763077,151.05584 65.8756317,151.742023 C65.8076557,151.799007 65.7605953,151.867862 65.7083061,151.936718 C66.0220416,152.810474 66.3383916,153.672358 66.6730428,154.508124 C67.3266585,154.695696 68.0770094,154.553236 68.5816007,154.061749" id="Fill-187"></path>
                        <path d="M76.9249416,143.318004 C76.2436406,142.677259 75.1730248,142.708109 74.5344535,143.386825 C73.8935083,144.065541 73.9196209,145.13345 74.6009219,145.774196 C75.279849,146.414942 76.3480909,146.384091 76.9866622,145.705375 C77.6299812,145.026659 77.5967471,143.95875 76.9249416,143.318004" id="Fill-189"></path>
                        <path d="M84.4620699,134.4719 C83.7884547,133.831006 82.7211068,133.866611 82.0759543,134.540736 C81.4355455,135.221983 81.46638,136.287765 82.1447389,136.933406 C82.820726,137.569553 83.8928177,137.538695 84.5308545,136.862196 C85.1736352,136.185697 85.1428007,135.115167 84.4620699,134.4719" id="Fill-191"></path>
                        <path d="M92.8275868,126.123762 C92.1510336,125.481032 91.0827916,125.509492 90.4394726,126.190169 C89.8009013,126.868475 89.8270139,127.93811 90.505941,128.58084 C91.1848681,129.216455 92.2578578,129.187994 92.8940552,128.507317 C93.5350004,127.829012 93.5065139,126.761748 92.8275868,126.123762" id="Fill-193"></path>
                        <path d="M101.027387,117.114841 C100.348884,116.471885 99.2860524,116.502727 98.6407621,117.183644 C97.9978441,117.862188 98.0286852,118.927455 98.7048166,119.568038 C99.3856928,120.210994 100.458014,120.177779 101.093814,119.50398 C101.73436,118.823063 101.705891,117.755424 101.027387,117.114841" id="Fill-195"></path>
                        <path d="M109.228003,108.104991 C108.547498,107.464559 107.480506,107.495395 106.835568,108.173779 C106.200114,108.852162 106.226196,109.924293 106.906701,110.559981 C107.584834,111.200413 108.654198,111.17195 109.294393,110.49831 C109.934589,109.817554 109.903765,108.745424 109.228003,108.104991" id="Fill-197"></path>
                        <path d="M117.748132,100.408172 C117.073978,99.7681998 116.005775,99.7990132 115.364854,100.474539 C114.723932,101.154806 114.754791,102.221426 115.43132,102.863768 C116.110222,103.50374 117.180798,103.477667 117.816972,102.79266 C118.462641,102.114764 118.431782,101.048144 117.748132,100.408172" id="Fill-199"></path>
                        <path d="M125.625651,90.0892339 C124.947465,89.450849 123.878018,89.4769539 123.237772,90.158056 C122.597527,90.8320386 122.625982,91.9047151 123.304168,92.5454732 C123.987096,93.1862313 125.054172,93.15538 125.694418,92.4766511 C126.334663,91.8026685 126.301465,90.729992 125.625651,90.0892339" id="Fill-201"></path>
                        <path d="M132.84314,82.7214996 C132.164703,82.0769252 131.092487,82.1101018 130.452005,82.7902226 C129.811522,83.4679736 129.84236,84.5367349 130.520797,85.1765698 C131.199235,85.8164047 132.27145,85.7855978 132.907188,85.105477 C133.547671,84.427726 133.519205,83.3637042 132.84314,82.7214996" id="Fill-203"></path>
                        <path d="M141.038631,73.7113735 C140.360576,73.0712513 139.296078,73.0997012 138.651215,73.784869 C138.011094,74.4558119 138.041915,75.5226822 138.719969,76.1651752 C139.402765,76.810039 140.469634,76.7768475 141.107384,76.0987922 C141.749876,75.4231076 141.716685,74.3538665 141.038631,73.7113735" id="Fill-205"></path>
                        <path d="M148.764061,67.6508083 C148.088386,67.3913489 147.410812,67.1460786 146.737034,66.9149975 C146.803463,67.1359435 146.909749,67.3345921 147.078668,67.5068894 C147.549364,67.9751327 148.249713,68.0217543 148.764061,67.6508083" id="Fill-207"></path>
                        <path d="M75.2749586,159.052758 C74.5915122,158.408096 73.523627,158.438907 72.882896,159.11438 C72.2469111,159.792222 72.2706418,160.865868 72.9493422,161.50579 C73.6327886,162.145711 74.7006737,162.1149 75.3414048,161.437058 C75.9773897,160.759215 75.9512859,159.692679 75.2749586,159.052758" id="Fill-209"></path>
                        <path d="M84.6179278,149.063798 C83.9388416,148.417106 82.8750981,148.447901 82.2292538,149.125388 C81.5929072,149.809981 81.6190259,150.875956 82.2981122,151.515542 C82.9771984,152.155127 84.0456908,152.124332 84.6867862,151.446846 C85.3278816,150.769359 85.2970141,149.703383 84.6179278,149.063798" id="Fill-211"></path>
                        <path d="M92.4909878,141.523561 C91.8108413,140.882843 90.7491491,140.916065 90.0998105,141.599498 C89.4623212,142.271066 89.4907594,143.346048 90.170906,143.986766 C90.8486827,144.620365 91.9151146,144.589516 92.5573436,143.917948 C93.1972027,143.239262 93.1687645,142.164279 92.4909878,141.523561" id="Fill-213"></path>
                        <path d="M100.690407,132.515063 C100.010194,131.874633 98.9436577,131.910212 98.3013658,132.586222 C97.661444,133.264604 97.689885,134.329616 98.3700981,134.977162 C99.0479412,135.61522 100.116848,135.579641 100.756769,134.908375 C101.396691,134.227621 101.36825,133.160237 100.690407,132.515063" id="Fill-215"></path>
                        <path d="M108.398822,124.327114 C107.718569,123.687006 106.65197,123.717826 106.00964,124.402979 C105.36731,125.073907 105.398123,126.145495 106.078376,126.785603 C106.753889,127.425711 107.825229,127.39252 108.462818,126.719222 C109.107518,126.041181 109.071965,124.969593 108.398822,124.327114" id="Fill-217"></path>
                        <path d="M116.763596,115.975734 C116.078604,115.335364 115.014377,115.366196 114.369679,116.044515 C113.729721,116.722834 113.762904,117.790118 114.440785,118.430489 C115.116297,119.070859 116.187634,119.04477 116.827592,118.36408 C117.46755,117.68339 117.436737,116.616105 116.763596,115.975734" id="Fill-219"></path>
                        <path d="M124.957761,106.966522 C124.279151,106.328611 123.211408,106.357068 122.570762,107.037665 C121.930115,107.71589 121.960961,108.7854 122.639572,109.425683 C123.315809,110.065966 124.385925,110.032766 125.024199,109.35454 C125.667217,108.681057 125.638744,107.606805 124.957761,106.966522" id="Fill-221"></path>
                        <path d="M133.320404,98.6159113 C132.64422,97.9752159 131.574187,98.0060642 130.935964,98.6823538 C130.292996,99.3586435 130.323839,100.431215 131.000024,101.071911 C131.678581,101.712606 132.748613,101.681758 133.389209,101.003095 C134.029805,100.324433 134.001334,99.2566068 133.320404,98.6159113" id="Fill-223"></path>
                        <path d="M140.374923,90.5936884 C139.694458,89.9490886 138.627527,89.9798966 137.984998,90.6576744 C137.347211,91.3401918 137.373291,92.4089951 138.053756,93.0441155 C138.731849,93.6887153 139.801151,93.6555374 140.438939,92.9777596 C141.081468,92.2999819 141.053016,91.2288087 140.374923,90.5936884" id="Fill-225"></path>
                        <path d="M148.574548,81.5862449 C147.896652,80.9390104 146.827663,80.9745728 146.185321,81.6478862 C145.54298,82.3259413 145.576163,83.3999237 146.254059,84.0376748 C146.934325,84.6801676 148.000944,84.6493469 148.638545,83.9641793 C149.280887,83.2932367 149.252443,82.223996 148.574548,81.5862449" id="Fill-227"></path>
                        <path d="M157.425119,72.4101948 C156.751675,71.7722838 155.682226,71.7983694 155.039608,72.4813372 C154.401733,73.1571908 154.427817,74.2243281 155.108376,74.8693533 C155.784191,75.5096357 156.851269,75.4740644 157.493886,74.7982108 C158.138875,74.1223572 158.105677,73.0575914 157.425119,72.4101948" id="Fill-229"></path>
                        <path d="M83.949724,165.936789 C83.2736347,165.296706 82.2061255,165.327525 81.5608754,166.005538 C80.9274866,166.688293 80.9535812,167.757468 81.6296704,168.397551 C82.3128764,169.030522 83.3803857,169.004444 84.0232635,168.328802 C84.6637691,167.650788 84.6281854,166.576871 83.949724,165.936789" id="Fill-231"></path>
                        <path d="M91.4946279,157.098155 C90.8166392,156.451312 89.754615,156.482114 89.1098145,157.159759 C88.4673847,157.837404 88.4982024,158.903628 89.1785616,159.550471 C89.8589209,160.190205 90.9233157,160.159403 91.563375,159.47465 C92.2081754,158.804114 92.1726166,157.737889 91.4946279,157.098155" id="Fill-233"></path>
                        <path d="M100.021389,149.391858 C99.3426065,148.755501 98.2793391,148.788744 97.6361573,149.460717 C96.9929754,150.139814 97.0262026,151.215447 97.7026115,151.849429 C98.3790204,152.490534 99.4541546,152.464415 100.090216,151.787693 C100.731025,151.108596 100.702544,150.037712 100.021389,149.391858" id="Fill-235"></path>
                        <path d="M106.748565,140.059952 C106.070127,139.417298 105.000284,139.450497 104.359801,140.128723 C103.719318,140.806949 103.750156,141.876459 104.426221,142.516742 C105.107031,143.157025 106.174502,143.123825 106.814985,142.447971 C107.455468,141.776859 107.427002,140.700235 106.748565,140.059952" id="Fill-237"></path>
                        <path d="M116.586487,132.03532 C115.908037,131.395087 114.838173,131.425913 114.195305,132.104086 C113.559555,132.782258 113.585649,133.851685 114.264099,134.491918 C114.944922,135.134522 116.014786,135.098954 116.650537,134.425523 C117.293404,133.742608 117.264937,132.677924 116.586487,132.03532" id="Fill-239"></path>
                        <path d="M123.310232,122.699663 C122.632455,122.059242 121.563653,122.087705 120.921424,122.768449 C120.283935,123.44445 120.310003,124.51419 120.99015,125.154612 C121.667927,125.795033 122.739098,125.76657 123.378957,125.085826 C124.018817,124.407454 123.988009,123.340085 123.310232,122.699663" id="Fill-241"></path>
                        <path d="M132.490531,114.83757 C131.81693,114.197386 130.747232,114.230581 130.104464,114.90633 C129.464068,115.58208 129.49253,116.649053 130.175619,117.293979 C130.849221,117.934163 131.923662,117.908081 132.561686,117.222847 C133.202082,116.544727 133.168876,115.475383 132.490531,114.83757" id="Fill-243"></path>
                        <path d="M139.870158,105.343392 C139.19674,104.69636 138.124964,104.729541 137.484743,105.405014 C136.844522,106.087597 136.872976,107.156504 137.555878,107.796426 C138.231667,108.433977 139.298702,108.405536 139.941293,107.727693 C140.583885,107.04985 140.548318,105.980944 139.870158,105.343392" id="Fill-245"></path>
                        <path d="M148.235972,96.9880564 C147.557534,96.3473354 146.492435,96.3734389 145.849579,97.0568745 C145.206724,97.728445 145.237562,98.8058053 145.913628,99.4394071 C146.594437,100.082501 147.664281,100.054025 148.304764,99.375335 C148.942875,98.6966455 148.914409,97.6264042 148.235972,96.9880564" id="Fill-247"></path>
                        <path d="M155.942142,88.7965159 C155.265865,88.158181 154.19806,88.1866569 153.557376,88.8653326 C152.91432,89.5440084 152.942795,90.6142279 153.62619,91.2525628 C154.302467,91.8932707 155.370273,91.8647948 156.010956,91.1861191 C156.654012,90.5074433 156.618419,89.4372238 155.942142,88.7965159" id="Fill-249"></path>
                        <path d="M165.615207,80.1166666 C164.939313,79.4787552 163.869741,79.5072122 163.227049,80.1878091 C162.591471,80.8636633 162.617558,81.9308014 163.293452,82.5758271 C163.976461,83.2161099 165.046034,83.1829101 165.681611,82.5046845 C166.326675,81.8312018 166.295845,80.7569495 165.615207,80.1166666" id="Fill-251"></path>
                        <path d="M91.6538919,171.675468 C90.9732022,171.040113 89.9059187,171.066191 89.2608051,171.744219 C88.6251785,172.422246 88.6512677,173.496185 89.3319574,174.129169 C90.0102753,174.776378 91.0775588,174.743187 91.7203007,174.06753 C92.358299,173.382391 92.3298382,172.320305 91.6538919,171.675468" id="Fill-253"></path>
                        <path d="M99.3549971,163.4886 C98.6807116,162.848242 97.6123015,162.879074 96.9712554,163.557379 C96.3302093,164.235684 96.3610744,165.310062 97.03536,165.945676 C97.7167682,166.586034 98.7875526,166.55283 99.4238502,165.88164 C100.067271,165.203335 100.03878,164.128957 99.3549971,163.4886" id="Fill-255"></path>
                        <path d="M106.409943,155.462696 C105.734707,154.822988 104.666176,154.853788 104.02174,155.531405 C103.382043,156.209023 103.412843,157.275203 104.088079,157.92202 C104.765684,158.561728 105.838954,158.528558 106.476282,157.846203 C107.118349,157.168585 107.089918,156.102405 106.409943,155.462696" id="Fill-257"></path>
                        <path d="M114.608647,146.456785 C113.935309,145.816602 112.866029,145.842683 112.221141,146.525545 C111.585738,147.203666 111.607076,148.270638 112.289898,148.913192 C112.967978,149.553376 114.039629,149.520181 114.677403,148.842061 C115.319919,148.163941 115.286727,147.096968 114.608647,146.456785" id="Fill-259"></path>
                        <path d="M122.479496,138.920749 C121.801072,138.280815 120.731249,138.313997 120.090778,138.989482 C119.45268,139.667338 119.483517,140.736264 120.157197,141.376197 C120.837994,142.023241 121.907817,141.985319 122.545915,141.307463 C123.19113,140.627238 123.157921,139.563052 122.479496,138.920749" id="Fill-261"></path>
                        <path d="M131.334627,129.750991 C130.656612,129.110296 129.594545,129.141144 128.949719,129.817434 C128.307264,130.496097 128.335712,131.571041 129.018469,132.206991 C129.696484,132.847686 130.763292,132.816838 131.403377,132.138175 C132.043462,131.459513 132.015014,130.391687 131.334627,129.750991" id="Fill-263"></path>
                        <path d="M139.532034,120.74581 C138.856442,120.103355 137.787348,120.129432 137.149685,120.81456 C136.50728,121.487834 136.535726,122.557012 137.213688,123.199467 C137.894021,123.839552 138.960744,123.808733 139.603149,123.130717 C140.243183,122.452702 140.214737,121.385894 139.532034,120.74581" id="Fill-265"></path>
                        <path d="M147.407992,113.211025 C146.72974,112.570468 145.660188,112.598937 145.017508,113.272709 C144.377199,113.95597 144.408029,115.023566 145.086282,115.661751 C145.766906,116.307053 146.836458,116.276211 147.472023,115.597695 C148.114703,114.916806 148.083873,113.84921 147.407992,113.211025" id="Fill-267"></path>
                        <path d="M155.439358,103.54539 C154.764017,102.905407 153.692948,102.936221 153.05315,103.614129 C152.413353,104.292037 152.444158,105.365785 153.121869,106.003398 C153.799581,106.63864 154.870649,106.614937 155.508077,105.937029 C156.150245,105.256751 156.121809,104.185373 155.439358,103.54539" id="Fill-269"></path>
                        <path d="M163.803103,95.1927485 C163.124915,94.5542518 162.055466,94.5827349 161.41522,95.2615827 C160.777344,95.9404306 160.8058,97.0109214 161.486358,97.6494182 C162.162174,98.2902885 163.229252,98.2594318 163.869498,97.5829575 C164.514488,96.9088569 164.483661,95.8359924 163.803103,95.1927485" id="Fill-271"></path>
                        <path d="M172.005373,86.1845785 C171.331391,85.5463685 170.258714,85.5748388 169.617956,86.2533818 C168.977198,86.9319247 169.003303,87.9995622 169.686778,88.6448897 C170.365507,89.2807272 171.431064,89.2522568 172.074195,88.5737139 C172.71258,87.8975435 172.681729,86.825161 172.005373,86.1845785" id="Fill-273"></path>
                        <path d="M98.3662856,179.056076 C97.6856081,178.415807 96.6230872,178.446635 95.9779852,179.124846 C95.3376266,179.803057 95.366087,180.870173 96.0467645,181.510443 C96.7226985,182.150712 97.7923346,182.124627 98.4326932,181.448787 C99.0754235,180.763462 99.0422197,179.696346 98.3662856,179.056076" id="Fill-275"></path>
                        <path d="M106.728124,170.70389 C106.054679,170.063382 104.982859,170.094221 104.342612,170.772685 C103.699994,171.451149 103.72845,172.525778 104.411379,173.161541 C105.087195,173.802049 106.154273,173.768837 106.796891,173.090374 C107.437138,172.41191 107.406311,171.344397 106.728124,170.70389" id="Fill-277"></path>
                        <path d="M114.274272,161.859558 C113.59394,161.218813 112.529588,161.249663 111.884813,161.928379 C111.24478,162.607095 111.273226,163.675004 111.951187,164.31575 C112.631519,164.956496 113.700612,164.925645 114.340646,164.246929 C114.980679,163.568213 114.949863,162.500304 114.274272,161.859558" id="Fill-279"></path>
                        <path d="M122.638217,153.507486 C121.957234,152.867079 120.889493,152.897914 120.244102,153.571527 C119.608202,154.254628 119.636675,155.321974 120.315285,155.964753 C120.993894,156.60516 122.064009,156.571954 122.699908,155.893596 C123.345299,155.215239 123.31208,154.147894 122.638217,153.507486" id="Fill-281"></path>
                        <path d="M130.994696,145.155529 C130.321423,144.514935 129.252247,144.545778 128.609793,145.217216 C127.97208,145.90289 127.998158,146.965803 128.676172,147.611143 C129.354186,148.251737 130.425733,148.220894 131.068187,147.542338 C131.705899,146.863782 131.677451,145.796124 130.994696,145.155529" id="Fill-283"></path>
                        <path d="M137.720877,135.815028 C137.047432,135.176669 135.980354,135.209892 135.335365,135.888594 C134.695118,136.564922 134.723574,137.635182 135.404132,138.271168 C136.079948,138.916646 137.15414,138.883423 137.789644,138.207095 C138.432262,137.528393 138.401435,136.45576 137.720877,135.815028" id="Fill-285"></path>
                        <path d="M146.903817,127.957196 C146.225658,127.314079 145.158625,127.352049 144.520776,128.026017 C143.878184,128.707104 143.904267,129.772638 144.582426,130.41101 C145.265328,131.054127 146.337104,131.025649 146.972582,130.346935 C147.612802,129.668221 147.584348,128.600314 146.903817,127.957196" id="Fill-287"></path>
                        <path d="M154.283296,118.455246 C153.607587,117.819966 152.538309,117.846041 151.898164,118.52636 C151.26039,119.201938 151.284099,120.275751 151.962179,120.913402 C152.644999,121.555793 153.711907,121.522607 154.352052,120.847029 C154.996938,120.169081 154.961375,119.097638 154.283296,118.455246" id="Fill-289"></path>
                        <path d="M162.811376,110.762199 C162.135718,110.119231 161.066519,110.152447 160.424052,110.828631 C159.783955,111.504815 159.812404,112.574847 160.492803,113.215443 C161.173202,113.856038 162.242401,113.82994 162.875385,113.149011 C163.520223,112.472826 163.491775,111.402795 162.811376,110.762199" id="Fill-291"></path>
                        <path d="M170.353919,101.916292 C169.679964,101.278281 168.609703,101.30437 167.966598,101.985074 C167.328239,102.663406 167.356716,103.730711 168.035418,104.371094 C168.716492,105.011477 169.786752,104.985387 170.422738,104.304684 C171.068217,103.626352 171.030247,102.556675 170.353919,101.916292" id="Fill-293"></path>
                        <path d="M179.374256,93.4008084 C178.700156,92.7600503 177.629665,92.7909016 176.986421,93.4696306 C176.345551,94.1483596 176.376407,95.2162898 177.052882,95.8546747 C177.731729,96.497806 178.804594,96.4669547 179.443091,95.7905989 C180.081587,95.1094967 180.053104,94.0415666 179.374256,93.4008084" id="Fill-295"></path>
                        <path d="M105.08104,186.434828 C104.400536,185.794407 103.335914,185.825242 102.693347,186.503614 C102.048408,187.181986 102.083975,188.249355 102.759737,188.889776 C103.440242,189.530197 104.507235,189.504106 105.14506,188.82099 C105.787627,188.142618 105.759174,187.075249 105.08104,186.434828" id="Fill-297"></path>
                        <path d="M113.276927,177.428296 C112.603246,176.788263 111.531049,176.814338 110.89295,177.49704 C110.250106,178.175002 110.280944,179.244095 110.959369,179.884128 C111.635422,180.524162 112.705247,180.490975 113.345718,179.820125 C113.988562,179.142164 113.957724,178.075441 113.276927,177.428296" id="Fill-299"></path>
                        <path d="M121.642774,169.07474 C120.966998,168.433995 119.895241,168.464845 119.257404,169.143561 C118.614824,169.822277 118.640907,170.890186 119.323796,171.530932 C119.999571,172.171678 121.068957,172.140827 121.711537,171.462111 C122.349374,170.783395 122.32092,169.715486 121.642774,169.07474" id="Fill-301"></path>
                        <path d="M129.187243,160.230066 C128.507162,159.589559 127.438463,159.620398 126.798665,160.298862 C126.158868,160.977325 126.184933,162.044838 126.869754,162.687718 C127.542726,163.328226 128.613795,163.295014 129.253592,162.616551 C129.89576,161.938087 129.862585,160.870574 129.187243,160.230066" id="Fill-303"></path>
                        <path d="M137.547568,151.873839 C136.871924,151.240879 135.802747,151.264586 135.160293,151.949699 C134.52258,152.620588 134.548657,153.694486 135.229043,154.334557 C135.909428,154.974628 136.978605,154.94381 137.618688,154.265808 C138.256401,153.587807 138.227953,152.51628 137.547568,151.873839" id="Fill-305"></path>
                        <path d="M145.912252,143.5249 C145.234118,142.885018 144.167124,142.915827 143.522186,143.593628 C142.88436,144.27143 142.912814,145.34501 143.593319,145.984892 C144.271453,146.624775 145.338447,146.586856 145.976272,145.916164 C146.62121,145.231253 146.590386,144.171892 145.912252,143.5249" id="Fill-307"></path>
                        <path d="M153.456705,134.6818 C152.778651,134.039245 151.711782,134.07244 151.066919,134.748189 C150.426798,135.42868 150.457618,136.495652 151.138044,137.140577 C151.816098,137.776018 152.880596,137.747565 153.523088,137.069445 C154.16558,136.391325 154.132388,135.319612 153.456705,134.6818" id="Fill-309"></path>
                        <path d="M161.81785,126.331956 C161.142153,125.68674 160.070522,125.71995 159.430388,126.393631 C158.790254,127.072056 158.821075,128.144252 159.496772,128.784724 C160.177211,129.425195 161.248842,129.396729 161.884235,128.711188 C162.52911,128.035135 162.495918,126.970055 161.81785,126.331956" id="Fill-311"></path>
                        <path d="M170.01759,117.31704 C169.344605,116.679365 168.273516,116.712553 167.631336,117.390526 C166.991527,118.066129 167.017593,119.135242 167.697687,119.777657 C168.377781,120.417702 169.444131,120.386885 170.08394,119.706541 C170.728489,119.030938 170.695314,117.964196 170.01759,117.31704" id="Fill-313"></path>
                        <path d="M178.874938,108.148477 C178.196328,107.509931 177.126214,107.538416 176.483196,108.217317 C175.847296,108.896218 175.873396,109.964419 176.552006,110.605339 C177.232988,111.24626 178.30073,111.215401 178.939002,110.5365 C179.584393,109.86472 179.548801,108.791772 178.874938,108.148477" id="Fill-315"></path>
                        <path d="M186.087295,100.780145 C185.40683,100.139611 184.342271,100.168079 183.702113,100.848943 C183.061955,101.527433 183.088035,102.594989 183.766129,103.235522 C184.448964,103.876055 185.513523,103.845215 186.156052,103.169097 C186.796211,102.488233 186.767759,101.420678 186.087295,100.780145" id="Fill-317"></path>
                        <path d="M112.939464,192.831178 C112.263873,192.190432 111.201891,192.221283 110.557117,192.899999 C109.914713,193.578714 109.940788,194.646624 110.62112,195.287369 C111.301452,195.928115 112.370545,195.897264 113.010579,195.218549 C113.650612,194.539833 113.619796,193.471923 112.939464,192.831178" id="Fill-319"></path>
                        <path d="M121.141052,183.823043 C120.463103,183.182535 119.394031,183.213375 118.751639,183.891838 C118.113989,184.570302 118.142434,185.640187 118.820382,186.280695 C119.500701,186.921202 120.567403,186.887991 121.209795,186.209527 C121.849816,185.53818 121.819,184.465923 121.141052,183.823043" id="Fill-321"></path>
                        <path d="M128.193475,175.794875 C127.5155,175.152438 126.444015,175.192738 125.806339,175.870734 C125.163923,176.541619 125.19474,177.615508 125.872715,178.255575 C126.548319,178.895641 127.622174,178.862453 128.257479,178.184456 C128.899896,177.508831 128.87382,176.434941 128.193475,175.794875" id="Fill-323"></path>
                        <path d="M137.866691,167.119162 C137.190744,166.47823 136.123459,166.50909 135.480716,167.183256 C134.837973,167.859795 134.868806,168.937511 135.547125,169.578443 C136.225444,170.212253 137.297472,170.186141 137.935472,169.507228 C138.573471,168.828315 138.547382,167.762468 137.866691,167.119162" id="Fill-325"></path>
                        <path d="M144.919088,159.089969 C144.245369,158.454602 143.170739,158.48068 142.530231,159.165833 C141.889723,159.836761 141.920563,160.903608 142.601399,161.550829 C143.27749,162.190937 144.342631,162.157746 144.987883,161.479706 C145.628391,160.804036 145.59518,159.730077 144.919088,159.089969" id="Fill-327"></path>
                        <path d="M153.612086,149.264489 C152.933545,148.624792 151.863536,148.655592 151.225327,149.340305 C150.582373,150.010802 150.610844,151.076963 151.289385,151.723767 C151.9703,152.363464 153.037936,152.332664 153.683262,151.647952 C154.319099,150.970347 154.285883,149.904186 153.612086,149.264489" id="Fill-329"></path>
                        <path d="M161.480895,141.735487 C160.802762,141.094418 159.735769,141.120536 159.090831,141.797219 C158.455378,142.476278 158.48146,143.5471 159.159593,144.188169 C159.840097,144.829238 160.909461,144.798372 161.549656,144.124062 C162.189852,143.437881 162.159028,142.371807 161.480895,141.735487" id="Fill-331"></path>
                        <path d="M169.681976,132.72662 C169.003882,132.083777 167.934581,132.114615 167.292052,132.793039 C166.654264,133.471464 166.680345,134.538914 167.360809,135.184129 C168.038903,135.819855 169.105834,135.79139 169.745992,135.112966 C170.388521,134.434541 170.36007,133.364718 169.681976,132.72662" id="Fill-333"></path>
                        <path d="M177.388283,124.535843 C176.71405,123.895148 175.64335,123.925996 174.99998,124.604659 C174.361359,125.283321 174.387473,126.351147 175.068828,126.991843 C175.745435,127.632538 176.818509,127.60169 177.454756,126.9254 C178.095752,126.244365 178.067263,125.176539 177.388283,124.535843" id="Fill-335"></path>
                        <path d="M184.932685,115.692822 C184.251344,115.05008 183.187788,115.083285 182.544432,115.754487 C181.90345,116.439921 181.934312,117.507204 182.60853,118.147574 C183.289871,118.787945 184.358175,118.757112 185.001531,118.081166 C185.640139,117.402848 185.609277,116.333192 184.932685,115.692822" id="Fill-337"></path>
                        <path d="M190.741024,106.74864 C190.10202,107.430036 190.135277,108.498428 190.809913,109.137089 C191.4893,109.780498 192.563016,109.749633 193.204396,109.072985 C193.508457,108.747719 193.660488,108.332234 193.660488,107.914374 C193.472825,107.487017 193.278036,107.066783 193.083246,106.639426 C192.401484,106.04825 191.370526,106.086237 190.741024,106.74864" id="Fill-339"></path>
                        <path d="M120.765392,200.04015 C120.031891,199.492853 118.877781,199.519204 118.180186,200.098934 C118.092986,200.173934 118.02374,200.255015 117.954493,200.336096 C119.077827,200.672583 120.201161,200.972583 121.319365,201.264475 C121.386047,200.82461 121.206519,200.368529 120.765392,200.04015" id="Fill-341"></path>
                        <path d="M127.855134,191.203163 C127.177001,190.56298 126.110008,190.589061 125.46507,191.271923 C124.829617,191.950044 124.855699,193.019387 125.533832,193.65957 C126.214336,194.299754 127.2837,194.266559 127.923895,193.588439 C128.564091,192.910319 128.533267,191.845717 127.855134,191.203163" id="Fill-343"></path>
                        <path d="M135.564163,183.01603 C134.885765,182.368847 133.815984,182.406777 133.175539,183.077667 C132.535093,183.755668 132.563557,184.829565 133.241955,185.469637 C133.920353,186.109708 134.992506,186.07889 135.625835,185.400888 C136.271024,184.722887 136.24256,183.656101 135.564163,183.01603" id="Fill-345"></path>
                        <path d="M143.761034,174.002571 C143.084797,173.367378 142.014683,173.393449 141.371665,174.071305 C140.733393,174.749161 140.766611,175.822828 141.438102,176.455651 C142.121457,177.102695 143.189199,177.071884 143.827471,176.394028 C144.470489,175.716172 144.442016,174.649616 143.761034,174.002571" id="Fill-347"></path>
                        <path d="M152.94195,166.140159 C152.268388,165.504459 151.201125,165.537667 150.556024,166.208947 C149.918038,166.887343 149.944127,167.954749 150.622432,168.602309 C151.30548,169.242753 152.375115,169.209545 153.010729,168.531149 C153.65583,167.855125 153.620255,166.785346 152.94195,166.140159" id="Fill-349"></path>
                        <path d="M160.322323,156.647263 C159.648722,156.006043 158.576652,156.032167 157.936256,156.711385 C157.29586,157.388229 157.326694,158.459305 158.005039,159.100525 C158.685756,159.741746 159.750711,159.710872 160.391106,159.031653 C161.036246,158.352435 161.000668,157.283734 160.322323,156.647263" id="Fill-351"></path>
                        <path d="M168.847277,148.948107 C168.169275,148.306015 167.102488,148.339186 166.462415,149.016818 C165.822343,149.687343 165.853162,150.760657 166.531164,151.40038 C167.209166,152.047211 168.275953,152.01404 168.916026,151.331669 C169.560839,150.654036 169.530021,149.587831 168.847277,148.948107" id="Fill-353"></path>
                        <path d="M176.39323,140.105182 C175.717244,139.462452 174.647526,139.493284 174.004746,140.171589 C173.36671,140.849895 173.397545,141.919531 174.073531,142.55989 C174.754261,143.200248 175.819235,143.169416 176.464386,142.491111 C177.102422,141.812805 177.07396,140.74554 176.39323,140.105182" id="Fill-355"></path>
                        <path d="M184.756048,131.752595 C184.080166,131.109815 183.010614,131.140649 182.367933,131.82138 C181.729996,132.492623 181.758454,133.567087 182.44145,134.207496 C183.117332,134.847904 184.184513,134.81707 184.82245,134.138711 C185.46513,133.460352 185.439044,132.393004 184.756048,131.752595" id="Fill-357"></path>
                        <path d="M192.960914,122.743831 C192.282068,122.103173 191.211578,122.13402 190.568335,122.805524 C189.929839,123.486519 189.958323,124.559027 190.637169,125.197312 C191.31839,125.840342 192.386506,125.809495 193.029749,125.130873 C193.663497,124.452251 193.635014,123.384488 192.960914,122.743831" id="Fill-359"></path>
                        <path d="M136.043601,198.908866 C135.367378,198.268108 134.294913,198.301333 133.654281,198.972942 C133.018394,199.656418 133.044494,200.726721 133.723089,201.36036 C134.404058,202.008238 135.469405,201.975013 136.11241,201.296284 C136.755415,200.612809 136.719824,199.551998 136.043601,198.908866" id="Fill-361"></path>
                        <path d="M143.755072,190.72494 C143.074686,190.077933 142.00788,190.111113 141.363055,190.78656 C140.722972,191.464376 140.75379,192.537981 141.431805,193.177878 C142.109819,193.817774 143.181367,193.786964 143.816709,193.102038 C144.461534,192.431331 144.428345,191.364837 143.755072,190.72494" id="Fill-363"></path>
                        <path d="M151.94869,181.711972 C151.272888,181.071714 150.203462,181.102541 149.560858,181.780741 C148.922996,182.458941 148.953822,183.526039 149.629623,184.166298 C150.310167,184.806556 151.377223,184.782843 152.019827,184.097529 C152.66006,183.426443 152.629234,182.352231 151.94869,181.711972" id="Fill-365"></path>
                        <path d="M159.658112,173.521214 C158.979925,172.885725 157.910476,172.911808 157.272601,173.589979 C156.629983,174.26815 156.658438,175.335202 157.341368,175.982547 C158.017184,176.622778 159.084262,176.584838 159.72688,175.913781 C160.367126,175.228497 160.3363,174.166187 159.658112,173.521214" id="Fill-367"></path>
                        <path d="M168.34977,163.696396 C167.669266,163.055651 166.602274,163.086501 165.959707,163.765217 C165.324254,164.443933 165.350336,165.518962 166.028469,166.152588 C166.708973,166.793334 167.778336,166.762483 168.418532,166.083767 C169.058727,165.412171 169.027903,164.337142 168.34977,163.696396" id="Fill-369"></path>
                        <path d="M176.054946,155.508295 C175.380661,154.865352 174.307502,154.898567 173.66883,155.577097 C173.030158,156.255628 173.058649,157.323246 173.735309,157.963816 C174.416717,158.604387 175.487502,158.573545 176.121425,157.895014 C176.76722,157.216484 176.736354,156.148866 176.054946,155.508295" id="Fill-371"></path>
                        <path d="M184.254204,146.499536 C183.580733,145.85879 182.511243,145.889641 181.868601,146.568356 C181.230701,147.239953 181.256786,148.314982 181.934999,148.955727 C182.610841,149.596473 183.680331,149.565622 184.320602,148.886906 C184.965616,148.208191 184.93716,147.140281 184.254204,146.499536" id="Fill-373"></path>
                        <path d="M192.127059,138.966943 C191.446264,138.324501 190.378814,138.35769 189.740717,139.033321 C189.100247,139.713693 189.128712,140.780479 189.804764,141.42292 C190.490303,142.062992 191.553009,142.032173 192.19585,141.354172 C192.838692,140.678541 192.803111,139.607015 192.127059,138.966943" id="Fill-375"></path>
                        <path d="M198.14304,131.93297 C198.384256,132.20372 198.684256,132.34748 198.994392,132.383421 C199.012635,131.238126 199.000473,130.116792 198.966013,129.005042 C198.639662,129.050567 198.325473,129.220683 198.08831,129.524977 C197.538986,130.207841 197.567365,131.288443 198.14304,131.93297" id="Fill-377"></path>
                        <path d="M140.966843,204.81052 C141.394546,204.81052 141.818195,204.806466 142.233735,204.784169 C141.830357,204.595655 141.35806,204.60579 140.966843,204.81052" id="Fill-379"></path>
                        <path d="M150.957851,197.283422 C150.282497,196.635558 149.213778,196.673528 148.569229,197.345123 C147.929419,198.023838 147.960225,199.094119 148.637949,199.73961 C149.315673,200.375608 150.382023,200.344758 151.021832,199.670789 C151.666381,198.992074 151.637945,197.924166 150.957851,197.283422" id="Fill-381"></path>
                        <path d="M159.324581,188.926883 C158.641413,188.287001 157.576334,188.31781 156.933491,188.995612 C156.293021,189.673413 156.321486,190.739883 157.002282,191.386875 C157.678335,192.026758 158.745785,191.988839 159.388628,191.318147 C160.031471,190.633236 159.995889,189.566766 159.324581,188.926883" id="Fill-383"></path>
                        <path d="M166.701459,179.427163 C166.02782,178.786742 164.955689,178.817577 164.315257,179.495949 C163.674825,180.174321 163.700917,181.24169 164.3793,181.882111 C165.060056,182.522532 166.127443,182.496441 166.772619,181.813325 C167.408307,181.134953 167.379843,180.067585 166.701459,179.427163" id="Fill-385"></path>
                        <path d="M175.230017,171.730644 C174.549247,171.089898 173.481838,171.120749 172.841393,171.799465 C172.200947,172.478181 172.227039,173.54609 172.907809,174.186836 C173.588579,174.827582 174.655988,174.796731 175.29169,174.118015 C175.936879,173.439299 175.906043,172.37139 175.230017,171.730644" id="Fill-387"></path>
                        <path d="M183.427165,162.716426 C182.750863,162.082987 181.680643,162.113828 181.037562,162.792344 C180.399227,163.470859 180.430076,164.538453 181.104006,165.179009 C181.787428,165.819565 182.852901,165.788724 183.491236,165.110208 C184.13669,164.431693 184.105841,163.364099 183.427165,162.716426" id="Fill-389"></path>
                        <path d="M191.791087,154.370323 C191.114956,153.729577 190.045008,153.760428 189.40209,154.439144 C188.763917,155.11074 188.790013,156.185769 189.468517,156.826514 C190.151766,157.46726 191.221714,157.436409 191.855142,156.757694 C192.500432,156.078978 192.467219,155.011068 191.791087,154.370323" id="Fill-391"></path>
                        <path d="M197.268182,147.755036 C197.328992,147.831817 197.39183,147.89536 197.458722,147.950961 C197.618857,146.809831 197.762776,145.687235 197.892506,144.572582 C197.643182,144.657307 197.403992,144.826755 197.211425,145.099461 C196.664128,145.856684 196.690479,147.048118 197.268182,147.755036" id="Fill-393"></path>
                        <path d="M163.823899,194.326954 C163.167388,195.111031 163.198998,196.344719 163.891982,197.084932 C163.894413,197.084932 163.891982,197.084932 163.894413,197.093156 C164.871885,196.446155 165.810453,195.771739 166.729568,195.097323 C166.644465,194.784789 166.496142,194.485962 166.274873,194.24745 C165.577027,193.507237 164.482842,193.542877 163.823899,194.326954" id="Fill-395"></path>
                        <path d="M174.891519,187.134723 C174.211067,186.493978 173.144157,186.524828 172.501639,187.203544 C171.863864,187.88226 171.889944,188.950169 172.570396,189.590915 C173.250848,190.231661 174.317758,190.20081 174.955534,189.522094 C175.600422,188.850498 175.567229,187.775469 174.891519,187.134723" id="Fill-397"></path>
                        <path d="M181.42209,180.419491 C182.100395,181.060237 183.174774,181.029386 183.812761,180.35067 C184.455491,179.671954 184.422287,178.604045 183.743982,177.963299 C183.068048,177.322554 181.99604,177.353404 181.360425,178.03212 C180.715324,178.703717 180.748527,179.778745 181.42209,180.419491" id="Fill-399"></path>
                        <path d="M188.33308,170.194985 C187.82477,170.896553 187.851029,172.019557 188.387475,172.688897 C188.498141,172.827723 188.629439,172.931842 188.764488,173.018609 C189.199647,171.979892 189.606671,170.943655 189.994938,169.892543 C189.465994,169.473586 188.773867,169.577705 188.33308,170.194985" id="Fill-401"></path>
                    </g>
                </g>
            </g>
        </g>
    </g>
</svg>