<?xml version="1.0" encoding="UTF-8"?>
<svg width="220px" height="174px" viewBox="0 0 220 174" version="1.1" xmlns="http://www.w3.org/2000/svg" xmlns:xlink="http://www.w3.org/1999/xlink">
    <!-- Generator: sketchtool 59.1 (101010) - https://sketch.com -->
    <title>9A8C46BE-CD25-41BB-AF75-A6EBAC78CE8F</title>
    <desc>Created with sketchtool.</desc>
    <g id="Splash-Page" stroke="none" stroke-width="1" fill="none" fill-rule="evenodd">
        <g transform="translate(-1238.000000, -5268.000000)" fill="#C7C7D6" id="Why-Choose-Us">
            <g transform="translate(0.000000, 4412.000000)">
                <g id="BG">
                    <g id="Group-Copy-9" transform="translate(1352.000000, 945.448980) scale(1, -1) rotate(-15.000000) translate(-1352.000000, -945.448980) translate(1252.000000, 843.000000)">
                        <path d="M5.05141083,26.4868544 C4.39853254,25.8677593 3.36309048,25.8975676 2.746865,26.5510568 C2.12834872,27.2091319 2.15354753,28.2409569 2.80871663,28.860052 C3.46617652,29.479147 4.49932779,29.4516317 5.11326246,28.7935566 C5.74094194,28.1377744 5.70887073,27.1059494 5.05141083,26.4868544" id="Fill-1"></path>
                        <path d="M13.1086634,18.5055994 C12.45352,17.8839445 11.4204093,17.9137656 10.7996266,18.5698294 C10.1811346,19.2213055 10.2109139,20.2581616 10.8660573,20.8775226 C11.5234913,21.4968836 12.5543113,21.4670626 13.1728033,20.8109987 C13.793586,20.1549348 13.7638068,19.1226665 13.1086634,18.5055994" id="Fill-3"></path>
                        <path d="M21.3726851,9.73196935 C20.719209,9.11514392 19.6851116,9.14036726 19.0637361,9.79617423 C18.4469463,10.4542742 18.4790469,11.4907244 19.1302302,12.1029638 C19.7882921,12.7243753 20.8200965,12.6968589 21.4368863,12.0410519 C22.0605547,11.387538 22.0307471,10.3510878 21.3726851,9.73196935" id="Fill-5"></path>
                        <path d="M29.3977831,3.05787749 C29.6986119,2.88318361 29.8767726,2.67093871 29.9410272,2.45053055 C28.8399356,2.68399994 27.7534474,2.93053055 26.6757211,3.20318361 C27.5139527,3.53461218 28.6763783,3.4888979 29.3977831,3.05787749" id="Fill-7"></path>
                        <path d="M4.40670122,41.5251436 C3.75085537,40.905735 2.71663692,40.9355583 2.10206808,41.5916726 C1.47603341,42.2477869 1.50584458,43.2824287 2.16169043,43.9018373 C2.81982945,44.5166577 3.85175473,44.4891284 4.4709099,43.8330141 C5.09006507,43.1768998 5.05796073,42.1468463 4.40670122,41.5251436" id="Fill-9"></path>
                        <path d="M12.4581822,33.5381126 C11.8068839,32.9217811 10.7748972,32.9538578 10.1511186,33.6114308 C9.53192652,34.2621303 9.56173947,35.2977505 10.2176244,35.9163732 C10.8758026,36.5349959 11.905496,36.5052103 12.5223947,35.8499285 C13.1461734,35.1946467 13.1140671,34.1590265 12.4581822,33.5381126" id="Fill-11"></path>
                        <path d="M21.2999125,25.7692345 C20.6467159,25.1524335 19.6130609,25.1799487 18.9965351,25.8334368 C18.3754253,26.4915108 18.4052203,27.5233341 19.0584168,28.147014 C19.7161972,28.7615221 20.7475603,28.7340068 21.3663781,28.0782257 C21.9897797,27.4224447 21.9576929,26.3883285 21.2999125,25.7692345" id="Fill-13"></path>
                        <path d="M28.2033265,15.7838947 C27.5524225,15.1717385 26.5164768,15.1946657 25.8930759,15.854969 C25.2765507,16.5061015 25.3063456,17.5424109 25.9595414,18.1591526 C26.6173211,18.7827724 27.648683,18.7483816 28.2675001,18.0972491 C28.8886091,17.4392385 28.8588142,16.4098072 28.2033265,15.7838947" id="Fill-15"></path>
                        <path d="M37.0462338,8.01839174 C36.3908618,7.39687073 35.3573906,7.42439195 34.7363913,8.0803145 C34.1222665,8.73853048 34.1474731,9.77516332 34.8028451,10.3875106 C35.4605086,11.0067382 36.4916883,10.9815104 37.1149791,10.3232944 C37.7313954,9.66966528 37.7016058,8.63303245 37.0462338,8.01839174" id="Fill-17"></path>
                        <path d="M42.8557946,1.73535715 C43.5089391,2.15148603 44.5507505,2.13299141 45.167098,1.69220305 C45.6753548,1.33464045 45.7443489,0.812167531 45.3993783,0.405285962 C44.4311606,0.396038653 43.4675426,0.412992052 42.5131238,0.465393466 C42.2095496,0.88460478 42.3245398,1.40091283 42.8557946,1.73535715" id="Fill-19"></path>
                        <path d="M3.33333428,58.1410855 C2.68230392,57.5219905 1.64386466,57.5495059 1.02263498,58.2075809 C0.408282394,58.8633631 0.433498359,59.8951881 1.08911344,60.5142831 C1.74702087,61.1333782 2.77858306,61.1035699 3.39981273,60.4500807 C4.01645768,59.7920056 3.98894936,58.7601806 3.33333428,58.1410855" id="Fill-21"></path>
                        <path d="M12.3879729,49.5817704 C11.7322302,48.9608313 10.7004672,48.990618 10.0814093,49.6436352 C9.46235151,50.301235 9.48757239,51.3368974 10.1433151,51.9555453 C10.8036435,52.5741931 11.8285281,52.5421151 12.4544643,51.8868066 C13.0712293,51.2314981 13.0437156,50.2027096 12.3879729,49.5817704" id="Fill-23"></path>
                        <path d="M19.0763173,40.3862304 C18.4208551,39.7666527 17.3895335,39.7964842 16.7684488,40.4504829 C16.1519476,41.1021869 16.1771577,42.1417006 16.8326199,42.7612783 C17.4903739,43.3785613 18.5171118,43.3487298 19.1381966,42.6947311 C19.7615732,42.0384376 19.7340713,41.0058081 19.0763173,40.3862304" id="Fill-25"></path>
                        <path d="M28.1301703,31.8231451 C27.4766049,31.2043059 26.4446596,31.2386858 25.8231992,31.8919051 C25.2063252,32.5451243 25.2315505,33.5811071 25.8897023,34.2022384 C26.5478541,34.8187856 27.575213,34.7866977 28.1966734,34.1357704 C28.8135474,33.4802592 28.7906153,32.4488604 28.1301703,31.8231451" id="Fill-27"></path>
                        <path d="M36.1908064,23.8404733 C35.5348971,23.2217421 34.5005786,23.2538245 33.8790701,23.9115128 C33.259855,24.564618 33.2873757,25.5958367 33.9455784,26.2191511 C34.6037811,26.8355907 35.6358062,26.8035084 36.2527279,26.1526948 C36.8696496,25.497298 36.8421289,24.4614961 36.1908064,23.8404733" id="Fill-29"></path>
                        <path d="M43.6658752,14.8602384 C43.0122079,14.2410829 41.9755143,14.2686009 41.3562505,14.9244471 C40.7369867,15.5780002 40.7668031,16.6145124 41.4204705,17.2313748 C42.0764314,17.8528235 43.1108314,17.8230123 43.7278016,17.1671661 C44.349359,16.5090267 44.3195426,15.4771008 43.6658752,14.8602384" id="Fill-31"></path>
                        <path d="M52.719105,6.29947784 C52.0657055,5.67827167 51.0317294,5.7103635 50.4127193,6.36595378 C49.7937092,7.02154407 49.8189281,8.05306724 50.4746203,8.67427342 C51.1326051,9.29089505 52.1642885,9.26338776 52.781006,8.60550521 C53.4046013,7.9522072 53.3747971,6.91839175 52.719105,6.29947784" id="Fill-33"></path>
                        <path d="M11.7356119,64.6203965 C11.0850508,63.9950694 10.0519414,64.0317186 9.4311595,64.6868232 C8.81266829,65.3419278 8.84015679,66.3726868 9.49300862,66.9911422 C10.1504419,67.6141787 11.1835513,67.5798201 11.8043332,66.9247155 C12.4251151,66.2696109 12.3930452,65.2388519 11.7356119,64.6203965" id="Fill-35"></path>
                        <path d="M19.0025073,56.4240287 C18.3475416,55.8048852 17.3170011,55.8346958 16.6986768,56.4882362 C16.0780625,57.1440697 16.1055435,58.1736825 16.7650894,58.7951192 C17.4200551,59.418849 18.4551758,59.3867453 19.0689199,58.7309117 C19.6918243,58.0750782 19.6597631,57.0454654 19.0025073,56.4240287" id="Fill-37"></path>
                        <path d="M28.0571865,47.8597294 C27.404436,47.2429177 26.3714871,47.2773124 25.7530919,47.9285188 C25.1346968,48.5820182 25.1598907,49.6161523 25.8149314,50.239843 C26.474553,50.8566547 27.5097923,50.8268459 28.1236067,50.1687606 C28.7465826,49.5175542 28.7145176,48.48342 28.0571865,47.8597294" id="Fill-39"></path>
                        <path d="M36.5348967,38.3041406 C35.8796253,37.6848281 34.8486038,37.7123531 34.2276998,38.3706593 C33.6113781,39.0220843 33.638872,40.0565655 34.2941434,40.675878 C34.951706,41.2974843 35.9827274,41.2653718 36.5990491,40.6139468 C37.2222443,39.9579343 37.1947504,38.9257468 36.5348967,38.3041406" id="Fill-41"></path>
                        <path d="M43.8020955,30.1136476 C43.1483898,29.4878927 42.1162228,29.5199827 41.4946289,30.1732433 C40.8776225,30.828796 40.9051469,31.8625523 41.5611464,32.4837229 C42.2171458,33.1003092 43.2470191,33.0750956 43.868613,32.4126665 C44.4902068,31.7571137 44.458095,30.7279417 43.8020955,30.1136476" id="Fill-43"></path>
                        <path d="M51.861198,22.12566 C51.2030079,21.5064082 50.1710024,21.536224 49.5495057,22.1921722 C48.9325958,22.8458269 48.9601159,23.8802067 49.6160128,24.4994585 C50.2673229,25.1187103 51.3062084,25.0888945 51.9231184,24.4352398 C52.544615,23.7769981 52.5125082,22.7472053 51.861198,22.12566" id="Fill-45"></path>
                        <path d="M58.5496488,12.9333268 C57.8958157,12.3118781 56.8588594,12.3416893 56.2417327,12.9975355 C55.6200178,13.6487954 55.6498417,14.6853077 56.305969,15.3044632 C56.9620962,15.9236187 57.9990525,15.8961007 58.6161791,15.2402545 C59.2310116,14.5821151 59.2034818,13.5501892 58.5496488,12.9333268" id="Fill-47"></path>
                        <path d="M66.0585191,6.96559598 C66.7999803,7.3541674 67.9092756,7.38518781 68.6912854,7.05375924 C68.1496712,6.83661638 67.6283313,6.61620822 67.0577538,6.3909021 C66.5393103,6.19008577 66.0063852,6.01702455 65.4937343,5.8341674 C65.3112654,6.22600414 65.4966306,6.66355516 66.0585191,6.96559598" id="Fill-49"></path>
                        <path d="M18.3558727,71.4635934 C17.702906,70.8445842 16.6673237,70.8720957 16.0464325,71.5232017 C15.4301236,72.1788931 15.4576169,73.2174531 16.1128748,73.8341697 C16.7704237,74.4554716 17.8014237,74.4256675 18.4223149,73.7722688 C19.0409149,73.1119922 19.0111305,72.0826027 18.3558727,71.4635934" id="Fill-51"></path>
                        <path d="M27.4078333,62.9008193 C26.7592332,62.2843071 25.7255983,62.3118095 25.1022087,62.9649915 C24.4834029,63.6181735 24.5131973,64.6586811 25.1686731,65.2774851 C25.8264407,65.8962891 26.8577837,65.864203 27.4742976,65.2064372 C28.0976872,64.5532552 28.0656009,63.5219151 27.4078333,62.9008193" id="Fill-53"></path>
                        <path d="M34.6763357,54.7082216 C34.0254819,54.0892358 32.9873242,54.1167463 32.3708465,54.7724127 C31.7497853,55.4303717 31.7795779,56.4597221 32.4327234,57.0810004 C33.0904525,57.7022787 34.1217349,57.6678906 34.7405044,57.0191018 C35.3638574,56.3634354 35.331773,55.3272074 34.6763357,54.7082216" id="Fill-55"></path>
                        <path d="M43.7336162,46.1479144 C43.0819509,45.5288075 42.0470881,45.5563233 41.4252526,46.2121181 C40.8057117,46.8656198 40.8332468,47.9020506 41.4872067,48.5188645 C42.1457558,49.1402644 43.178324,49.1104556 43.8001595,48.4569538 C44.4151112,47.7988661 44.3875761,46.7647283 43.7336162,46.1479144" id="Fill-57"></path>
                        <path d="M50.4211721,36.952999 C49.7656592,36.3322763 48.7342579,36.3643431 48.110833,37.0194232 C47.4965762,37.6745033 47.5217882,38.7052237 48.1773011,39.3236559 C48.837398,39.9466692 49.8665074,39.9168928 50.4853482,39.2595222 C51.104189,38.6021517 51.078977,37.5737217 50.4211721,36.952999" id="Fill-59"></path>
                        <path d="M58.4771249,28.9695687 C57.8214326,28.3502684 56.789749,28.3800866 56.1707387,29.0360861 C55.5494359,29.689792 55.5769475,30.7288403 56.2326398,31.3435532 C56.8906247,31.9628535 57.9223084,31.9330353 58.5390259,31.2770358 C59.1603288,30.6256236 59.1328172,29.588869 58.4771249,28.9695687" id="Fill-61"></path>
                        <path d="M66.5330878,20.9878867 C65.8730543,20.3666196 64.8440437,20.396422 64.2252623,21.0543692 C63.6041891,21.7100238 63.6316905,22.7416483 64.2894322,23.360623 C64.9425904,23.9795976 65.9784763,23.9497951 66.594966,23.2941405 C67.2160392,22.6361933 67.186246,21.6091539 66.5330878,20.9878867" id="Fill-63"></path>
                        <path d="M73.3885279,14.7446348 C74.103045,15.4408635 75.2183888,15.4073414 75.8955618,14.6698546 C75.97025,14.58476 76.039959,14.4919295 76.0972199,14.3965204 C75.2980562,13.6023039 74.4217146,12.7951942 73.5005602,11.9803487 C73.43832,12.0344998 73.3735902,12.0860723 73.3188189,12.1479593 C72.6391563,12.8880247 72.67899,14.0458274 73.3885279,14.7446348" id="Fill-65"></path>
                        <path d="M25.5542594,79.3073723 C24.8936469,78.6882061 23.8637337,78.7157246 23.2444095,79.3669957 C22.6250853,80.0274395 22.650317,81.0616763 23.3086357,81.6808424 C23.9623668,82.2977154 24.9968676,82.2701969 25.613898,81.6143394 C26.2378098,80.958482 26.2034029,79.9242452 25.5542594,79.3073723" id="Fill-67"></path>
                        <path d="M32.8169154,71.1122474 C32.1638087,70.4933092 31.1302959,70.5208176 30.5115633,71.1764336 C29.890539,71.8297572 29.9180382,72.8659056 30.5734365,73.4848438 C31.2311265,74.103782 32.2623476,74.0762736 32.8833719,73.4183652 C33.499813,72.7627492 33.4746054,71.733478 32.8169154,71.1122474" id="Fill-69"></path>
                        <path d="M42.0837583,61.76212 C41.428028,61.1412649 40.3962844,61.1733386 39.7749455,61.8354313 C39.1581922,62.4837781 39.1834126,63.5170092 39.8391429,64.1332823 C40.497166,64.7587193 41.5266168,64.7243546 42.1479557,64.0691349 C42.7692946,63.4139151 42.7371959,62.380684 42.0837583,61.76212" id="Fill-71"></path>
                        <path d="M50.3480982,52.9927485 C49.696737,52.3712509 48.6623571,52.4010645 48.0385183,53.0569622 C47.4238535,53.7151533 47.4513758,54.7448669 48.1050305,55.3640711 C48.7609787,55.9832753 49.7930651,55.9557551 50.4123169,55.297564 C51.0361557,54.6439596 51.0040464,53.6096593 50.3480982,52.9927485" id="Fill-73"></path>
                        <path d="M57.6143933,44.7932889 C56.9586756,44.1767169 55.926952,44.2088062 55.3079179,44.8620516 C54.6888837,45.5175891 54.7186891,46.5513213 55.3698213,47.1701854 C56.0324171,47.7890494 57.0641407,47.7592523 57.6808821,47.1082989 C58.302209,46.4481773 58.2701109,45.4144451 57.6143933,44.7932889" id="Fill-75"></path>
                        <path d="M66.8814236,35.448873 C66.230444,34.8298758 65.1920858,34.8573868 64.575489,35.5084802 C63.9566,36.1710365 63.981814,37.200406 64.6373779,37.8216959 C65.295234,38.4406932 66.3290078,38.4108896 66.9478968,37.755211 C67.5667858,37.0995324 67.5369875,36.0701629 66.8814236,35.448873" id="Fill-77"></path>
                        <path d="M75.9365376,26.8864966 C75.2813682,26.2702361 74.2482166,26.2954363 73.6297001,26.9529336 C73.0111836,27.60814 73.0363824,28.643641 73.6938425,29.2621924 C74.3490119,29.8807439 75.3821635,29.8486709 75.9960984,29.1980464 C76.6237781,28.5382581 76.5917069,27.5050481 75.9365376,26.8864966" id="Fill-79"></path>
                        <path d="M79.6227284,22.1374526 C79.9801439,22.7105523 80.4834105,22.8097426 80.8985253,22.4763529 C80.5026436,21.4706731 80.0538709,20.4374405 79.5586181,19.4014525 C79.1467088,20.1894646 79.1707502,21.4017909 79.6227284,22.1374526" id="Fill-81"></path>
                        <path d="M33.1654449,85.5758648 C32.5144391,84.9524509 31.4783314,84.9822464 30.8594175,85.6400398 C30.2405036,86.2909573 30.2703032,87.3292166 30.9258934,87.9457546 C31.5791915,88.5645846 32.6175914,88.5370811 33.2342131,87.8815797 C33.853127,87.2260782 33.8233274,86.1946948 33.1654449,85.5758648" id="Fill-83"></path>
                        <path d="M40.6448111,76.5901614 C39.9915896,75.9715267 38.9556033,75.9990216 38.3390539,76.6543161 C37.7179206,77.3073194 37.7477166,78.3406685 38.4032301,78.9661769 C39.0564515,79.5848116 40.0878538,79.550443 40.7089872,78.8951485 C41.3278286,78.2421452 41.3049085,77.2087961 40.6448111,76.5901614" id="Fill-85"></path>
                        <path d="M48.9140951,67.8175574 C48.2581736,67.1983546 47.2238358,67.228168 46.6046092,67.8863577 C45.9876761,68.5399606 46.0106104,69.5742586 46.6688253,70.1911681 C47.3247468,70.8103708 48.3590846,70.7805574 48.9783112,70.1315411 C49.5952444,69.4687648 49.5677232,68.4367601 48.9140951,67.8175574" id="Fill-87"></path>
                        <path d="M56.9697155,59.8343867 C56.3116278,59.2155468 55.282076,59.2453428 54.6583831,59.9008546 C54.0415692,60.5563665 54.066792,61.5877662 54.7248797,62.21119 C55.3852604,62.8300298 56.4125193,62.7956498 57.0293332,62.140138 C57.6530261,61.4846262 57.6209242,60.4532265 56.9697155,59.8343867" id="Fill-89"></path>
                        <path d="M66.0233754,51.2714293 C65.3674285,50.6545567 64.3330507,50.6866616 63.7115066,51.3402255 C63.0968431,51.9960827 63.1220719,53.030319 63.7780187,53.6494848 C64.4316721,54.2686507 65.4683434,54.2365458 66.0898875,53.5806886 C66.7068445,52.9271247 66.6747352,51.8928884 66.0233754,51.2714293" id="Fill-91"></path>
                        <path d="M74.0792692,43.2898772 C73.4237173,42.6734125 72.3922544,42.7009128 71.7687923,43.3563362 C71.1499146,44.0117597 71.1774203,45.0476037 71.8352644,45.6663601 C72.4885242,46.2851165 73.5222793,46.2530328 74.141157,45.5999011 C74.7623269,44.9444776 74.7302369,43.9109253 74.0792692,43.2898772" id="Fill-93"></path>
                        <path d="M81.5553529,34.3091192 C80.896881,33.6896146 79.8690223,33.7194426 79.2403766,34.3687751 C78.6300856,35.0272856 78.6553232,36.0620876 79.3115008,36.6770033 C79.9653841,37.3010968 81.0001257,37.2735632 81.6195941,36.6173473 C82.2390625,35.9611313 82.2092362,34.9263293 81.5553529,34.3091192" id="Fill-95"></path>
                        <path d="M40.3621858,93.4128788 C39.706902,92.7957778 38.6735698,92.8301887 38.0549453,93.4794064 C37.4363207,94.1355062 37.4638151,95.1678311 38.1190989,95.7941083 C38.7766739,96.4066211 39.8077149,96.3813865 40.4240482,95.7229926 C41.0472552,95.0714808 41.0197608,94.0345678 40.3621858,93.4128788" id="Fill-97"></path>
                        <path d="M49.4179111,84.8554526 C48.7644735,84.238819 47.7304372,84.2640345 47.1090983,84.9219298 C46.4923449,85.5775328 46.5175653,86.609076 47.1732957,87.228002 C47.8313188,87.8515125 48.8607696,87.8171278 49.4821085,87.1638171 C50.1034474,86.5127987 50.0713487,85.4720862 49.4179111,84.8554526" id="Fill-99"></path>
                        <path d="M56.8956005,75.8727504 C56.2374611,75.2535593 55.2055352,75.2833722 54.5886728,75.9392561 C53.9672241,76.59514 53.9970353,77.6271251 54.6528815,78.2509028 C55.3064346,78.863214 56.3406537,78.8379876 56.9598092,78.1798105 C57.5789647,77.5239266 57.5514467,76.4919415 56.8956005,75.8727504" id="Fill-101"></path>
                        <path d="M65.9503787,67.3123995 C65.292291,66.6931477 64.2627392,66.7229635 63.6436323,67.3789117 C63.0222324,68.0279793 63.0520412,69.0669462 63.7055429,69.686198 C64.3613377,70.3054498 65.3977685,70.275634 66.0145824,69.6219793 C66.6336893,68.9637376 66.6061734,67.9316513 65.9503787,67.3123995" id="Fill-103"></path>
                        <path d="M73.4291385,58.3302479 C72.7709994,57.7088235 71.739074,57.7409266 71.122212,58.3967471 C70.5007636,59.0479815 70.5282816,60.0821599 71.1841275,60.7035843 C71.8422666,61.3227155 72.874192,61.2929055 73.4910541,60.637085 C74.1147956,59.9812645 74.0803981,58.947086 73.4291385,58.3302479" id="Fill-105"></path>
                        <path d="M80.9075773,49.3479015 C80.2492205,48.7289042 79.2169537,48.7564152 78.5930058,49.4075087 C77.9805275,50.0677724 78.0057607,51.0994345 78.6641175,51.7207244 C79.3201804,52.3397216 80.3524472,52.309918 80.9695134,51.6542395 C81.5911674,50.9985609 81.5590524,49.9646062 80.9075773,49.3479015" id="Fill-107"></path>
                        <path d="M87.9845729,42.4209528 C87.5421239,43.0795574 87.5666137,44.1181263 88.0319198,44.7398859 C88.3453892,45.1589979 88.7780423,45.2741386 89.1649811,45.1129417 C89.0833484,44.108915 89.0262055,43.047318 88.9592668,41.9281507 C88.6115117,41.8728832 88.24743,42.0317773 87.9845729,42.4209528" id="Fill-109"></path>
                        <path d="M47.7688421,100.470891 C47.1153921,99.8522071 46.0813363,99.8819956 45.4622785,100.537342 C44.8432207,101.192689 44.8684415,102.223829 45.5241843,102.847095 C46.1822198,103.465779 47.2162756,103.433699 47.8353335,102.776061 C48.4520985,102.123006 48.4245848,101.089575 47.7688421,100.470891" id="Fill-111"></path>
                        <path d="M55.6682391,89.9104393 C55.0148015,89.293469 53.9807652,89.3209919 53.3617191,89.9769528 C52.742673,90.6329137 52.7701861,91.66502 53.4236237,92.2842838 C54.0839396,92.9035476 55.1133904,92.8760248 55.7347293,92.2200639 C56.3537754,91.5618094 56.3239695,90.5319966 55.6682391,89.9104393" id="Fill-113"></path>
                        <path d="M64.3027316,82.9302226 C63.6492425,82.3086165 62.6151247,82.3384353 61.9937369,82.9921539 C61.372349,83.6458724 61.4044503,84.6826472 62.0579393,85.3019595 C62.7160143,85.9212718 63.750132,85.8914531 64.3646411,85.2354408 C64.9860289,84.5794284 64.9562206,83.5472412 64.3027316,82.9302226" id="Fill-115"></path>
                        <path d="M71.9899845,73.1533687 C71.3357307,72.5364962 70.3026985,72.5686011 69.6805835,73.2244581 C69.0653554,73.8757287 69.0906073,74.9145512 69.744861,75.5314237 C70.4014104,76.1505894 71.4413296,76.1184845 72.0542621,75.4649207 C72.6740815,74.8113569 72.6465339,73.7748276 71.9899845,73.1533687" id="Fill-117"></path>
                        <path d="M80.0430512,65.17633 C79.3920199,64.5574181 78.3535791,64.5803408 77.7369333,65.2359289 C77.117995,65.8938093 77.1477958,66.9230368 77.7988271,67.5465331 C78.4613202,68.165445 79.4905916,68.1379378 80.1072374,67.4823497 C80.7307604,66.8267616 80.7009596,65.7952418 80.0430512,65.17633" id="Fill-119"></path>
                        <path d="M88.100935,57.1912251 C87.4423859,56.570576 86.4098176,56.6003488 85.7902766,57.2576414 C85.1753248,57.9103536 85.2005654,58.9455322 85.8545253,59.5661813 C86.5130744,60.1845402 87.5456427,60.1524772 88.1651837,59.4951846 C88.7847247,58.8401822 88.7548949,57.8118742 88.100935,57.1912251" id="Fill-121"></path>
                        <path d="M54.5972796,106.526706 C53.9443002,105.907394 52.9132802,105.937213 52.292377,106.593225 C51.6714738,107.249237 51.6966765,108.281424 52.3542382,108.898443 C53.014091,109.520049 54.0405288,109.49023 54.6614319,108.836512 C55.2846263,108.185087 55.2502589,107.146018 54.5972796,106.526706" id="Fill-123"></path>
                        <path d="M63.8644114,97.1777571 C63.2109862,96.5585053 62.1746768,96.5883211 61.5579351,97.2442693 C60.9343153,97.9002175 60.9664134,98.9323038 61.6198385,99.5515556 C62.2755564,100.170807 63.3095731,100.140992 63.9309002,99.4873369 C64.5476419,98.8290952 64.5178365,97.7970089 63.8644114,97.1777571" id="Fill-125"></path>
                        <path d="M71.9168542,89.191953 C71.2680653,88.5751284 70.2295445,88.6072308 69.608266,89.2584508 C68.9915727,89.91655 69.0213757,90.9529988 69.6724572,91.5698234 C70.3327088,92.1889411 71.364352,92.1568387 71.9833379,91.5010326 C72.6023238,90.8475195 72.5748133,89.8133637 71.9168542,89.191953" id="Fill-127"></path>
                        <path d="M79.3963642,80.2130993 C78.7427608,79.5941127 77.7107555,79.6193306 77.0869657,80.279583 C76.4700558,80.9283727 76.497576,81.9668947 77.1511793,82.5858813 C77.8093694,83.204868 78.843668,83.1750649 79.4605778,82.5193976 C80.0820743,81.8637303 80.0499675,80.8320859 79.3963642,80.2130993" id="Fill-129"></path>
                        <path d="M88.4517426,71.6518641 C87.7984704,71.0332512 86.7624037,71.0607451 86.1412221,71.7160166 C85.5246248,72.3735792 85.552131,73.4046008 86.2076954,74.0209226 C86.8655519,74.646409 87.8970343,74.6143327 88.5136315,73.9590613 C89.1348131,73.306081 89.1073069,72.2704771 88.4517426,71.6518641" id="Fill-131"></path>
                        <path d="M95.7187878,63.456319 C95.0583562,62.8377303 94.0264318,62.8675142 93.404984,63.52276 C92.7927089,64.1802969 92.8179337,65.2135692 93.473779,65.8275758 C94.1319174,66.4530377 95.1615486,66.4186717 95.7807032,65.7634259 C96.402151,65.1127622 96.3723399,64.0794899 95.7187878,63.456319" id="Fill-133"></path>
                        <path d="M102.910522,57.6156797 C102.592155,57.5079246 102.27542,57.3952716 101.968481,57.2760879 C101.978277,57.2875164 101.988073,57.3005777 101.997869,57.3103736 C102.254195,57.5503736 102.585624,57.6499654 102.910522,57.6156797" id="Fill-135"></path>
                        <path d="M62.0043108,113.583002 C61.3463653,112.962197 60.3170359,112.991977 59.6957703,113.649435 C59.0767972,114.300021 59.1043071,115.335461 59.7599601,115.958557 C60.4179056,116.577072 61.4495275,116.54271 62.0707931,115.887542 C62.6897662,115.239247 62.6553788,114.201517 62.0043108,113.583002" id="Fill-137"></path>
                        <path d="M71.0602564,105.021687 C70.3995158,104.402423 69.3716971,104.43224 68.7499586,105.085907 C68.1328085,105.744161 68.1580451,106.773974 68.8141972,107.395532 C69.4680551,108.012502 70.5027565,107.987273 71.1222008,107.329018 C71.7416452,106.673057 71.7141143,105.640951 71.0602564,105.021687" id="Fill-139"></path>
                        <path d="M79.1161634,97.0404358 C78.4561837,96.4216062 77.427257,96.4445258 76.8039428,97.1069027 C76.1852118,97.7555278 76.2150026,98.7937865 76.8726907,99.4126161 C77.523504,100.031446 78.5615971,100.00165 79.1757449,99.3461493 C79.7944759,98.6906482 79.7715599,97.6569735 79.1161634,97.0404358" id="Fill-141"></path>
                        <path d="M87.5906835,87.478222 C86.9322495,86.8573548 85.9021558,86.8894291 85.2827231,87.5469527 C84.6632904,88.1953121 84.6931149,89.2331455 85.3446664,89.8517216 C86.0031004,90.4725888 87.0354883,90.4405145 87.654921,89.7852819 C88.2743537,89.1300494 88.2468233,88.0990892 87.5906835,87.478222" id="Fill-143"></path>
                        <path d="M95.6473349,79.4952396 C94.9869173,78.8780895 93.9550146,78.9033262 93.3312868,79.5594783 C92.7190246,80.2179247 92.7488351,81.2480376 93.4023734,81.8674819 C94.0582049,82.4869262 95.0901075,82.4593954 95.706956,81.8055375 C96.3306838,81.1470911 96.3008733,80.1123897 95.6473349,79.4952396" id="Fill-145"></path>
                        <path d="M102.334806,70.3046038 C101.679038,69.6811415 100.647235,69.7109393 100.023567,70.3641995 C99.4067784,71.0197518 99.4388789,72.0557996 100.090061,72.6746776 C100.748122,73.2935557 101.779925,73.26605 102.4013,72.6036213 C103.018089,71.9526532 102.990574,70.9188976 102.334806,70.3046038" id="Fill-147"></path>
                        <path d="M111.387155,61.7414248 C110.73625,61.1228724 109.702595,61.1480727 109.081485,61.8078619 C108.462667,62.4653602 108.49017,63.4939899 109.14795,64.1125422 C109.805731,64.7356765 110.839386,64.7013124 111.453621,64.050687 C112.07473,63.3954797 112.044936,62.3599772 111.387155,61.7414248" id="Fill-149"></path>
                        <path d="M62.5103146,129.565357 C63.2972777,128.915386 63.2593869,127.874972 62.425789,127.254858 C61.6971195,126.710535 60.6041152,126.671491 59.8113228,127.098681 C60.126108,128.074786 60.4496373,129.060079 60.7644225,130.063745 C61.3910783,130.118866 62.0439662,129.953502 62.5103146,129.565357" id="Fill-151"></path>
                        <path d="M70.4100949,120.059742 C69.7517253,119.44049 68.7194384,119.470306 68.1000662,120.126254 C67.482988,120.782202 67.5105157,121.814289 68.1642974,122.43354 C68.822667,123.052792 69.854954,123.022976 70.4743261,122.369322 C71.0936983,121.71108 71.0638767,120.678994 70.4100949,120.059742" id="Fill-153"></path>
                        <path d="M79.4664885,111.499741 C78.8086963,110.878535 77.7796068,110.910627 77.1539021,111.568509 C76.5373652,112.217222 76.5648687,113.255622 77.2226609,113.874535 C77.8781611,114.491157 78.9118344,114.463649 79.5283714,113.808059 C80.1472002,113.152469 80.1196967,112.120947 79.4664885,111.499741" id="Fill-155"></path>
                        <path d="M85.1542647,102.882605 C84.4965747,102.263341 83.4676452,102.293157 82.8443293,102.946824 C82.2278882,103.598198 82.2530958,104.630305 82.9107858,105.256449 C83.5661841,105.873419 84.5996968,105.84819 85.2161379,105.189936 C85.8371622,104.533975 85.809663,103.501868 85.1542647,102.882605" id="Fill-157"></path>
                        <path d="M95.2101418,93.7439828 C94.5520543,93.1253951 93.5202098,93.1551789 92.901103,93.8127148 C92.2819963,94.4656685 92.3072192,95.5012303 92.9653067,96.119818 C93.6233942,96.7384058 94.6552388,96.7063309 95.2720525,96.0556682 C95.8934522,95.4004234 95.8613504,94.3625706 95.2101418,93.7439828" id="Fill-159"></path>
                        <path d="M102.266514,86.340206 C101.606559,85.7194224 100.575379,85.7492017 99.9520882,86.404346 C99.3356719,87.0594904 99.3654615,88.0903119 100.020834,88.7088049 C100.678497,89.3341699 101.709677,89.3020999 102.328385,88.6446648 C102.947092,87.9895205 102.917303,86.9564082 102.266514,86.340206" id="Fill-161"></path>
                        <path d="M109.742184,77.3596675 C109.084507,76.7359746 108.051013,76.7657835 107.434584,77.4215782 C106.813571,78.0796659 106.84107,79.1092177 107.498748,79.7306176 C108.154134,80.3474315 109.187627,80.3199157 109.806348,79.6664139 C110.425069,79.0060332 110.395278,77.9741884 109.742184,77.3596675" id="Fill-163"></path>
                        <path d="M119.005201,68.006676 C118.349637,67.3877621 117.315862,67.4175617 116.699265,68.073152 C116.080376,68.72645 116.107882,69.7602654 116.761154,70.3814716 C117.419011,71.0003855 118.452785,70.9705859 119.071675,70.3127034 C119.690564,69.6616976 119.663058,68.6255899 119.005201,68.006676" id="Fill-165"></path>
                        <path d="M126.545205,62.0068754 C126.000466,61.9138142 125.455726,61.8191203 124.912552,61.730957 C124.962643,61.8093244 125.01743,61.8860591 125.086305,61.9529979 C125.49486,62.3562632 126.120997,62.3693244 126.545205,62.0068754" id="Fill-167"></path>
                        <path d="M69.7621805,135.097948 C69.1014524,134.478853 68.0736532,134.508662 67.4519264,135.164444 C66.834788,135.820226 66.8600242,136.85205 67.5161639,137.468852 C68.1745977,138.092533 69.2069854,138.060432 69.8241237,137.409236 C70.4458505,136.748868 70.4137318,135.717043 69.7621805,135.097948" id="Fill-169"></path>
                        <path d="M76.814259,127.69286 C76.1628468,127.073658 75.1260923,127.103471 74.506792,127.752487 C73.8874917,128.410677 73.9173098,129.447268 74.5733094,130.066471 C75.2270153,130.685674 76.2614762,130.655861 76.8807765,129.997671 C77.5000768,129.344068 77.4702586,128.312063 76.814259,127.69286" id="Fill-171"></path>
                        <path d="M86.0794913,118.341426 C85.4235431,117.724575 84.3960438,117.754386 83.772205,118.407926 C83.1529533,119.059174 83.1850626,120.097959 83.8364237,120.712516 C84.4946654,121.338539 85.5267517,121.306435 86.1460035,120.650602 C86.7652553,119.994768 86.737733,118.962862 86.0794913,118.341426" id="Fill-173"></path>
                        <path d="M94.1372084,110.356971 C93.481223,109.745173 92.4444909,109.768087 91.825204,110.42342 C91.2082108,111.078754 91.2403219,112.114456 91.89172,112.735419 C92.549999,113.351799 93.5821438,113.324302 94.2014307,112.668969 C94.8230113,112.013635 94.7886064,110.977933 94.1372084,110.356971" id="Fill-175"></path>
                        <path d="M101.612763,101.375207 C100.959479,100.760697 99.925685,100.78592 99.3044918,101.441702 C98.6901752,102.097484 98.7130974,103.136188 99.3686741,103.748404 C100.028835,104.372085 101.060337,104.339983 101.676946,103.684201 C102.298139,103.026126 102.270632,101.996594 101.612763,101.375207" id="Fill-177"></path>
                        <path d="M109.665703,93.3933972 C109.010163,92.7748936 107.981011,92.8046734 107.362145,93.4598291 C106.738694,94.1126941 106.773076,95.1458243 107.426324,95.7666187 C108.079571,96.3851224 109.115599,96.3599241 109.732174,95.7024776 C110.353332,95.0427403 110.325827,94.0119009 109.665703,93.3933972" id="Fill-179"></path>
                        <path d="M117.934733,84.6222602 C117.281817,84.0030084 116.246314,84.0328242 115.627762,84.6887724 C115.009209,85.3401335 115.03441,86.3768069 115.694199,86.9960587 C116.347115,87.6153105 117.380327,87.5854947 118.00117,86.93184 C118.619722,86.2781853 118.58994,85.241512 117.934733,84.6222602" id="Fill-181"></path>
                        <path d="M126.202399,75.8511677 C125.549127,75.2322542 124.510769,75.2597614 123.896464,75.9176436 C123.275283,76.5663568 123.300497,77.6047563 123.958353,78.2259621 C124.616209,78.8448757 125.647691,78.8127839 126.268872,78.1571939 C126.885469,77.5061885 126.85567,76.4700813 126.202399,75.8511677" id="Fill-183"></path>
                        <path d="M134.256489,67.8688348 C133.600886,67.2498375 132.567052,67.2773485 131.945834,67.9284419 C131.329201,68.5864131 131.359001,69.6226604 132.012311,70.2416576 C132.670206,70.8606549 133.701748,70.8308513 134.322966,70.1751727 C134.939599,69.5194941 134.912091,68.4855394 134.256489,67.8688348" id="Fill-185"></path>
                        <path d="M68.7115301,154.024785 C69.3912819,153.375337 69.3559045,152.335762 68.6382483,151.716148 C67.9130113,151.096533 66.7733531,151.119482 66.0961283,151.782699 C66.0304274,151.837776 65.9849421,151.904327 65.9344029,151.970878 C66.2376379,152.815389 66.5433999,153.648427 66.8668506,154.45622 C67.4985901,154.637515 68.2238272,154.499823 68.7115301,154.024785" id="Fill-187"></path>
                        <path d="M76.9588223,142.941762 C76.3003241,142.322461 75.2655411,142.352279 74.6483424,143.008279 C74.0288493,143.664279 74.0540879,144.696446 74.7125861,145.315746 C75.36879,145.935046 76.4012785,145.905228 77.0184772,145.249229 C77.6402647,144.593229 77.6081429,143.561062 76.9588223,142.941762" id="Fill-189"></path>
                        <path d="M84.4300268,133.957257 C83.7789571,133.337813 82.7473327,133.372227 82.123773,134.023789 C81.5047984,134.682235 81.5346008,135.712346 82.1902555,136.336378 C82.8436176,136.951233 83.8798271,136.921408 84.4965093,136.267551 C85.1177764,135.613694 85.0879739,134.578994 84.4300268,133.957257" id="Fill-191"></path>
                        <path d="M92.4874719,125.978171 C91.8335625,125.356953 90.801074,125.384461 90.1792864,126.042356 C89.5620877,126.697959 89.5873264,127.731794 90.2435302,128.353012 C90.899734,128.967354 91.9368114,128.939846 92.5517157,128.28195 C93.1712088,127.626348 93.1436758,126.594805 92.4874719,125.978171" id="Fill-193"></path>
                        <path d="M100.754018,117.20557 C100.098223,116.584133 99.0709643,116.613944 98.4472714,117.27207 C97.8258715,117.927904 97.8556803,118.957517 98.5091821,119.57666 C99.1672698,120.198097 100.203701,120.165993 100.818222,119.514746 C101.437328,118.856619 101.409813,117.824713 100.754018,117.20557" id="Fill-195"></path>
                        <path d="M109.232632,107.643561 C108.574904,107.024564 107.543623,107.054367 106.92027,107.710046 C106.306085,108.365724 106.331294,109.401972 106.989023,110.016384 C107.644459,110.635381 108.678032,110.60787 109.296801,109.956777 C109.915569,109.298805 109.885777,108.262558 109.232632,107.643561" id="Fill-197"></path>
                        <path d="M117.858755,100.660123 C117.207164,100.041571 116.174714,100.071353 115.555244,100.72427 C114.935773,101.381768 114.9656,102.412689 115.619485,103.033532 C116.275665,103.652085 117.310409,103.626884 117.925291,102.964804 C118.54935,102.309597 118.519524,101.278676 117.858755,100.660123" id="Fill-199"></path>
                        <path d="M125.763836,90.1003733 C125.108348,89.4833547 124.074695,89.508586 123.455878,90.166892 C122.837061,90.8183168 122.864564,91.8550915 123.520052,92.4744038 C124.180123,93.0937161 125.211485,93.0638974 125.830301,92.4078851 C126.449118,91.7564603 126.417031,90.7196856 125.763836,90.1003733" id="Fill-201"></path>
                        <path d="M132.821221,82.6964656 C132.165491,82.0734647 131.129161,82.105531 130.510115,82.7628885 C129.891069,83.4179557 129.920875,84.4509461 130.576605,85.0693661 C131.232336,85.6877862 132.268665,85.6580104 132.883125,85.0006528 C133.502172,84.3455857 133.474658,83.3171761 132.821221,82.6964656" id="Fill-203"></path>
                        <path d="M141.083601,73.9226998 C140.428241,73.3040021 139.399371,73.3314998 138.776091,73.9937355 C138.157394,74.6422223 138.187183,75.6733851 138.842544,76.2943743 C139.502487,76.9176549 140.533648,76.8855743 141.150053,76.230213 C141.771042,75.5771433 141.738961,74.543689 141.083601,73.9226998" id="Fill-205"></path>
                        <path d="M148.834791,67.3235834 C148.290573,67.1146038 147.744827,66.9170528 147.202138,66.7309303 C147.255642,66.9088895 147.341249,67.0688895 147.477304,67.207665 C147.856422,67.5848079 148.420513,67.6223589 148.834791,67.3235834" id="Fill-207"></path>
                        <path d="M75.308784,158.560938 C74.6482121,157.937853 73.6160684,157.967632 72.9967822,158.620497 C72.3820834,159.275653 72.4050199,160.313365 73.0610045,160.931869 C73.7215765,161.550372 74.7537201,161.520592 75.3730063,160.865437 C75.9877052,160.210281 75.962475,159.179441 75.308784,158.560938" id="Fill-209"></path>
                        <path d="M84.5706939,149.213511 C83.9143362,148.588464 82.8861956,148.618228 82.2619673,149.27304 C81.6469189,149.93472 81.6721634,150.965018 82.3285211,151.583197 C82.9848787,152.201376 84.0176093,152.171611 84.6372476,151.5168 C85.256886,150.861988 85.2270515,149.83169 84.5706939,149.213511" id="Fill-211"></path>
                        <path d="M92.627837,141.223634 C91.9704546,140.604361 90.9442965,140.636471 90.316691,141.29703 C89.7005381,141.94612 89.7280244,142.985124 90.3854069,143.604398 C91.0404989,144.21679 92.0712379,144.186974 92.6919719,143.537883 C93.3104154,142.881912 93.282929,141.842908 92.627837,141.223634" id="Fill-213"></path>
                        <path d="M100.894014,132.451442 C100.236568,131.832447 99.2057276,131.866835 98.5849328,132.520219 C97.9664289,133.175896 97.9939179,134.205263 98.6513647,134.831136 C99.3065208,135.447839 100.339652,135.41345 100.958155,134.764651 C101.576659,134.106682 101.54917,133.075023 100.894014,132.451442" id="Fill-215"></path>
                        <path d="M108.161502,124.257914 C107.504016,123.63923 106.473116,123.669018 105.852284,124.331239 C105.231453,124.979712 105.261235,126.015434 105.91872,126.634118 C106.571624,127.252802 107.607107,127.220722 108.223356,126.569959 C108.846478,125.914612 108.812115,124.878889 108.161502,124.257914" id="Fill-217"></path>
                        <path d="M116.42951,115.487184 C115.767444,114.868246 114.738837,114.898046 114.115716,115.553662 C113.497177,116.209278 113.529249,117.240841 114.184442,117.859779 C114.837345,118.478717 115.872825,118.453501 116.491364,117.795593 C117.109903,117.137685 117.080121,116.106121 116.42951,115.487184" id="Fill-219"></path>
                        <path d="M124.690609,106.714301 C124.034711,106.09774 123.002705,106.125245 122.383501,106.783063 C121.764297,107.438588 121.79411,108.472302 122.450008,109.091155 C123.103612,109.710008 124.137912,109.677919 124.754823,109.022394 C125.37632,108.371452 125.3488,107.333154 124.690609,106.714301" id="Fill-221"></path>
                        <path d="M133.533787,98.9441061 C132.880234,98.3248543 131.846015,98.3546701 131.229153,99.0083248 C130.607704,99.6619795 130.637515,100.698653 131.291068,101.317905 C131.946915,101.937156 132.981134,101.907341 133.600289,101.251392 C134.219445,100.595444 134.191927,99.5633579 133.533787,98.9441061" id="Fill-223"></path>
                        <path d="M140.014416,90.5414859 C139.356726,89.9184605 138.325504,89.9482374 137.70448,90.6033303 C137.088039,91.2630043 137.113247,92.2960354 137.770937,92.9098987 C138.426335,93.5329242 139.459848,93.5008567 140.076289,92.8457638 C140.697313,92.1906708 140.669814,91.1553492 140.014416,90.5414859" id="Fill-225"></path>
                        <path d="M148.280792,81.7703128 C147.625585,81.144741 146.592374,81.1791131 145.971531,81.8298911 C145.350688,82.4852521 145.382761,83.523289 146.037968,84.139695 C146.695466,84.7606839 147.726386,84.7308947 148.342647,84.0686593 C148.96349,83.4201727 148.935999,82.3867188 148.280792,81.7703128" id="Fill-227"></path>
                        <path d="M157.542457,72.4169361 C156.891552,71.8003757 155.857897,71.8255882 155.236788,72.4856975 C154.620262,73.1389307 154.645473,74.1703516 155.303253,74.7937882 C155.95645,75.4126407 156.987813,75.37826 157.608922,74.7250268 C158.232324,74.0717936 158.200237,73.0426648 157.542457,72.4169361" id="Fill-229"></path>
                        <path d="M83.497163,165.823285 C82.8437021,165.204626 81.8119217,165.234413 81.1882678,165.889734 C80.5760781,166.549637 80.6012994,167.583028 81.2547603,168.201688 C81.9150997,168.813473 82.9468801,168.788269 83.5682412,168.135239 C84.1873095,167.479918 84.1529168,166.441945 83.497163,165.823285" id="Fill-231"></path>
                        <path d="M91.7643938,157.057282 C91.1090969,156.432089 90.082618,156.46186 89.4593987,157.116824 C88.8384705,157.771789 88.8682568,158.802327 89.5258448,159.427521 C90.1834329,160.045844 91.2122031,160.016073 91.8308399,159.354238 C92.4540593,158.706144 92.4196906,157.675605 91.7643938,157.057282" id="Fill-233"></path>
                        <path d="M99.8196963,149.064893 C99.1636325,148.449835 98.135952,148.481965 97.5142971,149.131448 C96.8926421,149.787816 96.9247571,150.827447 97.5785271,151.44021 C98.232297,152.059859 99.2714471,152.034614 99.8862203,151.380541 C100.505581,150.724173 100.478054,149.689131 99.8196963,149.064893" id="Fill-235"></path>
                        <path d="M106.511199,139.875238 C105.855468,139.254093 104.821431,139.286182 104.202385,139.941708 C103.583339,140.597234 103.613144,141.630948 104.266582,142.249801 C104.924606,142.868654 105.95635,142.836565 106.575396,142.183331 C107.194443,141.534682 107.166929,140.494092 106.511199,139.875238" id="Fill-237"></path>
                        <path d="M116.354756,131.525199 C115.699013,130.906394 114.664957,130.936188 114.043606,131.591663 C113.429134,132.247138 113.454354,133.280771 114.110097,133.899576 C114.768133,134.520673 115.80219,134.486295 116.416662,133.835404 C117.038013,133.175345 117.010499,132.146296 116.354756,131.525199" id="Fill-239"></path>
                        <path d="M123.042942,122.331919 C122.38785,121.712932 121.354821,121.740443 120.734087,122.398403 C120.117934,123.051778 120.14313,124.085715 120.800512,124.704702 C121.455604,125.323689 122.490924,125.296178 123.109368,124.638218 C123.727811,123.982551 123.698034,122.950906 123.042942,122.331919" id="Fill-241"></path>
                        <path d="M132.673269,114.769499 C132.022212,114.150742 130.988316,114.182826 130.367062,114.835958 C129.7481,115.489091 129.775609,116.520353 130.435835,117.143694 C131.086892,117.762451 132.125373,117.737242 132.742042,117.074943 C133.361004,116.419519 133.32891,115.385965 132.673269,114.769499" id="Fill-243"></path>
                        <path d="M139.573003,104.792483 C138.922124,104.167107 137.886219,104.199177 137.267426,104.852042 C136.648633,105.51178 136.676135,106.544911 137.336181,107.163415 C137.989351,107.779628 139.020673,107.752139 139.641758,107.096983 C140.262842,106.441827 140.228465,105.408696 139.573003,104.792483" id="Fill-245"></path>
                        <path d="M148.419246,97.017721 C147.763515,96.3984447 146.734064,96.4236744 146.112725,97.0842359 C145.491386,97.7333293 145.521192,98.774631 146.174629,99.3870266 C146.832653,100.008597 147.86669,99.9810732 148.485736,99.3250989 C149.10249,98.6691247 149.074977,97.6347038 148.419246,97.017721" id="Fill-247"></path>
                        <path d="M155.684564,88.8207209 C155.030922,88.2037507 153.998855,88.2312735 153.379615,88.8872345 C152.758081,89.5431954 152.785603,90.5775953 153.446126,91.1945655 C154.099768,91.8138293 155.131835,91.7863065 155.751075,91.1303456 C156.372609,90.4743846 156.338206,89.4399847 155.684564,88.8207209" id="Fill-249"></path>
                        <path d="M165.738053,79.6825457 C165.084781,79.0659847 164.051006,79.0934893 163.429825,79.7513071 C162.81552,80.4045408 162.840734,81.4359625 163.494006,82.0593995 C164.154155,82.6782525 165.187929,82.6461639 165.802234,81.9906381 C166.425708,81.3396964 166.39591,80.3013987 165.738053,79.6825457" id="Fill-251"></path>
                        <path d="M91.3311229,171.299648 C90.6732155,170.685558 89.6416533,170.710763 89.0181313,171.366098 C88.4037787,172.021432 88.4289946,173.059427 89.0869021,173.671226 C89.7425172,174.296772 90.7740793,174.264693 91.395309,173.61165 C92.011954,172.949441 91.9844456,171.922903 91.3311229,171.299648" id="Fill-253"></path>
                        <path d="M99.3800563,163.318445 C98.7283387,162.699519 97.6956876,162.72932 97.0760969,163.384922 C96.4565062,164.040524 96.4863384,165.078943 97.138056,165.693284 C97.7966579,166.312209 98.8316038,166.280117 99.4466049,165.631392 C100.06849,164.975789 100.040953,163.93737 99.3800563,163.318445" id="Fill-255"></path>
                        <path d="M106.649609,155.123548 C105.996973,154.50525 104.964204,154.53502 104.341337,155.189958 C103.72305,155.844895 103.75282,156.875392 104.405456,157.50056 C105.060382,158.118857 106.097731,158.086798 106.713728,157.42728 C107.334305,156.772342 107.306825,155.741846 106.649609,155.123548" id="Fill-257"></path>
                        <path d="M114.915094,146.353856 C114.264292,145.735099 113.230801,145.760308 112.607497,146.420315 C111.99336,147.075739 112.013984,148.107 112.673952,148.728049 C113.329337,149.346806 114.365121,149.314722 114.981549,148.659298 C115.602561,148.003874 115.570479,146.972613 114.915094,146.353856" id="Fill-259"></path>
                        <path d="M121.970309,138.945269 C121.314591,138.326754 120.280574,138.358825 119.66154,139.011702 C119.044798,139.66687 119.074604,140.70002 119.725736,141.318535 C120.383747,141.943923 121.417764,141.90727 122.034505,141.252102 C122.658125,140.594643 122.626027,139.566075 121.970309,138.945269" id="Fill-261"></path>
                        <path d="M131.236381,129.597975 C130.581058,128.978723 129.554539,129.008539 128.931294,129.662193 C128.310342,130.318141 128.337838,131.357108 128.997743,131.971773 C129.653066,132.591025 130.684169,132.561209 131.30283,131.905261 C131.921491,131.249313 131.893995,130.217226 131.236381,129.597975" id="Fill-263"></path>
                        <path d="M139.500613,120.828988 C138.847633,120.208035 137.814321,120.23324 137.198,120.895437 C136.577096,121.546177 136.60459,122.57957 137.259861,123.200523 C137.917423,123.819184 138.948444,123.789396 139.569348,123.134074 C140.187961,122.478751 140.160467,121.447649 139.500613,120.828988" id="Fill-265"></path>
                        <path d="M147.560558,112.844381 C146.905006,112.225263 145.871251,112.252779 145.250081,112.904 C144.631204,113.564393 144.661002,114.596257 145.316553,115.213082 C145.974397,115.836786 147.008152,115.806977 147.622445,115.15117 C148.243615,114.49307 148.213817,113.461206 147.560558,112.844381" id="Fill-267"></path>
                        <path d="M155.245066,103.070916 C154.592328,102.452353 153.557107,102.482136 152.938723,103.137354 C152.320339,103.792573 152.350113,104.830384 153.005142,105.446656 C153.660171,106.060637 154.695392,106.037727 155.311485,105.382509 C155.93216,104.724999 155.904676,103.689479 155.245066,103.070916" id="Fill-269"></path>
                        <path d="M164.089309,95.2987583 C163.43382,94.6816317 162.400165,94.7091615 161.781347,95.3652887 C161.164821,96.0214159 161.192324,97.0560781 161.850105,97.6732047 C162.503301,98.2926255 163.534665,98.2628016 164.153483,97.6089685 C164.776885,96.9574296 164.74709,95.9204733 164.089309,95.2987583" id="Fill-271"></path>
                        <path d="M171.569731,86.3156022 C170.918307,85.6987527 169.881532,85.7262702 169.26222,86.3821027 C168.642907,87.0379352 168.668139,88.0698395 169.328738,88.6935684 C169.984751,89.3081247 171.014644,89.2806073 171.63625,88.6247747 C172.253269,87.9712353 172.22345,86.9347448 171.569731,86.3156022" id="Fill-273"></path>
                        <path d="M98.5240055,179.145213 C97.8661098,178.526373 96.8391508,178.556169 96.21564,179.211681 C95.5967138,179.867194 95.6242216,180.898594 96.2821173,181.517434 C96.9354282,182.136274 97.9692642,182.111062 98.5881904,181.457842 C99.2094089,180.795454 99.1773164,179.764054 98.5240055,179.145213" id="Fill-275"></path>
                        <path d="M106.789176,170.373704 C106.138271,169.754633 105.102324,169.784441 104.483506,170.440196 C103.862396,171.095952 103.889899,172.134615 104.549972,172.749099 C105.203168,173.36817 106.234532,173.33607 106.855642,172.680314 C107.47446,172.024558 107.444665,170.992774 106.789176,170.373704" id="Fill-277"></path>
                        <path d="M114.269098,161.390913 C113.611537,160.771613 112.582808,160.801431 111.959613,161.45743 C111.341001,162.11343 111.368495,163.145597 112.023766,163.764897 C112.681327,164.384198 113.714639,164.35438 114.333251,163.69838 C114.951863,163.04238 114.922078,162.010213 114.269098,161.390913" id="Fill-279"></path>
                        <path d="M122.325024,153.408025 C121.666834,152.789052 120.634829,152.818854 120.011039,153.469922 C119.396422,154.13016 119.423942,155.161782 120.079839,155.783048 C120.735736,156.402021 121.770034,156.369926 122.384651,155.714273 C123.00844,155.05862 122.976334,154.026998 122.325024,153.408025" id="Fill-281"></path>
                        <path d="M131.373525,144.848018 C130.722787,144.228864 129.689395,144.258675 129.068444,144.90764 C128.452075,145.570365 128.47728,146.597703 129.132601,147.221443 C129.787923,147.840598 130.823605,147.810787 131.444557,147.154941 C132.060925,146.499096 132.033429,145.467172 131.373525,144.848018" id="Fill-283"></path>
                        <path d="M138.064066,135.650056 C137.413161,135.033062 136.381797,135.065173 135.758396,135.721159 C135.139578,136.374851 135.167081,137.40929 135.824861,138.02399 C136.478058,138.647865 137.516297,138.615753 138.130531,137.962061 C138.751641,137.306076 138.721846,136.269343 138.064066,135.650056" id="Fill-285"></path>
                        <path d="M146.908435,127.880474 C146.252973,127.258881 145.221652,127.295581 144.605152,127.946991 C143.984068,128.605283 144.009278,129.635154 144.664739,130.25216 C145.324784,130.873752 146.360689,130.846228 146.974897,130.19023 C147.59369,129.534232 147.566188,128.502067 146.908435,127.880474" id="Fill-287"></path>
                        <path d="M154.596536,118.107226 C153.943443,117.493208 152.909953,117.518411 152.291233,118.17596 C151.674806,118.828926 151.697721,119.8668 152.353105,120.483109 C153.013073,121.104 154.044272,121.071924 154.662991,120.418958 C155.286294,119.7637 155.25192,118.728117 154.596536,118.107226" id="Fill-289"></path>
                        <path d="M162.441833,110.916154 C161.788789,110.294706 160.755376,110.32681 160.134411,110.980363 C159.515738,111.633916 159.543235,112.668134 160.200861,113.287289 C160.858488,113.906445 161.891901,113.88122 162.5037,113.223081 C163.126956,112.569528 163.099459,111.535309 162.441833,110.916154" id="Fill-291"></path>
                        <path d="M169.918271,101.93184 C169.266873,101.315183 168.232433,101.340399 167.610852,101.99832 C166.993859,102.653948 167.021383,103.685532 167.677368,104.304481 C168.335648,104.923431 169.370087,104.898215 169.984787,104.240294 C170.608662,103.584666 170.571963,102.55079 169.918271,101.93184" id="Fill-293"></path>
                        <path d="M178.974749,93.3717698 C178.323211,92.7524575 177.288548,92.7822762 176.666833,93.4382885 C176.047413,94.0943009 176.077237,95.1264881 176.73107,95.7435067 C177.387197,96.3651128 178.424153,96.335294 179.04128,95.6815754 C179.658407,95.0232694 179.630877,93.9910821 178.974749,93.3717698" id="Fill-295"></path>
                        <path d="M105.14194,185.989193 C104.484212,185.370206 103.455222,185.400009 102.834161,186.055677 C102.210808,186.711344 102.245184,187.742988 102.898329,188.361975 C103.556058,188.980961 104.58734,188.955743 105.203817,188.295491 C105.824878,187.639824 105.797377,186.608179 105.14194,185.989193" id="Fill-297"></path>
                        <path d="M113.404703,177.218901 C112.753569,176.600289 111.717258,176.625491 111.100516,177.285344 C110.479188,177.940615 110.508993,178.973926 111.164712,179.592538 C111.818138,180.21115 112.852156,180.179074 113.471192,179.530677 C114.09252,178.875406 114.062714,177.844386 113.404703,177.218901" id="Fill-299"></path>
                        <path d="M121.673748,168.446068 C121.02059,167.826767 119.984704,167.856585 119.368215,168.512585 C118.747142,169.168585 118.772351,170.200752 119.432384,170.820052 C120.085542,171.439352 121.119136,171.409534 121.740209,170.753535 C122.356699,170.097535 122.329197,169.065368 121.673748,168.446068" id="Fill-301"></path>
                        <path d="M128.940767,160.251457 C128.283447,159.632386 127.250517,159.662193 126.632133,160.317949 C126.013749,160.973705 126.038943,162.005489 126.700842,162.626852 C127.351291,163.245922 128.386511,163.213823 129.004895,162.558067 C129.62557,161.902311 129.593505,160.870527 128.940767,160.251457" id="Fill-303"></path>
                        <path d="M137.204474,151.476041 C136.551444,150.864266 135.518052,150.887179 134.8971,151.549362 C134.280731,152.197797 134.305936,153.235752 134.963549,153.8544 C135.621162,154.473049 136.654554,154.443262 137.273214,153.787953 C137.889583,153.132644 137.862087,152.096981 137.204474,151.476041" id="Fill-305"></path>
                        <path d="M146.049626,143.707463 C145.394188,143.088997 144.362906,143.118775 143.739553,143.77389 C143.123075,144.429006 143.150576,145.466654 143.808305,146.08512 C144.463743,146.703586 145.495025,146.666936 146.111503,146.018692 C146.734855,145.356705 146.705063,144.3328 146.049626,143.707463" id="Fill-307"></path>
                        <path d="M153.527909,134.725861 C152.872549,134.104813 151.841388,134.136897 151.218108,134.790029 C150.599411,135.447744 150.6292,136.479005 151.286852,137.102345 C151.942212,137.716518 152.971082,137.689017 153.59207,137.033594 C154.213059,136.37817 154.180978,135.342326 153.527909,134.725861" id="Fill-309"></path>
                        <path d="M161.79241,125.956616 C161.139328,125.332996 160.103564,125.365094 159.484855,126.016227 C158.866146,126.671945 158.895935,127.708256 159.549017,128.327291 C160.206682,128.946326 161.242447,128.918813 161.856573,128.256217 C162.479865,127.602791 162.447784,126.573358 161.79241,125.956616" id="Fill-311"></path>
                        <path d="M170.058897,117.17822 C169.408436,116.561888 168.373196,116.593965 167.75251,117.249247 C167.134114,117.902238 167.159308,118.935568 167.81664,119.556482 C168.473972,120.175106 169.504631,120.14532 170.123027,119.487747 C170.746003,118.834756 170.713938,117.803717 170.058897,117.17822" id="Fill-313"></path>
                        <path d="M178.538601,107.6208 C177.882704,107.003625 176.848405,107.031157 176.226909,107.687335 C175.612292,108.343514 175.637519,109.375963 176.293416,109.995432 C176.951606,110.614902 177.983611,110.585075 178.600521,109.928897 C179.224311,109.279601 179.189911,108.242564 178.538601,107.6208" id="Fill-315"></path>
                        <path d="M186.379536,100.427595 C185.721846,99.8084997 184.692917,99.836015 184.074185,100.49409 C183.455452,101.149872 183.48066,102.181697 184.136058,102.800792 C184.796039,103.419887 185.824968,103.390079 186.445992,102.73659 C187.064725,102.078515 187.037226,101.04669 186.379536,100.427595" id="Fill-317"></path>
                        <path d="M112.755722,192.256062 C112.102743,191.636762 111.076305,191.66658 110.453111,192.32258 C109.832207,192.978579 109.85741,194.010746 110.514972,194.630047 C111.172533,195.249347 112.205845,195.219529 112.824457,194.563529 C113.443068,193.90753 113.413283,192.875363 112.755722,192.256062" id="Fill-319"></path>
                        <path d="M121.023995,183.484221 C120.368737,182.865151 119.335446,182.894958 118.714555,183.550714 C118.098246,184.20647 118.12574,185.240547 118.780997,185.859617 C119.438546,186.478687 120.469546,186.446587 121.090438,185.790831 C121.709038,185.141954 121.679253,184.105584 121.023995,183.484221" id="Fill-321"></path>
                        <path d="M128.291109,175.287135 C127.635826,174.6662 126.600203,174.705152 125.98387,175.360456 C125.362954,176.008887 125.39274,177.046834 126.048023,177.665478 C126.701016,178.284121 127.73893,178.252044 128.352972,177.596739 C128.973887,176.943726 128.948684,175.905779 128.291109,175.287135" id="Fill-323"></path>
                        <path d="M138.133463,166.94147 C137.48014,166.321989 136.448576,166.351816 135.827346,167.003418 C135.206115,167.657314 135.235916,168.698959 135.891532,169.318439 C136.547148,169.931037 137.583296,169.905799 138.199942,169.249608 C138.816588,168.593418 138.791372,167.563245 138.133463,166.94147" id="Fill-325"></path>
                        <path d="M144.612041,158.532112 C143.960871,157.918011 142.922208,157.943216 142.303138,158.605437 C141.684067,159.25391 141.713874,160.28505 142.371923,160.910609 C143.025387,161.529293 144.054878,161.497213 144.678534,160.841866 C145.297604,160.18881 145.265504,159.150796 144.612041,158.532112" id="Fill-327"></path>
                        <path d="M153.879397,149.184704 C153.223565,148.566418 152.18937,148.596187 151.572521,149.257983 C150.951086,149.906038 150.978604,150.936516 151.634435,151.561672 C152.29256,152.179959 153.324462,152.150189 153.94819,151.488394 C154.562746,150.833468 154.530642,149.802991 153.879397,149.184704" id="Fill-329"></path>
                        <path d="M161.72115,141.994197 C161.065713,141.374584 160.034432,141.399828 159.41108,142.053863 C158.796895,142.710194 158.822104,143.745177 159.477541,144.364789 C160.135269,144.984402 161.168841,144.954569 161.78761,144.302828 C162.406378,143.639613 162.376586,142.60922 161.72115,141.994197" id="Fill-331"></path>
                        <path d="M169.411704,132.221857 C168.756305,131.600529 167.722793,131.630335 167.101768,132.286053 C166.485327,132.941771 166.510535,133.973495 167.168225,134.597114 C167.823623,135.211563 168.854844,135.184051 169.473577,134.528333 C170.094601,133.872615 170.067102,132.838598 169.411704,132.221857" id="Fill-333"></path>
                        <path d="M177.465664,124.236876 C176.813998,123.617624 175.779133,123.64744 175.157297,124.303388 C174.54005,124.959336 174.56529,125.991422 175.22384,126.610674 C175.877801,127.229926 176.91496,127.20011 177.529913,126.546455 C178.149455,125.888214 178.12192,124.856127 177.465664,124.236876" id="Fill-335"></path>
                        <path d="M184.943899,115.255351 C184.285363,114.634121 183.257403,114.666214 182.63558,115.314952 C182.016051,115.977445 182.04588,117.009007 182.697533,117.627944 C183.356069,118.246882 184.388617,118.217081 185.010441,117.563758 C185.627676,116.908143 185.597846,115.874288 184.943899,115.255351" id="Fill-337"></path>
                        <path d="M190.899024,106.545322 C190.281408,107.203912 190.313551,108.236545 190.965608,108.853831 C191.622256,109.475705 192.660036,109.445874 193.279948,108.791873 C193.573833,108.477493 193.720775,108.075914 193.720775,107.672039 C193.539393,107.258986 193.351124,106.852817 193.162854,106.439764 C192.50391,105.868373 191.507457,105.905089 190.899024,106.545322" id="Fill-339"></path>
                        <path d="M121.126607,199.586528 C120.417656,199.145712 119.302173,199.166936 118.627926,199.633875 C118.543645,199.694283 118.476716,199.759589 118.409787,199.824895 C119.495524,200.095916 120.58126,200.337548 121.662039,200.57265 C121.726489,200.218365 121.552969,199.851018 121.126607,199.586528" id="Fill-341"></path>
                        <path d="M127.429999,191.118034 C126.774562,190.499277 125.743281,190.524486 125.119929,191.184493 C124.505744,191.839917 124.530953,192.87347 125.18639,193.492227 C125.844118,194.110983 126.87769,194.0789 127.496459,193.423476 C128.115228,192.768052 128.085435,191.739082 127.429999,191.118034" id="Fill-343"></path>
                        <path d="M135.486591,183.136575 C134.830898,182.511052 133.796922,182.547713 133.177912,183.196148 C132.558902,183.851457 132.586414,184.889412 133.242106,185.508061 C133.897798,186.126709 134.934067,186.096922 135.546199,185.441613 C136.169794,184.786304 136.142283,183.755223 135.486591,183.136575" id="Fill-345"></path>
                        <path d="M143.961586,173.571077 C143.307983,172.957143 142.273684,172.982342 141.652188,173.63751 C141.035278,174.292678 141.067385,175.33041 141.716402,175.942053 C142.376885,176.567441 143.40889,176.537661 144.0258,175.882493 C144.647296,175.227324 144.619776,174.196465 143.961586,173.571077" id="Fill-347"></path>
                        <path d="M152.803998,165.797068 C152.15298,165.182644 151.121438,165.214741 150.497928,165.863554 C149.881295,166.519244 149.90651,167.550925 150.562113,168.176811 C151.2223,168.79582 152.256134,168.763723 152.870475,168.108033 C153.493985,167.454635 153.4596,166.420661 152.803998,165.797068" id="Fill-349"></path>
                        <path d="M160.281684,156.821082 C159.630627,156.201323 158.594439,156.226573 157.975477,156.883058 C157.356515,157.537249 157.386316,158.572476 158.041958,159.192235 C158.699892,159.811994 159.729203,159.782154 160.348165,159.125668 C160.971712,158.469183 160.937325,157.436251 160.281684,156.821082" id="Fill-351"></path>
                        <path d="M169.123751,149.046876 C168.468441,148.426274 167.437358,148.458334 166.818709,149.113287 C166.200059,149.76137 166.229846,150.79876 166.885156,151.417072 C167.540466,152.042255 168.571549,152.010194 169.190198,151.350661 C169.81343,150.695708 169.783643,149.665188 169.123751,149.046876" id="Fill-353"></path>
                        <path d="M176.603484,140.065444 C175.950123,139.444225 174.916208,139.474026 174.294942,140.129629 C173.67826,140.785232 173.708063,141.819068 174.361424,142.437994 C175.01937,143.05692 176.048701,143.02712 176.672259,142.371517 C177.288941,141.715914 177.261431,140.68437 176.603484,140.065444" id="Fill-355"></path>
                        <path d="M184.869602,131.293548 C184.216342,130.672281 183.182586,130.702083 182.561416,131.36003 C181.94483,132.008807 181.972336,133.047309 182.632472,133.666284 C183.285732,134.285259 184.317196,134.255456 184.933782,133.599802 C185.554952,132.944147 185.529738,131.912522 184.869602,131.293548" id="Fill-357"></path>
                        <path d="M193.141044,122.521098 C192.484918,121.901883 191.450257,121.931697 190.828543,122.580726 C190.211417,123.238928 190.238947,124.27554 190.895073,124.892462 C191.553494,125.513971 192.58586,125.484156 193.207574,124.828247 C193.820112,124.172338 193.792582,123.140313 193.141044,122.521098" id="Fill-359"></path>
                        <path d="M136.41254,198.594181 C135.75895,197.974869 134.722379,198.006981 134.103188,198.656113 C133.488584,199.316713 133.513811,200.351194 134.169694,200.963625 C134.82787,201.589819 135.857561,201.557706 136.479045,200.901694 C137.100529,200.241094 137.06613,199.215788 136.41254,198.594181" id="Fill-361"></path>
                        <path d="M143.68298,190.40454 C143.025367,189.779189 141.994266,189.811258 141.371023,190.464098 C140.752363,191.119228 140.78215,192.1569 141.437472,192.77538 C142.092794,193.39386 143.128477,193.364081 143.742555,192.702078 C144.365798,192.05382 144.33372,191.02302 143.68298,190.40454" id="Fill-363"></path>
                        <path d="M151.943551,181.628028 C151.290368,181.009199 150.256735,181.038994 149.635638,181.694495 C149.019125,182.349996 149.048919,183.381379 149.702102,184.000209 C150.359869,184.619038 151.39121,184.596119 152.012307,183.933742 C152.631112,183.285117 152.601317,182.246858 151.943551,181.628028" id="Fill-365"></path>
                        <path d="M159.212012,173.431784 C158.556524,172.817565 157.522868,172.842775 156.906342,173.498248 C156.285232,174.153721 156.312735,175.185059 156.972808,175.810737 C157.626005,176.42954 158.657368,176.392871 159.278478,175.744273 C159.897296,175.081925 159.867501,174.05517 159.212012,173.431784" id="Fill-367"></path>
                        <path d="M168.689353,163.296505 C168.031625,162.677205 167.000344,162.707023 166.379284,163.363023 C165.765099,164.019022 165.790308,165.058071 166.445744,165.67049 C167.103472,166.28979 168.137045,166.259972 168.755813,165.603972 C169.374582,164.954854 169.344789,163.915806 168.689353,163.296505" id="Fill-369"></path>
                        <path d="M175.95371,155.10283 C175.301992,154.481405 174.264752,154.513508 173.647456,155.169329 C173.03016,155.825149 173.057697,156.857035 173.71171,157.476166 C174.370312,158.095297 175.405258,158.065487 176.017964,157.409667 C176.642144,156.753846 176.612312,155.721961 175.95371,155.10283" id="Fill-371"></path>
                        <path d="M184.219731,146.330384 C183.568801,145.711084 182.535106,145.740902 181.913973,146.396902 C181.297423,147.04602 181.322635,148.085069 181.978149,148.704369 C182.631371,149.323669 183.665066,149.293851 184.283907,148.637851 C184.907333,147.981852 184.879829,146.949685 184.219731,146.330384" id="Fill-373"></path>
                        <path d="M192.065396,139.136407 C191.407386,138.515467 190.375664,138.547545 189.758923,139.200563 C189.139889,139.858164 189.167402,140.889244 189.820826,141.510184 C190.483421,142.128833 191.510558,142.099046 192.131885,141.443737 C192.753211,140.790719 192.71882,139.755056 192.065396,139.136407" id="Fill-375"></path>
                        <path d="M198.468657,131.748535 C198.662943,132.010222 198.904575,132.149172 199.154371,132.183909 C199.169065,131.076947 199.159269,129.993143 199.131514,128.918603 C198.868657,128.962603 198.615596,129.127026 198.424575,129.421136 C197.982126,130.081144 198.004983,131.125579 198.468657,131.748535" id="Fill-377"></path>
                        <path d="M141.244592,204.113362 C141.589082,204.113362 141.930306,204.110097 142.265,204.092138 C141.940102,203.940301 141.559694,203.948464 141.244592,204.113362" id="Fill-379"></path>
                        <path d="M151.296725,196.670126 C150.643974,196.043945 149.611024,196.080645 148.988048,196.729762 C148.369652,197.385761 148.399427,198.42022 149.054468,199.044107 C149.70951,199.658819 150.740169,199.629001 151.358565,198.97759 C151.981541,198.321591 151.954057,197.289425 151.296725,196.670126" id="Fill-381"></path>
                        <path d="M159.355342,188.682921 C158.695039,188.064455 157.665608,188.094233 157.044281,188.749349 C156.425246,189.404465 156.452759,190.435241 157.11077,191.060579 C157.764195,191.679045 158.795919,191.642395 159.417246,190.994151 C160.038573,190.332163 160.004182,189.301387 159.355342,188.682921" id="Fill-383"></path>
                        <path d="M167.040931,178.911829 C166.389838,178.292842 165.353591,178.322645 164.734594,178.978313 C164.115596,179.63398 164.140815,180.665624 164.796493,181.284611 C165.454464,181.903597 166.486126,181.878379 167.109709,181.218127 C167.724121,180.56246 167.69661,179.530815 167.040931,178.911829" id="Fill-385"></path>
                        <path d="M174.886689,171.717401 C174.228705,171.0981 173.197021,171.127919 172.578011,171.783918 C171.959,172.439918 171.984219,173.472085 172.642204,174.091385 C173.300189,174.710686 174.331873,174.680867 174.946298,174.024868 C175.569893,173.368868 175.540089,172.336701 174.886689,171.717401" id="Fill-387"></path>
                        <path d="M183.361953,162.151169 C182.708285,161.538931 181.673885,161.56874 181.052328,162.224546 C180.435358,162.880351 180.465174,163.912213 181.116548,164.531331 C181.777096,165.150448 182.806909,165.120639 183.423879,164.464833 C184.04773,163.809027 184.017914,162.777165 183.361953,162.151169" id="Fill-389"></path>
                        <path d="M191.417856,154.17405 C190.764355,153.55475 189.730217,153.584568 189.108817,154.240567 C188.492004,154.889686 188.517226,155.928734 189.173021,156.548034 C189.833402,157.167335 190.867539,157.137517 191.479767,156.481517 C192.10346,155.825517 192.071358,154.79335 191.417856,154.17405" id="Fill-391"></path>
                        <path d="M196.91509,147.610091 C196.96407,147.684302 197.014682,147.745719 197.06856,147.799458 C197.197539,146.696522 197.313458,145.611498 197.417947,144.534152 C197.217131,144.61604 197.024478,144.779818 196.869376,145.043396 C196.42856,145.775275 196.449784,146.926833 196.91509,147.610091" id="Fill-393"></path>
                        <path d="M164.094858,194.0964 C163.46032,194.854234 163.490872,196.046631 164.160662,196.76207 C164.163012,196.76207 164.160662,196.76207 164.163012,196.770019 C165.107769,196.144673 166.014923,195.492829 166.903276,194.840986 C166.821021,194.538912 166.677663,194.250087 166.4638,194.019556 C165.78931,193.304118 164.731746,193.338565 164.094858,194.0964" id="Fill-395"></path>
                        <path d="M175.025219,186.967001 C174.367541,186.347701 173.33634,186.377519 172.715327,187.033518 C172.098898,187.689518 172.124105,188.721685 172.781782,189.340985 C173.43946,189.960286 174.470662,189.930468 175.087091,189.274468 C175.710395,188.625349 175.678313,187.586301 175.025219,186.967001" id="Fill-397"></path>
                        <path d="M181.256021,179.780799 C181.911624,180.400099 182.950045,180.370281 183.566678,179.714282 C184.187896,179.058282 184.155804,178.026115 183.500201,177.406815 C182.84689,176.787514 181.810762,176.817332 181.196421,177.473332 C180.57291,178.12245 180.605003,179.161499 181.256021,179.780799" id="Fill-399"></path>
                        <path d="M188.124748,169.880126 C187.715333,170.558213 187.736484,171.64363 188.16856,172.290568 C188.257695,172.424747 188.363448,172.525382 188.472222,172.609244 C188.822717,171.605293 189.150551,170.603738 189.463278,169.587806 C189.037245,169.182871 188.479776,169.283506 188.124748,169.880126" id="Fill-401"></path>
                    </g>
                </g>
            </g>
        </g>
    </g>
</svg>