<?xml version="1.0" encoding="UTF-8"?>
<svg width="150px" height="75px" viewBox="0 0 150 75" version="1.1" xmlns="http://www.w3.org/2000/svg" xmlns:xlink="http://www.w3.org/1999/xlink">
    <!-- Generator: sketchtool 59.1 (101010) - https://sketch.com -->
    <title>FB338CED-73C1-475C-AE3E-4BB68CEF8F04</title>
    <desc>Created with sketchtool.</desc>
    <g id="Splash-Page" stroke="none" stroke-width="1" fill="none" fill-rule="evenodd">
        <g transform="translate(-1392.000000, -6154.000000)" fill="#00004B" id="Footer">
            <g transform="translate(0.000000, 5717.000000)">
                <g id="Line-+-Group-Copy-2-+-Group-Copy-10-Mask">
                    <g id="Group-Copy-10" transform="translate(1392.000000, 437.000000)">
                        <path d="M4.79906649,40.6809149 C4.0843827,40.0452304 2.95091929,40.0758374 2.2763581,40.7491921 C1.59427392,41.4225467 1.62938119,42.4820208 2.34406498,43.1177053 C3.06125643,43.7533897 4.19221219,43.7227827 4.8717887,43.0517824 C5.54634989,42.3760734 5.51375028,41.3165993 4.79906649,40.6809149" id="Fill-125"></path>
                        <path d="M11.9391854,33.1363059 C11.2295725,32.503113 10.0936904,32.5360673 9.41416708,33.2045683 C8.73965871,33.880131 8.77225577,34.9440833 9.48437613,35.5772762 C10.2065264,36.212823 11.3348861,36.1798687 12.0119019,35.5066599 C12.6889178,34.835805 12.6588282,33.7742065 11.9391854,33.1363059" id="Fill-127"></path>
                        <path d="M21.7625757,23.9226402 C21.047697,23.287228 19.9189413,23.3131151 19.2366711,23.9908882 C18.561926,24.6568944 18.5920261,25.7229749 19.3069048,26.3583872 C20.0268002,26.9937994 21.1580643,26.9632055 21.8328094,26.2901392 C22.5125712,25.6170729 22.4774544,24.5580525 21.7625757,23.9226402" id="Fill-129"></path>
                        <path d="M30.6918475,15.5418891 C29.977331,14.9068605 28.844133,14.935084 28.1647156,15.6077439 C27.4903124,16.2827559 27.5203973,17.3411369 28.2374208,17.9738136 C28.9569514,18.6158981 30.0851353,18.5829707 30.7595385,17.9103107 C31.4389559,17.2400027 31.408871,16.1769177 30.6918475,15.5418891" id="Fill-131"></path>
                        <path d="M39.6210857,6.32288314 C38.8987387,5.68787936 37.7700714,5.71845361 37.0903629,6.39108725 C36.4206869,7.06607275 36.4482766,8.12676426 37.1656073,8.75706431 C37.8854463,9.3991237 39.0116054,9.36384571 39.6888058,8.69121207 C40.3685143,8.02328216 40.3359084,6.96259066 39.6210857,6.32288314" id="Fill-133"></path>
                        <path d="M46.0508929,1.00891745 C45.7026786,0.898302924 45.35625,0.782660466 45.0205357,0.660314097 C45.03125,0.672045941 45.0419643,0.685453762 45.0526786,0.695509628 C45.3330357,0.941878343 45.6955357,1.04411298 46.0508929,1.00891745" id="Fill-135"></path>
                        <path d="M3.01333459,56.6039192 C2.2937067,55.9666399 1.16787769,55.9972105 0.48836842,56.6721152 C-0.188633433,57.3399651 -0.158544462,58.4028813 0.558576019,59.0425122 C1.27820392,59.67744 2.40654034,59.6421662 3.0860496,58.9696131 C3.76305146,58.3041147 3.72544024,57.238847 3.01333459,56.6039192" id="Fill-137"></path>
                        <path d="M11.9432267,48.2230857 C11.2205417,47.5873889 10.0963649,47.6179966 9.4163384,48.2890098 C8.74133051,48.964732 8.76893306,50.0218722 9.48659945,50.6599234 C10.2017565,51.2932657 11.3334612,51.267367 12.0109784,50.5916448 C12.6884956,49.9182771 12.6583838,48.8587825 11.9432267,48.2230857" id="Fill-139"></path>
                        <path d="M20.8728488,39.8451616 C20.150996,39.2099105 19.0256074,39.2334383 18.3438575,39.9133923 C17.6671205,40.5792295 17.6997041,41.6450397 18.4190505,42.2802908 C19.1308776,42.9155419 20.2662919,42.8849558 20.938016,42.2120602 C21.614753,41.5391645 21.5896887,40.4780599 20.8728488,39.8451616" id="Fill-141"></path>
                        <path d="M29.7981521,30.6252032 C29.0779899,29.9878605 27.9513249,30.0207859 27.2738204,30.6957577 C26.5963159,31.3613223 26.6289364,32.4266959 27.3415708,33.0616867 C28.0617331,33.6990294 29.1909073,33.666104 29.8684118,32.993484 C30.5459164,32.320864 30.515805,31.2625459 29.7981521,30.6252032" id="Fill-143"></path>
                        <path d="M37.8357313,22.245502 C37.1133994,21.611975 35.9847559,21.6378813 35.3025536,22.3114453 C34.6328918,22.9873644 34.665497,24.0448127 35.3803046,24.6806948 C36.0976203,25.3165769 37.2262638,25.2883155 37.9009418,24.6171066 C38.5831441,23.9411875 38.5505388,22.8790289 37.8357313,22.245502" id="Fill-145"></path>
                        <path d="M45.8695483,13.8693106 C45.152302,13.2293039 44.0237675,13.2598925 43.3416311,13.9304878 C42.6670183,14.603436 42.7021283,15.6669766 43.4143589,16.3022775 C44.1341131,16.9375783 45.2626476,16.9093427 45.9422761,16.2293355 C46.616889,15.5610932 46.5867947,14.4999055 45.8695483,13.8693106" id="Fill-147"></path>
                        <path d="M55.6883639,4.64857522 C54.9764366,4.01360876 53.8458761,4.03947776 53.1665371,4.71677533 C52.4897049,5.39172116 52.5197863,6.44764688 53.2392339,7.08261334 C53.9586815,7.72228326 55.089242,7.68700735 55.7610606,7.0191167 C56.4403997,6.34652259 56.4078114,5.28354169 55.6883639,4.64857522" id="Fill-149"></path>
                        <path d="M2.95202233,74.0587873 C3.81276319,73.391568 3.77132011,72.3235456 2.85957239,71.686976 C2.06259012,71.1282093 0.867116712,71.088129 0,71.5266547 C0.344296341,72.5286625 0.69815647,73.5401009 1.04245281,74.5704007 C1.72785757,74.6269847 2.44195368,74.4572328 2.95202233,74.0587873" id="Fill-151"></path>
                        <path d="M11.9419693,63.3066132 C11.2218775,62.6709287 10.0928136,62.7015358 9.41537535,63.3748904 C8.74044609,64.0482451 8.77055446,65.1077191 9.48562821,65.7434036 C10.20572,66.3790881 11.3347838,66.348481 12.0122221,65.6774808 C12.6896604,65.0017717 12.657043,63.9422976 11.9419693,63.3066132" id="Fill-153"></path>
                        <path d="M19.9794942,54.9271288 C19.260034,54.2894384 18.1344674,54.3223818 17.4501028,54.9977219 C16.7757656,55.6636495 16.8058475,56.7296044 17.5253077,57.3649418 C18.2422611,57.997926 19.3728413,57.9696888 20.0471786,57.2967018 C20.7240226,56.6237149 20.6939407,55.5648193 19.9794942,54.9271288" id="Fill-155"></path>
                        <path d="M28.0134174,46.5471081 C27.294069,45.9114113 26.1686773,45.9420189 25.4869256,46.6130322 C24.8126931,47.281691 24.840264,48.3411857 25.5596123,48.9839457 C26.2764543,49.6172881 27.4068588,49.5913893 28.0810913,48.9156672 C28.7603366,48.2422995 28.7302593,47.1828049 28.0134174,46.5471081" id="Fill-157"></path>
                        <path d="M37.8363196,37.3282074 C37.1165364,36.6932046 35.9879564,36.7237788 35.3108084,37.3987633 C34.6336604,38.069044 34.6612479,39.1320858 35.3810311,39.7670886 C36.1008144,40.4020913 37.2293944,40.3691653 37.9040344,39.7012364 C38.5836903,39.0286038 38.548579,37.9632102 37.8363196,37.3282074" id="Fill-159"></path>
                        <path d="M45.8733654,29.788523 C45.1515395,29.151266 44.0236867,29.1818356 43.3419623,29.854365 C42.667757,30.5268945 42.7003394,31.5850703 43.4171525,32.2199757 C44.136472,32.8619357 45.2643248,32.8290146 45.9410365,32.1541337 C46.6177482,31.4816042 46.5851658,30.4210769 45.8733654,29.788523" id="Fill-161"></path>
                        <path d="M54.7996988,20.5731278 C54.080364,19.9328844 52.9499808,19.9634843 52.2757611,20.6366814 C51.5965287,21.3122323 51.6266054,22.3691047 52.3459401,23.0069942 C53.0627685,23.6401761 54.1931517,23.6119301 54.8698778,22.9410868 C55.5466039,22.2631821 55.5140208,21.2039559 54.7996988,20.5731278" id="Fill-163"></path>
                        <path d="M62.83213,12.1890451 C62.1151064,11.5537075 60.9844154,11.5842979 60.3100121,12.2572851 C59.6331018,12.9279192 59.6631867,13.9891683 60.3777032,14.626859 C61.0972338,15.2621966 62.2279248,15.2316063 62.9048351,14.556266 C63.5817455,13.8879849 63.5516606,12.8243827 62.83213,12.1890451" id="Fill-165"></path>
                        <path d="M71.4285714,5.87370577 C70.8327626,5.77817504 70.2369538,5.68096834 69.6428571,5.59046555 C69.6976442,5.67091247 69.7575675,5.74968342 69.8328996,5.81839851 C70.2797562,6.23236499 70.9645939,6.24577281 71.4285714,5.87370577" id="Fill-167"></path>
                        <path d="M19.0826622,70.0112772 C18.3701801,69.3756431 17.2362298,69.4062477 16.5588701,70.0724864 C15.8815104,70.748142 15.914124,71.8122407 16.6316235,72.4478748 C17.3466143,73.083509 18.4780559,73.0529043 19.1554156,72.3772488 C19.8327753,71.7063016 19.8001617,70.6469114 19.0826622,70.0112772" id="Fill-171"></path>
                        <path d="M28.0103731,61.6287926 C27.2929298,60.9955733 26.1691025,61.0261749 25.4867788,61.6970579 C24.8094722,62.3655868 24.8445918,63.4319375 25.557018,64.0628029 C26.2769699,64.7054381 27.4058142,64.6724824 28.0831209,63.9992455 C28.7604275,63.3260087 28.730325,62.2667198 28.0103731,61.6287926" id="Fill-173"></path>
                        <path d="M36.941975,53.2475794 C36.224491,52.6195472 35.0905653,52.643069 34.4132202,53.3157926 C33.7383839,53.9885162 33.7735055,55.0517018 34.4859721,55.6891427 C35.2059648,56.3218792 36.3348732,56.293653 37.0122182,55.6209294 C37.692072,54.9482058 37.6544417,53.8850203 36.941975,53.2475794" id="Fill-175"></path>
                        <path d="M44.9753254,44.8689151 C44.2607955,44.2380992 43.1300834,44.2639909 42.4506533,44.937175 C41.7787445,45.6103591 41.8038157,46.6766261 42.5208527,47.3050882 C43.2429039,47.9453192 44.3711089,47.9123661 45.0455248,47.239182 C45.724955,46.5636442 45.6948695,45.5067923 44.9753254,44.8689151" id="Fill-177"></path>
                        <path d="M53.9017018,36.4904181 C53.184705,35.8555016 52.0590702,35.8860717 51.3821851,36.5586128 C50.7002861,37.2288024 50.7378908,38.2893481 51.4523806,38.9266161 C52.1668704,39.5615325 53.3000261,39.5356656 53.9744042,38.8607729 C54.6537963,38.1835287 54.6237125,37.1253345 53.9017018,36.4904181" id="Fill-179"></path>
                        <path d="M62.8333388,28.1110825 C62.1192115,27.475398 60.9866307,27.506005 60.3100891,28.1793597 C59.6335474,28.8480056 59.6611102,29.9121884 60.3827546,30.5478729 C61.0968819,31.1835573 62.226957,31.1529503 62.9060043,30.48195 C63.582546,29.8109498 63.5499717,28.7467669 62.8333388,28.1110825" id="Fill-181"></path>
                        <path d="M70.8706262,18.8938039 C70.1561103,18.2584666 69.0204062,18.2867038 68.3485106,18.9620438 C67.6690938,19.6279714 67.6966716,20.6939261 68.4162016,21.3316165 C69.1357316,21.9669538 70.2639145,21.9340104 70.9433313,21.2610235 C71.617734,20.5927428 71.5851421,19.5291411 70.8706262,18.8938039" id="Fill-183"></path>
                        <path d="M79.7982611,10.5147693 C79.081196,9.87934609 77.9504396,9.90758712 77.2709829,10.5759582 C76.5965406,11.2513895 76.6291345,12.3151349 77.3436923,12.9505581 C78.0632646,13.5859812 79.1915137,13.5553868 79.8709705,12.8823089 C80.5454128,12.209231 80.5153261,11.147839 79.7982611,10.5147693" id="Fill-185"></path>
                        <path d="M35.1552404,70.0131571 C34.440027,69.3754542 33.3107427,69.4036919 32.6306626,70.0790453 C31.9556015,70.7520455 31.9832062,71.813315 32.7009291,72.451018 C33.4186521,73.0816616 34.5529555,73.0534238 35.225507,72.3780704 C35.9030776,71.7050702 35.8729634,70.6461538 35.1552404,70.0131571" id="Fill-193"></path>
                        <path d="M44.9770175,60.7943297 C44.2597421,60.1564024 43.1361777,60.1870041 42.4540136,60.862595 C41.7743575,61.5358319 41.8069609,62.5927669 42.5217284,63.2283402 C43.2415119,63.8662675 44.3751081,63.8333119 45.0472403,63.1647829 C45.7243885,62.4891919 45.694293,61.4299031 44.9770175,60.7943297" id="Fill-195"></path>
                        <path d="M53.0139416,51.5745816 C52.2945513,50.9391584 51.1665876,50.9697529 50.4847961,51.6428307 C49.8130311,52.3159086 49.8406035,53.3796541 50.5599937,54.0103704 C51.2768774,54.6457936 52.4073477,54.6175525 53.084126,53.9491815 C53.7609042,53.2737502 53.7283186,52.2100048 53.0139416,51.5745816" id="Fill-197"></path>
                        <path d="M62.8287496,43.194627 C62.116072,42.5596604 60.9868293,42.5902329 60.3092837,43.2604754 C59.6317381,43.9354214 59.6643607,44.9936991 60.3795477,45.6310174 C61.0972442,46.265984 62.2289963,46.240115 62.901523,45.5604656 C63.5840875,44.8878713 63.5514649,43.8295936 62.8287496,43.194627" id="Fill-199"></path>
                        <path d="M70.8697166,33.9769839 C70.1527772,33.343592 69.0222189,33.3694928 68.345388,34.0452678 C67.6685571,34.7139791 67.6986384,35.7782659 68.4155778,36.4140125 C69.1375308,37.0497591 70.2655823,37.0191491 70.9424132,36.3457286 C71.6192441,35.6770174 71.5841492,34.6127305 70.8697166,33.9769839" id="Fill-201"></path>
                        <path d="M78.0150132,26.4371652 C77.2978081,25.7976321 76.1643232,25.8305493 75.4872415,26.5053507 C74.8101598,27.1778009 74.84276,28.2382031 75.5599651,28.8730337 C76.2771701,29.5078643 77.410655,29.4772984 78.0827213,28.802497 C78.759803,28.1300468 78.7297105,27.074347 78.0150132,26.4371652" id="Fill-203"></path>
                        <path d="M87.8322338,17.2171423 C87.1154335,16.5820266 85.9901072,16.610254 85.308395,17.290063 C84.6316955,17.9557582 84.6642773,19.0142843 85.3810776,19.6517522 C86.1028905,20.2915724 87.2307231,20.2586405 87.9049164,19.5858884 C88.5841222,18.9154885 88.5490341,17.8546102 87.8322338,17.2171423" id="Fill-205"></path>
                        <path d="M95.5357143,10.2580297 C94.9404762,10.0435045 94.3435661,9.84071122 93.75,9.64964977 C93.8085206,9.83233134 93.9021536,9.99657715 94.0509631,10.1390352 C94.4656233,10.5261861 95.0825976,10.5647336 95.5357143,10.2580297" id="Fill-207"></path>
                        <path d="M52.1215696,67.495355 C51.4024448,66.8602535 50.2748971,66.8908324 49.5958629,67.5706263 C48.9168286,68.2363068 48.9494022,69.2995138 49.668527,69.9346154 C50.3826406,70.5697169 51.5151995,70.5367857 52.1892225,69.868753 C52.8707624,69.1960158 52.8331775,68.1328088 52.1215696,67.495355" id="Fill-217"></path>
                        <path d="M61.0520883,59.954426 C60.3279539,59.3190638 59.2029146,59.3496553 58.5213763,60.0226686 C57.8448494,60.6956819 57.8799285,61.7546189 58.596546,62.3899811 C59.3106578,63.0253433 60.4432141,62.9994582 61.119741,62.3240917 C61.796268,61.6487252 61.7636945,60.5897882 61.0520883,59.954426" id="Fill-219"></path>
                        <path d="M69.9750511,50.7353098 C69.2576631,50.1023876 68.1289058,50.1306221 67.4516514,50.8058959 C66.7743971,51.4788169 66.8070056,52.5399615 67.5243936,53.1752366 C68.2392732,53.8105117 69.3705388,53.7775715 70.0452849,53.1046505 C70.7250476,52.4364352 70.6949474,51.3705849 69.9750511,50.7353098" id="Fill-221"></path>
                        <path d="M78.0104603,42.3571551 C77.2956367,41.7214706 76.1644596,41.7520776 75.4897664,42.4230779 C74.8100568,43.0940782 74.8426628,44.158261 75.5574865,44.7939455 C76.2748183,45.4296299 77.4059954,45.3990229 78.0831968,44.7256683 C78.7603981,44.0523136 78.7303003,42.9928395 78.0104603,42.3571551" id="Fill-223"></path>
                        <path d="M86.9419888,33.9804553 C86.2226404,33.3408971 85.0947423,33.3714642 84.415497,34.0439409 C83.7412645,34.7211202 83.7688354,35.7815641 84.4881838,36.4117171 C85.2050257,37.0512753 86.3354303,37.0183569 87.0096627,36.3458802 C87.688908,35.6734035 87.6588307,34.6106083 86.9419888,33.9804553" id="Fill-225"></path>
                        <path d="M94.9778661,24.7630939 C94.2612336,24.1209217 93.1311592,24.1562059 92.4521123,24.8242532 C91.7730654,25.4970051 91.8081453,26.5625876 92.5247778,27.1953507 C93.2439161,27.8328184 94.3714847,27.8022388 95.0455202,27.1224301 C95.7245671,26.456735 95.6944986,25.3958571 94.9778661,24.7630939" id="Fill-227"></path>
                        <path d="M104.794533,15.540627 C104.082606,14.9077053 102.952046,14.9335868 102.272707,15.611213 C101.598382,16.2817806 101.625956,17.3405716 102.345404,17.9805519 C103.059837,18.6158264 104.187891,18.5805334 104.867229,17.9099658 C105.549075,17.2393982 105.51398,16.1829601 104.794533,15.540627" id="Fill-229"></path>
                        <path d="M60.155981,75.0381266 C59.4387621,74.402901 58.307763,74.4334859 57.6281604,75.1063545 C56.9560811,75.7792232 56.9836665,76.8402853 57.7008854,77.4755109 C58.4206121,78.1130892 59.5516112,78.0777989 60.2236905,77.4096356 C60.9032931,76.7320616 60.8732,75.6757049 60.155981,75.0381266" id="Fill-239"></path>
                        <path d="M69.0834373,66.6592212 C68.3669304,66.0238088 67.2370543,66.0520493 66.5581265,66.7274692 C65.8842092,67.3981823 65.9117672,68.4595564 66.6307793,69.0949688 C67.3472861,69.7303812 68.4796675,69.7021406 69.15609,69.0267208 C69.8325126,68.3536543 69.7999441,67.2946336 69.0834373,66.6592212" id="Fill-241"></path>
                        <path d="M78.0102132,57.4394789 C77.2981203,56.8043021 76.1672967,56.8372372 75.4877995,57.5077016 C74.8108098,58.1781659 74.8408982,59.2367939 75.5630206,59.8766757 C76.2751135,60.5118525 77.4109519,60.485975 78.0854343,59.8061005 C78.7624241,59.1332836 78.7273209,58.0723031 78.0102132,57.4394789" id="Fill-243"></path>
                        <path d="M85.1522477,49.0654743 C84.4403494,48.4235029 83.3073281,48.4564245 82.6305234,49.1266145 C81.9537186,49.803859 81.9837988,50.8644052 82.7057239,51.499322 C83.4201289,52.1318872 84.5481368,52.1036687 85.2274483,51.4311272 C85.9067597,50.7585857 85.8691594,49.6980396 85.1522477,49.0654743" id="Fill-245"></path>
                        <path d="M94.9767231,40.6826316 C94.2595178,40.0469219 93.1335555,40.0728212 92.4539657,40.7509115 C91.774376,41.4172295 91.8069763,42.4861635 92.5216739,43.1148098 C93.241387,43.7528739 94.3723648,43.7246202 95.0494468,43.0512388 C95.7240211,42.3778574 95.6939285,41.3159868 94.9767231,40.6826316" id="Fill-247"></path>
                        <path d="M103.904073,32.3001209 C103.189151,31.6667785 102.060328,31.6950317 101.383034,32.3683994 C100.703232,33.0417671 100.733334,34.1036162 101.455781,34.7369585 C102.170702,35.3726553 103.299525,35.3444021 103.976819,34.6710344 C104.656621,33.9976667 104.618994,32.9358176 103.904073,32.3001209" id="Fill-249"></path>
                        <path d="M112.831506,23.0816785 C112.116989,22.4487563 110.986298,22.4769908 110.306881,23.1522646 C109.634984,23.8228328 109.662562,24.8816245 110.377079,25.5216053 C111.099117,26.1568804 112.229808,26.1239402 112.901704,25.4510192 C113.583628,24.782804 113.551036,23.7169536 112.831506,23.0816785" id="Fill-251"></path>
                        <path d="M77.1180508,73.3627417 C76.4012914,72.7270572 75.2785354,72.7576642 74.5968621,73.4286645 C73.917695,74.1020191 73.9477688,75.1685564 74.6695405,75.7995321 C75.3863,76.4352165 76.5140682,76.4046095 77.1907292,75.7312548 C77.8673902,75.0579002 77.8373164,73.9984261 77.1180508,73.3627417" id="Fill-263"></path>
                        <path d="M85.151583,64.1476245 C84.4373861,63.5101941 83.3072009,63.5360677 82.6330993,64.2158366 C81.9539858,64.8838449 81.9840572,65.9446608 82.7007601,66.5820912 C83.4199688,67.2171695 84.5476481,67.1865916 85.2267616,66.5138791 C85.9033691,65.8411666 85.8732977,64.7827028 85.151583,64.1476245" id="Fill-265"></path>
                        <path d="M94.0856209,56.6042445 C93.3686111,55.968697 92.2379418,55.9969436 91.5585374,56.6654454 C90.88164,57.3433627 90.9142314,58.4026086 91.6312412,59.0358022 C92.350758,59.6760574 93.4814273,59.645457 94.1533106,58.9722474 C94.832715,58.296684 94.8001237,57.2374381 94.0856209,56.6042445" id="Fill-267"></path>
                        <path d="M103.009283,46.5463278 C102.29535,45.9113505 101.163078,45.9419234 100.48672,46.6145291 C99.8103628,47.2871347 99.8429282,48.3524855 100.559366,48.9851111 C101.275804,49.6153849 102.408076,49.5918672 103.081929,48.9192616 C103.760791,48.2443042 103.730731,47.1813051 103.009283,46.5463278" id="Fill-269"></path>
                        <path d="M111.938713,38.1661584 C111.221773,37.5326555 110.091212,37.5609158 109.41438,38.2344542 C108.740055,38.9079927 108.770136,39.9701109 109.489584,40.6036139 C110.204018,41.2394718 111.332071,41.2088564 112.008903,40.537673 C112.690749,39.8688447 112.658161,38.8043714 111.938713,38.1661584" id="Fill-271"></path>
                        <path d="M119.977387,29.786065 C119.264892,29.1528466 118.130919,29.1810943 117.453547,29.8543302 C116.776174,30.5275661 116.80377,31.5868533 117.526301,32.2271336 C118.243815,32.857998 119.370261,32.8297504 120.050142,32.1565145 C120.725006,31.4856325 120.692392,30.4216374 119.977387,29.786065" id="Fill-273"></path>
                        <path d="M93.1893608,70.8477694 C92.4724497,70.2096819 91.3444428,70.247355 90.6701453,70.9160518 C89.9908344,71.5918123 90.0184079,72.6490124 90.735319,73.2823907 C91.4572435,73.9204782 92.5902638,73.8922234 93.2620546,73.2188175 C93.9388587,72.5454115 93.9087785,71.4858568 93.1893608,70.8477694" id="Fill-287"></path>
                        <path d="M101.224095,62.4660534 C100.509775,61.8357418 99.379395,61.8616128 98.7026707,62.5366106 C98.0284528,63.2069047 98.0535167,64.2723194 98.7703432,64.9049829 C99.4921824,65.5423502 100.620056,65.5094235 101.296781,64.8391294 C101.978518,64.1664835 101.940922,63.1034207 101.224095,62.4660534" id="Fill-289"></path>
                        <path d="M111.047308,53.2518529 C110.333041,52.6139135 109.202746,52.6468698 108.523566,53.3177654 C107.846892,53.988661 107.876966,55.0503239 108.596245,55.6859092 C109.315525,56.3214946 110.44582,56.2956003 111.114975,55.6199967 C111.796662,54.9491011 111.766587,53.8874382 111.047308,53.2518529" id="Fill-291"></path>
                        <path d="M119.081625,45.7085598 C118.369157,45.0755385 117.23774,45.1014242 116.557885,45.7768037 C115.883049,46.4498301 115.913153,47.5087876 116.630637,48.1441621 C117.35063,48.7795367 118.482048,48.753651 119.154376,48.0782714 C119.836739,47.4052451 119.7966,46.3439343 119.081625,45.7085598" id="Fill-293"></path>
                        <path d="M128.904956,36.4910154 C128.192336,35.8552689 127.060674,35.8858789 126.380673,36.5592993 C125.703182,37.2327198 125.735802,38.2922975 126.450932,38.9256895 C127.168571,39.5637907 128.302742,39.5331807 128.977724,38.8621148 C129.652706,38.1863397 129.622596,37.126762 128.904956,36.4910154" id="Fill-295"></path>
                        <path d="M110.154002,70.0138289 C109.439694,69.3736598 108.306826,69.4066097 107.630113,70.0750215 C106.9534,70.7481405 106.985982,71.8119509 107.70029,72.4474128 C108.419611,73.0828748 109.552479,73.054632 110.224179,72.3744524 C110.905905,71.703687 110.870816,70.6469373 110.154002,70.0138289" id="Fill-311"></path>
                        <path d="M118.19,60.7890532 C117.478558,60.1563661 116.346265,60.1892941 115.667389,60.8619651 C114.991019,61.5322841 115.018575,62.5930346 115.737531,63.2304257 C116.456488,63.8654648 117.583772,63.8348888 118.260142,63.1598658 C118.941522,62.4895467 118.906451,61.4311483 118.19,60.7890532" id="Fill-313"></path>
                        <path d="M127.120973,51.5740154 C126.403586,50.9404628 125.272322,50.9687254 124.59256,51.6423166 C123.920323,52.3159078 123.947915,53.3757541 124.665302,54.0116619 C125.385197,54.6475696 126.513953,54.6169519 127.188698,53.9433607 C127.870968,53.2768351 127.833343,52.2122784 127.120973,51.5740154" id="Fill-315"></path>
                        <path d="M136.046558,44.0336029 C135.32721,43.3980794 134.201819,43.4263249 133.52508,44.1018629 C132.848342,44.7750471 132.875912,45.8342529 133.592754,46.4697765 C134.314608,47.1053 135.44,47.0747007 136.119245,46.4038703 C136.795983,45.7283323 136.765906,44.6691265 136.046558,44.0336029" id="Fill-317"></path>
                        <path d="M126.226625,67.4965573 C125.513865,66.8608729 124.381982,66.8914799 123.701848,67.5648345 C123.026734,68.2381892 123.054341,69.2976633 123.77463,69.9333477 C124.4899,70.5690322 125.624293,70.5384252 126.296897,69.8674249 C126.974521,69.1917159 126.944404,68.1322418 126.226625,67.4965573" id="Fill-335"></path>
                        <path d="M134.262906,59.9561276 C133.542632,59.3184128 132.418302,59.3513575 131.738182,60.0173106 C131.060572,60.6973829 131.093198,61.756319 131.805943,62.3916807 C132.526217,63.0270424 133.655567,62.9964509 134.335687,62.3257913 C135.010787,61.6527786 134.978161,60.5914893 134.262906,59.9561276" id="Fill-337"></path>
                        <path d="M141.556567,50.8015325 C140.881049,51.4775996 140.916206,52.5376351 141.629393,53.1713008 C142.347602,53.8096778 143.482673,53.7790545 144.160703,53.1076987 C144.482139,52.7849768 144.642857,52.3727407 144.642857,51.9581491 C144.444471,51.5341348 144.238551,51.1171875 144.032631,50.6931733 C143.31191,50.1066203 142.222041,50.1443105 141.556567,50.8015325" id="Fill-339"></path>
                        <path d="M134.260155,75.0400145 C133.545652,74.4022612 132.414982,74.4328546 131.735577,75.1082612 C131.061186,75.7742545 131.09127,76.8403145 131.813295,77.4757144 C132.527798,78.1111144 133.655961,78.0805211 134.330352,77.4074678 C135.009756,76.7344145 134.982179,75.6754145 134.260155,75.0400145" id="Fill-357"></path>
                        <path d="M143.19443,66.659331 C142.476792,66.0236843 141.345132,66.0542895 140.665132,66.7205415 C139.990151,67.3962104 140.020262,68.4603302 140.7379,69.0936227 C141.458047,69.7316238 142.587198,69.7010186 143.267198,69.0277038 C143.937161,68.3543891 143.90705,67.2949778 143.19443,66.659331" id="Fill-359"></path>
                        <path d="M148.926557,75.8100559 C149.139057,76.0786877 149.403343,76.2213241 149.676557,76.2569832 C149.692628,75.1206466 149.681914,74.0080827 149.651557,72.9050279 C149.364057,72.9501961 149.087271,73.1189825 148.878343,73.4208962 C148.394414,74.0984191 148.419414,75.1705694 148.926557,75.8100559" id="Fill-377"></path>
                    </g>
                </g>
            </g>
        </g>
    </g>
</svg>