<?xml version="1.0" encoding="UTF-8"?>
<svg width="62px" height="62px" viewBox="0 0 62 62" version="1.1" xmlns="http://www.w3.org/2000/svg" xmlns:xlink="http://www.w3.org/1999/xlink">
    <!-- Generator: sketchtool 57.1 (101010) - https://sketch.com -->
    <title>95523D7A-72E7-4C71-8FB9-6C7D693F7D88</title>
    <desc>Created with sketchtool.</desc>
    <defs>
        <path d="M30.6264246,0.124166667 C13.7113053,0.124166667 0,13.8083333 0,30.6879167 L0,30.6879167 C0,33.7804167 0.459715789,36.76375 1.3156807,39.5766667 L1.3156807,39.5766667 C3.12949123,45.5408333 6.72078596,50.7320833 11.4716,54.5375 L11.4716,54.5375 C13.8912667,56.4745833 16.6119825,58.0529167 19.5527439,59.1895833 L19.5527439,59.1895833 C22.9711754,60.515 26.6864807,61.2441667 30.5725614,61.25 L30.5725614,61.25 L30.6264246,61.25 C47.5415439,61.25 61.2528491,47.5675 61.2528491,30.6879167 L61.2528491,30.6879167 L61.2528491,30.6341667 C61.2470035,26.7516667 60.5133789,23.0395833 59.1839193,19.625 L59.1839193,19.625 C58.0448596,16.6954167 56.4644561,13.9845833 54.5262175,11.5733333 L54.5262175,11.5733333 C50.7157123,6.83541667 45.5185439,3.25333333 39.5480842,1.44208333 L39.5480842,1.44208333 C36.7259053,0.584583333 33.7296105,0.124166667 30.6264246,0.124166667 Z" id="path-1"></path>
        <path d="M53.1541511,10.3365517 L10.396462,53.004 L10.3247251,53.076 C5.60004065,49.3113103 2.0214882,44.1794483 0.167109691,38.289931 L0.310583521,38.1471724 L38.2789006,0.274758621" id="path-3"></path>
        <linearGradient x1="92.5234263%" y1="5.91158189%" x2="15.8965849%" y2="77.8295668%" id="linearGradient-5">
            <stop stop-color="#FDFDFB" offset="0%"></stop>
            <stop stop-color="#FFFFFF" stop-opacity="0" offset="100%"></stop>
        </linearGradient>
        <path d="M41.5887506,11.0590345 L11.1200511,41.4637241 L10.9417455,41.6416552 C7.10402788,41.5928276 3.4446159,40.8542069 0.0758835572,39.518069 L0.176232305,39.4175172 L39.5340893,0.125793103" id="path-6"></path>
        <linearGradient x1="92.5234263%" y1="5.91158189%" x2="15.8965849%" y2="77.8295668%" id="linearGradient-8">
            <stop stop-color="#FDFDFB" offset="0%"></stop>
            <stop stop-color="#FFFFFF" stop-opacity="0" offset="100%"></stop>
        </linearGradient>
    </defs>
    <g id="Inner-Page" stroke="none" stroke-width="1" fill="none" fill-rule="evenodd">
        <g id="Home-01" transform="translate(-515.000000, -1495.000000)">
            <g id="Services" transform="translate(355.000000, 1080.000000)">
                <g id="-Elements/Service/Single/Normal" transform="translate(0.000000, 370.000000)">
                    <g id="-Elements/Service/Single">
                        <g id="-Elements/Service/Single/Image/01--Elements/Service/Single/Big/Image/01" transform="translate(84.000000, 0.000000)">
                            <g id="Group-14-Copy" transform="translate(21.000000, 25.000000)">
                                <g id="Group-13">
                                    <g id="Group-16" transform="translate(55.115789, 18.750000)">
                                        <g id="Group-3" transform="translate(0.000000, 1.250000)">
                                            <mask id="mask-2" fill="white">
                                                <use xlink:href="#path-1"></use>
                                            </mask>
                                            <g id="Clip-2"></g>
                                            <path d="M30.6264246,0.124166667 C13.7113053,0.124166667 0,13.8083333 0,30.6879167 L0,30.6879167 C0,33.7804167 0.459715789,36.76375 1.3156807,39.5766667 L1.3156807,39.5766667 C3.12949123,45.5408333 6.72078596,50.7320833 11.4716,54.5375 L11.4716,54.5375 C13.8912667,56.4745833 16.6119825,58.0529167 19.5527439,59.1895833 L19.5527439,59.1895833 C22.9711754,60.515 26.6864807,61.2441667 30.5725614,61.25 L30.5725614,61.25 L30.6264246,61.25 C47.5415439,61.25 61.2528491,47.5675 61.2528491,30.6879167 L61.2528491,30.6879167 L61.2528491,30.6341667 C61.2470035,26.7516667 60.5133789,23.0395833 59.1839193,19.625 L59.1839193,19.625 C58.0448596,16.6954167 56.4644561,13.9845833 54.5262175,11.5733333 L54.5262175,11.5733333 C50.7157123,6.83541667 45.5185439,3.25333333 39.5480842,1.44208333 L39.5480842,1.44208333 C36.7259053,0.584583333 33.7296105,0.124166667 30.6264246,0.124166667 Z" id="Fill-1" fill="#7A19FF" mask="url(#mask-2)"></path>
                                        </g>
                                        <g id="Group-15" transform="translate(2.505263, 0.000000)">
                                            <path d="M40.6482092,31.2417931 C39.4353163,32.4310345 37.9491596,34.3518621 37.3449938,37.0427586 C37.0505822,38.3515862 37.0327516,39.1046897 37.1177578,39.8209655 C37.1745668,40.2997241 36.8046863,40.7222069 36.3216024,40.7222069 L23.8410379,40.7222069 C23.3579541,40.7222069 22.9884882,40.3001379 23.0448826,39.8213793 C23.1290594,39.1051034 23.1112289,38.352 22.8180612,37.0427586 C22.1861129,34.2417931 20.6045835,32.2762759 19.3705427,31.0998621 C18.9169,30.6682759 18.857603,29.966069 19.2411674,29.4686897 C20.7190308,27.5457931 22.2350433,25.322069 23.6639763,22.7788966 C25.6207769,19.3051034 27.034782,15.9244138 28.0631493,12.8102069 C28.2663348,12.1998621 29.1698882,12.3455172 29.1698882,12.9889655 L29.1698882,26.6817931 C29.1698882,27.4965517 28.804569,28.2678621 28.1763526,28.7875862 C27.2462607,29.5568276 26.7863981,30.8731034 27.2927031,32.244 C27.5904321,33.0504828 28.2522362,33.6765517 29.0695394,33.9471724 C31.1747898,34.6435862 33.1195651,33.1017931 33.1195651,31.1064828 C33.1195651,30.0616552 32.5883802,29.1417931 31.7793703,28.6013793 C31.1271034,28.1656552 30.7174151,27.4497931 30.7174151,26.6664828 L30.7174151,12.7998621 C30.7174151,12.2495172 31.4206857,12.0198621 31.7486851,12.4622069 C31.8349353,12.578069 31.9033549,12.6964138 31.9406747,12.8102069 C32.969042,15.9244138 34.3834617,19.3051034 36.3398477,22.7788966 C37.7691953,25.322069 39.2827198,27.6728276 40.7668032,29.6317241 C41.1358543,30.1245517 41.0848506,30.8102069 40.6482092,31.2417931" id="Fill-4" fill="#FFFFFF"></path>
                                            <path d="M37.7429471,47.8996138 L22.7126121,47.8996138 C21.5660655,47.8996138 20.6276803,46.9636138 20.6276803,45.8190621 C20.6276803,44.6749241 21.5660655,43.7389241 22.7126121,43.7389241 L37.7429471,43.7389241 C38.8894937,43.7389241 39.8274642,44.6749241 39.8274642,45.8190621 C39.8274642,46.9636138 38.8894937,47.8996138 37.7429471,47.8996138" id="Fill-6" fill="#FFFFFF"></path>
                                            <g id="Group-14">
                                                <g id="Group-10">
                                                    <mask id="mask-4" fill="white">
                                                        <use xlink:href="#path-3"></use>
                                                    </mask>
                                                    <g id="Clip-9"></g>
                                                    <path d="M51.5250044,11.5921889 L10.081949,53.0061153 L10.0124177,53.076 C5.43299903,49.4219127 1.96447323,44.440819 0.167109691,38.7243292 L0.306172255,38.5857647 L37.1071104,1.826 C42.8540919,3.57231474 47.8567269,7.02478059 51.5250044,11.5921889" id="Fill-8" fill="url(#linearGradient-5)" opacity="0.300000012" mask="url(#mask-4)"></path>
                                                </g>
                                                <g id="Group-13" transform="translate(18.245227, 18.206897)">
                                                    <mask id="mask-7" fill="white">
                                                        <use xlink:href="#path-6"></use>
                                                    </mask>
                                                    <g id="Clip-12"></g>
                                                    <path d="M40.1600941,12.1756928 L10.7399684,41.4702209 L10.5677991,41.6416552 C6.86215577,41.5946104 3.32868169,40.8829589 0.0758835572,39.5956071 L0.172778824,39.4987268 L38.1761435,1.64165517 C39.4513973,4.90887335 40.1544886,8.46075215 40.1600941,12.1756928" id="Fill-11" fill="url(#linearGradient-8)" opacity="0.300000012" mask="url(#mask-7)"></path>
                                                </g>
                                            </g>
                                        </g>
                                    </g>
                                </g>
                            </g>
                        </g>
                    </g>
                </g>
            </g>
        </g>
    </g>
</svg>