<?xml version="1.0" encoding="UTF-8"?>
<svg width="62px" height="63px" viewBox="0 0 62 63" version="1.1" xmlns="http://www.w3.org/2000/svg" xmlns:xlink="http://www.w3.org/1999/xlink">
    <!-- Generator: sketchtool 57.1 (101010) - https://sketch.com -->
    <title>BE258E43-3A3E-4A2B-ADD4-983CDEFCCD67</title>
    <desc>Created with sketchtool.</desc>
    <defs>
        <path d="M30.6709364,0.0698825503 C13.7262276,0.0698825503 0,13.7660403 0,30.6595302 L0,30.6595302 C0,33.8408305 0.496798728,36.9247064 1.39359046,39.8174329 L1.39359046,39.8174329 C3.23578276,45.6674245 6.79123038,50.7655621 11.4840422,54.5051007 L11.4840422,54.5051007 C13.8543407,56.4387919 16.5447159,57.9893624 19.4278786,59.1243372 L19.4278786,59.1243372 C22.774885,60.4508725 26.4102488,61.1858725 30.2219226,61.233557 L30.2219226,61.233557 C30.3661014,61.25 30.5263457,61.25 30.6709364,61.25 L30.6709364,61.25 C47.5995797,61.25 61.3249833,47.5526091 61.3249833,30.6595302 L61.3249833,30.6595302 C61.3249833,30.5160654 61.3249833,30.3561577 61.3089177,30.2118708 L61.3089177,30.2118708 C61.2607208,26.4082047 60.5081078,22.7644463 59.1948455,19.4236493 L59.1948455,19.4236493 C58.0418276,16.5473658 56.4884047,13.8782634 54.5667081,11.5133557 L54.5667081,11.5133557 C50.8192968,6.84643456 45.7091905,3.2980453 39.8481189,1.46013423 L39.8481189,1.46013423 C36.9493024,0.56522651 33.8581103,0.0698825503 30.6709364,0.0698825503 Z" id="path-1"></path>
        <path d="M53.229978,10.2469748 L10.2845618,53.1021695 C5.60669993,49.374544 2.06298963,44.2926477 0.226255432,38.4612926 L38.5582782,0.226189869" id="path-3"></path>
        <linearGradient x1="92.5234263%" y1="5.91158189%" x2="15.8965849%" y2="77.8295668%" id="linearGradient-5">
            <stop stop-color="#FDFDFB" offset="0%"></stop>
            <stop stop-color="#FFFFFF" stop-opacity="0" offset="100%"></stop>
        </linearGradient>
        <path d="M41.883535,10.856704 L10.8955746,41.7795636 C7.09604377,41.7320309 3.47185059,40.9993724 0.135506883,39.6770632 L39.775787,0.102850828" id="path-6"></path>
        <linearGradient x1="92.5234263%" y1="5.91158189%" x2="15.8965849%" y2="77.8295668%" id="linearGradient-8">
            <stop stop-color="#FDFDFB" offset="0%"></stop>
            <stop stop-color="#FFFFFF" stop-opacity="0" offset="100%"></stop>
        </linearGradient>
    </defs>
    <g id="Inner-Page" stroke="none" stroke-width="1" fill="none" fill-rule="evenodd">
        <g id="Home-01" transform="translate(-955.000000, -1450.000000)">
            <g id="Services" transform="translate(355.000000, 1080.000000)">
                <g id="-Elements/Service/Single/Hover" transform="translate(380.000000, 262.000000)">
                    <g id="-Elements/Service/Single">
                        <g transform="translate(60.000000, 64.500000)">
                            <g id="-Elements/Service/Single/Image/01--Elements/Service/Single/Big/Image/02">
                                <g transform="translate(84.000000, 0.000000)">
                                    <g id="Group-14-Copy-2" transform="translate(21.000000, 25.000000)">
                                        <g id="Group-13">
                                            <g id="Group-18" transform="translate(55.115789, 16.250000)">
                                                <g id="Group-3" transform="translate(0.000000, 3.750000)">
                                                    <mask id="mask-2" fill="white">
                                                        <use xlink:href="#path-1"></use>
                                                    </mask>
                                                    <g id="Clip-2"></g>
                                                    <path d="M30.6709364,0.0698825503 C13.7262276,0.0698825503 0,13.7660403 0,30.6595302 L0,30.6595302 C0,33.8408305 0.496798728,36.9247064 1.39359046,39.8174329 L1.39359046,39.8174329 C3.23578276,45.6674245 6.79123038,50.7655621 11.4840422,54.5051007 L11.4840422,54.5051007 C13.8543407,56.4387919 16.5447159,57.9893624 19.4278786,59.1243372 L19.4278786,59.1243372 C22.774885,60.4508725 26.4102488,61.1858725 30.2219226,61.233557 L30.2219226,61.233557 C30.3661014,61.25 30.5263457,61.25 30.6709364,61.25 L30.6709364,61.25 C47.5995797,61.25 61.3249833,47.5526091 61.3249833,30.6595302 L61.3249833,30.6595302 C61.3249833,30.5160654 61.3249833,30.3561577 61.3089177,30.2118708 L61.3089177,30.2118708 C61.2607208,26.4082047 60.5081078,22.7644463 59.1948455,19.4236493 L59.1948455,19.4236493 C58.0418276,16.5473658 56.4884047,13.8782634 54.5667081,11.5133557 L54.5667081,11.5133557 C50.8192968,6.84643456 45.7091905,3.2980453 39.8481189,1.46013423 L39.8481189,1.46013423 C36.9493024,0.56522651 33.8581103,0.0698825503 30.6709364,0.0698825503 Z" id="Fill-1" fill="#00D09C" mask="url(#mask-2)"></path>
                                                </g>
                                                <g id="Group-17" transform="translate(2.505263, 0.000000)">
                                                    <g id="Group-10">
                                                        <g id="Group-6">
                                                            <mask id="mask-4" fill="white">
                                                                <use xlink:href="#path-3"></use>
                                                            </mask>
                                                            <g id="Clip-5"></g>
                                                            <path d="M51.1439932,11.9207982 L9.88871272,53.1021695 C5.39495018,49.5201364 1.99070415,44.636727 0.226255432,39.0331309 L37.0497046,2.29140172 C42.6625687,4.0519019 47.5555313,7.4508367 51.1439932,11.9207982" id="Fill-4" fill="url(#linearGradient-5)" opacity="0.300000012" mask="url(#mask-4)"></path>
                                                        </g>
                                                        <g id="Group-9" transform="translate(18.067584, 18.029627)">
                                                            <mask id="mask-7" fill="white">
                                                                <use xlink:href="#path-6"></use>
                                                            </mask>
                                                            <g id="Clip-8"></g>
                                                            <path d="M40.3769448,11.9843612 L10.5072686,41.7795636 C6.84485402,41.7337643 3.35144963,41.0278235 0.135506883,39.7537346 L38.3452606,1.62266645 C39.6074934,4.83177538 40.3302394,8.33107809 40.3769448,11.9843612" id="Fill-7" fill="url(#linearGradient-8)" opacity="0.300000012" mask="url(#mask-7)"></path>
                                                        </g>
                                                    </g>
                                                    <g id="Group-19" transform="translate(8.768421, 23.750000)" fill="#FEFEFE">
                                                        <path d="M2.37552967,11.5137095 L11.0753326,5.55624007 C11.2005333,5.47393036 11.2736842,5.33122773 11.2736842,5.17927135 L11.2736842,2.95544815 C11.2736842,2.59455174 10.8863594,2.37635796 10.5965692,2.57555719 L0.195069155,9.74624248 C0.0731509332,9.82855219 0,9.97125482 0,10.1232112 L0,13.6230784 C0,13.7750348 0.0731509332,13.9177374 0.195069155,14.0000471 L10.5965692,21.1736546 C10.8863594,21.3733409 11.2736842,21.1580694 11.2736842,20.7971729 L11.2736842,18.6084166 C11.2736842,18.4564602 11.2005333,18.3137576 11.0753326,18.2314479 L2.37552967,12.2705692 C2.11621899,12.0903645 2.11621899,11.6944012 2.37552967,11.5137095" id="Fill-11"></path>
                                                        <path d="M39.8891414,9.74624591 L29.4876414,2.57555723 C29.1978511,2.3763579 28.8105263,2.59455178 28.8105263,2.95544836 L28.8105263,5.17927262 C28.8105263,5.33122907 28.8836772,5.47393177 29.0060644,5.55575447 L37.7058674,11.5137138 C37.9679915,11.6944056 37.9679915,12.089882 37.7058674,12.2705738 L29.0060644,18.2314553 C28.8836772,18.3137651 28.8105263,18.4564678 28.8105263,18.6084242 L28.8105263,20.7966946 C28.8105263,21.1580782 29.1978511,21.3733498 29.4876414,21.1736635 L39.8891414,14.0000525 C40.0110596,13.9177428 40.0842105,13.7750401 40.0842105,13.6230836 L40.0842105,10.1232148 C40.0842105,9.97125835 40.0110596,9.82855565 39.8891414,9.74624591" id="Fill-13"></path>
                                                        <path d="M25.7895206,0.00325632143 L24.1670718,0.185038027 C24.0020938,0.203843031 23.8599743,0.307511643 23.7953745,0.455058597 L21.7048256,5.20211666 L16.2272596,17.6510293 L13.8166933,23.1256964 C13.6775553,23.4424884 13.9424144,23.7872468 14.2947318,23.7467437 L15.9494805,23.5615867 C16.1139615,23.5427817 16.2560811,23.4391131 16.3211778,23.2920483 L18.4022851,18.5507764 L23.8634527,6.10186377 L26.2675591,0.624303633 C26.4066971,0.307511643 26.141341,-0.0372467641 25.7895206,0.00325632143" id="Fill-15"></path>
                                                    </g>
                                                </g>
                                            </g>
                                        </g>
                                    </g>
                                </g>
                            </g>
                        </g>
                    </g>
                </g>
            </g>
        </g>
    </g>
</svg>