<?xml version="1.0" encoding="UTF-8"?>
<svg width="329px" height="550px" viewBox="0 0 329 550" version="1.1" xmlns="http://www.w3.org/2000/svg" xmlns:xlink="http://www.w3.org/1999/xlink">
    <!-- Generator: Sketch 60.1 (88133) - https://sketch.com -->
    <title>Coming-soon-illustration</title>
    <desc>Created with Sketch.</desc>
    <g id="Inner-Page" stroke="none" stroke-width="1" fill="none" fill-rule="evenodd">
        <g id="Coming-Soon-" transform="translate(-1170.000000, -288.000000)">
            <g id="Coming-soon-illustration" transform="translate(1148.000000, 303.000000)">
                <g id="Group-3" transform="translate(186.000000, 267.500000) scale(-1, 1) translate(-186.000000, -267.500000) ">
                    <g id="Humaaan">
                        <g id="Head/Front/Airy" transform="translate(204.439782, 74.065465) rotate(7.000000) translate(-204.439782, -74.065465) translate(120.188675, 9.874704)">
                            <g id="Head" stroke-width="1" transform="translate(66.905291, 38.267569)" fill="#B28B67">
                                <path d="M47.259099,11.2752713 C54.4387934,24.6085834 53.5856591,58.4296352 44.3065438,60.81267 C40.6059772,61.7630385 32.722593,59.4349558 24.6992205,54.6165736 L29.7356848,90.1139531 L0,90.1139531 L10.2363883,42.5753746 C4.52750162,35.8987071 0.663661839,27.7164317 1.309332,18.547987 C3.16973755,-7.86956583 40.0794046,-2.0580408 47.259099,11.2752713 Z"></path>
                            </g>
                            <path d="M97.2158036,34.1757251 C93.2967264,33.5353989 82.7444383,33.0951568 80.7984079,33.095441 C79.5548026,33.095441 78.2071133,33.3785147 77.4705622,32.2408201 C76.8673867,31.3091781 77.088352,29.7335152 76.9083378,28.6523785 C76.6993165,27.3964524 76.402421,26.1567263 76.102113,24.9201264 C75.2475431,21.4013164 73.9553084,18.0536011 72.1472036,14.9105174 C68.7545187,9.01371826 63.7843632,4.39472947 57.5097446,1.70695092 C50.5807616,-1.26077496 42.7400478,-1.94032223 35.2869475,-1.33836442 C27.311152,-0.694343462 20.0912455,1.92891931 12.5607931,4.39757158 C5.38468156,6.74998175 -2.13155164,7.67593951 -9.63697831,6.52716073 C-17.1989971,5.36985564 -22.9128132,1.2863194 -29.2912314,-2.58945897 C-35.8209412,-6.55732154 -43.2831418,-9.15244748 -51.0024242,-8.55588967 C-58.2081115,-7.99883712 -64.8492994,-5.03452177 -70.8076845,-1.07461709 C-76.3824374,2.63035078 -80.9823266,7.08790802 -83.5793089,13.3615703 C-86.3730839,20.1101482 -86.3705245,27.5178103 -81.7763229,33.4819673 C-75.117219,42.1270818 -62.7548212,44.3626815 -52.4698386,44.1404289 C-46.5208381,44.0122499 -40.6781968,42.9302606 -35.0616396,40.962103 C-27.5712852,38.337135 -21.0984519,33.8881041 -14.0909792,30.2783467 C-10.8023784,28.5844522 -7.40315267,27.1932419 -3.84012255,26.1911157 C-0.3825984,25.2182632 3.02288373,24.7720528 6.15336784,26.8530419 C9.4650037,29.0545364 12.4325366,31.2170939 16.2210821,32.5952306 C19.8554923,33.9173777 23.7051801,34.6568934 27.5773341,34.6270513 C35.1111991,34.5690724 42.5378517,32.2303043 49.8550171,30.6637361 C55.8219337,29.3864942 62.206324,28.1135154 68.2895531,29.3413047 C70.8279525,29.8537362 74.5357334,30.9115677 75.452583,33.5399462 C60.0216965,36.3263458 53.9612322,55.3400272 58.3114335,69.2978883 C60.6592966,76.8314556 74.7726241,85.6381161 80.2600716,81.677606 C83.7365274,79.1685089 81.6259614,75.8745189 80.2600716,73.7000245 C77.64432,69.5357725 76.7493679,64.186647 81.5895604,61.2874158 C85.764582,58.786932 90.1543295,64.7249175 90.2373692,64.7183807 C91.3848532,64.6282859 101.300112,59.0413606 108.131544,50.8886196 C114.870778,51.2866475 115.893217,46.8592859 114.28402,43.2385362 C112.674823,39.6177866 102.630733,35.0610407 97.2158036,34.1757251 Z" id="hair" fill="#191847"></path>
                        </g>
                        <g id="Bottom/Standing/Sprint" transform="translate(0.000000, 239.578195)">
                            <path d="M256.703305,-12.1440598 C233.099621,7.11066415 242.384003,176.303661 240.809977,178.430876 C240.11041,179.376304 202.665367,187.36661 128.47485,202.401791 L131.700947,215.501213 C218.508144,211.33728 264.43608,206.033677 269.484757,199.590405 C276.713016,190.365483 285.577248,138.719107 296.077452,44.6512766 L256.703305,-12.1440598 Z" id="Leg" fill="#B28B67" transform="translate(212.276151, 101.678577) rotate(-55.000000) translate(-212.276151, -101.678577) "></path>
                            <path d="M141.018345,188.636891 L146.697352,209.735292 C211.423862,217.287316 254.06946,208.15173 269.060967,193.875615 C279.055305,184.358206 287.942836,132.852276 295.723559,39.3578269 L253.603765,-20.7954738 C197.410813,21.6100167 231.189775,160.804157 229.75737,163.985274 C228.324965,167.166391 194.200995,169.62473 141.018345,188.636891 Z" id="Pant" fill="#2F3676" transform="translate(218.370952, 95.827800) rotate(-55.000000) translate(-218.370952, -95.827800) "></path>
                            <g id="Accessories/Shoe/Flat-Sneaker" transform="translate(276.769737, 231.184410) rotate(20.000000) translate(-276.769737, -231.184410) translate(238.980638, 206.495656)" fill="#E4E4E4">
                                <path d="M3.50534061,30.864606 C1.99443812,34.798956 1.23898687,37.7215709 1.23898687,39.6324509 C1.23898687,41.8584954 1.61119612,45.106848 2.35561463,49.3775086 C4.94749903,49.3775086 28.2412006,49.3775086 72.2367192,49.3775086 C74.0526814,43.3960496 73.0044027,40.1668523 69.0918831,39.6899169 C65.1793636,39.2129814 61.9291671,38.7823468 59.3412938,38.3980132 L26.6347405,23.8708044 C26.1300045,23.6466168 25.5390953,23.8740461 25.3149076,24.378782 C25.3114329,24.386605 25.3080588,24.3944724 25.304786,24.402382 L23.1234759,29.6742718 L23.1234759,29.6742718 C19.5015061,31.3579919 16.5582796,32.1998519 14.2937964,32.1998519 C12.3695585,32.1998519 9.67853786,31.3900487 6.22073439,29.7704423 C5.22045436,29.3019195 4.02975437,29.7329938 3.56123152,30.7332739 C3.54104457,30.7763723 3.5224024,30.8201776 3.50534061,30.864606 Z" id="shoe"></path>
                            </g>
                            <polygon id="Leg" fill="#997659" points="161.068293 0 96.9557249 153.350382 33.9430496 282.995204 48.8097791 282.995204 211.462458 0"></polygon>
                            <g id="Accessories/Shoe/Flat-Sneaker" transform="translate(29.735685, 245.653105)" fill="#E4E4E4">
                                <path d="M3.50534061,30.864606 C1.99443812,34.798956 1.23898687,37.7215709 1.23898687,39.6324509 C1.23898687,41.8584954 1.61119612,45.106848 2.35561463,49.3775086 C4.94749903,49.3775086 28.2412006,49.3775086 72.2367192,49.3775086 C74.0526814,43.3960496 73.0044027,40.1668523 69.0918831,39.6899169 C65.1793636,39.2129814 61.9291671,38.7823468 59.3412938,38.3980132 L26.6347405,23.8708044 C26.1300045,23.6466168 25.5390953,23.8740461 25.3149076,24.378782 C25.3114329,24.386605 25.3080588,24.3944724 25.304786,24.402382 L23.1234759,29.6742718 L23.1234759,29.6742718 C19.5015061,31.3579919 16.5582796,32.1998519 14.2937964,32.1998519 C12.3695585,32.1998519 9.67853786,31.3900487 6.22073439,29.7704423 C5.22045436,29.3019195 4.02975437,29.7329938 3.56123152,30.7332739 C3.54104457,30.7763723 3.5224024,30.8201776 3.50534061,30.864606 Z" id="shoe"></path>
                            </g>
                            <path d="M39.6333919,256.062981 L72.6674296,262.23517 C98.2092548,224.821814 205.102836,71.414492 216.822702,2.84217094e-14 L143.281488,2.84217094e-14 C104.142893,51.6254468 63.9800263,218.030737 39.6333919,256.062981 Z" id="Pant" fill="#5C63AB"></path>
                        </g>
                        <g id="Body/Jacket-2" transform="translate(185.848030, 225.382161) rotate(7.000000) translate(-185.848030, -225.382161) translate(27.257711, 109.962235)">
                            <path d="M63.818086,101.223893 L89.2070544,106.242924 C63.6741151,153.651769 49.9812584,178.778485 48.1284843,181.623071 C43.9597427,188.023389 47.849263,199.753302 49.2860356,205.930355 C40.2725302,208.020802 43.8271798,194.504185 32.4207629,197.326331 C22.0095145,199.902256 13.1820312,206.512997 3.47396852,197.597358 C2.28041925,196.501233 1.40668475,193.075055 5.4760988,191.317785 C15.6144932,186.939784 30.5931171,178.742067 33.0219022,175.559382 C36.3339847,171.219223 46.5993792,146.440726 63.818086,101.223893 Z M314.935801,63.2713129 C310.943869,69.0805393 307.00718,75.3698465 308.602251,77.4057827 C310.197323,79.4417189 314.817897,77.1945997 316.643345,80.5054313 C317.86031,82.7126523 310.071686,85.3529497 293.277473,88.4263235 L259.654404,114.110542 L245.3194,95.8134602 L290.213552,76.1699594 C298.077961,68.3619534 305.672169,62.4275078 312.996175,58.3666225 C315.186192,57.671954 318.927734,57.4620865 314.935801,63.2713129 Z" id="Skin" fill="#B28B67"></path>
                            <path d="M152.762626,12.2130478 L163.275958,9.45537811 C188.488213,29.8890451 202.697144,83.0366851 218.814435,88.8261277 C234.052682,94.2998114 254.244338,85.946368 278.152904,74.9606129 L287.183272,91.1247648 C266.87316,117.25845 220.886268,141.859499 200.501666,131.895493 C167.910925,115.965117 154.93921,50.01711 152.762626,12.2130478 Z" id="Coat-Back" fill="#DB2721" transform="translate(219.972949, 71.807956) rotate(5.000000) translate(-219.972949, -71.807956) "></path>
                            <path d="M111.508818,140.725899 C154.466668,140.725899 186.065562,140.725899 206.305501,140.725899 C210.637226,140.725899 209.820995,134.49401 209.194818,131.349364 C201.967977,95.0563533 173.757134,55.9342436 173.757134,4.272056 L146.413308,0 C123.796452,36.2411246 115.97515,80.8612869 111.508818,140.725899 Z" id="Shirt" fill="#DDE3E9"></path>
                            <path d="M155.475999,0 C180.023457,83.3701554 186.790757,138.919853 175.777898,166.649091 L175.777898,166.649091 L90.4460413,166.649091 C91.7961119,146.358658 96.1250381,124.900753 102.054278,103.978937 C82.7290379,138.710823 66.485276,163.715297 53.3228294,178.993469 L33.4526454,175.115878 C46.2521141,96.0277396 83.3176673,37.6557804 144.649305,-9.9475983e-14 Z" id="Coat-Front" fill="#FF4133"></path>
                        </g>
                    </g>
                </g>
            </g>
        </g>
    </g>
</svg>