<?xml version="1.0" encoding="UTF-8"?>
<svg width="670px" height="106px" viewBox="0 0 670 106" version="1.1" xmlns="http://www.w3.org/2000/svg" xmlns:xlink="http://www.w3.org/1999/xlink">
    <!-- Generator: sketchtool 57.1 (101010) - https://sketch.com -->
    <title>E81A99B5-98C0-447C-A963-9685BB90B485</title>
    <desc>Created with sketchtool.</desc>
    <g id="Inner-Page" stroke="none" stroke-width="1" fill="none" fill-rule="evenodd">
        <g id="Coming-Soon-" transform="translate(-908.000000, -716.000000)" fill="#FFFFFF" fill-rule="nonzero">
            <path d="M960.927326,716 C976.049494,716 988.008677,719.79631 996.805233,727.389045 C1005.60179,734.98178 1010,745.824836 1010,759.918539 L978.718023,759.918539 C978.718023,753.963453 977.161353,749.249081 974.047965,745.775281 C970.934577,742.301481 966.511657,740.564607 960.77907,740.564607 C954.156944,740.564607 949.28926,742.648856 946.175872,746.817416 C943.062484,750.985976 941.505814,756.792098 941.505814,764.235955 L941.505814,773.764045 C941.505814,781.108651 943.062484,786.88996 946.175872,791.108146 C949.28926,795.326332 954.058107,797.435393 960.482558,797.435393 C966.808171,797.435393 971.601728,795.797769 974.863372,792.522472 C978.125016,789.247175 979.755814,784.632052 979.755814,778.676966 L1010,778.676966 C1010,792.671418 1005.72533,803.390412 997.175872,810.83427 C988.626411,818.278127 976.543683,822 960.927326,822 C943.53189,822 930.361963,817.533753 921.417151,808.601124 C912.472339,799.668495 908,786.468252 908,769 C908,751.531748 912.472339,738.331461 921.417151,729.398876 C930.361963,720.466247 943.53189,716 960.927326,716 Z M1078.92598,716 C1096.49448,716 1110.06545,720.515872 1119.6393,729.547753 C1129.21315,738.579633 1134,751.730251 1134,769 C1134,786.269749 1129.21315,799.420367 1119.6393,808.452247 C1110.06545,817.484128 1096.49448,822 1078.92598,822 C1061.35747,822 1047.81117,817.50894 1038.28668,808.526685 C1028.76218,799.544431 1024,786.369001 1024,769 C1024,751.630999 1028.76218,738.455569 1038.28668,729.473315 C1047.81117,720.49106 1061.35747,716 1078.92598,716 Z M1079.42612,741 C1072.43181,741 1067.11227,743.138722 1063.46735,747.41623 C1059.82243,751.693739 1058,757.463314 1058,764.725131 L1058,774.274869 C1058,781.536686 1059.82243,787.306261 1063.46735,791.58377 C1067.11227,795.861278 1072.43181,798 1079.42612,798 C1086.42042,798 1091.76459,795.861278 1095.45876,791.58377 C1099.15294,787.306261 1101,781.536686 1101,774.274869 L1101,764.725131 C1101,757.463314 1099.15294,751.693739 1095.45876,747.41623 C1091.76459,743.138722 1086.42042,741 1079.42612,741 Z M1240.30947,820 L1240.30947,783.232558 C1240.30947,778.686024 1240.48361,774.016012 1240.83192,769.222384 C1241.18022,764.428755 1241.5534,760.401179 1241.95146,757.139535 C1242.34952,753.877891 1242.5983,751.80233 1242.69782,750.912791 L1242.10073,750.912791 L1223.1432,820 L1197.31917,820 L1178.21238,751.061047 L1177.61529,751.061047 C1177.71481,751.950586 1177.98847,754.001437 1178.43629,757.213663 C1178.8841,760.425888 1179.30704,764.428755 1179.7051,769.222384 C1180.10316,774.016012 1180.30218,778.686024 1180.30218,783.232558 L1180.30218,820 L1150,820 L1150,718 L1196.57282,718 L1212.09709,776.857558 L1212.69417,776.857558 L1228.06917,718 L1273,718 L1273,820 L1240.30947,820 Z M1294,820 L1294,718 L1327,718 L1327,820 L1294,820 Z M1423.26131,820 L1380.22774,770.482558 L1380.22774,820 L1350,820 L1350,718 L1378.73869,718 L1421.77226,768.258721 L1421.77226,718 L1452,718 L1452,820 L1423.26131,820 Z M1525.86207,716 C1535.69384,716 1544.53237,717.488749 1552.37793,720.466292 C1560.22349,723.44382 1566.45515,727.835645 1571.0731,733.641854 C1575.69106,739.448063 1578,746.519621 1578,754.856742 L1546.56828,754.856742 C1546.56828,750.58893 1544.6814,747.139994 1540.90759,744.509831 C1537.13377,741.879668 1532.56554,740.564607 1527.20276,740.564607 C1519.45651,740.564607 1513.59726,742.624043 1509.62483,746.742978 C1505.65239,750.861912 1503.66621,756.692846 1503.66621,764.235955 L1503.66621,773.764045 C1503.66621,781.307154 1505.65239,787.138088 1509.62483,791.257022 C1513.59726,795.375957 1519.45651,797.435393 1527.20276,797.435393 C1532.56554,797.435393 1537.13377,796.169956 1540.90759,793.639045 C1544.6814,791.108133 1546.56828,787.857698 1546.56828,783.88764 L1523.32966,783.88764 L1523.32966,763.044944 L1578,763.044944 L1578,820.213483 L1561.01793,820.213483 L1557.74069,810.089888 C1548.40547,818.030002 1536.19042,822 1521.09517,822 C1504.11302,822 1491.35177,817.558565 1482.81103,808.675562 C1474.2703,799.792559 1470,786.567504 1470,769 C1470,751.630999 1474.84133,738.455569 1484.52414,729.473315 C1494.20694,720.49106 1507.98612,716 1525.86207,716 Z" id="COMING"></path>
        </g>
    </g>
</svg>