<?xml version="1.0" encoding="UTF-8"?>
<svg width="860px" height="378px" viewBox="0 0 860 378" version="1.1" xmlns="http://www.w3.org/2000/svg" xmlns:xlink="http://www.w3.org/1999/xlink">
    <!-- Generator: sketchtool 57.1 (101010) - https://sketch.com -->
    <title>A290AA95-DBA6-4F32-9E3D-A6CAE55B0A78</title>
    <desc>Created with sketchtool.</desc>
    <g id="Inner-Page" stroke="none" stroke-width="1" fill="none" fill-rule="evenodd" opacity="0.600000024">
        <g id="404-page" transform="translate(-530.000000, -286.000000)" fill="#FFFFFF" fill-rule="nonzero">
            <path d="M705.652841,286 L794,286 L794,664 L705.652841,664 L705.652841,592.195996 L530,592.195996 L597.15395,346.717476 L688.742639,346.717476 L645.709138,503.995998 L705.652831,503.995998 L705.652831,286 L705.652841,286 Z M960.5,373 C926.035167,373 898,402.614912 898,439.021797 L898,513.978203 C898,550.385088 926.035167,580 960.5,580 C994.964833,580 1023,550.385088 1023,513.978203 L1023,439.021797 C1023,402.614912 994.964833,373 960.5,373 Z M961,664 C881.595321,664 817,596.025032 817,512.465884 L817,437.534116 C817,353.974968 881.595321,286 961,286 C1040.40468,286 1105,353.974968 1105,437.534116 L1105,512.465884 C1105,596.025032 1040.40468,664 961,664 Z M1301.65284,286 L1390,286 L1390,664 L1301.65284,664 L1301.65284,592.195996 L1126,592.195996 L1193.15395,346.717476 L1284.74264,346.717476 L1241.70914,503.995998 L1301.65283,503.995998 L1301.65283,286 L1301.65284,286 Z" id="404"></path>
        </g>
    </g>
</svg>