<?xml version="1.0" encoding="UTF-8"?>
<svg width="314px" height="218px" viewBox="0 0 314 218" version="1.1" xmlns="http://www.w3.org/2000/svg" xmlns:xlink="http://www.w3.org/1999/xlink">
    <!-- Generator: sketchtool 57.1 (101010) - https://sketch.com -->
    <title>BC44BA64-10E0-4971-AFA2-1402C53344E3</title>
    <desc>Created with sketchtool.</desc>
    <g id="Inner-Page" stroke="none" stroke-width="1" fill="none" fill-rule="evenodd">
        <g id="Contact" transform="translate(-896.000000, -909.000000)" fill="#FFCC00">
            <g id="About-" transform="translate(0.000000, 350.000000)">
                <g id="Background">
                    <g id="Shape-&amp;-abstract-" transform="translate(933.500000, 699.000000) scale(-1, 1) translate(-933.500000, -699.000000) translate(657.000000, 486.000000)">
                        <g id="Group-405" transform="translate(0.000000, 73.000000)">
                            <path d="M11.427738,64.5693506 C-13.2450887,106.410978 4.80547309,164.792316 39.1294826,198.556023 C56.861505,215.896849 80.7407776,218.567236 104.457986,216.692402 C119.8317,215.718824 131.276762,210.973323 143.196839,200.931555 C151.875639,193.332078 159.302635,187.262511 170.904172,183.902274 C187.289388,179.312546 203.741665,181.738148 218.953315,188.84249 C230.068661,193.949605 240.876644,199.429462 253.858519,199.073411 C300.292611,198.923201 334.907218,129.315111 298.88992,96.0854817 C279.688146,78.210578 253.981464,65.2258208 227.945065,65.2369474 C207.161771,65.0589216 196.348199,59.5679381 182.78513,44.9253155 C169.143823,29.5928429 158.19613,13.2589752 137.971677,5.30344698 C119.909938,-2.19589012 56.2523684,-11.4142889 11.427738,64.5693506" id="Fill-403"></path>
                        </g>
                    </g>
                </g>
            </g>
        </g>
    </g>
</svg>