<?xml version="1.0" encoding="UTF-8"?>
<svg width="267px" height="363px" viewBox="0 0 267 363" version="1.1" xmlns="http://www.w3.org/2000/svg" xmlns:xlink="http://www.w3.org/1999/xlink">
    <!-- Generator: sketchtool 57.1 (101010) - https://sketch.com -->
    <title>882EE227-80B6-470D-94BC-3FEF6A399F5C</title>
    <desc>Created with sketchtool.</desc>
    <g id="Inner-Page" stroke="none" stroke-width="1" fill="none" fill-rule="evenodd">
        <g id="Services" transform="translate(-1339.000000, -255.000000)">
            <g id="Banner">
                <g id="banner-content" transform="translate(315.000000, 197.000000)">
                    <g id="ðŸ˜Human/Standing-A-Human/Standing" transform="translate(1161.000000, 238.000000) scale(-1, 1) translate(-1161.000000, -238.000000) translate(1032.000000, 55.000000)">
                        <g id="Head/Front-Head/Front/Chongo" transform="translate(70.520000, 0.000000)">
                            <g id="Head" transform="translate(46.440000, 26.633803)" fill="#B28B67">
                                <path d="M32.8032733,7.84746323 C37.7868105,17.1272999 37.1946367,40.6663753 30.753859,42.324941 C28.1852521,42.9863833 22.713318,41.3660847 17.1442016,38.012581 L20.6399998,62.7183093 L0,62.7183093 L7.10543628,29.6322216 C3.14269953,24.9852924 0.460650413,19.2904354 0.90882764,12.9091923 C2.20016397,-5.47713017 27.8197361,-1.43237348 32.8032733,7.84746323 Z"></path>
                            </g>
                            <path d="M71.0906052,24.3742048 C68.2702855,23.5150498 64.1761722,23.2236829 62.4539004,23.4207902 C63.4336071,21.0757953 63.8223691,18.4631888 63.5054342,15.9193552 C63.1973872,13.4475496 62.091802,11.3428788 61.0693019,9.13743806 C60.5979814,8.12087423 60.0638533,7.10985101 59.2675001,6.33229533 C58.456268,5.5401263 57.4293568,5.01723101 56.352542,4.76776495 C55.2505777,4.51241198 54.0983147,4.53367408 52.9946387,4.76541019 C52.5063984,4.86791151 52.0683251,5.09092116 51.5894993,5.21489236 C51.0991522,5.34191089 50.8612865,5.03530726 50.5053766,4.72717996 C49.6476642,3.98473792 48.390261,3.61822642 47.3051508,3.48705242 C46.08771,3.33994917 44.8244474,3.52341269 43.6633623,3.92323712 C42.5332202,4.31246513 41.4475175,4.94451048 40.630426,5.86529098 C40.2666158,6.27515777 39.936382,6.74167732 39.7217564,7.25674649 C39.6337336,7.46812085 39.6191838,7.59333868 39.4080475,7.67076874 C39.2127777,7.74245041 38.9843924,7.74452814 38.7828681,7.81274693 C36.8342519,8.47207979 35.1682042,9.9762175 34.2610489,11.9074672 C33.7317926,13.0341507 33.4810889,15.0178421 33.5497559,17.2412343 C33.6184229,19.4646264 35.6280033,25.2660911 37.5075575,27.3821894 C39.1852582,29.2709841 41.6512802,30.5174141 44.0311885,31.0630259 C42.4515177,32.8668415 41.3999839,35.1209011 40.622394,37.4133294 C39.7777829,39.9034883 39.2550445,42.490885 39.0620131,45.1271776 C38.8786596,47.6319499 38.8616739,50.2807781 39.4494584,52.7320834 C39.9993213,55.0244425 41.1752195,56.9049956 43.1382538,58.0980279 C44.0374429,58.64454 45.0049041,59.0550994 45.9779613,59.4303374 C46.9369296,59.800104 47.8987947,60.1596205 48.9033215,60.3671164 C50.8044699,60.7596688 52.9950337,60.6922811 54.4594914,59.180525 C54.9872992,58.6355365 55.5677759,57.9507169 55.9528511,57.284943 C56.0913044,57.0455193 56.1747846,56.8889278 56.0065734,56.6549062 C55.8050492,56.3746204 55.4790947,56.1598525 55.2202273,55.9405827 C53.7439849,54.6904128 52.8301802,53.0214419 52.5998197,51.0380412 C52.3661017,49.0256216 52.9072084,46.4281133 54.8657,45.549857 C57.2832666,44.4656977 59.9456775,45.7101192 62.0944354,46.8701157 C63.0076476,43.6501889 64.8827249,40.7509942 67.8225033,39.2740055 C71.0748713,37.6400097 74.806921,37.4487893 78.1492211,36.0468066 C79.0201666,35.6814725 79.9072419,35.2667577 80.5484853,34.5223764 C80.8164381,34.2112711 81.1308054,33.8077067 81.237789,33.396247 C81.378349,32.8557603 81.0294178,32.4026075 80.7598849,31.9812439 C79.3307154,29.7470613 73.910925,25.2333597 71.0906052,24.3742048 Z" id="hair" fill="#191847"></path>
                        </g>
                        <g id="Bottom/Skinny-Jeans-1-Bottom/Standing/Jogging" transform="translate(0.000000, 160.661972)">
                            <polygon id="Leg" fill="#997659" points="111.8 0 175.703515 106.730161 223.612766 196.961516 233.931994 196.961516 153.659372 4.37342421e-13"></polygon>
                            <g id="Right-Shoe-Accessories/Shoe/Flat-Sneaker" transform="translate(215.000000, 170.971831)" fill="#E4E4E4">
                                <path d="M2.19441444,22.1171058 C1.3048048,24.5366293 0.859999985,26.3588421 0.859999985,27.5837441 C0.859999985,29.1330463 1.1183562,31.3938635 1.63506862,34.3661957 C3.43413575,34.3661957 19.602655,34.3661957 50.1406263,34.3661957 C51.4011138,30.2031669 50.6734873,27.9556816 47.9577468,27.6237398 C45.2420063,27.291798 42.9859946,26.9920812 41.1897116,26.7245893 L18.7758228,16.7421849 C18.2713115,16.5174923 17.6801749,16.7443301 17.4554823,17.2488414 C17.451735,17.2572554 17.4481041,17.2657207 17.4445907,17.274235 L16.050363,20.6529624 L16.050363,20.6529624 C13.5362976,21.8248129 11.4933585,22.4107381 9.92154561,22.4107381 C8.69374802,22.4107381 7.01619475,21.9344669 4.88888581,20.9819245 L4.88888283,20.9819311 C3.88076579,20.5305278 2.69759079,20.9818335 2.24618751,21.9899506 C2.22747969,22.0317306 2.21021184,22.0741407 2.19441444,22.1171058 Z" id="shoe"></path>
                            </g>
                            <path d="M210.307034,182.512766 L230.207484,176.498681 C221.488555,150.459401 210.802269,121.804128 198.148627,90.5328615 C185.494984,59.2615952 171.905443,29.0839747 157.380003,2.44186517e-14 L101.173903,2.44186517e-14 C117.323069,36.7898926 134.44335,70.2182325 152.534747,100.28502 C170.626144,130.351807 189.883573,157.761056 210.307034,182.512766 Z" id="Pant" fill="#DB2721"></path>
                            <path d="M107.600304,2.44186517e-14 C101.569012,37.5057117 89.9363015,85.4236 88.8384872,86.9023603 C88.1066111,87.8882005 61.7588821,96.7083686 9.79530024,113.362865 L12.024378,122.453581 C73.9908275,113.521667 106.641862,106.591921 109.977481,101.664342 C114.980909,94.2729745 139.963703,35.8810052 149.640006,2.44186517e-14 L107.600304,2.44186517e-14 Z" id="Leg" fill="#B28B67"></path>
                            <path d="M28.0613777,105.50464 L31.9876554,120.145897 C78.3349475,124.206849 106.732957,121.272556 117.181684,111.343019 C127.630411,101.413481 139.538876,64.2991418 152.907077,-9.7674607e-14 L99.311207,-9.7674607e-14 C90.8414289,52.6523452 86.1062717,80.0836614 85.1057355,82.2939486 C84.1051992,84.5042358 65.0904133,92.241133 28.0613777,105.50464 Z" id="Pant" fill="#FF4133"></path>
                            <g id="Left-Shoe-Accessories/Shoe/Flat-Sneaker" transform="translate(21.070000, 132.309859) rotate(80.000000) translate(-21.070000, -132.309859) translate(-5.160000, 115.126760)" fill="#E4E4E4">
                                <path d="M2.19441444,22.1171058 C1.3048048,24.5366293 0.859999985,26.3588421 0.859999985,27.5837441 C0.859999985,29.1330463 1.1183562,31.3938635 1.63506862,34.3661957 C3.43413575,34.3661957 19.602655,34.3661957 50.1406263,34.3661957 C51.4011138,30.2031669 50.6734873,27.9556816 47.9577468,27.6237398 C45.2420063,27.291798 42.9859946,26.9920812 41.1897116,26.7245893 L18.7758228,16.7421849 C18.2713115,16.5174923 17.6801749,16.7443301 17.4554823,17.2488414 C17.451735,17.2572554 17.4481041,17.2657207 17.4445907,17.274235 L16.050363,20.6529624 L16.050363,20.6529624 C13.5362976,21.8248129 11.4933585,22.4107381 9.92154561,22.4107381 C8.69374802,22.4107381 7.01619475,21.9344669 4.88888581,20.9819245 L4.88888283,20.9819311 C3.88076579,20.5305278 2.69759079,20.9818335 2.24618751,21.9899506 C2.22747969,22.0317306 2.21021184,22.0741407 2.19441444,22.1171058 Z" id="shoe"></path>
                            </g>
                        </g>
                        <g id="Body/Long-Sleeve-1-Body/Pointing-Forward" transform="translate(18.920000, 70.450704)">
                            <path d="M205.158498,39.8714755 C208.884701,39.1051074 217.979297,32.3477753 219.546342,33.7197691 C221.864683,35.7495454 219.797507,41.9821349 217.361884,45.0825145 C212.809706,50.87712 209.0407,52.8587003 199.725015,55.4535915 C194.854294,56.8103347 189.588183,59.5298094 183.926682,63.6120158 L183.18001,50.4666227 L196.29202,43.2706564 C198.13182,36.2768814 200.331078,32.7580766 202.889792,32.7142423 C204.855417,31.8005556 201.432295,40.6378435 205.158498,39.8714755 Z M182.587611,9.89746359 C180.179344,14.1701234 177.838229,18.7724614 179.063455,20.0878231 C180.288682,21.4031849 183.346373,19.5633737 184.807752,21.7491365 C185.782004,23.2063116 180.558587,25.5115118 169.1375,28.6647368 L147.450436,48.5266572 L136.439249,36.7054218 L166.280358,20.3486643 C171.244289,14.4539583 176.134548,9.87539216 180.951136,6.61296582 C182.422745,5.99790002 184.995877,5.62480382 182.587611,9.89746359 Z" id="Skin" fill="#997659"></path>
                            <path d="M122.857873,29.8558942 C133.201963,31.380906 147.318254,31.380906 163.489072,24.388101 L167.221371,38.1570533 C155.493001,46.6019007 139.932939,52.6030636 127.527421,50.2817819 C117.75119,48.452484 114.613687,35.792004 122.857873,29.8558942 Z" id="Sleeve" fill="#2026A2" transform="translate(142.672527, 37.586362) rotate(-9.000000) translate(-142.672527, -37.586362) "></path>
                            <path d="M122.587629,-1.22293412e-13 C123.904228,16.898493 130.53096,35.5220718 135.969442,53.9208339 C147.068287,56.6873491 165.682398,53.4261415 191.81091,44.1377291 C198.291647,57.5320391 201.287529,67.0811549 200.798557,72.7850764 C178.381932,84.483148 159.16937,89.6978671 143.34133,90.0408919 C143.850807,99.420467 142.707931,108.348647 138.867588,116.506533 C130.97343,133.275776 84.7487525,117.745588 69.2065993,120.802308 C59.4736461,89.224373 78.2926057,76.3912279 78.3077477,56.1858244 C78.3243298,34.0587545 96.108796,-1.22293412e-13 98.7254239,-1.22293412e-13 L98.7254239,-1.22293412e-13 Z" id="Clothes" fill="#1F28CF"></path>
                        </g>
                    </g>
                </g>
            </g>
        </g>
    </g>
</svg>