<?xml version="1.0" encoding="UTF-8"?>
<svg width="105px" height="182px" viewBox="0 0 105 182" version="1.1" xmlns="http://www.w3.org/2000/svg" xmlns:xlink="http://www.w3.org/1999/xlink">
    <!-- Generator: sketchtool 57.1 (101010) - https://sketch.com -->
    <title>82D6F4CD-8A95-4E76-9296-CADC77449D5F</title>
    <desc>Created with sketchtool.</desc>
    <g id="Inner-Page" stroke="none" stroke-width="1" fill="none" fill-rule="evenodd">
        <g id="Home-01" transform="translate(-1815.000000, -11548.000000)" fill="#49CCFF">
            <g id="Elements/CTA" transform="translate(0.000000, 11283.000000)">
                <g id="Background">
                    <g>
                        <g id="Shape-&amp;-abstract-" transform="translate(257.000000, -250.730769)">
                            <g id="Group-405" transform="translate(1558.000000, 515.730769)">
                                <path d="M9.35327603,54.037529 C-10.8407255,89.0544242 3.93314199,137.913259 32.0263599,166.169812 C46.5395121,180.682199 66.0840123,182.917023 85.4958678,181.34799 C98.0788119,180.533211 107.446267,176.561743 117.202508,168.157874 C124.305857,161.797938 130.38464,156.71837 139.880166,153.906217 C153.290996,150.065113 166.756713,152.095078 179.207012,158.040641 C188.304604,162.314741 197.150629,166.900786 207.775921,166.602809 C245.780895,166.477101 274.111958,108.222694 244.632833,80.4131055 C228.916731,65.4537539 207.876548,54.5869232 186.566502,54.596235 C169.555972,54.4472467 160.705373,49.8518903 149.60439,37.5976066 C138.439371,24.7659934 129.478998,11.0963213 112.925863,4.43840874 C98.1428473,-1.83772138 46.0409512,-9.55251931 9.35327603,54.037529" id="Fill-403"></path>
                            </g>
                        </g>
                    </g>
                </g>
            </g>
        </g>
    </g>
</svg>