<?xml version="1.0" encoding="UTF-8"?>
<svg width="62px" height="62px" viewBox="0 0 62 62" version="1.1" xmlns="http://www.w3.org/2000/svg" xmlns:xlink="http://www.w3.org/1999/xlink">
    <!-- Generator: Sketch 60.1 (88133) - https://sketch.com -->
    <title>Fill 1</title>
    <desc>Created with Sketch.</desc>
    <g id="Symbols" stroke="none" stroke-width="1" fill="none" fill-rule="evenodd">
        <g id="-Elements/Service/Single/Big/Image/01" transform="translate(-76.000000, -45.000000)" fill="#7A19FF">
            <g id="Group-14-Copy" transform="translate(10.000000, 25.000000)">
                <g id="Group-13">
                    <g id="Group-16" transform="translate(0.115789, 17.750000)">
                        <g id="Group-3" transform="translate(66.000000, 2.250000)">
                            <path d="M30.6264246,0.124166667 C13.7113053,0.124166667 0,13.8083333 0,30.6879167 L0,30.6879167 C0,33.7804167 0.459715789,36.76375 1.3156807,39.5766667 L1.3156807,39.5766667 C3.12949123,45.5408333 6.72078596,50.7320833 11.4716,54.5375 L11.4716,54.5375 C13.8912667,56.4745833 16.6119825,58.0529167 19.5527439,59.1895833 L19.5527439,59.1895833 C22.9711754,60.515 26.6864807,61.2441667 30.5725614,61.25 L30.5725614,61.25 L30.6264246,61.25 C47.5415439,61.25 61.2528491,47.5675 61.2528491,30.6879167 L61.2528491,30.6879167 L61.2528491,30.6341667 C61.2470035,26.7516667 60.5133789,23.0395833 59.1839193,19.625 L59.1839193,19.625 C58.0448596,16.6954167 56.4644561,13.9845833 54.5262175,11.5733333 L54.5262175,11.5733333 C50.7157123,6.83541667 45.5185439,3.25333333 39.5480842,1.44208333 L39.5480842,1.44208333 C36.7259053,0.584583333 33.7296105,0.124166667 30.6264246,0.124166667 Z" id="Fill-1"></path>
                        </g>
                    </g>
                </g>
            </g>
        </g>
    </g>
</svg>