<?xml version="1.0" encoding="UTF-8"?>
<svg width="23px" height="36px" viewBox="0 0 23 36" version="1.1" xmlns="http://www.w3.org/2000/svg" xmlns:xlink="http://www.w3.org/1999/xlink">
    <!-- Generator: Sketch 60.1 (88133) - https://sketch.com -->
    <title>Design</title>
    <desc>Created with Sketch.</desc>
    <g id="Symbols" stroke="none" stroke-width="1" fill="none" fill-rule="evenodd">
        <g id="-Elements/Service/Single/Big/Image/01" transform="translate(-95.000000, -56.000000)" fill="#FFFFFF">
            <g id="Group-14-Copy" transform="translate(10.000000, 25.000000)">
                <g id="Group-13">
                    <g id="Design" transform="translate(85.608978, 30.979335)">
                        <path d="M21.6602843,19.0124582 C20.4473914,20.2016995 18.9612347,22.1225271 18.3570689,24.8134237 C18.0626573,26.1222513 18.0448267,26.8753547 18.1298329,27.5916306 C18.1866419,28.0703892 17.8167614,28.4928719 17.3336776,28.4928719 L4.85311306,28.4928719 C4.37002921,28.4928719 4.00056337,28.070803 4.0569577,27.5920444 C4.14113455,26.8757685 4.12330398,26.1226651 3.83013636,24.8134237 C3.19818805,22.0124582 1.61665861,20.0469409 0.382617813,18.8705271 C-0.0710248731,18.4389409 -0.13032186,17.736734 0.253242568,17.2393547 C1.73110594,15.3164582 3.24711843,13.092734 4.67605142,10.5495616 C6.63285201,7.0757685 8.04685709,3.69507884 9.07522442,0.580871947 C9.2784099,-0.0294728808 10.1819633,0.116182292 10.1819633,0.759630567 L10.1819633,14.4524582 C10.1819633,15.2672168 9.81664409,16.0385271 9.18842776,16.5582513 C8.25833585,17.3274926 7.7984732,18.6437685 8.30477825,20.0146651 C8.60250718,20.8211478 9.26431132,21.4472168 10.0816145,21.7178375 C12.1868649,22.4142513 14.1316402,20.8724582 14.1316402,18.8771478 C14.1316402,17.8323202 13.6004553,16.9124582 12.7914454,16.3720444 C12.1391785,15.9363202 11.7294903,15.2204582 11.7294903,14.4371478 L11.7294903,0.570527119 C11.7294903,0.0201822916 12.4327608,-0.209472881 12.7607602,0.232871947 C12.8470104,0.348734016 12.91543,0.467078843 12.9527498,0.580871947 C13.9811171,3.69507884 15.3955369,7.0757685 17.3519228,10.5495616 C18.7812704,13.092734 20.2947949,15.4434926 21.7788783,17.4023892 C22.1479295,17.8952168 22.0969258,18.5808719 21.6602843,19.0124582" id="Fill-4"></path>
                        <path d="M18.7550222,35.6702788 L3.72468724,35.6702788 C2.5781406,35.6702788 1.63975541,34.7342788 1.63975541,33.5897271 C1.63975541,32.4455892 2.5781406,31.5095892 3.72468724,31.5095892 L18.7550222,31.5095892 C19.9015688,31.5095892 20.8395394,32.4455892 20.8395394,33.5897271 C20.8395394,34.7342788 19.9015688,35.6702788 18.7550222,35.6702788" id="Fill-6"></path>
                    </g>
                </g>
            </g>
        </g>
    </g>
</svg>