<?xml version="1.0" encoding="UTF-8"?>
<svg width="34px" height="34px" viewBox="0 0 34 34" version="1.1" xmlns="http://www.w3.org/2000/svg" xmlns:xlink="http://www.w3.org/1999/xlink">
    <!-- Generator: Sketch 60.1 (88133) - https://sketch.com -->
    <title>icon-03</title>
    <desc>Created with Sketch.</desc>
    <defs>
        <path d="M0.527,0.6236875 C0.65609375,0.4961875 0.7830625,0.37453125 0.90471875,0.2518125 L0.90471875,0.2518125 C0.775625,0.36178125 0.64865625,0.4845 0.527,0.6236875" id="path-1"></path>
        <linearGradient x1="13.74968%" y1="50.83975%" x2="86.30218%" y2="49.22073%" id="linearGradient-3">
            <stop stop-color="#60D1A7" offset="0%"></stop>
            <stop stop-color="#36996E" offset="100%"></stop>
        </linearGradient>
        <path d="M2.01609375,1.30634375 C1.33928125,1.5225625 0.69221875,1.75365625 0.07915625,1.99378125 L0.07915625,1.99378125 L3.6964375,11.1605 C3.9535625,11.81075 4.5719375,12.2107813 5.23015625,12.21875 L5.23015625,12.21875 L5.2689375,12.21875 C5.3900625,12.2171563 5.51225,12.2028125 5.63390625,12.1735938 L5.63390625,12.1735938 C5.71040625,12.1555313 5.78796875,12.1305625 5.8639375,12.1013438 L5.8639375,12.1013438 L6.6034375,11.611 C7.38703125,11.3012813 7.81840625,10.4560625 7.60909375,9.63953125 L7.60909375,9.63953125 L5.86128125,2.21265625 L5.4410625,0.4218125 C4.22184375,0.663 3.08071875,0.96846875 2.01609375,1.30634375" id="path-4"></path>
        <path d="M4.9385,0.20240625 C4.45665625,0.21409375 3.99553125,0.4154375 3.56096875,0.78359375 L3.56096875,0.78359375 C3.4393125,0.90525 3.312875,1.02796875 3.18378125,1.15440625 L3.18378125,1.15440625 C3.179,1.1570625 3.176875,1.16290625 3.1715625,1.16875 L3.1715625,1.16875 C1.72975,2.78215625 0.6513125,6.29159375 0.26509375,10.6595312 L0.26509375,10.6595312 C0.13865625,12.1029375 0.085,13.6414375 0.1221875,15.2373125 L0.1221875,15.2373125 C0.16628125,17.257125 0.3485,19.1813125 0.639625,20.93125 L0.639625,20.93125 C0.89621875,22.4830312 1.23940625,23.9014687 1.64740625,25.1313125 L1.64740625,25.1313125 C2.10321875,26.505125 2.64084375,27.6457188 3.2353125,28.4803125 L3.2353125,28.4803125 C3.32403125,28.6062188 3.4138125,28.723625 3.50465625,28.834125 L3.50465625,28.834125 C3.88290625,29.2925938 4.2808125,29.6320625 4.69359375,29.8302187 L4.69359375,29.8302187 C4.87740625,29.9226563 5.066,29.98375 5.2561875,30.015625 L5.2561875,30.015625 C5.36934375,30.0363438 5.48834375,30.0448438 5.6046875,30.0434377 L5.6046875,30.0434377 C8.3161875,29.9821562 10.4024063,23.861625 10.4321562,16.15 L10.4321562,16.15 L10.4321562,15.81425 C10.4310937,15.5475625 10.4279062,15.2782188 10.4220625,15.0083437 L10.4220625,15.0083437 C10.4008125,14.0627187 10.3498125,13.1378125 10.2706562,12.2415937 L10.2706562,12.2415937 C9.97740625,8.8729375 9.30059375,5.91334375 8.39321875,3.77240625 L8.39321875,3.77240625 C7.44865625,1.54540625 6.25440625,0.201875 4.978875,0.201875 L4.978875,0.201875 C4.96559375,0.201875 4.9523125,0.201875 4.9385,0.20240625" id="path-6"></path>
        <path d="M4.9385,0.20240625 C4.45665625,0.21409375 3.99553125,0.4154375 3.56096875,0.78359375 L3.56096875,0.78359375 C3.4393125,0.90525 3.312875,1.02796875 3.18378125,1.15440625 L3.18378125,1.15440625 C3.179,1.1570625 3.176875,1.16290625 3.1715625,1.16875 L3.1715625,1.16875 C1.72975,2.78215625 0.6513125,6.29159375 0.26509375,10.6595312 L0.26509375,10.6595312 C0.13865625,12.1029375 0.085,13.6414375 0.1221875,15.2373125 L0.1221875,15.2373125 C0.16628125,17.257125 0.3485,19.1813125 0.639625,20.93125 L0.639625,20.93125 C1.18415625,24.2165 2.1090625,26.8977187 3.2353125,28.4803125 L3.2353125,28.4803125 C2.47721875,26.0238125 1.2845625,21.8800625 1.60171875,17.1785 L1.60171875,17.1785 C1.9114375,12.5752187 3.0631875,5.61478125 7.09059375,4.060875 L7.09059375,4.060875 C7.54321875,3.8855625 7.97884375,3.80215625 8.39321875,3.77240625 L8.39321875,3.77240625 C7.44865625,1.54540625 6.25440625,0.201875 4.978875,0.201875 L4.978875,0.201875 C4.96559375,0.201875 4.9523125,0.201875 4.9385,0.20240625" id="path-8"></path>
        <path d="M2.6573125,0.2050625 C1.04125,0.3686875 -0.1476875,1.82325 0.01540625,3.43665625 L0.01540625,3.43665625 L0.29059375,6.1996875 C0.4536875,7.81575 1.90825,9.0046875 3.5243125,8.84159375 L3.5243125,8.84159375 C3.56096875,8.83840625 3.59815625,8.8325625 3.635875,8.82671875 L3.635875,8.82671875 C3.51421875,8.62803125 3.41753125,8.41128125 3.34528125,8.18125 L3.34528125,8.18125 C2.89478125,6.7160625 2.61109375,4.95815625 2.569125,3.06371875 L2.569125,3.06371875 C2.5468125,2.06921875 2.5925,1.105 2.696625,0.201875 L2.696625,0.201875 C2.68440625,0.20240625 2.6700625,0.2050625 2.6573125,0.2050625" id="path-10"></path>
        <path d="M0.12165625,4.61284375 C0.16628125,6.632125 0.34903125,8.5563125 0.639625,10.30625 L0.639625,10.30625 C3.298,10.0507187 5.344375,7.77803125 5.28434375,5.06759375 L5.28434375,5.06759375 C5.22271875,2.30509375 2.9994375,0.10040625 0.26615625,0.03453125 L0.26615625,0.03453125 C0.13865625,1.4779375 0.0860625,3.0164375 0.12165625,4.61284375" id="path-12"></path>
        <path d="M0.46803125,0.37825 C0.47546875,0.3283125 0.48184375,0.2794375 0.48875,0.2305625 L0.48875,0.2305625 C0.48184375,0.22790625 0.4749375,0.22578125 0.469625,0.22525 L0.469625,0.22525 C0.469625,0.2603125 0.47015625,0.31078125 0.46803125,0.37825" id="path-14"></path>
        <linearGradient x1="55.62451%" y1="32.17209%" x2="42.1001%" y2="64.49445%" id="linearGradient-16">
            <stop stop-color="#1A90FB" offset="0%"></stop>
            <stop stop-color="#2A4B95" offset="100%"></stop>
        </linearGradient>
        <path d="M19.7699375,2.9590625 C18.9395938,8.1515 20.1035625,10.6133125 19.06975,11.540875 L19.06975,11.540875 C17.9142813,12.5762812 15.9369688,11.2401875 12.9890625,9.90409375 L12.9890625,9.90409375 C10.5097188,8.7805 7.344,7.65690625 3.4031875,7.94325 L3.4031875,7.94325 C2.6275625,7.9995625 1.53796875,8.08828125 0.45475,8.39640625 L0.45475,8.39640625 C0.45740625,8.408625 0.45953125,8.41925 0.46271875,8.4309375 L0.46271875,8.4309375 C0.533375,8.71090625 0.60721875,8.9813125 0.6885,9.24375 L0.6885,9.24375 C0.76021875,9.47378125 0.85796875,9.69 0.979625,9.88921875 L0.979625,9.88921875 C1.5140625,10.7684375 2.496875,11.3087187 3.56096875,11.2598438 L3.56096875,11.2598438 C3.86325,11.2481562 4.1724375,11.2385937 4.488,11.234875 L4.488,11.234875 C5.20146875,11.2205312 5.94840625,11.2285 6.717125,11.264625 L6.717125,11.264625 C7.520375,11.3012812 8.35284375,11.3655625 9.21240625,11.4665 L9.21240625,11.4665 C9.64696875,11.5175 10.0884375,11.5775312 10.53575,11.64925 L10.53575,11.64925 C10.605875,11.6593437 10.676,11.6710312 10.7455938,11.6837812 L10.7455938,11.6837812 C11.8861875,11.8670625 13.0629063,12.1199375 14.2720313,12.44825 L14.2720313,12.44825 C18.204875,13.5224375 21.3578438,15.13425 23.6926875,16.6143125 L23.6926875,16.6143125 C21.8285313,14.348 20.4451563,9.126875 20.3096875,3.0185625 L20.3096875,3.0185625 C20.2910938,2.1473125 20.295875,1.29253125 20.3282812,0.46165625 L20.3282812,0.46165625 C20.0955937,1.28084375 19.9032813,2.13084375 19.7699375,2.9590625" id="path-17"></path>
        <path d="M14.732625,4.88271875 C12.1943125,6.09928125 9.7314375,6.89509375 7.46671875,7.40934375 L7.46671875,7.40934375 C5.922375,7.75890625 4.47153125,7.97884375 3.14925,8.10953125 L3.14925,8.10953125 C1.8275,8.24128125 0.771375,9.27084375 0.60084375,10.5883437 L0.60084375,10.5883437 C0.59021875,10.6680312 0.58225,10.7477187 0.571625,10.8274062 L0.571625,10.8274062 C0.46696875,11.73 0.4218125,12.6936875 0.44465625,13.6887187 L0.44465625,13.6887187 C0.46590625,14.6295625 0.546125,15.5364062 0.677875,16.3895937 L0.677875,16.3895937 C0.67734375,15.7053437 0.64121875,14.3995312 1.3079375,12.8939687 L1.3079375,12.8939687 C1.3079375,12.8939687 2.1165,11.0696562 3.84678125,9.75109375 L3.84678125,9.75109375 C5.5345625,8.466 7.02046875,8.51646875 8.77890625,8.56746875 L8.77890625,8.56746875 C10.0438125,8.604125 11.4505625,8.64025 13.175,8.17965625 L13.175,8.17965625 C15.8944688,7.45396875 18.226125,4.94646875 22.0707813,0.15034375 L22.0707813,0.15034375 C20.1736875,1.74515625 17.7426875,3.4435625 14.732625,4.88271875" id="path-19"></path>
    </defs>
    <g id="Symbols" stroke="none" stroke-width="1" fill="none" fill-rule="evenodd">
        <g id="-Elements/Service/Single/Big/Image/03" transform="translate(-91.000000, -58.000000)">
            <g id="Group-14-Copy-2" transform="translate(21.000000, 25.000000)">
                <g id="Group-13">
                    <g id="icon-03" transform="translate(70.000000, 33.000000)">
                        <g id="Group-3" transform="translate(25.500000, 0.860572)">
                            <mask id="mask-2" fill="white">
                                <use xlink:href="#path-1"></use>
                            </mask>
                            <g id="Clip-2"></g>
                            <path d="M0.527,0.6236875 C0.65609375,0.4961875 0.7830625,0.37453125 0.90471875,0.2518125 L0.90471875,0.2518125 C0.775625,0.36178125 0.64865625,0.4845 0.527,0.6236875" id="Fill-1" fill="url(#linearGradient-3)" mask="url(#mask-2)"></path>
                        </g>
                        <g id="Group-6" transform="translate(7.437500, 21.579322)">
                            <mask id="mask-5" fill="white">
                                <use xlink:href="#path-4"></use>
                            </mask>
                            <g id="Clip-5"></g>
                            <path d="M2.01609375,1.30634375 C1.33928125,1.5225625 0.69221875,1.75365625 0.07915625,1.99378125 L0.07915625,1.99378125 L3.6964375,11.1605 C3.9535625,11.81075 4.5719375,12.2107813 5.23015625,12.21875 L5.23015625,12.21875 L5.2689375,12.21875 C5.3900625,12.2171563 5.51225,12.2028125 5.63390625,12.1735938 L5.63390625,12.1735938 C5.71040625,12.1555313 5.78796875,12.1305625 5.8639375,12.1013438 L5.8639375,12.1013438 L6.6034375,11.611 C7.38703125,11.3012813 7.81840625,10.4560625 7.60909375,9.63953125 L7.60909375,9.63953125 L5.86128125,2.21265625 L5.4410625,0.4218125 C4.22184375,0.663 3.08071875,0.96846875 2.01609375,1.30634375" id="Fill-4" fill="#F2F2F2" mask="url(#mask-5)"></path>
                        </g>
                        <g id="Group-9" transform="translate(22.843750, 0.329322)">
                            <mask id="mask-7" fill="white">
                                <use xlink:href="#path-6"></use>
                            </mask>
                            <g id="Clip-8"></g>
                            <path d="M4.9385,0.20240625 C4.45665625,0.21409375 3.99553125,0.4154375 3.56096875,0.78359375 L3.56096875,0.78359375 C3.4393125,0.90525 3.312875,1.02796875 3.18378125,1.15440625 L3.18378125,1.15440625 C3.179,1.1570625 3.176875,1.16290625 3.1715625,1.16875 L3.1715625,1.16875 C1.72975,2.78215625 0.6513125,6.29159375 0.26509375,10.6595312 L0.26509375,10.6595312 C0.13865625,12.1029375 0.085,13.6414375 0.1221875,15.2373125 L0.1221875,15.2373125 C0.16628125,17.257125 0.3485,19.1813125 0.639625,20.93125 L0.639625,20.93125 C0.89621875,22.4830312 1.23940625,23.9014687 1.64740625,25.1313125 L1.64740625,25.1313125 C2.10321875,26.505125 2.64084375,27.6457188 3.2353125,28.4803125 L3.2353125,28.4803125 C3.32403125,28.6062188 3.4138125,28.723625 3.50465625,28.834125 L3.50465625,28.834125 C3.88290625,29.2925938 4.2808125,29.6320625 4.69359375,29.8302187 L4.69359375,29.8302187 C4.87740625,29.9226563 5.066,29.98375 5.2561875,30.015625 L5.2561875,30.015625 C5.36934375,30.0363438 5.48834375,30.0448438 5.6046875,30.0434377 L5.6046875,30.0434377 C8.3161875,29.9821562 10.4024063,23.861625 10.4321562,16.15 L10.4321562,16.15 L10.4321562,15.81425 C10.4310937,15.5475625 10.4279062,15.2782188 10.4220625,15.0083437 L10.4220625,15.0083437 C10.4008125,14.0627187 10.3498125,13.1378125 10.2706562,12.2415937 L10.2706562,12.2415937 C9.97740625,8.8729375 9.30059375,5.91334375 8.39321875,3.77240625 L8.39321875,3.77240625 C7.44865625,1.54540625 6.25440625,0.201875 4.978875,0.201875 L4.978875,0.201875 C4.96559375,0.201875 4.9523125,0.201875 4.9385,0.20240625" id="Fill-7" fill="#FFFFFF" mask="url(#mask-7)"></path>
                        </g>
                        <path d="M26.3488313,29.1622781 C24.0139875,27.6822156 20.8610188,26.0704031 16.9287063,24.9962156 C15.644675,24.6477156 14.3973,24.3842156 13.1918938,24.1972156 C11.8605813,23.9852469 10.5834563,23.8673094 9.37326875,23.8125906 C8.60508125,23.7764656 7.85708125,23.7684969 7.14414375,23.7828406 C6.82858125,23.7865594 6.519925,23.7961219 6.21658125,23.8083406 C5.15355,23.8572156 4.17020625,23.3164031 3.6363,22.4371844 C3.51464375,22.2379656 3.41689375,22.0222781 3.34464375,21.7917156 C3.26389375,21.5292781 3.18951875,21.2588719 3.11833125,20.9794344 C3.11620625,20.9672156 3.11355,20.9565906 3.111425,20.9449031 C2.988175,20.4487156 2.8851125,19.9254344 2.80276875,19.3809031 C2.80276875,19.3782469 2.8022375,19.3766531 2.8022375,19.3766531 C2.67155,18.5218719 2.5908,17.6150281 2.56955,16.6747156 C2.54670625,15.6791531 2.5918625,14.7159969 2.69705,13.8128719 C2.70714375,13.7331844 2.71564375,13.6534969 2.7257375,13.5738094 C2.89626875,12.2563094 3.952925,11.2267469 5.27414375,11.0955281 C6.596425,10.9643094 8.04726875,10.7443719 9.5916125,10.3948094 C11.8568625,9.88055938 14.3192063,9.08474688 16.85805,7.86818438 C19.8675813,6.42902813 22.2985812,4.73062187 24.195675,3.13580938 C24.8682375,2.57109063 25.474925,2.01859063 26.0157375,1.49690313 C24.7938625,2.86646563 23.8323,5.59762188 23.3323938,9.05977812 C23.3260188,9.10865313 23.3191125,9.15752813 23.311675,9.20746563 C23.1958625,10.0362156 23.1066125,10.9064031 23.04605,11.8084656 C23.0200187,12.2026531 22.9993,12.6037469 22.984425,13.0096219 C22.9520188,13.8404969 22.9472375,14.6952781 22.9658313,15.5665281 C23.1018312,21.6748406 24.484675,26.8954344 26.3488313,29.1622781" id="Fill-10" fill="#FFFFFF"></path>
                        <g id="Group-14" transform="translate(22.843750, 0.329322)">
                            <mask id="mask-9" fill="white">
                                <use xlink:href="#path-8"></use>
                            </mask>
                            <g id="Clip-13"></g>
                            <path d="M4.9385,0.20240625 C4.45665625,0.21409375 3.99553125,0.4154375 3.56096875,0.78359375 L3.56096875,0.78359375 C3.4393125,0.90525 3.312875,1.02796875 3.18378125,1.15440625 L3.18378125,1.15440625 C3.179,1.1570625 3.176875,1.16290625 3.1715625,1.16875 L3.1715625,1.16875 C1.72975,2.78215625 0.6513125,6.29159375 0.26509375,10.6595312 L0.26509375,10.6595312 C0.13865625,12.1029375 0.085,13.6414375 0.1221875,15.2373125 L0.1221875,15.2373125 C0.16628125,17.257125 0.3485,19.1813125 0.639625,20.93125 L0.639625,20.93125 C1.18415625,24.2165 2.1090625,26.8977187 3.2353125,28.4803125 L3.2353125,28.4803125 C2.47721875,26.0238125 1.2845625,21.8800625 1.60171875,17.1785 L1.60171875,17.1785 C1.9114375,12.5752187 3.0631875,5.61478125 7.09059375,4.060875 L7.09059375,4.060875 C7.54321875,3.8855625 7.97884375,3.80215625 8.39321875,3.77240625 L8.39321875,3.77240625 C7.44865625,1.54540625 6.25440625,0.201875 4.978875,0.201875 L4.978875,0.201875 C4.96559375,0.201875 4.9523125,0.201875 4.9385,0.20240625" id="Fill-12" fill="#F2F2F2" mask="url(#mask-9)"></path>
                        </g>
                        <g id="Group-17" transform="translate(0.000000, 13.610572)">
                            <mask id="mask-11" fill="white">
                                <use xlink:href="#path-10"></use>
                            </mask>
                            <g id="Clip-16"></g>
                            <path d="M2.6573125,0.2050625 C1.04125,0.3686875 -0.1476875,1.82325 0.01540625,3.43665625 L0.01540625,3.43665625 L0.29059375,6.1996875 C0.4536875,7.81575 1.90825,9.0046875 3.5243125,8.84159375 L3.5243125,8.84159375 C3.56096875,8.83840625 3.59815625,8.8325625 3.635875,8.82671875 L3.635875,8.82671875 C3.51421875,8.62803125 3.41753125,8.41128125 3.34528125,8.18125 L3.34528125,8.18125 C2.89478125,6.7160625 2.61109375,4.95815625 2.569125,3.06371875 L2.569125,3.06371875 C2.5468125,2.06921875 2.5925,1.105 2.696625,0.201875 L2.696625,0.201875 C2.68440625,0.20240625 2.6700625,0.2050625 2.6573125,0.2050625" id="Fill-15" fill="#F2F2F2" mask="url(#mask-11)"></path>
                        </g>
                        <g id="Group-20" transform="translate(22.843750, 10.954322)">
                            <mask id="mask-13" fill="white">
                                <use xlink:href="#path-12"></use>
                            </mask>
                            <g id="Clip-19"></g>
                            <path d="M0.12165625,4.61284375 C0.16628125,6.632125 0.34903125,8.5563125 0.639625,10.30625 L0.639625,10.30625 C3.298,10.0507187 5.344375,7.77803125 5.28434375,5.06759375 L5.28434375,5.06759375 C5.22271875,2.30509375 2.9994375,0.10040625 0.26615625,0.03453125 L0.26615625,0.03453125 C0.13865625,1.4779375 0.0860625,3.0164375 0.12165625,4.61284375" id="Fill-18" fill="#F2F2F2" mask="url(#mask-13)"></path>
                        </g>
                        <g id="Group-26" transform="translate(22.843750, 8.829322)">
                            <mask id="mask-15" fill="white">
                                <use xlink:href="#path-14"></use>
                            </mask>
                            <g id="Clip-25"></g>
                            <path d="M0.46803125,0.37825 C0.47546875,0.3283125 0.48184375,0.2794375 0.48875,0.2305625 L0.48875,0.2305625 C0.48184375,0.22790625 0.4749375,0.22578125 0.469625,0.22525 L0.469625,0.22525 C0.469625,0.2603125 0.47015625,0.31078125 0.46803125,0.37825" id="Fill-24" fill="url(#linearGradient-16)" mask="url(#mask-15)"></path>
                        </g>
                        <g id="Group-29" transform="translate(2.656250, 12.548072)">
                            <mask id="mask-18" fill="white">
                                <use xlink:href="#path-17"></use>
                            </mask>
                            <g id="Clip-28"></g>
                        </g>
                        <g id="Group-32" transform="translate(2.125000, 2.985572)">
                            <mask id="mask-20" fill="white">
                                <use xlink:href="#path-19"></use>
                            </mask>
                            <g id="Clip-31"></g>
                        </g>
                    </g>
                </g>
            </g>
        </g>
    </g>
</svg>