<?xml version="1.0" encoding="UTF-8"?>
<svg width="41px" height="24px" viewBox="0 0 41 24" version="1.1" xmlns="http://www.w3.org/2000/svg" xmlns:xlink="http://www.w3.org/1999/xlink">
    <!-- Generator: Sketch 60.1 (88133) - https://sketch.com -->
    <title>icon-02</title>
    <desc>Created with Sketch.</desc>
    <g id="Symbols" stroke="none" stroke-width="1" fill="none" fill-rule="evenodd">
        <g id="-Elements/Service/Single/Big/Image/02" transform="translate(-87.000000, -65.000000)" fill="#FEFEFE">
            <g id="Group-14-Copy-2" transform="translate(21.000000, 25.000000)">
                <g id="Group-13">
                    <g id="icon-02" transform="translate(66.389474, 40.000000)">
                        <path d="M2.37552967,11.5137095 L11.0753326,5.55624007 C11.2005333,5.47393036 11.2736842,5.33122773 11.2736842,5.17927135 L11.2736842,2.95544815 C11.2736842,2.59455174 10.8863594,2.37635796 10.5965692,2.57555719 L0.195069155,9.74624248 C0.0731509332,9.82855219 0,9.97125482 0,10.1232112 L0,13.6230784 C0,13.7750348 0.0731509332,13.9177374 0.195069155,14.0000471 L10.5965692,21.1736546 C10.8863594,21.3733409 11.2736842,21.1580694 11.2736842,20.7971729 L11.2736842,18.6084166 C11.2736842,18.4564602 11.2005333,18.3137576 11.0753326,18.2314479 L2.37552967,12.2705692 C2.11621899,12.0903645 2.11621899,11.6944012 2.37552967,11.5137095" id="Fill-11"></path>
                        <path d="M39.8891414,9.74624591 L29.4876414,2.57555723 C29.1978511,2.3763579 28.8105263,2.59455178 28.8105263,2.95544836 L28.8105263,5.17927262 C28.8105263,5.33122907 28.8836772,5.47393177 29.0060644,5.55575447 L37.7058674,11.5137138 C37.9679915,11.6944056 37.9679915,12.089882 37.7058674,12.2705738 L29.0060644,18.2314553 C28.8836772,18.3137651 28.8105263,18.4564678 28.8105263,18.6084242 L28.8105263,20.7966946 C28.8105263,21.1580782 29.1978511,21.3733498 29.4876414,21.1736635 L39.8891414,14.0000525 C40.0110596,13.9177428 40.0842105,13.7750401 40.0842105,13.6230836 L40.0842105,10.1232148 C40.0842105,9.97125835 40.0110596,9.82855565 39.8891414,9.74624591" id="Fill-13"></path>
                        <path d="M25.7895206,0.00325632143 L24.1670718,0.185038027 C24.0020938,0.203843031 23.8599743,0.307511643 23.7953745,0.455058597 L21.7048256,5.20211666 L16.2272596,17.6510293 L13.8166933,23.1256964 C13.6775553,23.4424884 13.9424144,23.7872468 14.2947318,23.7467437 L15.9494805,23.5615867 C16.1139615,23.5427817 16.2560811,23.4391131 16.3211778,23.2920483 L18.4022851,18.5507764 L23.8634527,6.10186377 L26.2675591,0.624303633 C26.4066971,0.307511643 26.141341,-0.0372467641 25.7895206,0.00325632143" id="Fill-15"></path>
                    </g>
                </g>
            </g>
        </g>
    </g>
</svg>