<?xml version="1.0" encoding="UTF-8"?>
<svg width="519px" height="395px" viewBox="0 0 519 395" version="1.1" xmlns="http://www.w3.org/2000/svg" xmlns:xlink="http://www.w3.org/1999/xlink">
    <!-- Generator: sketchtool 57.1 (101010) - https://sketch.com -->
    <title>9E319D0A-562D-4D99-B109-73F3F5075518</title>
    <desc>Created with sketchtool.</desc>
    <g id="Inner-Page" stroke="none" stroke-width="1" fill="none" fill-rule="evenodd">
        <g id="About-Page" transform="translate(-1147.000000, -242.000000)">
            <g id="Banner">
                <g id="banner-content" transform="translate(315.000000, 197.000000)">
                    <g id="Group-3" transform="translate(1099.500000, 248.000000) scale(-1, 1) translate(-1099.500000, -248.000000) translate(833.000000, 55.000000)">
                        <g id="Humaaan" transform="translate(399.500000, 193.000000) scale(-1, 1) translate(-399.500000, -193.000000) translate(266.000000, 1.000000)">
                            <g id="Head/Front-Head/Front/Chongo" transform="translate(114.043637, 54.620196) rotate(-8.000000) translate(-114.043637, -54.620196) translate(53.523637, 8.479350)">
                                <g id="Head" transform="translate(48.060000, 27.507043)" fill="#B28B67">
                                    <path d="M33.9475741,8.10475739 C39.1049557,17.6888514 38.4921247,41.9997006 31.8266685,43.7126455 C29.1684907,44.3957664 23.5057783,42.7223912 17.7424615,39.2590203 L21.3600002,64.7746495 L0,64.7746495 L7.35339371,30.6038801 C3.25237072,25.8045724 0.476716105,19.9229594 0.940530944,13.332445 C2.27691391,-5.65670841 28.7901925,-1.47933659 33.9475741,8.10475739 Z"></path>
                                </g>
                                <path d="M73.5705112,25.1733599 C70.6518082,24.2860359 66.4148769,23.985116 64.6325258,24.1886858 C65.6464083,21.7668057 66.0487318,19.06854 65.7207411,16.4413019 C65.4019482,13.8884534 64.2577961,11.7147768 63.1996273,9.43702653 C62.7118654,8.3871327 62.1591049,7.34296113 61.334972,6.5399118 C60.495441,5.72176998 59.4327074,5.18173057 58.3183292,4.92408528 C57.1779243,4.66036008 55.9854661,4.6823193 54.8432897,4.92165332 C54.3380177,5.02751535 53.8846629,5.25783679 53.3891338,5.38587262 C52.8816816,5.51705571 52.6355182,5.20039949 52.2671929,4.88216964 C51.3795603,4.11538521 50.0782941,3.73685692 48.9553312,3.60138214 C47.6954216,3.44945582 46.3880916,3.63893455 45.1865036,4.05186799 C44.0169379,4.45385759 42.8933618,5.10662576 42.047767,6.05759581 C41.6712658,6.48090088 41.3295123,6.96271617 41.1073997,7.49467287 C41.0163063,7.71297754 41.001249,7.84230088 40.7827475,7.92226963 C40.5806659,7.99630153 40.3443136,7.99844738 40.1357595,8.06890285 C38.1191683,8.7498532 36.3950025,10.303307 35.4562023,12.2978764 C34.9084836,13.4615003 34.6490343,15.5102309 34.7200967,17.8065213 C34.7911591,20.1028116 36.8708412,26.0944884 38.8159612,28.2799671 C40.5521865,30.2306896 43.1042325,31.5179862 45.5671609,32.0814869 C43.9323852,33.9444441 42.84417,36.2724073 42.0394549,38.6399973 C41.1653806,41.2118009 40.6244071,43.8840303 40.4246421,46.6067588 C40.2348926,49.1936549 40.2173143,51.92933 40.8256029,54.4610061 C41.3946471,56.8285246 42.611565,58.7707352 44.6430773,60.0028834 C45.5736335,60.567314 46.5748433,60.9913343 47.5818444,61.3788752 C48.5742651,61.7607653 49.5696836,62.1320692 50.6092521,62.3463683 C52.5767197,62.7517913 54.8436985,62.6821941 56.359242,61.1208722 C56.9054617,60.5580153 57.5061876,59.8507425 57.9046957,59.16314 C58.0479787,58.9158663 58.134371,58.7541406 57.960292,58.5124461 C57.7517378,58.2229707 57.4144129,58.0011611 57.1465152,57.7747022 C55.618776,56.4835431 54.6730943,54.7598518 54.434698,52.7114215 C54.192827,50.6330208 54.7528095,47.9503482 56.7796206,47.0432966 C59.281521,45.9235911 62.0368068,47.2088133 64.2605214,48.4068425 C65.2055898,45.0813442 67.1460768,42.0870939 70.1884056,40.5616793 C73.5542284,38.8741098 77.416466,38.6766198 80.875358,37.2286705 C81.7766853,36.8513582 82.6947051,36.4230461 83.3583174,35.6542589 C83.6356175,35.3329533 83.960951,34.9161574 84.0716667,34.4912071 C84.2171299,33.9329995 83.8560267,33.4649892 83.5770915,33.0298104 C82.0980672,30.7223758 76.4892142,26.0606839 73.5705112,25.1733599 Z" id="hair" fill="#191847"></path>
                            </g>
                            <g id="Bottom/Skinny-Jeans-1-Bottom/Standing/Jogging" transform="translate(0.000000, 171.929577)">
                                <polygon id="Leg" fill="#997659" points="115.7 0 181.832708 110.229509 231.413212 203.419268 242.092412 203.419268 159.019582 4.51681511e-13"></polygon>
                                <g id="Right-Shoe-Accessories/Shoe/Flat-Sneaker" transform="translate(222.500000, 176.577462)" fill="#E4E4E4">
                                    <path d="M2.29764908,22.7700032 C1.35921637,25.3048611 0.890000015,27.2109036 0.890000015,28.4881307 C0.890000015,30.0882298 1.15736866,32.4231722 1.69210595,35.4929581 C3.5539313,35.4929581 20.2864692,35.4929581 51.8897197,35.4929581 C53.1941777,31.1934363 52.4411689,28.8722628 49.6306932,28.5294377 C46.8202175,28.1866126 44.4855076,27.8770689 42.6265635,27.6008068 L19.3969702,17.2760764 C18.8922898,17.0517639 18.3013243,17.279047 18.0770117,17.7837274 C18.0734696,17.7916967 18.070032,17.799712 18.0666996,17.8077713 L16.6102599,21.3301099 L16.6102599,21.3301099 C14.0084945,22.5403817 11.89429,23.1455176 10.2676464,23.1455176 C8.98429059,23.1455176 7.22611844,22.643727 4.99312991,21.6401458 L4.9931366,21.6401309 C3.98563446,21.1873251 2.80182095,21.6369953 2.34901513,22.6444975 C2.33047931,22.68574 2.31334745,22.7275993 2.29764908,22.7700032 Z" id="shoe"></path>
                                </g>
                                <path d="M217.643326,188.496788 L238.237977,182.285521 C229.214899,155.392494 218.155836,125.797704 205.060788,93.5011507 C191.96574,61.2045975 177.902145,30.0375473 162.870003,2.52192629e-14 L104.703225,2.52192629e-14 C121.415734,37.996118 139.133235,72.5204686 157.855727,103.573052 C176.578219,134.625635 196.507419,162.933547 217.643326,188.496788 Z" id="Pant" fill="#DB2721"></path>
                                <path d="M111.353803,2.52192629e-14 C105.112117,38.7354066 93.0736143,88.2243726 91.9375042,89.7516168 C91.1800975,90.7697795 63.9132617,99.8791334 10.1369968,117.079678 L12.4438331,126.468451 C76.5719029,117.243687 110.361927,110.086737 113.813904,104.997598 C118.991871,97.3638903 144.846158,37.057431 154.860006,2.52192629e-14 L111.353803,2.52192629e-14 Z" id="Leg" fill="#B28B67"></path>
                                <path d="M29.040263,108.963807 L33.1035038,124.085105 C81.0675619,128.279203 110.4562,125.248704 121.269417,114.993608 C132.082635,104.738512 144.406511,66.4073094 158.241045,-1.00877052e-13 L102.775551,-1.00877052e-13 C94.010316,54.3786509 89.1099789,82.7093541 88.0745402,84.9921096 C87.0391015,87.2748652 67.3610091,95.2654311 29.040263,108.963807 Z" id="Pant" fill="#FF4133"></path>
                                <g id="Left-Shoe-Accessories/Shoe/Flat-Sneaker" transform="translate(21.805000, 136.647885) rotate(80.000000) translate(-21.805000, -136.647885) translate(-5.340000, 118.901407)" fill="#E4E4E4">
                                    <path d="M2.29764908,22.7700032 C1.35921637,25.3048611 0.890000015,27.2109036 0.890000015,28.4881307 C0.890000015,30.0882298 1.15736866,32.4231722 1.69210595,35.4929581 C3.5539313,35.4929581 20.2864692,35.4929581 51.8897197,35.4929581 C53.1941777,31.1934363 52.4411689,28.8722628 49.6306932,28.5294377 C46.8202175,28.1866126 44.4855076,27.8770689 42.6265635,27.6008068 L19.3969702,17.2760764 C18.8922898,17.0517639 18.3013243,17.279047 18.0770117,17.7837274 C18.0734696,17.7916967 18.070032,17.799712 18.0666996,17.8077713 L16.6102599,21.3301099 L16.6102599,21.3301099 C14.0084945,22.5403817 11.89429,23.1455176 10.2676464,23.1455176 C8.98429059,23.1455176 7.22611844,22.643727 4.99312991,21.6401458 L4.9931366,21.6401309 C3.98563446,21.1873251 2.80182095,21.6369953 2.34901513,22.6444975 C2.33047931,22.68574 2.31334745,22.7275993 2.29764908,22.7700032 Z" id="shoe"></path>
                                </g>
                            </g>
                            <g id="Body/Long-Sleeve-1-Body/Jacket" transform="translate(129.294852, 163.138234) rotate(-8.000000) translate(-129.294852, -163.138234) translate(15.374852, 80.173445)">
                                <path d="M60.817645,82.5303173 L79.4138608,82.5918743 C67.9088598,119.564014 61.6980787,139.181264 60.7815175,141.443626 C58.7192547,146.53394 63.0719232,154.281818 64.9327753,158.445761 C58.8620623,161.157733 59.5148769,151.127546 51.8567526,154.684262 C44.8667718,157.930667 39.5474208,163.808443 31.4768517,158.845396 C30.4846226,158.235219 29.398301,155.936171 32.0275007,154.137459 C38.5777959,149.656213 48.0180169,141.814461 49.2944718,139.234408 C51.0351462,135.716044 54.8762039,116.81468 60.817645,82.5303173 L60.817645,82.5303173 Z M172.694151,79.0752826 L197.91183,103.603644 C205.248194,106.725294 211.259532,110.17168 215.945843,113.942803 C216.999835,115.210269 218.14755,117.638573 213.189851,116.550782 C208.232151,115.46299 202.968445,114.541077 202.037129,116.148248 C201.105813,117.755419 203.851897,120.219264 202.130482,122.322506 C200.982872,123.724667 197.120967,119.262706 190.544767,108.936623 L164.324357,93.5190219 L172.694151,79.0752826 Z" id="Skin" fill="#B28B67"></path>
                                <path d="M108.596899,8.19177476 L116.148506,6.21200351 C132.232793,37.9348794 157.898924,65.7951649 193.146898,89.7928599 L170.934992,122.064768 C134.691547,86.6789132 110.956805,48.9790334 108.596899,8.19177476 Z" id="Coat-Back" fill="#2F3676" transform="translate(150.871898, 64.138386) rotate(5.000000) translate(-150.871898, -64.138386) "></path>
                                <path d="M80.0999987,101.154932 L148.629998,101.154932 C132.753172,62.667385 124.814759,29.9726708 124.814759,3.07078891 L104.142643,0 C87.8963033,26.0504178 83.3082941,58.1237567 80.0999987,101.154932 Z" id="Shirt" fill="#DDE3E9"></path>
                                <path d="M105.062498,-3.78288957e-14 C106.677161,0.0554339127 109.1365,0.155309113 112.440515,0.299625601 L112.440515,0.299625601 L117.43564,14.5315987 C117.964013,31.8837012 121.049634,66.8528698 126.692502,119.439104 L126.692502,119.439104 L81.7697076,119.438983 C81.8874719,123.070935 82.0816483,126.736815 82.3522369,130.436622 L82.3522369,130.436622 L48.9499992,130.436622 C53.9463848,74.2370393 72.1925601,30.7581652 103.688525,1.90145232e-14 L103.688525,1.90145232e-14 L103.704999,0.015 L103.713108,-3.78288957e-14 Z" id="Coat-Front" fill="#2F3676"></path>
                                <path d="M94.3399951,119.788735 L81.7812713,119.788555 C81.2314991,103.500881 82.2166256,87.8947164 84.7366509,72.9700612 C86.0158789,95.6086622 89.2167876,111.214776 94.3399951,119.788735 Z" id="Shade" fill-opacity="0.1" fill="#000000"></path>
                                <polygon id="Light" fill-opacity="0.2" fill="#FFFFFF" points="91.7687003 92.2816953 113.92 82.0147109 113.92 92.2816953"></polygon>
                            </g>
                        </g>
                        <g id="Humaaan">
                            <g id="Head/Front-Head/Front/Airy" transform="translate(146.854992, 53.957671) rotate(7.000000) translate(-146.854992, -53.957671) translate(86.334992, 7.816826)">
                                <g id="Head" transform="translate(48.060000, 27.507043)" fill="#B28B67">
                                    <path d="M33.9475741,8.10475739 C39.1049557,17.6888514 38.4921247,41.9997006 31.8266685,43.7126455 C29.1684907,44.3957664 23.5057783,42.7223912 17.7424615,39.2590203 L21.3600002,64.7746495 L0,64.7746495 L7.35339371,30.6038801 C3.25237072,25.8045724 0.476716105,19.9229594 0.940530944,13.332445 C2.27691391,-5.65670841 28.7901925,-1.47933659 33.9475741,8.10475739 Z"></path>
                                </g>
                                <path d="M69.8329155,24.5657913 C67.0177293,24.1055196 59.4377164,23.78907 58.0398266,23.7892743 C57.1465091,23.7892743 56.178425,23.9927499 55.6493391,23.1749657 C55.2160607,22.5052939 55.3747864,21.3726944 55.245477,20.5955645 C55.0953311,19.6927945 54.8820625,18.8016692 54.6663425,17.9127911 C54.0524804,15.3834416 53.1242309,12.9770764 51.825417,10.7178021 C49.3883536,6.47913449 45.8181476,3.15896747 41.3109081,1.22697021 C36.3336197,-0.906255483 30.7014088,-1.39471963 25.3476319,-0.962027425 C19.6183879,-0.49909988 14.4321209,1.38652291 9.02277974,3.1610104 C3.86797181,4.85194213 -1.53115529,5.51752816 -6.92251975,4.69177655 C-12.354536,3.85989616 -16.4589348,0.924616829 -21.0407366,-1.86132445 C-25.7312156,-4.7134566 -31.0915294,-6.5788544 -36.6365126,-6.15004376 C-41.8125657,-5.74962982 -46.5831225,-3.61885564 -50.8632023,-0.772443682 C-54.8677081,1.89071761 -58.1719413,5.0948463 -60.0374285,9.60440615 C-62.0442777,14.4553393 -62.0424392,19.7800276 -58.7422917,24.0671125 C-53.9588653,30.2812917 -45.0785984,31.8882591 -37.6905987,31.7285021 C-33.4172601,31.636366 -29.2203223,30.8586233 -25.1857873,29.4438954 C-19.8052497,27.5570469 -15.1556268,24.359047 -10.1219571,21.7643238 C-7.75966023,20.5467385 -5.31789836,19.5467251 -2.75847106,18.8263886 C-0.274831732,18.1270943 2.17142431,17.8063546 4.42014134,19.3021866 C6.7989849,20.8846389 8.93064934,22.439103 11.6520709,23.4297189 C14.2627725,24.3800891 17.0281143,24.9116591 19.8095943,24.8902083 C25.2213867,24.8485326 30.5561656,23.1674069 35.8122965,22.0413449 C40.0985048,21.1232529 44.6845965,20.2082253 49.0543554,21.0907703 C50.8777609,21.4591103 53.5411669,22.2194882 54.1997664,24.1087883 C43.1153156,26.1116751 38.7619093,39.7788652 41.8867843,49.8118902 C43.5733221,55.2270802 53.7113323,61.55738 57.6531241,58.7105329 C60.1503626,56.9069733 58.6342822,54.5392263 57.6531241,52.9761818 C55.7741543,49.9828833 55.1312844,46.137888 58.6081343,44.0538969 C61.6071727,42.2565286 64.760455,46.5248013 64.8201048,46.5201026 C65.6443756,46.4553418 72.7667918,42.439414 77.6740069,36.5791569 C82.5149928,36.8652626 83.2494405,33.6828389 82.0935078,31.0802143 C80.9375752,28.4775897 73.7226158,25.2021635 69.8329155,24.5657913 Z" id="hair" fill="#191847"></path>
                            </g>
                            <g id="Bottom/Skinny-Jeans-1-Bottom/Standing/Sprint" transform="translate(0.000000, 172.929577)">
                                <path d="M184.647871,-8.57013077 C167.626788,5.26549217 174.102082,126.571654 172.965972,128.098899 C172.461034,128.777674 145.48673,134.553453 92.0430582,145.426236 L94.3498944,154.815009 C156.86538,151.72167 189.944919,147.861838 193.588511,143.235511 C198.805091,136.611936 205.252506,99.56857 212.930755,32.1054139 L184.647871,-8.57013077 Z" id="Leg" fill="#B28B67" transform="translate(152.486907, 73.122439) rotate(-55.000000) translate(-152.486907, -73.122439) "></path>
                                <path d="M101.050676,135.545666 L105.113916,150.666963 C151.714414,156.001783 182.435089,149.398345 193.248307,139.143249 C200.457118,132.306519 206.921136,95.3638273 212.64036,28.3151749 L182.384498,-14.7647532 C141.866924,15.7112446 166.018201,115.476743 164.982762,117.759498 C163.947323,120.042254 139.37142,121.847289 101.050676,135.545666 Z" id="Pant" fill="#2F3676" transform="translate(156.845518, 68.897704) rotate(-55.000000) translate(-156.845518, -68.897704) "></path>
                                <g id="Right-Show-Accessories/Shoe/Flat-Sneaker" transform="translate(198.811681, 166.177239) rotate(20.000000) translate(-198.811681, -166.177239) translate(171.666681, 148.430761)" fill="#E4E4E4">
                                    <path d="M2.29764908,22.7700032 C1.35921637,25.3048611 0.890000015,27.2109036 0.890000015,28.4881307 C0.890000015,30.0882298 1.15736866,32.4231722 1.69210595,35.4929581 C3.5539313,35.4929581 20.2864692,35.4929581 51.8897197,35.4929581 C53.1941777,31.1934363 52.4411689,28.8722628 49.6306932,28.5294377 C46.8202175,28.1866126 44.4855076,27.8770689 42.6265635,27.6008068 L19.3969702,17.2760764 C18.8922898,17.0517639 18.3013243,17.279047 18.0770117,17.7837274 C18.0734696,17.7916967 18.070032,17.799712 18.0666996,17.8077713 L16.6102599,21.3301099 L16.6102599,21.3301099 C14.0084945,22.5403817 11.89429,23.1455176 10.2676464,23.1455176 C8.98429059,23.1455176 7.22611844,22.643727 4.99312991,21.6401458 L4.9931366,21.6401309 C3.98563446,21.1873251 2.80182095,21.6369953 2.34901513,22.6444975 C2.33047931,22.68574 2.31334745,22.7275993 2.29764908,22.7700032 Z" id="shoe"></path>
                                </g>
                                <polygon id="Leg" fill="#997659" points="115.700001 0 69.6460941 110.229509 24.3822719 203.419268 35.0614725 203.419268 151.899583 0"></polygon>
                                <g id="Left-Shot-Accessories/Shoe/Flat-Sneaker" transform="translate(21.360000, 176.577462)" fill="#E4E4E4">
                                    <path d="M2.29764908,22.7700032 C1.35921637,25.3048611 0.890000015,27.2109036 0.890000015,28.4881307 C0.890000015,30.0882298 1.15736866,32.4231722 1.69210595,35.4929581 C3.5539313,35.4929581 20.2864692,35.4929581 51.8897197,35.4929581 C53.1941777,31.1934363 52.4411689,28.8722628 49.6306932,28.5294377 C46.8202175,28.1866126 44.4855076,27.8770689 42.6265635,27.6008068 L19.3969702,17.2760764 C18.8922898,17.0517639 18.3013243,17.279047 18.0770117,17.7837274 C18.0734696,17.7916967 18.070032,17.799712 18.0666996,17.8077713 L16.6102599,21.3301099 L16.6102599,21.3301099 C14.0084945,22.5403817 11.89429,23.1455176 10.2676464,23.1455176 C8.98429059,23.1455176 7.22611844,22.643727 4.99312991,21.6401458 L4.9931366,21.6401309 C3.98563446,21.1873251 2.80182095,21.6369953 2.34901513,22.6444975 C2.33047931,22.68574 2.31334745,22.7275993 2.29764908,22.7700032 Z" id="shoe"></path>
                                </g>
                                <path d="M28.469808,184.060169 L52.1991088,188.496788 C70.5465376,161.603762 147.331276,51.3333219 155.749993,2.52192629e-14 L102.923221,2.52192629e-14 C74.8088409,37.1087941 45.9586968,156.72228 28.469808,184.060169 Z" id="Pant" fill="#5C63AB"></path>
                            </g>
                            <g id="Body/Long-Sleeve-1-Body/Jacket-2" transform="translate(133.500000, 162.725352) rotate(7.000000) translate(-133.500000, -162.725352) translate(19.580000, 79.760563)">
                                <path d="M45.842371,72.7605648 L64.079999,76.3682861 C45.7389526,110.446153 35.9029788,128.507442 34.5720778,130.552154 C31.5775505,135.152755 34.3715051,143.584313 35.4035802,148.024429 C28.9289195,149.52706 31.4823268,139.811204 23.2887687,141.839787 C15.8100688,143.691382 9.46903307,148.443237 2.49545174,142.034603 C1.63809089,141.246699 1.01046221,138.783934 3.93363964,137.520794 C11.2163407,134.373851 21.975918,128.481265 23.7205844,126.193525 C26.0997487,123.073783 33.4736775,105.262796 45.842371,72.7605648 Z M226.227465,45.4799389 L225.869516,46.003455 C223.13119,50.0270843 220.579849,54.2374409 221.677894,55.6399115 C222.823679,57.103359 226.142771,55.4881114 227.454043,57.8679642 C228.328224,59.4545328 222.733431,61.3524002 210.669664,63.5615664 L186.517244,82.0235928 L176.219997,68.8715007 L208.468761,54.7515916 C214.117993,49.139133 219.573131,44.8734049 224.834175,41.9544073 C226.407328,41.4550739 229.094985,41.3042194 226.227465,45.4799389 Z" id="Skin" fill="#B28B67"></path>
                                <path d="M109.719421,8.76425859 L117.271028,6.78448739 C135.386922,21.4777427 145.606108,59.6828931 157.185278,63.8479692 C168.132915,67.78588 182.63565,61.7861507 199.807818,53.8951986 L206.298489,65.5158689 C191.714748,84.2957981 158.685766,101.968204 144.040219,94.8015225 C120.625032,83.3434889 111.291657,35.9378698 109.719421,8.76425859 Z" id="Coat-Back" fill="#DB2721" transform="translate(158.008955, 51.608330) rotate(5.000000) translate(-158.008955, -51.608330) "></path>
                                <path d="M80.0999987,101.154932 C110.957861,101.154932 133.656257,101.154932 148.195188,101.154932 C151.306791,101.154932 150.720469,96.6753982 150.270668,94.4150011 C145.07942,68.3272869 124.814759,40.2059934 124.814759,3.07078891 L105.1729,0 C88.9265601,26.0504178 83.3082941,58.1237567 80.0999987,101.154932 Z" id="Shirt" fill="#DDE3E9"></path>
                                <path d="M107.451001,-8.52651283e-14 L111.682892,0 C129.316038,59.927152 134.177185,99.8567302 126.266331,119.788735 L126.266331,119.788735 L64.969999,119.788735 C65.9398528,105.202914 69.0497657,89.7778032 73.3093096,74.7381591 C59.427462,99.7052315 47.7586183,117.679519 38.3033256,128.661974 L24.0299996,125.87473 C33.224227,69.0255274 59.8494824,27.067284 103.905766,-8.52651283e-14 L107.451001,-8.52651283e-14 Z" id="Coat-Front" fill="#FF4133"></path>
                            </g>
                        </g>
                    </g>
                </g>
            </g>
        </g>
    </g>
</svg>