<?xml version="1.0" encoding="UTF-8"?>
<svg width="226px" height="373px" viewBox="0 0 226 373" version="1.1" xmlns="http://www.w3.org/2000/svg" xmlns:xlink="http://www.w3.org/1999/xlink">
    <!-- Generator: sketchtool 57.1 (101010) - https://sketch.com -->
    <title>E0560793-8CF0-42C5-8BDA-B459F429D867</title>
    <desc>Created with sketchtool.</desc>
    <g id="Inner-Page" stroke="none" stroke-width="1" fill="none" fill-rule="evenodd">
        <g id="Team-Page" transform="translate(-1281.000000, -257.000000)">
            <g id="Banner">
                <g id="banner-content" transform="translate(315.000000, 197.000000)">
                    <g id="humaaan-9" transform="translate(943.000000, 18.000000)">
                        <g id="Head/Front-Head/Front/Hijab-1" transform="translate(162.403620, 63.843592) rotate(15.000000) translate(-162.403620, -63.843592) translate(98.568671, 15.022022)">
                            <g id="Head" transform="translate(50.692460, 29.105168)" fill="#B28B67">
                                <path d="M35.8070334,8.5756336 C41.2469077,18.7165514 40.6005092,44.4398303 33.5699564,46.2522952 C30.7661965,46.9750998 24.7933713,45.2045312 18.7144127,41.539991 L22.5299822,68.5379752 L0,68.5379752 L7.75535464,32.3809678 C3.43014882,27.3030019 0.502858766,21.0800192 0.992047999,14.1070433 C2.4016306,-5.98535604 30.3671591,-1.56528419 35.8070334,8.5756336 Z"></path>
                            </g>
                            <g id="Hijab" transform="translate(33.794973, 26.288538)">
                                <path d="M47.6274437,4.70515249 C47.1113857,4.39710331 46.0317021,3.7473358 45.4847243,3.51183923 C45.3552854,3.45517129 44.4489896,2.80851186 44.4246175,2.81662912 C43.7384398,3.04823173 41.7514637,3.90303958 41.5809196,4.64167683 C41.5544862,4.69765139 41.5285378,4.75015906 41.5032562,4.79604811 C41.2217039,5.30795058 40.9633718,5.832586 40.7169226,6.36358789 C40.1761287,7.52922025 39.7092999,8.74748635 39.2634481,9.95617122 C38.3950253,12.3101283 37.6405815,14.7189254 36.9469466,17.1332064 C36.240762,19.5909182 35.6414023,22.0773106 34.970442,24.5451709 C34.0049552,28.0962776 32.7692533,31.5602707 31.8104355,35.1099276 C31.1981623,37.376456 30.8576197,39.6695849 31.0184029,42.0023625 C31.0199792,42.0304128 31.0208886,42.0580849 31.0234349,42.0865764 C31.0244049,42.0982378 31.02586,42.1097731 31.0268906,42.1214345 C31.0542335,42.4800372 31.0932167,42.8395225 31.1451742,43.2000793 C31.1906445,43.5083807 31.2362361,43.8178166 31.284859,44.1271895 C32.1606783,42.3805059 32.8293348,40.4558762 33.5389146,38.6291389 C33.6083326,38.4503103 33.6745374,38.2701579 33.7392266,38.0894382 C33.9680333,37.718985 34.2013264,37.3511792 34.4372265,36.9847602 C35.9248947,34.6741707 37.4184437,32.3720909 38.8449997,30.0197097 C41.4108605,25.7887768 43.9527736,21.4683982 46.9947998,17.5832091 C47.8930511,16.4359198 48.8122188,15.306217 49.6991935,14.1495355 C50.2039143,13.4913302 50.6955395,12.8220938 51.1712199,12.140944 C51.5112774,11.6538771 52.9897024,9.95617122 52.4543322,8.93614835 C52.1804141,8.41426145 48.9661511,5.50436581 47.6274437,4.70515249 Z" id="Front" fill="#2C2C2C"></path>
                                <path d="M45.6476375,3.59699123 C46.1494934,3.76566339 45.905335,2.72120238 45.4192467,2.35365444 C43.1673036,0.650883273 34.5578508,0.0329827084 27.0657212,1.58846971 C22.0466964,2.63050024 16.2094438,5.22406101 12.2005997,8.55828826 C8.58673444,11.564102 6.10138621,16.3825787 4.82181278,21.0380366 C3.47830391,25.9263581 3.27482246,31.0226227 4.02333029,36.0353594 C4.18777098,37.1364371 4.54111462,38.1857325 4.73798633,39.2634549 C4.95969092,40.4771137 5.07341568,41.6456272 5.46864166,42.8264133 C5.71066969,43.5492988 6.12195674,44.2579708 6.32846509,44.9849889 C6.56419224,45.8145697 6.4205074,46.5820368 6.24859213,47.4258311 C5.96844994,48.8010981 5.62109832,50.1735474 5.12746738,51.4870138 C4.38618703,53.4593736 3.48664332,55.3066294 2.92265252,57.3533753 C2.17222971,60.0767346 -0.966830915,68.9390028 1.32719313,71.3546039 L44.9964968,71.3546039 C43.8968692,68.354676 40.5961261,64.824048 39.9279236,61.6126706 C39.5343655,59.7208958 39.3471305,55.5895221 39.3059276,55.4393723 C38.3218349,48.6547678 36.4003087,45.414824 35.1968465,44.2390079 C33.9933842,43.0631918 32.3904615,42.7016224 32.3078705,41.6816933 C31.9665109,37.4633479 33.6437194,33.4215131 34.8735653,29.4846204 C36.3393237,24.7924704 37.4135007,19.9839198 38.9246007,15.3076739 C39.5937297,13.2369466 43.0418738,2.72120238 45.6476375,3.59699123 Z" id="Turban" fill="#8991DC"></path>
                                <path d="M13.4931337,44.9538064 C22.512014,47.7791031 21.5073982,53.6120622 32.8667456,59.5192344 L31.9174752,60.0944844 C21.9708887,55.989013 19.6457386,47.1835434 12.832189,45.7573762 L13.4931337,44.9538064 Z M20.8522819,14.3576371 C22.2465143,24.9281535 22.6536704,30.966026 29.9151906,42.5289513 L29.1426732,42.7651336 C21.6693873,32.6973157 20.4845064,24.4802755 20.1310678,14.4156635 L20.8522819,14.3576371 Z M8.24332635,21.936301 C11.312682,29.3833951 12.7121996,33.7809877 21.2824437,39.8076978 L20.6207203,40.2710415 C12.1129762,35.4487684 9.63515677,29.6970788 7.5978451,22.2464925 L8.24332635,21.936301 Z M30.3366534,8.44988735 C28.6899062,13.6756274 28.3357273,16.4651084 28.6899062,23.605332 L27.8820911,23.605332 C26.3730083,16.8671071 27.7161041,10.5237781 29.3213234,8.44988735 L30.3366534,8.44988735 Z" id="Shade" fill-opacity="0.2" fill="#000000"></path>
                            </g>
                        </g>
                        <g id="Bottom/Skinny-Jeans-1-Bottom/Standing/Sprint" transform="translate(0.000000, 191.000000)">
                            <path d="M195.021347,-9.05222566 C177.044024,5.56169149 183.883098,133.69168 182.683162,135.304836 C182.149857,136.021794 153.660142,142.122478 97.2140166,153.606887 L99.6504503,163.523805 C165.678042,160.256458 200.615982,156.179498 204.46427,151.292927 C209.973916,144.296756 216.783545,105.169593 224.893157,33.9114372 L195.021347,-9.05222566 Z" id="Leg" fill="#B28B67" transform="translate(161.053587, 77.235790) rotate(-55.000000) translate(-161.053587, -77.235790) "></path>
                            <path d="M106.72768,143.170505 L111.019192,159.14242 C160.237695,164.777339 192.684252,157.802438 204.104953,146.970463 C211.718754,139.749147 218.545919,100.728321 224.586448,29.9079863 L192.630818,-15.5953137 C149.836975,16.595048 175.345066,121.972647 174.251457,124.383814 C173.157847,126.794981 147.201275,128.701555 106.72768,143.170505 Z" id="Pant" fill="#2F3676" transform="translate(165.657064, 72.773401) rotate(-55.000000) translate(-165.657064, -72.773401) "></path>
                            <g id="Right-Show-Accessories/Shoe/Flat-Sneaker" transform="translate(209.980876, 175.525194) rotate(20.000000) translate(-209.980876, -175.525194) translate(181.310876, 156.780425)" fill="#E4E4E4">
                                <path d="M2.47033528,23.9335191 C1.45011176,26.6695713 0.940000003,28.7219552 0.940000003,30.0906708 C0.940000003,31.7807801 1.22238936,34.2470699 1.78716806,37.4895401 C3.75359031,37.4895401 21.4261582,37.4895401 54.8048717,37.4895401 C56.1826138,32.9481577 55.3873012,30.4964115 52.4189336,30.1343015 C49.4505661,29.7721914 46.9846927,29.4452351 45.0213136,29.1534323 L20.4340254,18.2244979 C19.9293507,18.0001724 19.3383793,18.2274403 19.1140538,18.7321149 C19.1105047,18.7400995 19.1070605,18.7481301 19.1037219,18.7562049 L17.5434204,22.5299905 L17.5434204,22.5299905 C14.7954884,23.8083437 12.5625084,24.4475202 10.8444803,24.4475202 C9.46921257,24.4475202 7.57768517,23.9018942 5.16989812,22.810642 L5.16989876,22.8106406 C4.16383239,22.3546734 2.97861996,22.8006168 2.5226527,23.8066832 C2.50376809,23.848351 2.48631868,23.8906545 2.47033528,23.9335191 Z" id="shoe"></path>
                            </g>
                            <polygon id="Leg" fill="#997659" points="122.200001 0 73.558796 116.430241 25.7520624 214.862196 37.0312182 214.862196 160.433268 0"></polygon>
                            <g id="Left-Shot-Accessories/Shoe/Flat-Sneaker" transform="translate(22.560000, 186.510460)" fill="#E4E4E4">
                                <path d="M2.47033528,23.9335191 C1.45011176,26.6695713 0.940000003,28.7219552 0.940000003,30.0906708 C0.940000003,31.7807801 1.22238936,34.2470699 1.78716806,37.4895401 C3.75359031,37.4895401 21.4261582,37.4895401 54.8048717,37.4895401 C56.1826138,32.9481577 55.3873012,30.4964115 52.4189336,30.1343015 C49.4505661,29.7721914 46.9846927,29.4452351 45.0213136,29.1534323 L20.4340254,18.2244979 C19.9293507,18.0001724 19.3383793,18.2274403 19.1140538,18.7321149 C19.1105047,18.7400995 19.1070605,18.7481301 19.1037219,18.7562049 L17.5434204,22.5299905 L17.5434204,22.5299905 C14.7954884,23.8083437 12.5625084,24.4475202 10.8444803,24.4475202 C9.46921257,24.4475202 7.57768517,23.9018942 5.16989812,22.810642 L5.16989876,22.8106406 C4.16383239,22.3546734 2.97861996,22.8006168 2.5226527,23.8066832 C2.50376809,23.848351 2.48631868,23.8906545 2.47033528,23.9335191 Z" id="shoe"></path>
                            </g>
                            <path d="M30.0692354,194.414091 L55.131643,199.100284 C74.5098263,170.694445 155.608314,54.2209712 164.499993,2.66379201e-14 L108.705424,2.66379201e-14 C79.0115848,39.1962722 48.5406461,165.538366 30.0692354,194.414091 Z" id="Pant" fill="#5C63AB"></path>
                        </g>
                        <g id="Body/Long-Sleeve-1-Body/Jacket" transform="translate(140.812388, 179.794821) rotate(10.000000) translate(-140.812388, -179.794821) translate(20.652484, 92.009882)">
                            <path d="M64.1228945,87.3345756 L83.7404219,87.412272 C71.6285821,126.519353 65.0899784,147.269322 64.1246108,149.66218 C61.9525336,155.046109 66.5494805,163.245957 68.5153422,167.65248 C62.1130702,170.517519 62.7949553,159.906475 54.7186654,163.664142 C47.3470025,167.093967 41.7394962,173.308794 33.222351,168.052658 C32.1752181,167.406447 31.0276835,164.973423 33.8000579,163.072245 C40.7070538,158.335716 50.660413,150.045878 52.0052242,147.317161 C53.8391147,143.596067 57.8783381,123.601872 64.1228945,87.3345756 L64.1228945,87.3345756 Z M182.159292,83.6752656 L208.751814,109.620795 C216.489307,112.921612 222.82907,116.566407 227.771102,120.555179 C228.882485,121.895947 230.092395,124.46494 224.863329,123.315408 C219.634263,122.165875 214.082373,121.191943 213.099557,122.892716 C212.116741,124.593489 215.012599,127.199627 213.196244,129.425507 C211.985341,130.909428 207.913092,126.18946 200.979498,115.265605 L173.326667,98.960218 L182.159292,83.6752656 Z" id="Skin" fill="#B28B67"></path>
                            <path d="M114.545235,8.66770605 L122.510477,6.57291271 C139.475773,40.1388457 166.547752,69.617777 203.726415,95.0097064 L180.297864,129.15657 C142.069204,91.7148435 117.034404,51.8246505 114.545235,8.66770605 Z" id="Coat-Back" fill="#191847" transform="translate(159.135825, 67.864741) rotate(5.000000) translate(-159.135825, -67.864741) "></path>
                            <path d="M84.4874328,107.031899 L156.771125,107.031899 C140.024655,66.3082772 131.65142,31.7140434 131.65142,3.24919769 L109.847,0 C92.7107758,27.5639127 87.8714608,61.5006701 84.4874328,107.031899 Z" id="Shirt" fill="#DDE3E9"></path>
                            <path d="M110.81724,-4.00267045e-14 C112.520345,0.0586545497 115.114393,0.164332367 118.599383,0.317033453 L118.599383,0.317033453 L123.868113,15.3758654 C124.425428,33.7361021 127.680062,70.7369332 133.632015,126.378359 L133.632015,126.378359 L86.2486029,126.378348 C86.3728181,130.221273 86.5776292,134.100096 86.8630361,138.014818 L86.8630361,138.014818 L51.631209,138.014818 C56.9012688,78.5501131 76.1468685,32.545174 109.368008,1.68167143e-14 L109.368008,1.68167143e-14 L109.384209,0.015 L109.393937,-4.00267045e-14 Z" id="Coat-Front" fill="#2F3676"></path>
                            <path d="M99.5074173,126.748302 L86.2607958,126.748098 C85.6808828,109.513298 86.7200987,92.9996712 89.3784434,77.2072183 C90.7272043,101.162676 94.1034706,117.676008 99.5074173,126.748302 Z" id="Shade" fill-opacity="0.1" fill="#000000"></path>
                            <polygon id="Light" fill-opacity="0.2" fill="#FFFFFF" points="96.7952813 97.6431398 120.159906 86.7796571 120.159906 97.6431398"></polygon>
                        </g>
                    </g>
                </g>
            </g>
        </g>
    </g>
</svg>