<?xml version="1.0" encoding="UTF-8"?>
<svg width="274px" height="383px" viewBox="0 0 274 383" version="1.1" xmlns="http://www.w3.org/2000/svg" xmlns:xlink="http://www.w3.org/1999/xlink">
    <!-- Generator: sketchtool 57.1 (101010) - https://sketch.com -->
    <title>9C39BF3B-D7CD-4E27-AC6B-691EE7981849</title>
    <desc>Created with sketchtool.</desc>
    <g id="Inner-Page" stroke="none" stroke-width="1" fill="none" fill-rule="evenodd">
        <g id="Team-Page" transform="translate(-1516.000000, -294.000000)">
            <g id="Banner">
                <g id="banner-content" transform="translate(315.000000, 197.000000)">
                    <g id="humaaan-2" transform="translate(1202.000000, 104.000000)">
                        <g id="Head/Front-Head/Front/Airy" transform="translate(72.000000, 0.000000)">
                            <g id="Head" transform="translate(47.647059, 27.423077)" fill="#B28B67">
                                <path d="M33.6558895,8.08001739 C38.7689577,17.6348557 38.1613923,41.8714953 31.5532071,43.5792114 C28.9177706,44.2602724 23.3033929,42.5918554 17.5893751,39.1387946 L21.1764706,64.5769231 L0,64.5769231 L7.28996347,30.5101686 C3.22431361,25.7255644 0.472629424,19.8620102 0.932449706,13.2917473 C2.2573502,-5.63944114 28.5428212,-1.47482088 33.6558895,8.08001739 Z"></path>
                            </g>
                            <path d="M69.2328965,24.4908035 C66.441899,24.0319368 58.9270152,23.7164532 57.5411363,23.7166568 C56.6554944,23.7166568 55.6957282,23.9195114 55.1711884,23.1042235 C54.7416328,22.4365958 54.8989947,21.3074537 54.7707964,20.532696 C54.6219405,19.6326817 54.4105043,18.7442766 54.1966379,17.8581118 C53.5880502,15.3364832 52.6677764,12.9374635 51.3801222,10.6850857 C48.9639986,6.45935675 45.4244685,3.14932464 40.9559562,1.22322485 C36.0214337,-0.903489112 30.4376159,-1.39046221 25.1298398,-0.959090809 C19.4498227,-0.497576363 14.3081171,1.38229051 8.94525413,3.15136133 C3.83473739,4.83713144 -1.51799929,5.50068575 -6.86304002,4.67745477 C-12.2483832,3.84811372 -16.3175162,0.92179441 -20.8599503,-1.8556427 C-25.5101276,-4.69906864 -30.8243845,-6.55877226 -36.3217241,-6.13127057 C-41.4533034,-5.73207891 -46.1828706,-3.60780897 -50.4261751,-0.770085775 C-54.3962734,1.88494614 -57.6721158,5.07929414 -59.5215744,9.57508843 C-61.5111804,14.411214 -61.5093577,19.7196485 -58.2375657,23.993647 C-53.4952395,30.1888572 -44.6912737,31.7909193 -37.3667533,31.6316499 C-33.130132,31.5397951 -28.9692552,30.7644264 -24.9693857,29.3540171 C-19.6350788,27.4729282 -15.0254065,24.2846903 -10.0349871,21.6978876 C-7.69298761,20.484019 -5.27220587,19.4870582 -2.7347697,18.7689206 C-0.272470321,18.0717608 2.15276698,17.7520002 4.38216256,19.2432662 C6.7405666,20.8208879 8.85391534,22.370607 11.5519539,23.358199 C14.1402238,24.3056682 16.8818052,24.8356155 19.6393861,24.8142302 C25.0046793,24.7726817 30.2936206,23.0966877 35.5045898,21.974063 C39.7539701,21.0587736 44.3006571,20.1465391 48.6328701,21.0263902 C50.4406086,21.3936058 53.08113,22.1516626 53.7340707,24.0351955 C42.7448598,26.0319685 38.4288589,39.6574391 41.5268843,49.659838 C43.198931,55.058498 53.2498334,61.3694743 57.1577564,58.5313173 C59.6335382,56.7332631 58.1304842,54.3727437 57.1577564,52.8144705 C55.2949312,49.8303092 54.6575849,45.9970508 58.104561,43.9194211 C61.077831,42.1275394 64.2040196,46.382783 64.263157,46.3780987 C65.0803455,46.3135355 72.1415644,42.3098665 77.0066156,36.467498 C81.8060068,36.7527304 82.5341439,33.580021 81.3881433,30.9853411 C80.2421427,28.3906611 73.0891757,25.1252331 69.2328965,24.4908035 Z" id="hair" fill="#191847"></path>
                        </g>
                        <g id="Bottom/Skinny-Jeans-1-Bottom/Standing/Jogging" transform="translate(0.000000, 165.000000)">
                            <polygon id="Leg" fill="#997659" points="114.833333 0 180.470665 109.673129 229.679779 202.392515 240.278986 202.392515 157.828424 4.49401661e-13"></polygon>
                            <g id="Right-Shoe-Accessories/Shoe/Flat-Sneaker" transform="translate(220.833333, 175.686192)" fill="#E4E4E4">
                                <path d="M2.27498086,22.6698572 C1.34721586,25.1845483 0.883333363,27.0760418 0.883333363,28.3443377 C0.883333363,29.9363603 1.14869925,32.2595172 1.67943103,35.3138084 C3.52731015,35.3138084 20.134511,35.3138084 51.5010334,35.3138084 C52.7957203,31.0359884 52.048352,28.726531 49.2589285,28.3854362 C46.469505,28.0443415 44.1522835,27.7363603 42.3072641,27.4614925 L19.2599919,17.1925817 C18.7555165,16.9678083 18.1643437,17.1945516 17.9395703,17.699027 C17.9357794,17.7075352 17.9321075,17.7160961 17.9285558,17.7247069 L16.4858388,21.2224468 L16.4858388,21.2224468 C13.9035622,22.4266098 11.8051944,23.0286913 10.1907353,23.0286913 C8.92009665,23.0286913 7.18049228,22.5318638 4.97192224,21.5382088 L4.97191305,21.5382292 C3.96460926,21.0850344 2.78064122,21.5342285 2.32744641,22.5415322 C2.30848015,22.583688 2.29098112,22.6264887 2.27498086,22.6698572 Z" id="shoe"></path>
                            </g>
                            <path d="M216.013039,187.545356 L236.453423,181.36544 C227.497934,154.608155 216.52171,125.162744 203.524752,93.0292064 C190.527794,60.8956691 176.569544,29.8859336 161.650003,2.50919694e-14 L103.918932,2.50919694e-14 C120.506253,37.8043337 138.091038,72.1544237 156.673287,103.05027 C175.255536,133.946116 195.035453,162.111145 216.013039,187.545356 Z" id="Pant" fill="#DB2721"></path>
                            <path d="M110.519692,2.50919694e-14 C104.324761,38.5398908 92.3764337,87.7790626 91.2488338,89.2985981 C90.4971006,90.3116217 63.4345107,99.3749963 10.0610642,116.488722 L12.3506209,125.830105 C75.9983306,116.651903 109.535246,109.531077 112.961366,104.467626 C118.100546,96.8724489 143.761168,36.8703847 153.700006,2.50919694e-14 L110.519692,2.50919694e-14 Z" id="Leg" fill="#B28B67"></path>
                            <path d="M28.8227329,108.413816 L32.8555375,123.458789 C80.4603142,127.631718 109.628812,124.616515 120.361032,114.413181 C131.093252,104.209848 143.324814,66.0721205 157.055719,-1.00367878e-13 L102.005697,-1.00367878e-13 C93.3061188,54.1041762 88.4424884,82.291881 87.4148058,84.5631144 C86.3871232,86.8343478 66.8564322,94.7845816 28.8227329,108.413816 Z" id="Pant" fill="#FF4133"></path>
                            <g id="Left-Shoe-Accessories/Shoe/Flat-Sneaker" transform="translate(21.641667, 135.958159) rotate(80.000000) translate(-21.641667, -135.958159) translate(-5.300000, 118.301255)" fill="#E4E4E4">
                                <path d="M2.27498086,22.6698572 C1.34721586,25.1845483 0.883333363,27.0760418 0.883333363,28.3443377 C0.883333363,29.9363603 1.14869925,32.2595172 1.67943103,35.3138084 C3.52731015,35.3138084 20.134511,35.3138084 51.5010334,35.3138084 C52.7957203,31.0359884 52.048352,28.726531 49.2589285,28.3854362 C46.469505,28.0443415 44.1522835,27.7363603 42.3072641,27.4614925 L19.2599919,17.1925817 C18.7555165,16.9678083 18.1643437,17.1945516 17.9395703,17.699027 C17.9357794,17.7075352 17.9321075,17.7160961 17.9285558,17.7247069 L16.4858388,21.2224468 L16.4858388,21.2224468 C13.9035622,22.4266098 11.8051944,23.0286913 10.1907353,23.0286913 C8.92009665,23.0286913 7.18049228,22.5318638 4.97192224,21.5382088 L4.97191305,21.5382292 C3.96460926,21.0850344 2.78064122,21.5342285 2.32744641,22.5415322 C2.30848015,22.583688 2.29098112,22.6264887 2.27498086,22.6698572 Z" id="shoe"></path>
                            </g>
                        </g>
                        <g id="Body/Long-Sleeve-1-Body/Jacket" transform="translate(19.000000, 72.000000)">
                            <path d="M60.3071424,82.0749228 L78.7551979,82.1454831 C67.3604777,118.900754 61.2090581,138.402882 60.3009389,140.651866 C58.2576708,145.712081 62.5795508,153.417914 64.4276686,157.559022 C58.4066968,160.252456 59.0492635,150.279862 51.4539552,153.812419 C44.52131,157.036773 39.2473052,162.878316 31.2385529,157.939545 C30.2539239,157.332352 29.1751026,155.045883 31.7824456,153.258764 C38.2782879,148.806396 47.6393359,141.014164 48.9043211,138.449483 C50.6293543,134.952081 54.4302947,116.160561 60.3071424,82.0749228 L60.3071424,82.0749228 Z M171.303902,78.6366082 L196.313134,103.021679 C203.589718,106.124206 209.551882,109.549929 214.199626,113.298847 C215.244853,114.558963 216.3828,116.973371 211.465279,115.892759 C206.547757,114.812147 201.326659,113.896546 200.402501,115.494883 C199.478343,117.093219 202.201773,119.542626 200.493776,121.634415 C199.355112,123.028941 195.52528,118.59289 189.004282,108.326263 L162.998442,93.0009561 L171.303902,78.6366082 Z" id="Skin" fill="#B28B67"></path>
                            <path d="M107.719889,8.14588231 L115.21051,6.17720225 C131.164904,37.7223583 156.623759,65.4265632 191.587077,89.2898169 L169.554551,121.38093 C133.603802,86.1933154 110.060737,48.7046401 107.719889,8.14588231 Z" id="Coat-Back" fill="#191847" transform="translate(149.653483, 63.779066) rotate(5.000000) translate(-149.653483, -63.779066) "></path>
                            <path d="M79.453125,100.588235 L147.429688,100.588235 C131.68108,62.316306 123.806776,29.8047561 123.806776,3.05358556 L103.301606,0 C87.186468,25.9044766 82.6355107,57.7981323 79.453125,100.588235 Z" id="Shirt" fill="#DDE3E9"></path>
                            <path d="M104.214032,-3.76169684e-14 C105.815655,0.0551233575 108.255133,0.154439031 111.532465,0.297947021 L111.532465,0.297947021 L116.48725,14.4501889 C117.011356,31.7050804 120.072058,66.4783427 125.669355,118.769976 L125.669355,118.769976 L81.109326,118.769126 C81.2261369,122.380969 81.4187531,126.026555 81.6871745,129.705882 L81.6871745,129.705882 L48.5546875,129.705882 C53.5107231,73.8211441 71.6095455,30.58585 102.851155,1.92264505e-14 L102.851155,1.92264505e-14 L102.866687,0.014 L102.875539,-3.76169684e-14 Z" id="Coat-Front" fill="#2F3676"></path>
                            <path d="M93.5781216,119.117647 L81.1208353,119.117926 C80.5755027,102.92233 81.5525147,87.4043549 84.0518715,72.5640005 C85.3214963,95.0743412 88.4965017,110.59208 93.5781216,119.117647 Z" id="Shade" fill-opacity="0.1" fill="#000000"></path>
                            <polygon id="Light" fill-opacity="0.2" fill="#FFFFFF" points="91.0275922 91.7647092 113.000002 81.5552431 113.000002 91.7647092"></polygon>
                        </g>
                    </g>
                </g>
            </g>
        </g>
    </g>
</svg>