<?xml version="1.0" encoding="UTF-8"?>
<svg width="190px" height="285px" viewBox="0 0 190 285" version="1.1" xmlns="http://www.w3.org/2000/svg" xmlns:xlink="http://www.w3.org/1999/xlink">
    <!-- Generator: sketchtool 57.1 (101010) - https://sketch.com -->
    <title>D6F1E405-5195-4FEE-B5A0-D8543D2B26A0</title>
    <desc>Created with sketchtool.</desc>
    <g id="Inner-Page" stroke="none" stroke-width="1" fill="none" fill-rule="evenodd">
        <g id="Team-Page" transform="translate(-898.000000, -359.000000)">
            <g id="Banner">
                <g id="banner-content" transform="translate(315.000000, 197.000000)">
                    <g id="humaaan-11" transform="translate(584.000000, 135.000000)">
                        <g id="Head/Front-Head/Front/Wavy" transform="translate(86.804346, 48.104974) rotate(-15.000000) translate(-86.804346, -48.104974) translate(38.814951, 11.318817)">
                            <g id="Head" transform="translate(38.109226, 21.930208)" fill="#915B3C">
                                <path d="M26.918763,6.46158212 C31.0083139,14.1025771 30.5223689,33.4845945 25.2369887,34.8502534 C23.1291361,35.3948893 18.6387264,34.0607046 14.068591,31.2993771 L16.9374336,51.6421032 L0,51.6421032 L5.83094217,24.3992583 C2.57899826,20.5729589 0.378010205,15.8837704 0.745794957,10.6293976 C1.80548117,-4.50985565 22.8292121,-1.17941283 26.918763,6.46158212 Z"></path>
                            </g>
                            <path d="M66.6269914,31.8225946 C66.4592179,30.8321629 66.04919,29.7322992 65.7183459,28.7952578 C65.2918032,27.5872879 64.6463017,26.4981505 63.935944,25.4716834 C62.5985683,23.5391484 60.9942206,21.7940218 59.222865,20.3456149 C55.9872645,17.6999643 51.8685018,16.1739426 47.8182047,16.66952 C45.7732054,16.9197191 43.7880316,17.7016516 42.0983753,19.0031449 C40.5717896,20.1790565 39.1033888,21.9100824 37.1266364,22.0344588 C34.9757671,22.169682 33.0041551,20.2666744 31.2791723,19.0913653 C29.3342466,17.7663707 27.265186,16.8008866 24.9920411,16.425588 C21.1839984,15.7970772 17.6066169,17.0867596 14.9821757,20.218587 C12.1894142,23.5513209 10.1592893,28.4387603 11.9933138,32.8546056 C12.33422,33.675466 12.7727934,34.3674906 13.4022175,34.9410443 C13.979472,35.4669927 14.8611032,36.0265662 15.0951548,36.8669507 C15.3437527,37.7602434 14.6011308,38.9126537 14.3131597,39.7186901 C13.9006163,40.8735108 13.5618976,42.0856989 13.6823139,43.3409126 C13.8801641,45.4022832 15.1724794,47.3701305 16.5370882,48.725014 C17.9257584,50.1037605 19.6348825,50.8943704 21.4603762,51.2588222 C22.6793042,51.5021517 23.9250279,51.6364108 25.1638613,51.5450567 C25.7788485,51.4997413 26.3215421,51.3284827 26.9173896,51.1922953 C27.4968315,51.059844 27.820676,51.2141094 28.3122939,51.5326432 C30.5960477,53.0126263 33.0516216,53.5852159 35.6886404,53.3651467 C37.9142094,53.1793052 40.479372,52.6386534 42.2949131,51.1101008 C44.311148,49.4124589 44.2710093,47.0714824 43.7965624,44.5703351 C44.2992267,44.8200521 45.6898655,44.974679 44.8588727,43.979306 C44.5296692,43.5850857 43.9076823,43.4246739 43.4852956,43.1927938 C42.9934589,42.9228294 42.4940758,42.5739246 42.1121559,42.1335453 C40.5700397,40.3553962 42.1275771,36.7366688 44.0658312,36.1403368 C46.9455419,35.2543958 47.5902777,39.3367629 49.6459952,40.3927574 C50.8279562,40.9999361 52.0643834,40.1700368 52.9499518,39.3226621 C54.1361782,38.1874861 54.9446409,36.6836401 55.6426398,35.1532797 C56.2175976,33.8930042 56.7526354,32.6150123 57.3386396,31.3610038 C57.6122832,30.7753981 58.5596456,29.1199382 58.0838864,28.4578024 C60.1464941,28.0455042 62.4438098,28.9046898 64.2201964,30.0314294 C64.9543969,30.4972384 65.5141523,31.0107732 65.905806,31.8330798 C65.9896928,32.0092798 66.1723406,32.5330588 66.4016894,32.5545113 C66.8286696,32.5945239 66.6690989,32.071468 66.6269914,31.8225946" id="hair" fill="#191847"></path>
                        </g>
                        <g id="Bottom/Skinny-Jeans-1-Bottom/Standing/Skirt" transform="translate(0.000000, 143.000000)">
                            <path d="M68.8348606,69.3593517 C85.7873338,74.103974 100.413415,76.4762852 112.713105,76.4762852 C125.012795,76.4762852 136.437315,72.822968 146.986667,65.5163337 C130.39713,60.6464108 116.734907,58.2114493 105.999999,58.2114493 C95.2650904,58.2114493 82.876711,61.9274168 68.8348606,69.3593517 Z" id="Skirt-Shadow" fill="#1F28CF"></path>
                            <path d="M127.388562,83.3151095 C127.2251,83.0692165 127.087056,82.8017343 126.977562,82.5119877 C124.711569,76.5156251 88.4159319,11.8268417 84.8,0 L125.663767,0 C128.413011,8.99211473 140.787091,65.4219216 142.528531,76.6804998 C148.023096,94.4396877 159.335856,151.955214 160.780022,155.939714 C162.299261,160.13134 153.751008,164.497931 151.4731,159.344846 C147.848563,151.145418 139.212377,128.457749 135.367041,114.604816 C131.762046,101.617722 128.826618,89.9338098 127.388562,83.3151095 Z" id="Leg" fill="#784931"></path>
                            <path d="M93.9563222,91.2130443 C77.3625536,95.4096738 16.666047,102.996437 12.5007869,104.186402 C8.21603377,105.410504 4.45912514,96.5730903 9.75531142,94.6587566 C18.182438,91.6127285 41.4029862,84.5747502 55.4816885,81.7026903 C66.805744,79.3925792 77.1390837,77.5075316 84.0766158,76.4036684 C83.4888842,56.9038133 80.8022128,10.1071514 82.5631778,1.00486797e-14 L118.719998,1.00486797e-14 C117.031351,9.69207861 102.756478,80.4112703 100.103289,87.4900615 C99.2612967,90.0172375 96.7489677,91.1340627 93.9563222,91.2130443 L93.9563222,91.2130443 Z" id="Leg" fill="#915B3C"></path>
                            <g id="Left-Shoe-Accessories/Shoe/Flat-Sneaker" transform="translate(17.313333, 111.016736) rotate(80.000000) translate(-17.313333, -111.016736) translate(-4.240000, 96.874477)" fill="#E4E4E4">
                                <path d="M1.6669515,18.580398 C1.02676161,20.3849149 0.706666665,21.7588944 0.706666665,22.7023366 C0.706666665,23.9774637 0.918959369,25.8381912 1.34354478,28.2845192 C2.82184802,28.2845192 16.1076082,28.2845192 41.2008253,28.2845192 C42.2365747,24.8582084 41.6386801,23.0084534 39.4071414,22.7352543 C37.1756027,22.4620552 35.3218256,22.2153783 33.8458101,21.9952236 L15.5964789,13.8544425 C15.0921026,13.629447 14.5008299,13.8559299 14.2758345,14.3603063 C14.2719233,14.3690739 14.2681386,14.3778975 14.2644816,14.3867742 L13.1886706,16.9980733 L13.1886706,16.9980733 C11.1228494,17.9625451 9.44415518,18.444781 8.15258799,18.444781 C7.20751373,18.444781 5.93814555,18.1008133 4.34448345,17.4128779 L4.34448098,17.4128836 C3.33036561,16.9751209 2.15338587,17.442347 1.71562315,18.4564624 C1.69802821,18.4972226 1.68179533,18.5385574 1.6669515,18.580398 Z" id="shoe"></path>
                            </g>
                            <g id="Right-Shoe-Accessories/Shoe/Flat-Sneaker" transform="translate(146.986667, 140.715481)" fill="#E4E4E4">
                                <path d="M1.6669515,18.580398 C1.02676161,20.3849149 0.706666665,21.7588944 0.706666665,22.7023366 C0.706666665,23.9774637 0.918959369,25.8381912 1.34354478,28.2845192 C2.82184802,28.2845192 16.1076082,28.2845192 41.2008253,28.2845192 C42.2365747,24.8582084 41.6386801,23.0084534 39.4071414,22.7352543 C37.1756027,22.4620552 35.3218256,22.2153783 33.8458101,21.9952236 L15.5964789,13.8544425 C15.0921026,13.629447 14.5008299,13.8559299 14.2758345,14.3603063 C14.2719233,14.3690739 14.2681386,14.3778975 14.2644816,14.3867742 L13.1886706,16.9980733 L13.1886706,16.9980733 C11.1228494,17.9625451 9.44415518,18.444781 8.15258799,18.444781 C7.20751373,18.444781 5.93814555,18.1008133 4.34448345,17.4128779 L4.34448098,17.4128836 C3.33036561,16.9751209 2.15338587,17.442347 1.71562315,18.4564624 C1.69802821,18.4972226 1.68179533,18.5385574 1.6669515,18.580398 Z" id="shoe"></path>
                            </g>
                            <path d="M82.6799999,2.09618376e-07 C98.6130998,-4.56140122 113.688655,-4.56140122 127.906667,2.09618376e-07 C132.853333,22.583399 144.872984,31.5467676 146.986667,66.1708748 C122.96,78.1166992 93.2799999,57.651246 68.5466666,69.3008293 C61.4799999,53.0059734 71.3733332,13.7636139 82.6799999,2.09618376e-07 Z" id="Skirt" fill="#2B44FF"></path>
                        </g>
                        <g id="Body/Long-Sleeve-1-Body/Pointing-Forward" transform="translate(105.153232, 135.472095) rotate(-10.000000) translate(-105.153232, -135.472095) translate(14.820254, 69.327756)">
                            <path d="M168.355538,32.8300769 C171.413305,32.1990513 178.876441,26.6350803 180.162376,27.7647767 C182.064835,29.4360896 180.368486,34.5679889 178.369784,37.1208339 C174.634212,41.8920982 171.54132,43.5237266 163.896756,45.6603538 C159.899784,46.7774928 155.57835,49.0167018 150.932454,52.3779807 L150.319725,41.5540957 L161.079599,35.6289543 C162.589362,29.8702968 164.394099,26.9729215 166.493811,26.9368283 C168.106826,26.1845009 165.297771,33.4611025 168.355538,32.8300769 Z M149.842446,8.20193633 C147.868117,11.7097467 145.949456,15.4885667 146.958699,16.5711628 C147.967941,17.6537589 150.479594,16.1460642 151.684206,17.9442475 C152.48728,19.1430364 148.195504,21.0302 138.808879,23.6057384 L121.004005,39.8977831 L111.933879,30.1684264 L136.448197,16.767979 C140.521687,11.9307364 144.536407,8.17494779 148.492355,5.50061307 C149.701537,4.99719324 151.816775,4.69412592 149.842446,8.20193633 Z" id="Skin" fill="#915B3C"></path>
                            <path d="M100.818652,24.5832714 C109.307137,25.8389624 120.891136,25.8389624 134.161105,20.0811037 L137.223874,31.4184258 C127.599432,38.3718928 114.830658,43.3132359 104.65054,41.4018982 C96.6280467,39.8956587 94.053374,29.4710499 100.818652,24.5832714 Z" id="Sleeve" fill="#2026A2" transform="translate(117.078797, 30.948520) rotate(-9.000000) translate(-117.078797, -30.948520) "></path>
                            <path d="M100.596887,-9.98489288e-14 C101.677309,13.91424 107.115328,29.2489242 111.578223,44.3984859 C120.685643,46.6762914 135.960717,43.9910483 157.402347,36.3428999 C162.720518,47.3717425 165.178975,55.2344614 164.777718,59.9310567 C146.382754,69.5630169 130.616972,73.8568262 117.628449,74.1394357 C118.045728,81.8624168 117.107883,89.2139434 113.956417,95.9311992 C107.478377,109.738953 69.5458485,96.9514334 56.7917702,99.4683297 C48.8047913,73.467134 64.2478566,62.9003531 64.2602823,46.2632725 C64.2738898,28.0438965 78.8680372,-9.98489288e-14 81.0152737,-9.98489288e-14 L81.0152737,-9.98489288e-14 Z" id="Clothes" fill="#1F28CF"></path>
                        </g>
                    </g>
                </g>
            </g>
        </g>
    </g>
</svg>