<?xml version="1.0" encoding="UTF-8"?>
<svg width="193px" height="319px" viewBox="0 0 193 319" version="1.1" xmlns="http://www.w3.org/2000/svg" xmlns:xlink="http://www.w3.org/1999/xlink">
    <!-- Generator: sketchtool 57.1 (101010) - https://sketch.com -->
    <title>6FFCC5B7-5EEF-4DBC-9765-7A5884CF2FA4</title>
    <desc>Created with sketchtool.</desc>
    <g id="Inner-Page" stroke="none" stroke-width="1" fill="none" fill-rule="evenodd">
        <g id="Team-Page" transform="translate(-1068.000000, -311.000000)">
            <g id="Banner">
                <g id="banner-content" transform="translate(315.000000, 197.000000)">
                    <g id="humaaan-8" transform="translate(737.000000, 104.000000)">
                        <g id="Head/Front-Head/Front/Curly" transform="translate(63.000000, 0.000000)">
                            <g id="Head" transform="translate(41.691176, 23.846154)" fill="#B28B67">
                                <path d="M29.4489033,7.02610208 C33.922838,15.3346571 33.3912183,36.4099959 27.6090562,37.8949664 C25.3031115,38.4871774 20.3907339,37.0364743 15.3911079,34.0339775 L18.5294118,56.1538462 L0,56.1538462 L6.37882477,26.5307063 C2.82132257,22.370158 0.413546722,17.2713703 0.815893493,11.5580412 C1.97518142,-4.90386186 24.9749685,-1.28245294 29.4489033,7.02610208 Z"></path>
                            </g>
                            <path d="M79.3488858,19.3541829 C78.9651801,18.0103839 77.933109,16.8598118 76.5422204,16.5184693 C76.2049319,16.4356722 75.856599,16.40223 75.5095385,16.4161727 C75.3850466,16.4211234 75.3501319,16.4568893 75.2919577,16.3701518 C75.2487978,16.3058439 75.2478308,16.1487364 75.230068,16.0731632 C75.1747949,15.8381588 75.1056779,15.6060843 75.0203761,15.3800213 C74.7293522,14.6089825 74.2402916,13.9266007 73.6507111,13.3517693 C72.5479453,12.2763663 71.0579111,11.5341726 69.5098553,11.3998987 C68.6625879,11.3264472 67.8214789,11.4636005 67.0204761,11.7382102 C66.6057747,11.8803646 66.2036446,12.0573757 65.8119991,12.253078 C65.6940728,12.3119807 65.3114868,12.6004825 65.1931534,12.5817913 C65.0624522,12.5611804 64.7997774,12.2375694 64.6935064,12.1563383 C63.3799289,11.1522146 61.7578193,10.7574253 60.1216624,10.7692308 C58.2748974,10.7830879 56.4965876,10.8750285 54.9563698,11.996705 C54.6303294,12.2341847 54.3198123,12.494195 54.0241568,12.7679459 C53.8684657,12.9120705 53.7176605,13.0616004 53.5738281,13.2173439 C53.4870503,13.3113053 53.4025628,13.4073884 53.3212308,13.5060478 C53.1832006,13.6735112 53.2053404,13.7285241 53.0121388,13.6116785 C52.270888,13.1629878 51.4119145,12.9531407 50.5467317,13.0590746 C50.0329864,13.1220186 49.5331358,13.2756909 49.0585297,13.4779604 C48.8969346,13.5468149 48.5228991,13.8214751 48.3506667,13.8241525 C48.1798085,13.8267794 47.8110154,13.5721744 47.6350166,13.5074623 C46.6844302,13.1578351 45.6598408,13.0716533 44.6606994,13.2332062 C43.6300534,13.3999119 42.6176282,13.8096036 41.7444038,14.3757461 C41.3244091,14.6480825 40.9579572,14.9498197 40.6636251,15.3547629 C40.5365375,15.5296018 40.421665,15.714544 40.277629,15.8766526 C40.1932942,15.9715738 40.0263041,16.0689703 39.9810575,16.1890994 C40.0081342,16.1171634 38.8539124,15.6738274 38.7449948,15.6454874 C38.1647283,15.4944925 37.5738755,15.5251058 37.0056714,15.7114119 C35.9372096,16.0617464 35.0183314,16.8473846 34.263135,17.652876 C33.8752559,18.0666091 33.5358298,18.5239383 33.2477069,19.0111734 C33.1096258,19.2445613 32.9833526,19.4846175 32.8678184,19.7297758 C32.8118327,19.8485409 32.7747295,19.997111 32.700981,20.1041057 C32.6059071,20.2419663 32.5420325,20.2445931 32.369851,20.3047082 C31.4954051,20.6099311 30.6982704,21.126567 30.0912326,21.8246596 C29.477222,22.5309358 29.0788073,23.4006847 28.9117663,24.3166059 C28.9019434,24.3705579 28.8960903,24.5941455 28.8643821,24.6233443 C28.8209168,24.6635557 28.6450708,24.6457738 28.5785496,24.6535534 C28.3481938,24.6804789 28.1194667,24.7205387 27.8937934,24.7737835 C27.4777687,24.8718872 27.0728393,25.0162644 26.6897953,25.2050965 C25.1966055,25.9411777 24.1288053,27.3211468 23.6062041,28.8739341 C23.0578496,30.5035071 23.0675707,32.3704588 23.7229598,33.9696206 C23.8288237,34.2279133 23.9547915,34.4786285 24.1027465,34.7158052 C24.193596,34.8613948 24.2229122,34.8617484 24.1639236,35.0145114 C24.0981658,35.1844501 23.978051,35.3495897 23.8999764,35.5156387 C23.6452414,36.0575331 23.467156,36.6322634 23.3546756,37.2192693 C23.1701263,38.1821713 23.0786661,39.1940745 23.2607214,40.1643014 C23.3452598,40.6148108 23.4925531,41.0552168 23.7172594,41.4564722 C23.8318266,41.6610655 23.9658869,41.8551008 24.1172519,42.0345872 C24.1958355,42.1277908 24.2793051,42.2168015 24.3665919,42.302074 C24.416521,42.3507723 24.4819733,42.3934085 24.5244207,42.4478152 C24.6280451,42.5804724 24.6498287,42.4714065 24.5963878,42.6661995 C24.5216723,42.938536 24.3522901,43.2072351 24.2485638,43.4722466 C24.141682,43.7453408 24.0450812,44.0221732 23.9567256,44.3017335 C23.7777749,44.8678255 23.6264608,45.4441723 23.5318449,46.0304205 C23.3501459,47.1559868 23.3820577,48.3553076 23.9164159,49.3883269 C24.1448885,49.8301979 24.4726594,50.2178138 24.8702088,50.519349 C25.0647846,50.6668582 25.2755453,50.7940091 25.496638,50.8984275 C25.6102381,50.9521774 25.755292,50.9752131 25.8071042,51.0846832 C25.8628863,51.2023875 25.7800784,51.436129 25.7611959,51.5677254 C25.5969033,52.7125386 25.5145025,53.9145368 25.8560663,55.0364153 C26.1706551,56.0697377 26.8633001,56.9820722 27.7625833,57.5861024 C29.5071489,58.757841 31.8587524,58.6917649 33.6918263,57.7537173 C34.1696389,57.5091652 34.6166594,57.2055588 35.0154303,56.8474448 C36.0308584,58.2093794 38.1203978,58.1662885 39.6044772,57.778218 C41.4534308,57.2947716 42.9370521,56.0138155 43.7918521,54.3307957 C44.960681,55.7484504 47.4136695,55.2884944 48.2241899,53.750559 C48.4225829,53.3741579 48.5402547,52.9593134 48.5981745,52.5395183 C48.6286612,52.3187596 48.6092189,52.0960813 48.6321221,51.8770907 C48.6613365,51.5980355 48.8484306,51.326861 48.955974,51.0568989 C49.1654115,50.5315235 49.295451,49.9888209 49.3010496,49.4221227 C49.3039507,49.1262454 49.2663385,48.8378952 49.2380911,48.5443922 C49.212694,48.280189 49.2862388,48.0340203 49.3280245,47.7732523 C48.8538256,47.8510483 48.2761039,47.7236447 47.829338,47.586643 C47.3909189,47.4522176 46.9802892,47.0981449 46.6708409,46.7747865 C45.9523407,46.0239039 45.5134127,45.0395828 45.2132275,44.0599093 C44.5542757,41.9097095 44.8243813,39.3299649 46.9950491,38.149891 C48.0062528,37.6001665 51.0356915,37.6019696 52.2400799,37.8736622 C53.5064417,38.1593351 54.942068,40.9433725 55.0127118,41.2050498 C55.0564315,41.3670069 55.0344444,41.5674578 55.1837736,41.6753618 C55.5119516,41.9126395 56.0531808,41.5008766 56.2952426,41.2976472 C56.7129469,40.9469086 57.0108927,40.4802339 57.2689359,40.007194 C57.8311852,38.97665 58.2844658,37.8714926 58.6046532,36.7432995 C58.8514993,35.8735001 59.0093281,34.9765732 59.3319585,34.1289508 C59.6530111,33.2855212 60.1591219,32.5316581 60.9460265,32.0538696 C61.802048,31.5341016 62.7832739,31.2603507 63.7230195,30.9337087 C64.65452,30.6099966 65.5699372,30.2143486 66.2920002,29.5274708 C66.4507452,29.3764254 66.6049603,29.2159333 66.7327604,29.0381139 C66.8336365,28.8977276 66.933342,28.6289779 67.0870482,28.5399672 C67.3260054,28.4015004 67.6747455,28.7615846 67.8813836,28.8923223 C68.9008325,29.5374226 69.7513573,30.4371279 70.4373349,31.419984 C71.1194954,32.3974853 71.6792405,33.3380588 72.134099,34.4295766 C72.4714892,35.2391094 72.6820565,36.2758669 73.2754542,36.9393049 C73.5403684,37.2355358 75.5095385,37.4147474 76.1473684,37.1561233 C76.7851984,36.8974991 77.5000341,36.2259563 77.7141031,35.8051003 C77.9332617,35.374343 77.9856338,34.9011515 77.891985,34.4295766 C77.8369154,34.152138 77.724435,33.8929865 77.6629016,33.6204986 C77.6110894,33.3916067 77.5640614,33.1752429 77.4522427,32.9655474 C77.2403113,32.5681818 76.8782364,32.2825595 76.4415988,32.1631376 C76.8959992,31.7457168 77.2725285,31.2463576 77.5330657,30.6881462 C77.803782,30.1082126 78.0332217,29.4029467 78.0983178,28.7664343 C78.1512497,28.2494447 78.0695615,27.7138144 77.7855103,27.2695186 C77.4875137,26.80345 76.9596193,26.499389 76.5028777,26.2086645 C77.2005614,25.6647999 77.7976745,25.0033826 78.2885674,24.2710902 C79.2432255,22.8470198 79.8337221,21.0519536 79.3488858,19.3541829 Z" id="hair" fill="#191847"></path>
                        </g>
                        <g id="Bottom/Skinny-Jeans-1-Bottom/Standing/Skinny-Jeans-Walk" transform="translate(0.000000, 145.000000)">
                            <polygon id="Leg" fill="#1F28CF" points="98.9866667 0 136.169801 97.9487502 162.232441 170.142259 177.093333 170.142259 141.267652 7.55583415e-14"></polygon>
                            <path d="M89.796859,0 C89.3926768,33.6082458 89.684884,78.8562937 88.743148,80.9512607 C88.115324,82.3479054 68.587608,98.2608538 30.16,128.690106 L37.8198514,141.656904 C83.4422651,112.367643 107.419712,95.7718763 109.752191,91.8696045 C113.250911,86.0161968 130.828203,32.1523732 139.973333,0 L89.796859,0 Z" id="Leg" fill="#2B44FF"></path>
                            <g id="Left-Shoe-Accessories/Shoe/Flat-Pointy" transform="translate(43.693333, 145.506276) rotate(50.000000) translate(-43.693333, -145.506276) translate(20.106667, 130.108787)" fill="#191847">
                                <path d="M0,30.7949791 L0.773333315,14.6276151 L17.0133329,14.6276151 C24.7138793,20.0167364 34.7672124,24.3793585 47.1733322,27.7154812 L47.1733322,30.7949791 L17.7866662,30.7949791 L7.73333315,29.2552301 L7.73333315,30.7949791 L0,30.7949791 Z" id="Shoe"></path>
                            </g>
                            <g id="Right-Shoe-Accessories/Shoe/Flat-Pointy" transform="translate(160.853333, 153.205021)" fill="#191847">
                                <path d="M0,30.7949791 L0.773333315,14.6276151 L17.0133329,14.6276151 C24.7138793,20.0167364 34.7672124,24.3793585 47.1733322,27.7154812 L47.1733322,30.7949791 L17.7866662,30.7949791 L7.73333315,29.2552301 L7.73333315,30.7949791 L0,30.7949791 Z" id="Shoe"></path>
                            </g>
                        </g>
                        <g id="Body/Long-Sleeve-1-Body/Hoodie" transform="translate(17.000000, 63.000000)">
                            <path d="M52.861745,71.6195904 L69.0214576,71.6685037 C59.0148801,103.75903 53.6130805,120.786144 52.8160589,122.749847 C51.0227603,127.168178 54.8032596,133.891424 56.4192916,137.504816 C51.1433094,139.85998 51.7130251,131.154727 45.0574104,134.243422 C38.9824739,137.062638 34.3586418,142.16519 27.3466879,137.859771 C26.4846094,137.330445 25.5411761,135.335389 27.8263327,133.773668 C33.5194911,129.882852 41.7247505,123.074787 42.8345894,120.835276 C44.348053,117.781302 47.6904382,101.376074 52.861745,71.6195904 L52.861745,71.6195904 Z M147.561406,71.011769 L172.228286,89.043768 C178.919163,90.8399326 184.509005,93.0752901 188.997813,95.7498404 C190.058072,96.7117182 191.339314,98.6598784 186.941326,98.3241427 C182.543337,97.9884069 177.902058,97.8322033 177.294868,99.3259266 C176.687677,100.81965 179.348738,102.605205 178.121572,104.620722 C177.303461,105.9644 173.440609,102.596529 166.533015,94.5171101 L142.104547,84.4359504 L147.561406,71.011769 Z" id="Skin" fill="#B28B67"></path>
                            <path d="M94.9253265,7.37735161 L101.487906,5.65923093 C128.076225,24.7671033 141.818825,64.7278755 174.020829,83.7258789 L167.518623,93.361696 C114.383085,91.4605124 96.9761582,42.7740837 94.9253265,7.37735161 Z" id="Coat-Back" fill="#E87613" transform="translate(134.473078, 49.510463) rotate(5.000000) translate(-134.473078, -49.510463) "></path>
                            <path d="M69.609375,87.7860963 C96.425811,87.7860963 116.151419,87.7860963 128.7862,87.7860963 C131.490279,87.7860963 130.980747,83.8985869 130.589856,81.9369283 C126.078501,59.2970179 108.467884,34.89229 108.467884,2.66494739 L91.3985015,0 C77.2799297,22.6075432 72.3974828,50.4420064 69.609375,87.7860963 Z" id="Shirt" fill="#DDE3E9"></path>
                            <path d="M90.1132278,6.13592337e-08 C90.6888414,6.13592341e-08 91.2162218,0.0357912662 91.695369,0.107373676 L97.0444322,0.411778353 C112.222505,51.6269954 116.518447,85.9674431 109.932259,103.433121 L109.729347,103.957219 L63.1524296,103.957559 C60.3928584,110.364155 57.7521798,115.754416 55.2303938,120.128342 L55.2303938,120.128342 L42.5390639,120.128342 C41.3446236,81.6770794 50.5267031,49.0415129 70.0853025,22.2216427 C67.6065524,21.5132983 65.6428786,19.8583776 64.1953137,17.2578152 C57.9564243,6.04959862 60.2095793,-0.121354813 66.8769733,-2.14978205 C73.5443674,-4.17820929 79.4902867,6.1359223e-08 90.1132278,6.13592337e-08 Z" id="Coat-Front" fill="#FF9B21"></path>
                            <path d="M80.4375025,103.957219 L63.152431,103.957559 C66.3715653,96.4840444 69.7524887,87.6274987 73.2952014,77.3879217 C74.7594849,89.589894 77.1404258,98.4469608 80.4375025,103.957219 Z" id="Shade" fill-opacity="0.1" fill="#000000"></path>
                        </g>
                    </g>
                </g>
            </g>
        </g>
    </g>
</svg>