<?xml version="1.0" encoding="UTF-8"?>
<svg width="270px" height="321px" viewBox="0 0 270 321" version="1.1" xmlns="http://www.w3.org/2000/svg" xmlns:xlink="http://www.w3.org/1999/xlink">
    <!-- Generator: sketchtool 57.1 (101010) - https://sketch.com -->
    <title>27B070D3-A234-49B3-B1BF-9B888C7FC167</title>
    <desc>Created with sketchtool.</desc>
    <g id="Inner-Page" stroke="none" stroke-width="1" fill="none" fill-rule="evenodd">
        <g id="Services-Single" transform="translate(-1332.000000, -294.000000)">
            <g id="Banner">
                <g id="banner-content" transform="translate(315.000000, 197.000000)">
                    <g id="A-Human/Standing-A-Human/Sitting" transform="translate(1167.500000, 257.500000) scale(-1, 1) translate(-1167.500000, -257.500000) translate(1037.000000, 104.000000)">
                        <g id="Head/Front-Head/Front/Airy" transform="translate(71.340000, 0.000000)">
                            <g id="Head" transform="translate(46.980000, 26.960340)" fill="#B28B67">
                                <path d="M33.1847069,7.94367532 C38.2261922,17.3372854 37.6271327,41.1649565 31.1114621,42.8438566 C28.5130311,43.5133972 22.9776112,41.8732992 17.3438351,38.4787959 L20.8799999,63.4872533 L0,63.4872533 L7.18700556,29.9942864 C3.17876785,25.2906104 0.466046481,19.5263764 0.919395408,13.0674626 C2.22574729,-5.54428131 28.1432216,-1.44993478 33.1847069,7.94367532 Z"></path>
                            </g>
                            <path d="M68.2636358,24.0775462 C65.5117123,23.6264223 58.1020368,23.3162622 56.7355603,23.3164624 C55.8623173,23.3164624 54.9159879,23.515894 54.3987916,22.7143633 C53.9752498,22.0580011 54.1304087,20.9479121 54.0040051,20.1862276 C53.8572332,19.3014002 53.6487571,18.427986 53.4378848,17.5567744 C52.8378173,15.0776957 51.9304274,12.719157 50.6608004,10.5047857 C48.2785025,6.35036168 44.7885259,3.09618299 40.3825727,1.20258418 C35.5171335,-0.888243654 30.0114892,-1.36699958 24.778022,-0.942907128 C19.1775251,-0.489180269 14.1078034,1.35896576 8.82002055,3.09818531 C3.78105106,4.75550977 -1.49674729,5.40786727 -6.76695744,4.59852748 C-12.0769058,3.78318072 -16.089071,0.906240068 -20.5679109,-1.82433062 C-25.1529857,-4.61977664 -30.3928431,-6.44809966 -35.8132198,-6.02781163 C-40.8729571,-5.63535591 -45.5363103,-3.54693087 -49.7202085,-0.757091362 C-53.6347254,1.85313959 -56.864706,4.99358622 -58.6882722,9.41351856 C-60.6500237,14.1680394 -60.6482265,19.3868995 -57.4222396,23.5887786 C-52.746306,29.679451 -44.0655957,31.2544799 -36.8436186,31.0978981 C-32.6663101,31.0075932 -28.5636855,30.2453081 -24.6198143,28.8586979 C-19.3601877,27.0093505 -14.8150508,23.8749109 -9.89449727,21.3317578 C-7.58528577,20.1383721 -5.19839497,19.1582339 -2.69648292,18.4522141 C-0.268655735,17.7668183 2.12262823,17.4524532 4.32081228,18.9185556 C6.64619865,20.4695566 8.72996051,21.9931258 11.3902265,22.9640532 C13.9422606,23.8955348 16.6454599,24.4165398 19.3644346,24.3955154 C24.6546138,24.354668 29.8695099,22.7069547 35.0075254,21.6032731 C39.1974144,20.7034282 43.6804478,19.8065868 47.9520098,20.6715912 C49.73444,21.0326104 52.3379941,21.7778758 52.9817936,23.629626 C42.1464316,25.5927055 37.8908547,38.9882602 40.9455078,48.8218788 C42.5941459,54.1294419 52.5043356,60.333927 56.3575477,57.5436609 C58.7986685,55.7759471 57.3166573,53.455259 56.3575477,51.9232801 C54.520802,48.9894734 53.8923786,45.2208974 57.291097,43.1783256 C60.2227412,41.41668 63.3051632,45.6001208 63.3634726,45.5955155 C64.1692205,45.5320418 71.1315823,41.5959306 75.9285228,35.8521461 C80.6607225,36.1325655 81.3786657,33.0133924 80.2487091,30.462495 C79.1187525,27.9115976 72.0659271,24.7012704 68.2636358,24.0775462 Z" id="hair" fill="#191847"></path>
                        </g>
                        <g id="Bottom/Skinny-Jeans-1-Bottom/Sitting/Sweat-Pants" transform="translate(0.000000, 162.631728)">
                            <g id="Seat-Objects/Seat/Ball" transform="translate(8.700000, 36.526913)" fill="#C5CFD6">
                                <ellipse id="Ballsy-Ball" cx="100.919998" cy="50.8767716" rx="66.9899988" ry="63.9220976"></ellipse>
                            </g>
                            <path d="M225.403874,32.6136379 C229.822527,44.0497702 237.538074,81.6235194 246.809932,138.377056 L236.217917,141.465695 C225.068852,116.801218 217.005634,95.3245349 213.768846,83.9934775 C208.226678,64.5919561 204.010323,47.5198094 202.944471,41.1442987 C200.402811,25.9410759 222.484456,25.0577527 225.403874,32.6136379 Z M191.977331,64.5002865 C159.74006,69.1381422 114.038105,73.9262387 110.127029,74.4636946 C104.645489,75.2169621 100.502369,66.6002007 106.927657,64.0602479 C117.151376,60.0187541 152.954445,47.3712344 170.222517,43.7941977 C175.184669,42.7663008 179.994135,41.8112886 184.515881,40.9482406 C197.95611,38.3829567 204.921972,62.6379894 191.977331,64.5002865 Z" id="Skin" fill="#B28B67"></path>
                            <path d="M144.039102,0 C197.559492,13.6329939 224.908368,22.3698379 226.08573,26.2105321 C226.099579,26.2557089 226.112169,26.3009505 226.1235,26.3462567 C226.149246,26.3773728 226.172734,26.4089931 226.195857,26.4407821 C236.803519,41.0239885 243.162001,112.216297 245.247354,117.54708 L224.923445,120.576407 C217.146325,91.7552135 192.270722,71.6755781 192.928368,37.1576674 C192.749952,36.1456065 192.704742,35.185824 192.778046,34.2778702 L137.46,6.12844846 L137.46,0 L144.039102,0 Z" id="Leg-Back" fill="#1F28CF"></path>
                            <path d="M146.979332,-4.26325641e-14 C154.733494,2.22667898 195.031409,19.1199588 215.939757,28.1051441 C229.786796,34.0557916 225.410148,55.5173601 217.564135,61.079722 C217.520579,61.4189622 217.379749,61.6499822 217.129764,61.7536022 C174.989994,79.220754 141.651267,70.0502296 130.514866,72.9781676 L125.362021,56.7232857 L142.051099,50.9978904 C136.991405,49.9854327 132.331949,49.0818333 128.344752,48.3827317 C102.581082,43.865417 95.0681764,30.0792615 99.5102073,-4.26325641e-14 L146.979332,-4.26325641e-14 Z" id="Leg-Front" fill="#2B44FF"></path>
                            <g id="Right-Shoe-Accessories/Shoe/Flat-Sneaker" transform="translate(125.244589, 81.169600) rotate(64.000000) translate(-125.244589, -81.169600) translate(98.709589, 63.775832)" fill="#E4E4E4">
                                <path d="M2.22899895,22.3636115 C1.32299965,24.8250799 0.869999995,26.6778527 0.869999995,27.92193 C0.869999995,29.4902271 1.13136035,31.7787627 1.65408106,34.7875366 C3.4740676,34.7875366 19.830593,34.7875366 50.7236574,34.7875366 C51.9988017,30.5734677 51.2627145,28.2984275 48.5153956,27.962416 C45.7680767,27.6264045 43.4858323,27.323013 41.6686622,27.0522416 L18.9835549,16.9427295 C18.4790958,16.7179197 17.8879065,16.9446202 17.6630967,17.4490793 C17.659286,17.4576302 17.6555956,17.4662342 17.6520266,17.4748887 L16.2369953,20.9061746 L16.2369953,20.9061746 C13.6936966,22.0923923 11.6270023,22.6855012 10.0369125,22.6855012 C8.79083969,22.6855012 7.08684734,22.2002817 4.92493548,21.2298427 L4.92493929,21.2298342 C3.917232,20.7774946 2.7336301,21.227709 2.28129047,22.2354163 C2.2623857,22.2775317 2.24494474,22.3202891 2.22899895,22.3636115 Z" id="shoe"></path>
                            </g>
                            <g id="Right-Shoe-Accessories/Shoe/Flat-Sneaker" transform="translate(228.810000, 114.798870)" fill="#E4E4E4">
                                <path d="M2.22899895,22.3636115 C1.32299965,24.8250799 0.869999995,26.6778527 0.869999995,27.92193 C0.869999995,29.4902271 1.13136035,31.7787627 1.65408106,34.7875366 C3.4740676,34.7875366 19.830593,34.7875366 50.7236574,34.7875366 C51.9988017,30.5734677 51.2627145,28.2984275 48.5153956,27.962416 C45.7680767,27.6264045 43.4858323,27.323013 41.6686622,27.0522416 L18.9835549,16.9427295 C18.4790958,16.7179197 17.8879065,16.9446202 17.6630967,17.4490793 C17.659286,17.4576302 17.6555956,17.4662342 17.6520266,17.4748887 L16.2369953,20.9061746 L16.2369953,20.9061746 C13.6936966,22.0923923 11.6270023,22.6855012 10.0369125,22.6855012 C8.79083969,22.6855012 7.08684734,22.2002817 4.92493548,21.2298427 L4.92493929,21.2298342 C3.917232,20.7774946 2.7336301,21.227709 2.28129047,22.2354163 C2.2623857,22.2775317 2.24494474,22.3202891 2.22899895,22.3636115 Z" id="shoe"></path>
                            </g>
                        </g>
                        <g id="Body/Long-Sleeve-1-Body/Jacket-2" transform="translate(19.140000, 71.314448)">
                            <path d="M44.8122063,71.3144481 L62.6400003,74.8504659 C44.7111119,108.251035 35.0961711,125.953356 33.7951779,127.957429 C30.8679433,132.466593 33.5991125,140.730574 34.6079949,145.082443 C28.278832,146.555208 30.7748594,137.032456 22.765426,139.02072 C15.4547867,140.835515 9.25624601,145.492927 2.43937422,139.211664 C1.60127989,138.43942 0.987755218,136.025603 3.84524333,134.787567 C10.9642883,131.70317 21.4820776,125.927699 23.187538,123.685428 C25.513238,120.62769 32.7214608,103.170697 44.8122063,71.3144481 Z M221.143707,44.5760248 C218.340625,48.6687518 215.576335,53.0997063 216.696373,54.5340678 C217.81641,55.9684294 221.060916,54.3852848 222.342721,56.717838 C223.197257,58.2728735 217.72819,60.1330208 205.935518,62.2982798 L182.325849,80.3933733 L172.260001,67.5026791 L203.784074,53.6634033 C209.306357,48.1624923 214.638908,43.9815456 219.781727,41.1205631 C221.319528,40.631154 223.946788,40.4832977 221.143707,44.5760248 Z" id="Skin" fill="#B28B67"></path>
                            <path d="M107.253819,8.59006889 L114.635727,6.64964565 C132.344522,21.0508724 142.334064,58.4966952 153.653028,62.5789903 C164.35465,66.4386352 178.531482,60.5581505 195.317759,52.8240312 L201.662572,64.2137406 C187.406555,82.6204186 155.119797,99.941585 140.803363,92.9173416 C117.91436,81.6870365 108.790723,35.2236043 107.253819,8.59006889 Z" id="Coat-Back" fill="#DB2721" transform="translate(154.458195, 50.582614) rotate(5.000000) translate(-154.458195, -50.582614) "></path>
                            <path d="M78.3000004,99.1444766 C108.464428,99.1444766 130.652749,99.1444766 144.864963,99.1444766 C147.906642,99.1444766 147.333495,94.753974 146.893802,92.5385023 C141.819212,66.9692816 122.009935,39.406899 122.009935,3.00975696 L102.809467,0 C86.9282124,25.5326656 81.4361993,56.9685466 78.3000004,99.1444766 Z" id="Shirt" fill="#DDE3E9"></path>
                            <path d="M105.036374,-8.52651283e-14 L109.173166,0 C126.410063,58.7360994 131.16197,97.872077 123.428888,117.407933 L123.428888,117.407933 L63.5100003,117.407933 C64.4580538,103.112095 67.4980488,87.9936586 71.6618325,73.2530154 C58.0919408,97.7237035 46.685362,115.340672 37.4425775,126.104817 L23.4900001,123.372969 C32.4776158,67.6536445 58.5045515,26.5293215 101.570807,-8.52651283e-14 L105.036374,-8.52651283e-14 Z" id="Coat-Front" fill="#FF4133"></path>
                        </g>
                    </g>
                </g>
            </g>
        </g>
    </g>
</svg>